
<svg width="275px" height="159px" viewBox="0 0 275 159" version="1.1" xmlns="http://www.w3.org/2000/svg" xmlns:xlink="http://www.w3.org/1999/xlink">
    <!-- Generator: Sketch 43.1 (39012) - http://www.bohemiancoding.com/sketch -->
    <desc>Created with Sketch.</desc>
    <defs>
        <polygon id="path-1" points="0 159.128952 274.943586 159.128952 274.943586 0.999428571 0 0.999428571"></polygon>
    </defs>
    <g id="Page-1" stroke="none" stroke-width="1" fill="none" fill-rule="evenodd">
        <g id="Artboard-Copy-15" transform="translate(-210.000000, -155.000000)">
            <g id="Page-1" transform="translate(210.000000, 154.000000)">
                <path d="M141.64339,27.9462857 L141.64339,68.0262857 C142.440935,68.0910476 143.126177,68.1234286 143.704825,68.1234286 C146.27448,68.1234286 148.059914,67.199619 149.057321,65.3500952 C150.054728,63.5024762 150.553432,59.6605714 150.553432,53.8224762 L150.553432,40.8853333 C150.553432,35.5024762 149.976687,31.999619 148.825101,30.3786667 C147.669708,28.7577143 145.277073,27.9462857 141.64339,27.9462857 Z M113.653183,0.999619048 L141.841349,0.999619048 C149.466563,0.999619048 155.32728,1.87580952 159.431114,3.62628571 C163.527335,5.37866667 166.609018,7.90628571 168.668549,11.2148571 C170.731887,14.5234286 172.129018,18.5272381 172.858039,23.2281905 C173.588963,27.9310476 173.956328,35.2110476 173.956328,45.0681905 L173.956328,58.784381 C173.956328,68.8377143 173.246342,76.1653333 171.828273,80.7691429 C170.408301,85.3748571 167.806287,88.9081905 164.016521,91.3729524 C160.226756,93.8377143 155.273983,95.0700952 149.154397,95.0700952 L141.64339,95.0700952 L141.64339,158.496762 L113.653183,158.496762 L113.653183,0.999619048 Z" id="Fill-1" fill="#F5F5F5"></path>
                <g id="Group-5" transform="translate(0.000000, 39.128952)" fill="#F5F5F5">
                    <path d="M274.942444,103.91219 C272.606913,104.415048 270.200954,104.47981 267.817837,104.441714 C265.42901,104.403619 263.043989,104.241714 260.668486,103.997905 C255.915575,103.514095 251.196927,102.763619 246.50112,101.914095 C237.107603,100.19981 227.79403,98.0855238 218.531851,95.7864762 C213.898858,94.6455238 209.29061,93.3998095 204.691879,92.123619 L201.24283,91.1502857 C200.135023,90.7769524 198.97963,90.6626667 197.843272,90.4074286 C196.712623,90.156 195.553423,90.0074286 194.39232,89.8702857 C193.23312,89.7045714 192.072017,89.5826667 190.905203,89.5388571 C186.245561,89.236 181.557368,89.523619 176.990996,90.3998095 C172.466499,91.2855238 167.89061,92.7769524 164.017092,94.9426667 L161.894748,96.1293333 L161.875713,93.7369524 L161.677754,70.8417143 L161.611134,47.9464762 L161.481699,2.156 L163.284265,3.95980952 L133.478168,4.04742857 L103.672072,3.98838095 L105.499382,2.156 L105.345203,60.1521905 C105.333782,79.483619 105.192927,98.8169524 105.01781,118.148381 L105.008292,119.148381 L104.147934,119.409333 C103.323741,119.658857 102.845975,119.700762 102.227354,119.784571 C101.637286,119.870286 101.073865,119.885524 100.49712,119.936952 C99.3569545,119.99219 98.2263062,120.013143 97.1032717,119.99219 C94.8572028,119.967429 92.6339752,119.816952 90.4183614,119.63219 C85.9852303,119.255048 81.6034924,118.616952 77.2331752,117.944571 C68.498251,116.546476 59.8623062,114.716 51.275851,112.683619 C42.6513269,110.59981 34.3351614,107.710286 25.8381683,105.434095 C17.3544993,103.121714 8.73758897,101.264571 0.00076137931,100.133143 C8.76614069,100.980762 17.4801269,102.510286 26.0399338,104.649333 C34.6130648,106.71981 43.0377269,109.409333 51.5937269,111.249333 C60.218251,112.961714 68.8713269,114.550286 77.5529545,115.801714 C81.8985269,116.382667 86.2498097,116.925524 90.6029959,117.209333 C92.7786372,117.344571 94.9523752,117.447429 97.1108855,117.428381 C98.1920441,117.426476 99.2617821,117.384571 100.320099,117.314095 C100.837837,117.255048 101.376513,117.230286 101.875217,117.144571 C102.347272,117.087429 102.962086,116.95981 103.194306,116.887429 L102.322527,118.148381 C102.14741,98.8169524 102.006554,79.483619 101.995134,60.1521905 L101.840954,2.156 L101.835244,0.327428571 L103.672072,0.323619048 L133.478168,0.264571429 L163.284265,0.350285714 L165.094444,0.354095238 L165.088734,2.156 L164.957396,47.9464762 L164.892679,70.8417143 L164.69472,93.7369524 L162.551437,92.5312381 C171.476706,87.8912381 181.378444,86.4855238 191.070803,87.2207619 C192.287106,87.2874286 193.491989,87.4340952 194.691161,87.628381 C195.894141,87.7902857 197.095217,87.9655238 198.286775,88.2512381 C199.47072,88.5369524 200.700348,88.6912381 201.851934,89.0988571 L205.26672,90.1274286 C209.823575,91.4893333 214.405175,92.7750476 218.986775,94.0664762 C228.153782,96.6207619 237.377892,98.9921905 246.685754,100.967429 C251.339686,101.95219 256.022168,102.813143 260.731299,103.455048 C263.085865,103.788381 265.453754,104.03981 267.827354,104.169333 C270.197148,104.296952 272.591686,104.325524 274.942444,103.91219" id="Fill-3"></path>
                </g>
                <polygon id="Fill-6" fill="#931F80" points="146.450359 38.7125714 146.450359 43.8554286 160.829007 43.8554286 160.829007 43.8135238 165.6828 43.8135238 165.6828 43.8554286 165.760841 43.8554286 165.760841 38.7125714"></polygon>
                <mask id="mask-2" fill="white">
                    <use xlink:href="#path-1"></use>
                </mask>
                <g id="Clip-9"></g>
                <polygon id="Fill-8" fill="#931F80" mask="url(#mask-2)" points="160.828055 104.645143 165.681848 104.645143 165.681848 43.8565714 160.828055 43.8565714"></polygon>
            </g>
        </g>
    </g>
</svg>