
<svg width="469px" height="469px" viewBox="0 0 469 469" version="1.1" xmlns="http://www.w3.org/2000/svg" xmlns:xlink="http://www.w3.org/1999/xlink">
    <!-- Generator: Sketch 43.1 (39012) - http://www.bohemiancoding.com/sketch -->
    <desc>Created with Sketch.</desc>
    <defs>
        <polygon id="path-1" points="0 206.744026 0 0.286004502 300.790899 0.286004502 300.790899 206.744026 8.45495538e-16 206.744026"></polygon>
        <polygon id="path-3" points="144.92578 139.211561 144.92578 0.051608572 0.246590796 0.051608572 0.246590796 139.211561 144.92578 139.211561"></polygon>
        <polygon id="path-5" points="0 488.716219 468.744888 488.716219 468.744888 0 0 0"></polygon>
    </defs>
    <g id="Page-1" stroke="none" stroke-width="1" fill="none" fill-rule="evenodd">
        <g id="Artboard-Copy-14" transform="translate(-115.000000, 0.000000)">
            <g id="Page-1" transform="translate(115.000000, -10.000000)">
                <g id="Group-3" transform="translate(0.000000, 252.132224)">
                    <mask id="mask-2" fill="white">
                        <use xlink:href="#path-1"></use>
                    </mask>
                    <g id="Clip-2"></g>
                    <path d="M33.4616862,107.557985 C31.5220576,107.70107 31.5220576,107.70107 31.6523022,109.472164 C32.3794015,108.702669 32.9206932,108.130327 33.4616862,107.557985 M99.5912837,46.025833 C89.397255,55.158513 59.3920092,94.9231446 57.4186245,101.676542 C68.8917983,99.7172564 80.4169506,97.7493077 91.9803397,95.7747872 C94.4806773,79.4298801 97.0031206,62.94129 99.5912837,46.025833 M17.0006824,113.609994 C20.8536518,112.406463 24.7108034,111.215776 28.5497327,109.968931 C28.7761671,109.895446 28.8565245,109.371496 29.1931888,108.65816 C28.2755022,108.852923 27.7037404,108.895939 27.1929187,109.095781 C24.2358289,110.252712 21.2847136,111.425476 18.3542104,112.647528 C17.862806,112.852746 17.4831251,113.325317 17.0511671,113.673322 C16.2849346,113.873164 15.5187022,114.073006 14.7524697,114.272848 C14.8271512,114.470001 14.9021315,114.666856 14.976813,114.864009 C15.6513366,114.446104 16.3261589,114.0279 17.0006824,113.609994 M32.4534856,105.823931 C34.5170856,106.26902 34.8310468,104.885661 35.3777155,103.93574 C38.2568378,98.9331238 40.9764404,93.8355154 43.9645977,88.899513 C52.0033175,75.6209375 59.8631003,62.2204855 68.3409474,49.2244965 C75.7499525,37.8666724 84.7577397,27.7120811 94.3838901,18.1447677 C95.5817818,16.9543798 96.8743697,15.849425 98.1950378,14.7946547 C100.895522,12.6370206 103.660232,10.5934965 107.621639,12.4712326 C108.267784,10.8724983 108.930358,9.55396072 109.340808,8.16104258 C110.925849,2.78025027 114.84394,0.589458583 120.076427,0.317327245 C124.45844,0.0897047648 128.587433,1.09548546 132.265349,3.57035718 C134.212744,4.88053067 135.777472,6.50973409 135.894871,9.25106151 C131.985741,12.0951476 130.228335,16.4259491 128.577575,20.8030517 C125.264403,29.588921 123.319995,38.7377316 121.587384,47.9283627 C118.691533,63.2895942 116.819117,78.7965997 115.181202,94.3334769 C115.142069,94.7056785 115.176124,95.085348 115.176124,95.7434219 C118.269134,95.9328086 121.224133,96.1096492 124.178833,96.2951525 C130.047905,96.6634708 135.853945,97.4016009 141.564693,98.890706 C150.980838,101.346161 154.233667,108.838884 154.5542,116.725316 C154.636051,118.744644 154.283853,120.716774 152.196952,122.099237 C140.431027,115.339268 127.373709,113.20583 113.651127,112.027092 C112.743597,120.176992 112.37945,128.155131 111.965416,136.462156 C119.154259,136.686792 125.746846,134.841616 132.54406,133.923956 C128.140837,135.398424 123.737614,136.873191 119.334391,138.347659 C119.354705,138.471627 119.375018,138.595893 119.395331,138.719861 C120.208464,138.614712 121.035039,138.570801 121.832638,138.394558 C138.904537,134.625046 154.776154,127.891961 169.675417,118.830077 C174.623218,115.821099 179.212547,112.278014 183.029968,107.891054 C184.911644,105.728939 186.476969,103.281251 188.075452,100.889423 C188.653488,100.024338 188.911288,98.9453712 189.353104,97.871483 C188.496656,97.4102637 187.915634,97.041348 187.292193,96.7695154 C177.460817,92.4856125 167.300246,89.5315985 156.518026,88.9317744 C151.553795,88.6551623 146.607488,88.1867738 141.780672,86.7944531 C135.991957,85.1246241 131.770359,81.6804152 129.030742,76.3235203 C126.749072,71.8606858 125.096818,67.2027891 124.202731,62.2661892 C123.524324,58.5199772 124.015131,55.1050426 126.853925,52.3389216 C129.98577,49.2866296 132.991253,46.0700432 136.366261,43.3090004 C145.273676,36.0220939 155.091907,30.1788874 165.687424,25.6592967 C166.583005,25.2772374 167.452298,24.8333437 168.247507,24.1943877 C161.498388,25.2844067 155.333875,28.0783083 148.955177,30.9952814 C149.194158,30.5466082 149.236577,30.326155 149.366523,30.2440078 C159.827314,23.6038239 170.927677,18.7033688 183.465511,17.6937048 C186.983011,17.4105209 190.443753,17.7310444 193.796655,18.7744635 C199.278279,20.4807359 202.652988,24.3228361 204.252965,29.7337988 C205.174237,32.8488214 204.499414,34.5506131 201.844635,36.5045221 C198.544309,34.2596626 194.835326,34.8636687 191.243443,35.55729 C174.187675,38.8500493 160.310354,47.7437555 148.557572,60.2256522 C147.2145,61.651728 146.110707,63.3842875 145.224685,65.1404458 C143.995726,67.576783 144.67234,68.9368422 147.282609,69.5247176 C148.918433,69.8933346 150.625952,69.9960933 152.308377,70.0925789 C159.260331,70.4910676 166.218559,70.6956889 173.067751,72.2155618 C186.239781,75.1376131 196.17571,82.4797823 203.214892,93.8931678 C203.612496,94.5377995 204.065066,95.1483773 204.707626,96.09083 C211.178631,83.9787451 217.476077,72.1913657 223.737675,60.4706003 C223.592793,60.2543291 223.553361,60.1390243 223.475991,60.1004897 C223.427896,60.0768911 223.299145,60.1506742 223.24627,60.2137035 C222.992652,60.5166027 222.717824,60.8093456 222.512002,61.1433114 C218.655447,67.4100988 214.807258,73.6822631 210.760714,79.8833327 C210.947716,79.366552 211.097378,78.832147 211.327696,78.3350817 C216.93598,66.2328544 222.802363,54.2614653 229.783294,42.8770554 C233.326484,37.0989693 237.278332,31.6321464 241.948915,26.6680646 C247.94614,20.2940377 254.748731,18.73802 262.749513,22.3925258 C265.746035,23.7609491 268.771234,25.0475239 271.115338,27.4644445 C272.766995,29.1671324 272.928008,29.7582936 272.586863,32.372965 C268.508355,33.8752136 265.400707,36.8139931 262.439734,39.9176644 C255.814885,46.861345 250.255891,54.6354592 245.034457,62.649742 C231.747119,83.0443578 220.669459,104.640713 210.580582,126.750562 C206.866221,134.889709 203.589793,143.229594 200.166989,151.500176 C199.654375,152.738657 199.435708,154.099015 198.899793,156.068756 C207.227979,151.808751 214.920475,147.873451 222.61327,143.938449 L222.43732,143.504413 L218.946407,144.6718 C218.792264,144.481517 218.638121,144.291533 218.483979,144.100952 C218.736701,144.046286 219.01601,144.043299 219.238561,143.929488 C232.724551,137.048239 246.39844,130.616261 261.045878,126.533395 C266.1293,125.11658 271.256635,123.972493 276.565596,123.6681 C282.092925,123.350862 286.979188,124.813382 291.350149,128.175443 C294.685127,130.73993 297.866859,133.449594 299.863245,137.245094 C301.254413,139.890234 301.086529,141.364404 299.321356,143.541156 C292.292928,139.467848 284.609991,139.848713 276.981124,140.786386 C263.238826,142.476229 250.302791,147.084539 237.585721,152.346143 C215.77752,161.368596 195.259517,172.669365 176.547313,187.121003 C173.477305,189.491622 170.523202,192.020861 167.616298,194.590426 C166.548651,195.534372 165.615431,195.815166 164.455179,194.997876 C162.188146,193.400934 159.702147,192.022055 157.736828,190.110564 C154.552707,187.014062 154.729552,183.710848 158.086338,180.873632 C160.586377,178.760507 163.258781,176.807195 166.03783,175.077623 C171.950516,171.397726 177.982692,167.910502 183.964682,164.342624 C184.88924,163.791192 185.807225,163.229604 187.030509,162.48998 C179.822247,156.040677 181.619085,148.510316 184.416058,140.426432 C161.27972,152.047426 137.036005,157.931556 112.179901,162.064308 C112.080425,162.432029 111.887149,162.80214 111.895215,163.16777 C112.070866,171.446716 112.760624,179.67727 114.992109,187.680799 C115.677386,190.138942 116.735175,192.564227 118.030751,194.764578 C119.786663,197.746074 119.555449,201.020611 116.86303,203.215585 C116.032572,203.892777 115.032138,204.46721 114.014677,204.791916 C108.347245,206.600349 102.577947,207.288295 96.6464417,206.27415 C93.0470907,205.658494 90.5040353,203.788525 89.6574455,200.232297 C88.7627608,196.474136 87.7778608,192.643387 87.6431353,188.815924 C87.2864563,178.677762 87.3172251,168.524366 87.2945219,158.376645 C87.2828716,153.104287 87.3408245,147.823864 87.6287964,142.561363 C87.9272238,137.106788 88.534534,131.668941 89.0196652,126.22482 C89.4348945,121.570807 89.8680474,116.918287 90.3262932,111.902826 C89.1624563,111.902826 88.1064595,111.821575 87.0656977,111.915073 C74.0513958,113.083953 61.2578525,115.466522 48.6537015,118.904457 C47.4351977,119.23693 46.5043671,119.692473 45.8940697,120.897797 C40.3078913,131.933305 35.2480684,143.172837 32.8669225,155.402617 C32.2999404,158.31481 32.0980015,161.316321 31.9543143,164.28766 C31.7798582,167.891981 29.1313525,170.582826 25.5191563,170.035277 C20.0300639,169.203649 14.9514213,167.183126 10.7008474,163.48202 C8.02007924,161.147247 7.1800614,158.177401 8.49714484,154.842821 C11.2358659,147.908401 14.0842194,141.017593 16.899713,134.113343 C17.4466805,132.772103 18.0474187,131.452669 18.4208264,129.922341 C13.9623391,131.729281 9.71027159,133.756376 6.17186076,137.012991 C3.7232028,139.266812 1.0761907,138.618595 0.653493248,135.318966 C0.125046752,131.194279 0.00615375796,126.9979 -0.000119490446,122.832289 C-0.00489910828,119.545504 1.72771236,117.208939 4.88166268,116.023928 C10.6515576,113.856137 16.4139843,111.669826 22.1835805,109.50114 C22.8339073,109.256789 23.4958843,108.969722 24.1751875,108.885484 C29.0046926,108.289543 31.6287028,105.35853 33.715006,101.109577 C36.5585799,95.3174513 40.0928085,89.8640707 43.344741,84.2732802 C43.726513,83.6166999 44.1961104,83.0109015 44.9572646,82.5682026 C40.8148296,90.2727158 36.6723945,97.9769302 32.4534856,105.823931" id="Fill-1" fill="#FEFEFE" mask="url(#mask-2)"></path>
                </g>
                <path d="M200.854627,35.962918 C209.638071,47.6072119 216.712204,60.3050811 224.00381,73.0113145 C228.235564,69.6298362 232.176956,66.4801624 236.310131,63.176948 C226.263673,51.7029229 215.147178,41.8754269 200.854627,35.962918 M342.87888,176.016162 C336.072704,174.384868 329.690421,174.289876 323.658244,177.338882 C320.400337,178.985112 317.135261,180.901383 314.451207,183.333538 C309.894439,187.463004 305.55126,191.888499 301.556694,196.564617 C294.967393,204.279586 288.725511,212.292076 282.349202,220.188963 C282.209398,220.362219 282.210295,220.649286 282.030461,221.298996 C283.775619,220.424352 285.19666,219.762993 286.570202,219.015005 C292.763093,215.642189 297.879674,210.93829 302.765639,205.937167 C306.172311,202.450242 309.548215,198.921496 313.135916,195.627542 C319.044419,190.202241 325.956046,186.596127 333.863027,185.016809 C335.422377,184.705546 337.020263,184.576201 338.56647,184.216546 C339.156155,184.079435 339.923881,183.648685 340.140159,183.148632 C341.11311,180.896006 341.917579,178.570493 342.87888,176.016162 M313.166087,138.575252 C312.214644,138.389151 312.017784,138.301925 311.831677,138.321043 C300.552675,139.469312 289.349251,141.131972 278.260538,143.493331 C276.774674,143.809672 275.090755,144.452213 274.075684,145.501905 C270.12055,149.592538 267.268911,154.310776 267.248896,160.266599 C267.224102,167.739008 268.465309,174.910909 272.458679,181.508675 C270.781631,184.847138 269.097114,188.200537 267.274885,191.828158 C272.233141,192.683684 276.885502,193.486337 281.597309,194.299146 C281.690212,198.37574 281.958767,202.134199 284.888972,205.003377 C285.173359,204.882397 285.410249,204.854915 285.524362,204.721986 C286.300154,203.818068 287.06549,202.903694 287.806032,201.970801 C293.742915,194.492416 299.614675,186.956679 306.634739,180.426721 C312.533684,174.939884 319.046511,170.489895 326.986651,168.46758 C327.135416,168.429643 327.233697,168.192461 327.409348,167.983658 C326.517352,165.670392 325.608627,163.313514 324.687057,160.923776 C325.659112,160.507066 326.269409,160.24539 326.900618,159.974752 C325.89869,157.695241 324.821185,155.556725 324.0203,153.319333 C323.404327,151.598723 322.47499,150.843566 320.595107,150.759029 C313.068105,150.421179 306.270592,147.709724 299.811536,144.022359 C299.24306,143.697952 298.751058,143.240616 297.900884,142.603154 C303.032102,141.249069 307.765418,140.000431 313.166087,138.575252 M128.573064,14.3151838 C128.429974,14.4836602 128.286884,14.651838 128.144093,14.8203145 C128.472393,15.3075222 128.801589,15.7938337 129.128993,16.2816389 C133.397192,22.6413273 137.967702,28.8217855 141.867272,35.4001349 C148.968888,47.3813817 155.657665,59.6066804 162.546289,71.7145833 C169.293317,83.5736547 176.309497,95.2615613 184.879651,105.930544 C189.822074,112.083221 195.226328,117.77677 201.646849,122.428095 C208.553994,127.431608 216.129091,130.75633 224.736884,131.301787 C233.913451,131.882792 242.162474,129.65257 248.572838,122.679316 C254.673721,116.042717 255.06326,107.570202 249.734584,100.288672 C245.689533,94.7606126 240.095887,91.7459589 233.384407,90.8987971 C229.640772,90.4262265 225.821558,90.5409339 222.083001,90.0429724 C212.225039,88.7286169 203.744504,84.3219412 196.170602,78.0196065 C189.400572,72.3863982 183.70028,65.7387464 178.085424,59.0053627 C172.794686,52.6603114 167.588487,46.2384898 162.121799,40.0475765 C153.562698,30.3542045 143.913247,21.9521868 132.260838,16.0817971 C131.043828,15.4685307 129.802919,14.9030591 128.573064,14.3151838 M187.36087,161.735391 C231.671512,144.344675 277.357489,134.755555 324.162195,128.980456 C324.58549,130.570528 324.932311,131.798554 325.238505,133.036737 C327.077762,140.482859 329.176911,147.84325 332.521747,154.782749 C333.574756,156.966969 333.613591,156.94815 336.583227,156.570571 C336.51213,156.191798 336.487933,155.804362 336.365754,155.450979 C332.939366,145.538946 330.847984,135.323715 329.37168,124.962412 C327.685072,113.128134 322.750714,102.933514 313.901252,94.7683792 C305.662983,87.167521 295.881794,82.4029822 285.13333,79.6290946 C272.844633,76.4576144 261.493639,71.3830072 251.263763,63.8451783 C250.879004,63.5619944 250.429122,63.3663346 250.103511,63.1829223 C243.229225,66.4490958 226.775988,79.3599504 224.814851,83.0741996 C225.860094,83.1396187 226.829161,83.1924916 227.797034,83.2620927 C230.176686,83.4335564 232.583821,83.4380371 234.929718,83.8192002 C244.824721,85.4271947 252.619382,90.2732833 257.535219,99.1783407 C260.145786,103.907631 261.318286,109.013902 260.366844,114.439502 C258.744761,123.688682 253.183078,130.027759 245.171542,134.341234 C236.852618,138.8202 227.939526,139.515613 218.764154,137.804561 C210.473907,136.258401 203.144661,132.601207 196.44065,127.582161 C195.682782,127.014897 194.893547,126.489155 193.853682,125.757597 C189.74799,137.438931 187.932632,149.150735 187.36087,161.735391 M225.74837,157.089443 C223.41054,158.493115 221.633418,159.489635 219.927692,160.595785 C209.372504,167.439694 199.780707,175.508343 190.391745,183.838669 C188.943521,185.123451 187.906941,186.575217 187.096796,188.341531 C180.526016,202.66711 170.123775,213.195098 155.709643,219.681741 C153.170172,220.824932 150.573346,221.846545 148.067632,223.05844 C141.981684,226.001999 135.925012,229.006497 129.879393,232.0328 C128.875076,232.535541 127.987262,233.27158 127.045379,233.900081 C127.144854,234.135172 127.244032,234.370262 127.343507,234.605651 C135.975497,231.589803 144.880523,230.069033 154.13685,228.935701 C153.662174,237.23018 153.211695,245.105261 152.740305,253.345971 C153.997345,252.735991 154.860365,252.280447 155.752062,251.89092 C159.850286,250.101305 163.869347,248.083471 168.075411,246.595859 C183.978991,240.971015 199.801618,240.44587 215.377496,247.900955 C215.694444,248.052703 216.110868,247.996544 216.566127,248.047027 L216.566127,237.188957 C231.154716,240.243938 245.299995,243.954602 259.021979,249.953142 L259.021979,238.461194 C270.960568,242.549138 282.892286,245.704189 295.110483,247.783858 C296.751983,238.197426 299.048291,231.031799 301.848251,226.707569 C314.605051,233.238721 327.555126,239.390503 341.104447,244.328297 C338.153332,235.969892 335.154719,227.989066 332.525929,219.888155 C329.901919,211.801284 328.624566,203.387318 327.554828,194.727208 C324.103346,196.180766 321.345507,197.966796 318.952113,200.197616 C315.097053,203.790586 311.297256,207.458534 307.686255,211.29466 C298.245614,221.32379 287.135392,228.480754 273.641037,231.736473 C266.064447,233.564323 258.370756,234.398939 250.513064,234.531569 C256.907595,232.820816 262.355165,229.45965 267.2713,225.173955 C272.142328,220.927691 276.406942,216.129098 280.572977,210.980708 C277.237998,208.049695 275.777825,204.376071 274.743337,200.517542 C268.616165,199.200498 262.506021,198.692977 256.304168,197.252264 C258.760295,192.458153 260.973556,188.012942 263.317361,183.637632 C264.044461,182.279664 264.105102,181.156189 263.486739,179.731009 C261.6902,175.593776 260.791931,171.197854 260.317554,166.733526 C259.590454,159.889319 259.929509,153.20134 263.741553,147.131706 C263.797713,147.042091 263.635505,146.815365 263.574863,146.655551 C256.488781,147.259856 250.375053,149.956376 245.292825,154.992448 C241.574581,158.676826 238.60853,162.877088 236.294896,167.551713 C232.321241,175.580334 230.223885,184.15053 229.069906,192.977024 C227.972984,201.367989 227.628254,209.793905 227.991505,218.258055 C221.569491,198.347063 220.914683,178.176485 225.74837,157.089443 M97.7761939,5.9743433e-05 C104.533677,0.143443983 110.981382,1.25377569 117.354106,2.84683433 C133.082036,6.77884838 146.705739,14.6061343 158.251205,25.8492509 C164.583601,32.0162668 170.360665,38.7639889 176.243777,45.3784831 C182.921501,52.8864403 189.289744,60.6739968 196.076802,68.0791954 C200.603697,73.018185 206.027966,76.9433285 212.195167,79.7273725 C215.701315,81.3099761 215.701016,81.3111709 218.26797,78.1346126 C218.233616,77.9434336 218.24437,77.7265649 218.155051,77.5652577 C211.394581,65.3769999 204.644267,53.1663383 196.015861,42.1660787 C192.835325,38.1112919 189.255391,34.3256492 185.540134,30.7467189 C181.270143,26.6336822 176.24318,23.599612 170.430866,22.0376199 C169.870456,21.8870665 169.351568,21.5808814 168.71797,21.3057629 C199.344865,22.1496389 223.120477,36.2108533 242.315422,59.1326162 C243.970066,58.154915 245.317619,57.326871 246.695344,56.5525961 C248.067393,55.7813084 249.469614,55.0640885 250.88916,54.3068404 C252.196983,55.3574287 253.336623,56.3100378 254.513604,57.2124623 C264.047149,64.5214739 274.701515,69.4876468 286.320766,72.4565967 C295.163656,74.7160933 303.486465,78.1997329 311.063055,83.330499 C325.745742,93.2732998 334.230759,107.039979 336.619672,124.636212 C338.000384,134.805142 340.085791,144.839351 343.758628,154.461628 C345.056593,157.862224 346.719303,161.123319 348.253859,164.533176 L336.778594,164.533176 C337.459391,167.691214 337.466859,167.645211 340.197216,168.087313 C344.336962,168.757634 348.375739,169.718607 351.889654,172.838708 C349.575423,178.871301 347.270154,184.879997 344.924556,190.99414 C342.312794,191.247153 339.776609,191.492997 337.117648,191.75079 C336.844314,195.686389 337.51107,199.294892 338.13033,202.893239 C340.438288,216.301159 344.804767,229.089241 350.01007,241.605789 C351.957167,246.287285 354.165051,250.860644 356.249263,255.485384 C356.648361,256.370482 357.026549,257.26514 357.642223,258.679566 C339.628142,253.870817 323.016879,246.90533 306.678652,238.201907 C304.585179,244.551439 303.758305,250.858553 303.809985,257.736516 C297.856075,257.70306 292.127404,256.667407 286.457582,255.43968 C280.764161,254.206874 275.145123,252.63144 269.172393,251.125009 C270.002254,256.342403 270.806724,261.402672 271.713059,267.103092 C270.350569,266.398418 269.43826,265.95542 268.553134,265.46403 C257.633201,259.403955 246.231721,254.51276 234.123456,251.365476 C231.452247,250.670959 228.729956,250.172699 225.678468,249.507157 L225.678468,265.122895 C224.989307,264.675417 224.641291,264.541293 224.421429,264.293657 C216.687111,255.582765 206.707867,251.654037 195.352391,251.032407 C175.817794,249.962999 159.452382,257.438695 145.137726,270.175995 C144.185088,271.023456 143.263219,271.905567 142.075783,272.685518 C144.109212,261.257794 145.271256,249.79273 146.011201,237.834186 C136.758757,238.813978 127.986366,240.708443 119.302995,243.111025 C110.687435,245.494489 102.381654,248.678814 94.4731793,252.911935 C94.3593646,252.739277 94.24555,252.566618 94.1317354,252.394258 C95.2418016,251.340384 96.3219952,250.253651 97.4667137,249.238909 C105.235982,242.352881 113.611367,236.250686 122.431853,230.823593 C133.275909,224.151148 144.311449,217.786978 155.329962,211.402497 C159.664179,208.890883 163.751649,206.111319 167.272733,202.535675 C170.72302,199.032021 173.446207,195.118826 175.405253,190.522465 C177.651076,185.252796 179.262405,179.881861 179.985621,174.231925 C180.186365,172.663062 180.166649,171.055068 180.129607,169.467983 C179.799514,155.33657 181.464315,141.466236 185.532367,127.910451 C186.132209,125.911137 186.788809,123.923175 187.5413,121.977331 C187.947867,120.925548 187.933528,120.153961 187.099186,119.29963 C174.381519,106.27825 165.1467,90.8100781 156.191189,75.1543114 C149.027439,62.6305943 142.012154,50.0211453 134.764163,37.5467164 C130.310156,29.8810365 125.286181,22.5788954 119.445786,15.8735912 C116.165475,12.1070665 112.692186,8.50214771 108.470589,5.81787526 C105.151742,3.7077372 101.555975,2.03312877 97.7761939,5.9743433e-05" id="Fill-4" fill="#FEFEFE"></path>
                <g id="Group-8" transform="translate(323.819108, 268.561668)">
                    <mask id="mask-4" fill="white">
                        <use xlink:href="#path-3"></use>
                    </mask>
                    <g id="Clip-7"></g>
                    <path d="M42.7211503,17.7570328 C42.7100974,17.6581574 42.652742,17.5306052 42.6939662,17.46429 C46.1544095,11.8726034 50.006184,6.57276341 54.6603369,1.90739872 C56.3188643,0.245037691 58.5614012,-0.0318731216 60.7851184,0.0702881491 C64.8994732,0.259376115 68.8360859,1.32430281 72.6529095,2.82207068 C74.1967261,3.42786909 75.3874483,4.46650867 75.8421095,6.14380556 C76.1799687,7.38945614 76.0437496,8.44183671 74.8156866,9.25613971 C70.3518222,12.2143358 67.0048948,16.3258789 63.654084,20.3959002 C54.3861063,31.6536541 46.5681452,43.8912002 39.4509955,56.5920566 C39.2248598,56.9953248 39.0877445,57.4484787 38.7107522,58.3550853 C54.0135948,49.3430872 68.8704394,40.593064 83.7275827,31.8433395 C80.1016452,32.7627909 76.9211082,34.6566577 73.6494598,36.3366431 C70.3046235,38.0539681 67.0069859,39.8632979 63.4225713,41.3500133 C63.5399706,41.1913944 63.6251076,40.9819937 63.7801464,40.8807286 C79.0390764,30.9283688 94.286356,20.9467347 111.023383,13.5612515 C115.112047,11.7572985 119.324384,10.2257756 123.512225,8.65661436 C128.373395,6.83563451 132.943905,7.45905724 136.994034,10.750323 C139.297212,12.6223834 141.51615,14.6205026 143.596777,16.7351214 C144.817073,17.9756938 145.332674,19.6296907 144.562559,21.522064 C133.737322,21.8533413 124.298771,26.7182491 114.813918,31.1906425 C91.628291,42.123392 69.4517604,54.8227549 48.7578076,70.0176009 C47.7221241,70.7781348 46.7148197,71.5772032 45.5847388,72.4422881 C45.9948897,73.2512142 46.2989929,73.9690316 46.701377,74.6265081 C54.5214292,87.3963682 63.3060681,99.4454238 73.5840388,110.363835 C77.483012,114.505548 81.6260445,118.408288 86.5021509,121.380823 C88.6870337,122.713101 91.0690757,123.861669 93.510863,124.598007 C96.7526388,125.57511 98.1264802,124.582473 98.8894267,121.301364 C99.2422222,119.785673 99.4289261,118.231448 99.6944936,116.674235 C102.768684,117.804282 103.918481,119.434083 103.553139,122.23127 C103.42618,123.201504 103.162704,124.212064 102.711926,125.073266 C97.5140917,135.006209 88.7417006,140.533372 77.0056477,138.940314 C74.8270382,138.644285 72.6753139,137.473015 70.7192554,136.34476 C65.2483853,133.190307 60.5494235,129.026787 56.1240948,124.554991 C47.5136133,115.854555 40.4427662,106.037215 34.8733165,95.138221 C34.6020732,94.6076993 34.3445713,94.0691122 34.113656,93.5200701 C34.0494299,93.368023 34.1034993,93.1657915 34.1034993,92.4909894 C40.7223738,102.330135 47.2800095,111.711348 55.6126757,119.699045 C47.4980796,108.233683 39.3831846,96.7680218 31.1004057,85.0648807 C27.8777483,88.6220047 24.7420203,91.9389601 23.4365872,96.4943969 C23.0784146,97.7445282 22.544591,98.7240218 21.2113764,99.0024262 C20.1255069,99.2294513 19.8255859,100.061976 19.6039311,100.934828 C18.2808732,106.14326 16.839221,111.342432 18.0284496,116.918287 C17.4330885,117.314386 16.9201757,117.862233 16.3030076,118.033398 C11.4161471,119.388977 6.82681777,118.594688 2.65092541,115.769122 C0.740571911,114.476274 0.441845796,112.315055 0.302340701,110.192969 C0.0316948408,106.067685 0.77910758,102.063381 1.8374942,98.1050798 C4.73304643,87.275089 9.45710121,77.1868129 14.4102789,67.1929314 C15.1609776,65.6775392 15.862984,64.12421 16.767228,62.702615 C17.6215846,61.36018 17.4877554,60.1892087 16.9174872,58.7897188 C13.5353101,50.4892649 10.8243706,41.9704488 8.39393497,33.3384189 C7.20500503,29.1151556 8.01126682,25.8053694 10.8566331,22.6739173 C13.0833375,20.2235404 15.4107127,17.9362631 18.3857261,16.4119094 C20.1792776,15.4930554 22.035263,14.8594763 24.3623394,15.4165838 C25.5823369,23.200257 27.306584,30.9098483 30.1435859,39.043618 C35.1263375,31.4182649 39.7912445,24.2795221 44.7396426,16.7076394 C43.7185968,17.1948471 43.1883579,17.4481593 42.6587165,17.7011727 L42.7211503,17.7570328 Z" id="Fill-6" fill="#FEFEFE" mask="url(#mask-4)"></path>
                </g>
                <path d="M302.146409,288.303527 C292.628995,298.622114 284.282289,309.266601 276.44969,321.136128 C285.350832,319.422686 293.578944,317.838589 302.146409,316.189372 L302.146409,288.303527 Z M246.904482,345.03141 C244.063896,347.158874 241.223608,349.286337 238.102517,351.624098 C235.8788,348.841846 234.184127,345.69516 234.08973,341.902646 C234.043128,340.037158 234.91033,338.378381 236.416209,337.246542 C238.478016,335.696499 240.510549,334.015318 242.798492,332.880193 C246.799032,330.894919 250.972236,329.254364 255.099735,327.531662 C256.307186,327.027726 257.337193,326.534544 258.103426,325.311895 C264.339931,315.361328 270.665158,305.46662 276.958421,295.5516 C277.160957,295.231973 277.310619,294.87859 277.460579,294.587341 C277.331231,294.411098 277.286721,294.299676 277.207558,294.261739 C277.155879,294.236946 277.023244,294.295793 276.97724,294.355536 C274.487956,297.576604 272.004347,300.801853 269.237844,303.905226 C269.38183,303.496879 269.458902,303.04731 269.680258,302.685862 C276.292859,291.887237 283.476027,281.499048 291.84932,271.97027 C291.980759,271.820612 292.132811,271.686488 292.247522,271.525778 C295.265253,267.311178 299.214711,265.453157 304.404181,266.690145 C304.682295,266.756161 304.992373,266.702094 305.286618,266.683872 C305.375937,266.678196 305.461373,266.606205 305.915437,266.389635 C307.442823,258.499918 312.141188,253.506263 320.72568,252.970065 C324.44004,252.737962 328.34917,252.165023 331.216642,255.917209 C328.258059,260.484893 326.176237,265.392816 324.633316,270.542999 C321.934027,279.552906 320.593344,288.797605 319.938537,298.145062 C319.549595,303.694331 319.419052,309.261822 319.157069,315.168058 C320.458917,315.329664 321.495796,315.493659 322.539545,315.58208 C329.13721,316.141876 333.490545,319.934986 336.516342,325.469916 C337.705571,327.644876 337.977412,329.98891 336.038082,332.259758 C330.806193,330.227883 325.369377,329.396852 319.376931,329.28334 C319.376931,330.472234 319.350046,331.431714 319.380815,332.3897 C320.050559,353.089306 321.298039,373.750377 323.59584,394.33886 C323.937583,397.4034 324.321446,400.47003 324.86692,403.503204 C326.215071,411.006083 328.137374,418.287314 333.981651,424.002371 C331.519252,427.140395 328.292114,428.243856 324.706504,428.185905 C322.761797,428.154838 320.750773,427.670618 318.906139,427.009855 C316.057188,425.989736 314.022565,424.066595 313.321753,420.915726 C311.37854,412.180938 309.194254,403.496632 307.417133,394.728686 C304.609705,380.87747 302.540429,366.899299 301.032459,352.845254 C300.5775,348.606756 300.351663,344.343763 300.54464,340.033872 C301.428869,346.024047 302.313397,352.013924 303.197626,358.004099 L303.544149,357.964668 C303.144453,348.730723 302.744758,339.496778 302.331918,329.961428 C300.259954,330.165153 298.406358,330.289718 296.56979,330.537354 C287.591278,331.748055 278.685655,333.319009 269.940149,335.747878 C268.174678,336.238372 266.946615,337.010854 266.228477,338.750583 C263.459585,345.459472 260.396746,352.056043 257.866835,358.852157 C255.752451,364.532264 254.191309,370.426252 254.944995,376.900648 C250.770596,376.640167 246.865947,376.132945 243.355915,374.200544 C242.35817,373.651203 241.565351,372.356563 241.132496,371.229204 C240.048121,368.406327 240.573879,365.462171 241.399259,362.711284 C242.797297,358.050998 244.514375,353.486002 246.126002,348.890537 C246.515541,347.779309 247.015609,346.706915 247.464893,345.616298 C247.27789,345.421535 247.091186,345.226472 246.904482,345.03141 L246.904482,345.03141 Z" id="Fill-9" fill="#FEFEFE"></path>
                <path d="M196.113963,476.777718 C196.113963,479.091283 196.139355,481.265944 196.096936,483.439709 C196.085584,484.023103 195.914115,484.61755 195.733984,485.180931 C195.026301,487.393828 193.439169,488.663077 191.432029,488.668155 C189.380378,488.672935 187.454491,487.193986 186.877949,485.022312 C186.65271,484.173657 186.640163,483.252413 186.637773,482.363729 C186.620447,475.108188 186.608199,467.852348 186.650021,460.596807 C186.656294,459.526802 186.785941,458.396456 187.15218,457.402027 C187.866434,455.462456 189.668648,454.304031 191.505814,454.344657 C193.390178,454.386776 195.190899,455.536837 195.596868,457.657131 C196.111872,460.348872 196.112171,463.139189 196.354438,466.135322 C195.313676,466.248536 194.605098,466.325605 193.486667,466.447481 C193.486667,464.706856 193.499512,463.245532 193.481589,461.784805 C193.471133,460.891641 193.48368,459.989515 193.358812,459.109494 C193.215424,458.100129 192.55494,457.514942 191.51149,457.542723 C190.480287,457.570503 189.854157,458.174808 189.694339,459.177004 C189.601136,459.760698 189.627723,460.366496 189.627424,460.962138 C189.623541,468.019032 189.623242,475.075927 189.627723,482.132821 C189.628022,482.728164 189.599344,483.335456 189.702405,483.916162 C189.881043,484.924034 190.548696,485.48861 191.570638,485.488311 C192.606919,485.488012 193.311016,484.907903 193.370164,483.879122 C193.478601,481.996905 193.492641,480.106622 193.482784,478.219925 C193.473822,476.506184 194.305176,476.152503 196.113963,476.777718" id="Fill-11" fill="#FEFEFE"></path>
                <path d="M259.580567,454.882676 C260.429546,454.839063 261.11811,454.779619 261.80757,454.773047 C263.392013,454.757812 264.976755,454.768267 266.865302,454.768267 C266.916981,455.706239 266.961193,456.51188 267.016756,457.518556 C265.400648,457.6249 264.052497,457.713619 262.523616,457.813988 L262.523616,469.581353 C263.684765,469.694865 264.730904,469.797027 265.919236,469.91263 L265.919236,472.403035 C264.761075,472.533276 263.712248,472.650971 262.328548,472.806602 L262.328548,488.092557 L259.754126,488.092557 C259.019858,487.424924 258.897679,458.754947 259.580567,454.882676" id="Fill-13" fill="#FEFEFE"></path>
                <path d="M220.869157,476.737451 L220.880509,476.737451 C220.880509,475.843391 220.887977,474.949629 220.879015,474.05527 C220.861988,472.368115 220.930097,470.670506 220.756538,468.998884 C220.702468,468.480909 219.980148,468.032833 219.563724,467.552795 C219.117427,467.997584 218.652609,468.426542 218.237081,468.898515 C218.128345,469.022483 218.149555,469.280575 218.149256,469.477429 C218.144775,474.244657 218.131631,479.011884 218.157023,483.779111 C218.161802,484.716485 218.422889,485.698668 219.606143,485.613832 C220.764006,485.530788 220.857806,484.511565 220.864079,483.590919 C220.879613,481.306629 220.869157,479.021741 220.869157,476.737451 L220.869157,476.737451 Z M223.316919,476.617068 C223.316919,479.00352 223.411316,481.395049 223.29332,483.775825 C223.144853,486.774348 221.591178,488.658656 219.496212,488.655967 C217.486383,488.653578 215.776176,486.944916 215.664452,484.099635 C215.469384,479.137644 215.466695,474.156535 215.662361,469.194843 C215.77528,466.336717 217.468758,464.626561 219.465145,464.607742 C221.576839,464.587131 223.061209,466.455009 223.317218,469.457415 C223.333946,469.655166 223.344402,469.85441 223.344402,470.053057 C223.346194,472.240862 223.345597,474.428965 223.345597,476.617068 L223.316919,476.617068 Z" id="Fill-15" fill="#FEFEFE"></path>
                <path d="M235.843819,471.926193 C235.764657,470.81377 235.840832,469.789469 235.569888,468.866732 C235.410667,468.32456 234.685061,467.57478 234.239959,467.591508 C233.746463,467.610327 232.930344,468.360108 232.878365,468.856277 C232.769629,469.899098 232.851181,471.076044 233.25237,472.031043 C233.860875,473.481315 234.769003,474.814788 235.620074,476.15334 C237.092495,478.469891 238.194495,480.927736 237.908316,483.715962 C237.781656,484.946976 237.375986,486.303749 236.662329,487.288321 C235.059962,489.49823 231.866879,489.061805 230.946205,486.489551 C230.404017,484.97386 230.430006,483.254743 230.194012,481.583719 C231.534396,481.155359 232.354997,481.031092 232.510633,482.364864 C232.590991,483.054005 232.415639,483.808266 232.6358,484.435273 C232.831764,484.994173 233.515847,485.873596 233.802923,485.808775 C234.439508,485.664494 235.390951,485.06467 235.447111,484.565215 C235.586019,483.322253 235.506856,481.962492 235.120006,480.778676 C234.69701,479.483439 233.804118,478.34682 233.16335,477.116404 C232.294953,475.448068 231.323795,473.811696 230.669286,472.059122 C229.986099,470.229778 230.21104,468.323365 231.126337,466.563324 C231.837006,465.196693 233.005025,464.498591 234.541374,464.630026 C236.102815,464.763852 237.140291,465.676134 237.427367,467.210644 C237.663061,468.470932 237.768213,469.770351 237.776577,471.053342 C237.783448,472.161881 237.028866,472.31124 235.843819,471.926193" id="Fill-17" fill="#FEFEFE"></path>
                <g id="Group-21" transform="translate(244.357962, 464.520128)" fill="#FEFEFE">
                    <path d="M6.75473516,7.8360383 C6.3571307,7.4444201 5.75818484,7.11792224 5.60643197,6.6474427 C5.33877338,5.8173077 5.47051159,4.85484099 5.18313707,4.03605724 C5.02989057,3.59933274 4.33774217,3.07060336 3.91056382,3.08912382 C3.47233261,3.10854044 2.70759376,3.73793751 2.70161924,4.11043781 C2.68040968,5.36504991 2.68339694,6.72540788 3.14313643,7.85605235 C3.77016255,9.39862779 4.8094307,10.7769088 5.70023197,12.2083615 C7.2219428,14.6545563 8.04164726,17.2961122 7.48034089,20.1545368 C7.26406318,21.2553095 6.70514662,22.4591397 5.9269651,23.2438697 C4.30398611,24.8793462 1.55241987,24.3353822 0.775433248,22.1690853 C0.261624331,20.7370352 0.361996306,19.0731806 0.27865172,17.5085001 C0.266105223,17.2722148 0.795447898,16.7730585 1.00097146,16.8092032 C1.39618611,16.8788043 1.98109185,17.1867817 2.05637083,17.500136 C2.26368675,18.3559607 2.09132178,19.3202197 2.37541032,20.1348214 C2.55584089,20.6521996 3.29130459,21.3090786 3.76418803,21.2983248 C4.24334471,21.287571 5.01136955,20.5984305 5.12100204,20.0912087 C5.53115299,18.1934586 5.22047783,16.3381263 4.18658675,14.6497768 C3.25336637,13.1254232 2.28758484,11.6207848 1.37945745,10.0820927 C0.220698854,8.11802731 -0.085495414,5.97801753 0.280742803,3.75137978 C0.649072102,1.51428693 2.11133643,0.0867175932 3.94521605,0.0801458155 C5.89470268,0.0732753207 7.14337783,1.36104502 7.39639885,3.81769499 C7.51648675,4.97940605 7.41730968,6.16381961 7.41730968,7.33807679 L6.75473516,7.8360383 Z" id="Fill-19"></path>
                </g>
                <path d="M285.984012,488.001478 C285.071105,488.360835 284.229594,488.377563 284.044085,487.116379 C283.828106,485.648483 283.608542,484.166248 283.586735,482.6873 C283.525496,478.518104 283.568214,474.347116 283.560746,470.177025 C283.559551,469.483702 283.786284,468.558874 283.433488,468.13828 C282.189892,466.655149 281.676979,465.457592 283.628557,464.113066 C283.995094,463.86065 283.641999,462.724928 283.911749,462.128091 C284.208683,461.471511 284.841385,460.967276 285.783268,459.861724 C285.893199,461.638195 285.773709,462.666379 286.063174,463.563128 C286.361901,464.490645 287.418495,465.270297 287.46659,466.151512 C287.506022,466.870525 286.412684,467.588641 286.076318,468.411308 C285.830765,469.012028 285.986701,469.781822 285.986103,470.476041 C285.982518,476.22545 285.984012,481.975158 285.984012,488.001478" id="Fill-22" fill="#FEFEFE"></path>
                <path d="M205.925115,488.197825 C204.918706,488.124938 204.3574,488.084312 203.657186,488.033829 L203.657186,464.86443 C204.63641,465.078311 205.522432,465.272477 206.824878,465.557155 C207.210234,465.391964 208.079527,465.020061 209.224246,464.530165 C209.282796,465.683512 209.325514,466.528284 209.365543,467.317495 C206.019213,468.630954 205.943038,468.728038 205.929595,472.403752 C205.914062,476.57474 205.925413,480.746027 205.925115,484.917313 L205.925115,488.197825 Z" id="Fill-24" fill="#FEFEFE"></path>
                <path d="M273.358741,487.997416 L273.358741,464.982752 L275.294188,464.982752 C275.402924,465.415593 275.576782,465.788093 275.577977,466.161191 C275.599187,472.811531 275.588134,479.461871 275.613825,486.111913 C275.618903,487.466894 275.504789,488.586187 273.358741,487.997416" id="Fill-26" fill="#FEFEFE"></path>
                <mask id="mask-6" fill="white">
                    <use xlink:href="#path-5"></use>
                </mask>
                <g id="Clip-29"></g>
                <polygon id="Fill-28" fill="#FEFEFE" mask="url(#mask-6)" points="164.83468 473.315258 170.294497 473.315258 170.294497 471.185404 164.83468 471.185404"></polygon>
                <path d="M302.980184,471.091308 L308.255986,471.091308 C308.352175,471.728173 308.447469,472.359363 308.595936,473.343935 C306.989686,473.398301 305.550423,473.488812 304.111161,473.483137 C302.63635,473.476864 302.625894,472.516488 302.980184,471.091308" id="Fill-30" fill="#FEFEFE" mask="url(#mask-6)"></path>
                <path d="M273.498754,458.614609 C275.311125,458.097829 275.487672,459.084492 275.462579,460.316401 C275.43659,461.595807 274.90665,462.114977 273.498754,461.582364 L273.498754,458.614609 Z" id="Fill-31" fill="#FEFEFE" mask="url(#mask-6)"></path>
                <path d="M366.477825,286.262691 C366.177605,286.918375 365.877087,287.574059 365.576867,288.229744 C365.40032,288.090243 365.223474,287.950443 365.046329,287.811241 C365.544306,287.313578 366.042282,286.816214 366.540259,286.318551 L366.477825,286.262691 Z" id="Fill-32" fill="#000000" mask="url(#mask-6)"></path>
                <path d="M161.642164,226.734394 C162.512951,226.29528 163.392699,225.872894 164.253031,225.413765 C170.122999,222.282313 176.105288,219.340248 181.823503,215.952198 C187.753217,212.438687 192.91849,207.897887 197.361145,202.595359 C201.98901,197.071481 205.326975,190.963312 205.740412,183.572452 C205.749374,183.412041 205.916063,183.260591 206.159525,182.854933 C208.313639,187.740154 208.567257,192.541136 207.179675,197.47684 C205.52742,203.354698 201.84831,207.844417 197.348897,211.753131 C191.484007,216.847453 184.700534,220.360965 177.402058,222.829862 C172.706382,224.41844 167.870604,225.595087 163.091584,226.933937 C162.661418,227.05432 162.18495,227.009513 161.730289,227.041774 C161.701013,226.939314 161.67144,226.836854 161.642164,226.734394" id="Fill-33" fill="#FEFEFE" mask="url(#mask-6)"></path>
                <path d="M214.886002,208.275615 C211.741909,216.590108 207.757202,224.300297 201.31816,230.462235 C198.665472,233.000733 195.464323,234.641288 191.933082,235.399731 C184.757681,236.940215 177.535081,238.261441 170.328612,239.655853 C169.088301,239.895723 167.831262,240.050458 166.471759,239.885268 C167.445905,239.448842 168.423636,239.021079 169.393301,238.574796 C176.423521,235.33939 183.535294,232.267681 190.459765,228.820187 C199.389585,224.374678 206.785744,217.939713 213.145026,210.289267 C213.712307,209.606997 214.305278,208.946235 214.886002,208.275615" id="Fill-34" fill="#FEFEFE" mask="url(#mask-6)"></path>
            </g>
        </g>
    </g>
</svg>