
<svg width="57px" height="53px" viewBox="0 0 57 53" version="1.1" xmlns="http://www.w3.org/2000/svg" xmlns:xlink="http://www.w3.org/1999/xlink">
    <!-- Generator: Sketch 43.1 (39012) - http://www.bohemiancoding.com/sketch -->
    <desc>Created with Sketch.</desc>
    <defs></defs>
    <g id="Page-1" stroke="none" stroke-width="1" fill="none" fill-rule="evenodd">
        <g id="TARIFS" transform="translate(-689.000000, -687.000000)" fill-rule="nonzero" fill="#000000">
            <g id="noun_Space_1137846" transform="translate(689.000000, 687.000000)">
                <path d="M12.8457273,26.5839167 C12.8457273,31.1433889 14.6401169,35.2906389 17.5597013,38.3749444 C17.499,38.5744306 17.4560649,38.7812778 17.4560649,39.0006389 C17.4560649,40.1946111 18.4295065,41.1625972 19.6302078,41.1625972 C19.9788701,41.1625972 20.3038442,41.0735278 20.5962468,40.9285139 C23.3396494,42.7437639 26.6286234,43.8045 30.1633636,43.8045 C39.711974,43.8045 47.4802597,36.07975 47.4802597,26.5846528 C47.4802597,19.716 43.4332597,13.587875 37.1410519,10.831875 C37.1632597,10.6868611 37.1862078,10.5418472 37.1862078,10.3902083 C37.1862078,8.75456944 35.8478182,7.42368056 34.202961,7.42368056 C32.9008442,7.42368056 31.803039,8.26284722 31.3966364,9.42148611 C30.9872727,9.39277778 30.5764286,9.36480556 30.1633636,9.36480556 C20.614013,9.36406944 12.8457273,17.0888194 12.8457273,26.5839167 Z M35.7049481,10.3894722 C35.7049481,11.2131806 35.0305714,11.8837778 34.2022208,11.8837778 C33.3738701,11.8837778 32.6994935,11.2131806 32.6994935,10.3894722 C32.6994935,9.56576389 33.3738701,8.89516667 34.2022208,8.89516667 C35.0305714,8.89516667 35.7049481,9.56576389 35.7049481,10.3894722 Z M30.1626234,42.3315417 C27.0224416,42.3315417 24.1006364,41.4069861 21.6355714,39.8331806 C21.7429091,39.5770139 21.8036104,39.2958194 21.8036104,39.001375 C21.8036104,37.8074028 20.8301688,36.8394167 19.6294675,36.8394167 C19.2045584,36.8394167 18.8114805,36.9652917 18.4761429,37.1750833 C15.9074416,34.3749167 14.3255065,30.6649167 14.3255065,26.5846528 C14.3255065,17.9014861 21.4297792,10.8370278 30.1618831,10.8370278 C30.5334935,10.8370278 30.9014026,10.8620556 31.2693117,10.8878194 C31.5091558,12.2864306 32.7283636,13.3567361 34.2014805,13.3567361 C35.1645584,13.3567361 36.0136364,12.8929861 36.5599481,12.1863194 C42.3051039,14.7104444 45.9982597,20.3100417 45.9982597,26.5853889 C45.999,35.2670833 38.8954675,42.3315417 30.1626234,42.3315417 Z" id="Shape"></path>
                <path d="M21.4023896,26.5839167 C21.4023896,31.3870417 25.3324286,35.2950556 30.1626234,35.2950556 C34.9935584,35.2950556 38.9235974,31.3870417 38.9235974,26.5839167 C38.9235974,21.7800556 34.9935584,17.8720417 30.1626234,17.8720417 C25.3324286,17.8720417 21.4023896,21.7800556 21.4023896,26.5839167 Z M22.8829091,26.5839167 C22.8829091,22.5919861 26.1489351,19.3442639 30.1626234,19.3442639 C34.1763117,19.3442639 37.4430779,22.5919861 37.4430779,26.5839167 C37.4430779,30.5758472 34.1770519,33.8228333 30.1626234,33.8228333 C26.1481948,33.8228333 22.8829091,30.5758472 22.8829091,26.5839167 Z" id="Shape"></path>
                <path d="M0.385675325,26.1385694 C0.385675325,28.4293472 2.08383117,30.3285139 4.29276623,30.6708056 C6.27888312,43.1979444 17.3790779,52.6304722 30.1626234,52.6304722 C34.1518831,52.6304722 37.9338701,51.7353611 41.322039,50.1424167 C41.6980909,50.4523194 42.1748182,50.6459167 42.7011429,50.6459167 C43.9018442,50.6459167 44.8752857,49.6779306 44.8752857,48.4839583 C44.8752857,48.3676528 44.859,48.2565 44.8412338,48.1453472 C51.7848701,43.4563194 56.3567143,35.5416528 56.3567143,26.5839167 C56.3567143,21.9191806 55.1108571,17.5400556 52.9418961,13.7490833 C53.1721169,13.4060556 53.3075844,12.9945694 53.3075844,12.5514306 C53.3075844,11.3574583 52.3341429,10.3894722 51.1334416,10.3894722 C50.9816883,10.3894722 50.8343766,10.4049306 50.6915065,10.434375 C45.8894416,4.41151389 38.475,0.537361111 30.1626234,0.537361111 C17.6389091,0.537361111 6.84074026,9.38320833 4.4534026,21.5820417 C2.166,21.8536667 0.385675325,23.7918472 0.385675325,26.1385694 Z M5.79401299,30.6590278 C7.96519481,30.2850833 9.62337662,28.4028472 9.62337662,26.1385694 C9.62337662,23.9302361 8.04662338,22.081125 5.95464935,21.6446111 C8.29164935,10.2503472 18.4221039,2.00958333 30.1626234,2.00958333 C37.9471948,2.00958333 44.8974935,5.61063889 49.4308442,11.2212778 C49.1399221,11.5893333 48.9585584,12.0471944 48.9585584,12.5514306 C48.9585584,13.7454028 49.932,14.7133889 51.1327013,14.7133889 C51.3436753,14.7133889 51.5435455,14.674375 51.7367532,14.6184306 C53.7324935,18.1620694 54.8754545,22.2423333 54.8754545,26.5846528 C54.8754545,34.9903056 50.6071169,42.4213472 44.1142987,46.8542083 C43.7330649,46.527375 43.2437532,46.3227361 42.7011429,46.3227361 C41.5004416,46.3227361 40.527,47.2907222 40.527,48.4846944 C40.527,48.6157222 40.5432857,48.7430694 40.5654935,48.8674722 C37.4008831,50.3345417 33.8772468,51.1589861 30.1618831,51.1589861 C18.1755974,51.15825 7.76162338,42.3676111 5.79401299,30.6590278 Z M1.86619481,26.1385694 C1.86619481,24.4182778 3.27416883,23.0181944 5.00415584,23.0181944 C6.73414286,23.0181944 8.14211688,24.4175417 8.14211688,26.1385694 C8.14211688,27.8595972 6.73488312,29.2589444 5.00415584,29.2589444 C3.27342857,29.2589444 1.86619481,27.8588611 1.86619481,26.1385694 Z" id="Shape"></path>
            </g>
        </g>
    </g>
</svg>