
<svg width="521px" height="331px" viewBox="0 0 521 331" version="1.1" xmlns="http://www.w3.org/2000/svg" xmlns:xlink="http://www.w3.org/1999/xlink">
    <!-- Generator: Sketch 43.1 (39012) - http://www.bohemiancoding.com/sketch -->
    <desc>Created with Sketch.</desc>
    <defs></defs>
    <g id="Page-1" stroke="none" stroke-width="1" fill="none" fill-rule="evenodd">
        <g id="Artboard-Copy-10" transform="translate(-94.000000, -51.000000)">
            <rect id="Rectangle" fill="#FFFFFF" x="94" y="51" width="521" height="331"></rect>
            <g id="Page-1" transform="translate(244.000000, 104.000000)">
                <polygon id="Stroke-1" stroke="#010202" stroke-width="2" points="114.881613 224.815177 34.6960594 64.3148952 195.067166 64.3148952"></polygon>
                <polygon id="Fill-3" fill="#020302" points="72.1513913 127.45533 51.2162469 148.408548 40.2051678 167.978446 61.142127 147.024622"></polygon>
                <polygon id="Fill-4" fill="#020302" points="52.0985608 163.098927 55.9457542 156.259209 41.136479 171.081019 45.1826861 171.079202 53.1571439 163.097716"></polygon>
                <polygon id="Fill-5" fill="#020302" points="105.686336 171.050023 119.917323 171.043363 112.805459 163.92456"></polygon>
                <polygon id="Fill-6" fill="#020302" points="74.3116872 123.613634 80.8561504 111.983451 75.0036981 106.125679 68.1803738 118.255311 73.9227335 124.004112"></polygon>
                <polygon id="Fill-7" fill="#020302" points="67.817794 118.899993 53.3781155 144.564976 73.4198158 124.507132"></polygon>
                <polygon id="Fill-8" fill="#C72026" points="174.148112 163.040385 144.638444 163.054309 152.605643 171.02732 188.039142 171.010369 157.663251 119.032634 151.835599 124.862558"></polygon>
                <polygon id="Fill-9" fill="#020302" points="129.518671 86.6758915 135.345718 80.8459678 133.852208 78.2906087 128.026372 84.1217432"></polygon>
                <polygon id="Fill-10" fill="#020302" points="84.6015384 105.323596 78.7515057 99.4670347 75.3658545 105.481603 81.2189117 111.338769"></polygon>
                <polygon id="Fill-11" fill="#020302" points="123.385725 76.1802732 126.537883 81.5749201 132.363719 75.7431802 129.210956 70.3491386 128.831681 70.7299301"></polygon>
                <polygon id="Fill-12" fill="#020302" points="113.660613 163.068778 113.310373 163.420511 120.924912 171.043 139.860847 171.033919 131.895463 163.060908"></polygon>
                <polygon id="Fill-13" fill="#C72026" points="111.979946 56.6634684 122.766 75.1206558 127.155793 70.7297485 128.593046 69.2901266 111.848076 40.6381402 79.5981907 97.9614857 85.4494332 103.818047"></polygon>
                <polygon id="Fill-14" fill="#020302" points="132.901177 163.05994 140.867771 171.03295 150.254681 171.029318 142.286877 163.055702"></polygon>
                <polygon id="Fill-15" fill="#020302" points="187.265166 70.7299907 150.775504 107.249045 152.618649 110.401925 192.258654 70.7299907 214.836719 48.1337391 212.339068 45.6346814 203.538311 54.4437385"></polygon>
                <polygon id="Fill-16" fill="#020302" points="111.804523 122.933779 106.628959 128.571794 112.374343 134.83094 117.549302 129.191715"></polygon>
                <polygon id="Fill-17" fill="#020302" points="82.5682725 133.662958 53.1572044 163.097716 66.2243542 163.092267 89.0994278 140.199374"></polygon>
                <polygon id="Fill-18" fill="#020302" points="105.450665 123.834784 134.339096 94.9236898 129.518611 86.6758309 98.9207199 117.298973"></polygon>
                <polygon id="Fill-19" fill="#020302" points="133.189414 100.759546 137.429191 108.656883 157.019632 87.3137929 165.91173 77.6269176 154.423986 77.6269176 145.531283 87.3137929"></polygon>
                <polygon id="Fill-20" fill="#020302" points="92.5426659 123.679864 83.0716741 133.15909 89.6028294 139.694901 99.0738213 130.215675"></polygon>
                <polygon id="Fill-21" fill="#020302" points="100.995422 163.075256 111.950245 163.069807 106.477068 157.591011"></polygon>
                <polygon id="Fill-22" fill="#020302" points="117.824655 128.891925 120.39066 126.097436 114.645881 119.83829 112.079876 122.633989"></polygon>
                <polygon id="Fill-23" fill="#020302" points="129.15712 147.560334 151.835599 124.862982 147.164526 116.869993 122.827398 141.226118"></polygon>
                <polygon id="Fill-24" fill="#020302" points="99.5770414 129.711928 104.274731 125.01106 97.7435755 118.47525 93.0470959 123.176118"></polygon>
                <polygon id="Fill-25" fill="#020302" points="116.451159 147.605254 106.980167 157.087507 112.957229 163.069989 113.660734 163.068778 122.78209 153.941285"></polygon>
                <polygon id="Fill-26" fill="#020302" points="119.828402 138.224041 122.324843 140.722493 146.792631 116.233181 144.949486 113.0803"></polygon>
                <polygon id="Fill-27" fill="#020302" points="92.0116202 171.0565 87.0163177 171.058922 75.3767428 182.707267 59.2239744 198.874862 64.2156474 198.874862 80.3702305 182.707267"></polygon>
                <polygon id="Fill-28" fill="#020302" points="106.353909 128.871826 95.6924649 140.486874 107.188677 140.480821 112.099293 135.130973"></polygon>
                <polygon id="Fill-29" fill="#020302" points="116.451159 146.597276 121.149453 141.89883 118.651802 139.400378 113.954112 144.098219"></polygon>
                <polygon id="Fill-30" fill="#020302" points="103.979779 154.083673 106.476826 156.583336 115.948422 147.101689 113.451376 144.602631"></polygon>
                <polygon id="Fill-31" fill="#020302" points="45.1829281 171.07896 33.5645248 182.707327 17.4093368 198.874923 30.4716474 198.874923 58.2512877 171.072906"></polygon>
                <polygon id="Fill-32" fill="#020302" points="75.9899346 164.259463 69.6354114 171.182119 81.1243651 171.182119 87.4843324 164.253409"></polygon>
                <polygon id="Fill-33" fill="#020302" points="94.9906545 163.078828 99.9877717 163.076406 105.972698 157.08787 103.476257 154.588812"></polygon>
                <polygon id="Fill-34" fill="#020302" points="209.537936 54.4433753 193.266002 70.7302328 152.989637 111.03904 157.66313 119.032634 205.92726 70.7302328 221.670508 54.974304 221.141217 54.4433753"></polygon>
                <polygon id="Fill-35" fill="#020302" points="116.9545 147.101568 123.286641 153.437599 127.981306 148.737336 121.652189 142.403121"></polygon>
                <polygon id="Fill-36" fill="#020302" points="158.513928 70.7299907 174.787677 54.4437385 197.965203 31.2475436 191.434048 24.711733 161.727181 54.4437385 145.453432 70.7299907 135.345476 80.8460888 140.165356 89.0933423"></polygon>
                <polygon id="Fill-37" fill="#020302" points="81.3779411 182.707388 65.2227531 198.874983 77.8834071 198.874983 105.686639 171.049962 93.0211455 171.056016"></polygon>
                <polygon id="Fill-38" fill="#020302" points="134.832275 110.364209 130.592498 102.466267 115.288411 119.138759 121.03319 125.3973"></polygon>
                <polygon id="Fill-39" fill="#020302" points="94.9906545 163.078828 87.0161967 171.059103 92.0114992 171.056682 99.9877717 163.076406"></polygon>
                <polygon id="Fill-40" fill="#020302" points="144.578075 112.444094 150.403306 106.612959 142.644799 93.3361102 136.818358 99.1660339"></polygon>
                <polygon id="Fill-41" fill="#020302" points="146.792691 116.23306 152.618528 110.401925 150.775383 107.249045 144.949547 113.080179"></polygon>
                <polygon id="Fill-42" fill="#020302" points="134.338975 94.9237503 140.165416 89.0932212 135.345536 80.8459678 129.51849 86.6758915"></polygon>
                <polygon id="Fill-43" fill="#020302" points="147.164284 116.869811 151.835962 124.8628 157.663009 119.032271 152.989516 111.038677"></polygon>
                <polygon id="Fill-44" fill="#020302" points="111.950426 163.069989 100.995603 163.075438 93.0211455 171.055713 105.686639 171.050265 112.805156 163.924802"></polygon>
                <polygon id="Fill-45" fill="#020302" points="112.957229 163.07011 113.310494 163.420632 113.660734 163.068899"></polygon>
                <polygon id="Fill-46" fill="#020302" points="66.2245962 163.092449 53.1568414 163.097898 45.1829886 171.078779 58.2507433 171.07333"></polygon>
                <polygon id="Fill-47" fill="#020302" points="90.6086649 108.981979 123.386027 76.180031 122.766 75.1205952 89.7714768 108.1423"></polygon>
                <polygon id="Fill-48" fill="#020302" points="13.0355134 184.940315 13.8757259 185.779388 51.2158839 148.408548 53.3778131 144.564915"></polygon>
                <polygon id="Fill-49" fill="#020302" points="74.7611918 124.842761 84.2358131 115.363536 83.3956005 114.523857 74.3117477 123.613816 74.0316768 124.112659"></polygon>
                <polygon id="Fill-50" fill="#020302" points="73.6695204 124.757038 72.1512098 127.45527 74.2574877 125.34669"></polygon>
                <polygon id="Fill-51" fill="#020302" points="89.4336981 110.158497 88.5953003 109.319424 83.8988207 114.020292 84.7384283 114.859365"></polygon>
                <polygon id="Fill-52" fill="#020302" points="122.76606 75.1208374 123.385483 76.1802732 128.831439 70.7299301 129.210714 70.3491386 128.593107 69.2903083 127.155853 70.7299301"></polygon>
                <polygon id="Fill-53" fill="#020302" points="73.6695204 124.757038 73.4196948 124.507011 53.3779946 144.564855 51.2160654 148.408488 72.1512098 127.45527"></polygon>
                <polygon id="Fill-54" fill="#020302" points="73.9227335 124.003628 74.0316163 124.112598 74.3116872 123.613755"></polygon>
                <polygon id="Fill-55" fill="#020302" points="95.7213793 116.452393 93.7052322 114.433411 89.0099624 119.134885 91.0242948 121.153261"></polygon>
                <polygon id="Fill-56" fill="#020302" points="90.5211956 121.65616 88.5068632 119.638389 79.0340567 129.117615 81.0495989 131.135992"></polygon>
                <polygon id="Fill-57" fill="#020302" points="78.5300501 129.621483 61.1420665 147.024683 55.9459357 156.25933 80.5468022 131.639859"></polygon>
                <polygon id="Fill-58" fill="#020302" points="208.046786 6.05391871e-05 153.647107 54.4435569 137.373963 70.7298091 132.363538 75.7430591 133.852208 78.2911535 141.407467 70.7298091 210.064143 2.01843704"></polygon>
                <polygon id="Fill-59" fill="#020302" points="96.8974954 115.27533 128.026493 84.1218643 126.537822 81.5749807 94.8807433 113.256348"></polygon>
                <polygon id="Fill-60" fill="#020302" points="61.142006 147.024683 40.2056518 167.977901 38.459897 171.081745 41.1366 171.080534 55.9458752 156.25933"></polygon>
                <polygon id="Fill-61" fill="#020302" points="128.026493 84.1218643 133.852329 78.2907298 132.363659 75.7432408 126.537822 81.5749807"></polygon>
                <polygon id="Fill-62" fill="#020302" points="89.7715978 108.142482 85.4489493 103.817562 84.6014779 105.323777 88.5956632 109.319364"></polygon>
                <polygon id="Fill-63" fill="#020302" points="52.3886125 70.7299907 36.1148632 54.4437385 27.1398932 45.460934 25.9633537 46.6378158 50.0355335 70.7299907 78.7515662 99.4673374 79.5978278 97.9611224"></polygon>
                <polygon id="Fill-64" fill="#020302" points="85.4492518 103.817804 79.5980093 97.9612435 78.7517477 99.4668531 84.6017804 105.323414"></polygon>
                <polygon id="Fill-65" fill="#020302" points="90.6086649 108.981979 89.7714768 108.1423 88.5955422 109.319787 89.4339401 110.158255"></polygon>
                <polygon id="Fill-66" fill="#020302" points="127.981004 148.737397 142.286393 163.05552 144.638263 163.054309 129.156938 147.560515"></polygon>
                <polygon id="Fill-67" fill="#020302" points="178.077633 198.874983 180.430107 198.874983 164.275524 182.707388 152.605704 171.027563 150.255044 171.029379"></polygon>
                <polygon id="Fill-68" fill="#020302" points="142.286635 163.055762 150.255044 171.029379 152.605704 171.027563 144.638505 163.054552"></polygon>
                <polygon id="Fill-69" fill="#020302" points="118.65162 139.400559 121.149271 141.899012 122.324601 140.722735 119.82816 138.224283"></polygon>
                <polygon id="Fill-70" fill="#020302" points="118.147735 138.896268 119.323064 137.719991 108.809217 127.19707 107.633282 128.373346"></polygon>
                <polygon id="Fill-71" fill="#020302" points="96.8974954 115.27533 94.8807433 113.256348 93.7054136 114.43323 95.7215608 116.452212"></polygon>
                <polygon id="Fill-72" fill="#020302" points="192.139306 212.947378 200.090173 220.905254 201.266712 219.728372 194.492385 212.947378"></polygon>
                <polygon id="Fill-73" fill="#020302" points="122.78203 153.941224 131.894918 163.060848 132.90148 163.060242 123.28652 153.437538"></polygon>
                <polygon id="Fill-74" fill="#020302" points="93.0471564 123.176178 91.0243553 121.152959 90.5210747 121.656039 92.5426659 123.679864"></polygon>
                <polygon id="Fill-75" fill="#020302" points="24.3692485 54.4434964 9.52851826 39.5908122 9.02584251 40.0951036 39.6358316 70.7297485 75.0033956 106.1258 75.3663384 105.481664"></polygon>
                <polygon id="Fill-76" fill="#020302" points="84.7386098 114.859123 84.2359341 115.363414 88.5065608 119.638692 89.0104463 119.1344"></polygon>
                <polygon id="Fill-77" fill="#020302" points="151.526191 182.707388 167.678959 198.874983 181.741177 212.947317 183.151815 214.359696 183.656305 213.855405 182.748343 212.947317 168.68673 198.874983 152.533357 182.707388 140.867771 171.033011 139.86121 171.034222"></polygon>
                <polygon id="Fill-78" fill="#020302" points="83.8985787 114.020232 81.2188512 111.338346 80.8565134 111.983693 83.395903 114.523918"></polygon>
                <polygon id="Fill-79" fill="#020302" points="131.89516 163.06109 139.861149 171.034101 140.867711 171.03289 132.901117 163.059879"></polygon>
                <polygon id="Fill-80" fill="#020302" points="81.2190327 111.338527 75.3659755 105.481361 75.0036376 106.126103 80.8560899 111.98327"></polygon>
                <polygon id="Fill-81" fill="#020302" points="116.451159 147.605254 122.78209 153.941285 123.286581 153.437599 116.954439 147.101568"></polygon>
                <polygon id="Fill-82" fill="#020302" points="113.451497 144.602571 115.948543 147.101628 116.451219 146.597337 113.954173 144.098279"></polygon>
                <polygon id="Fill-83" fill="#020302" points="102.43322 133.577234 112.947672 144.09834 113.451557 143.594654 102.937105 133.073548"></polygon>
                <polygon id="Fill-84" fill="#020302" points="93.0471564 123.176178 92.5426659 123.679864 99.0738213 130.215675 99.5771019 129.711989"></polygon>
                <polygon id="Fill-85" fill="#020302" points="99.5770414 129.711928 99.0737608 130.215614 102.433401 133.577355 102.937287 133.073669"></polygon>
                <polygon id="Fill-86" fill="#020302" points="83.8985787 114.020232 83.395903 114.523918 84.2361155 115.363596 84.7387913 114.859305"></polygon>
                <polygon id="Fill-87" fill="#020302" points="91.0245368 121.15308 89.0102044 119.134703 88.5069237 119.638389 90.5212561 121.65616"></polygon>
                <polygon id="Fill-88" fill="#020302" points="0 51.0293284 19.6854114 70.7299907 67.817673 118.899811 68.1800109 118.255674 20.6925777 70.7299907 0.504490463 50.525037"></polygon>
                <polygon id="Fill-89" fill="#020302" points="73.9229755 124.00387 68.1806158 118.255674 67.817673 118.899811 73.4196948 124.506951"></polygon>
                <polygon id="Fill-90" fill="#020302" points="74.7611918 124.842761 74.0316768 124.112659 73.669339 124.756796 74.2573063 125.346448"></polygon>
                <polygon id="Fill-91" fill="#020302" points="73.9229755 124.00387 73.4196948 124.506951 73.6695204 124.756977 74.0318583 124.112841"></polygon>
                <polygon id="Fill-92" fill="#020302" points="131.572625 182.707388 132.579186 182.707388 120.924489 171.042697 119.917323 171.043303"></polygon>
                <polygon id="Fill-93" fill="#020302" points="112.805217 163.924863 119.917686 171.043666 120.924852 171.043061 113.310312 163.420571"></polygon>
                <polygon id="Fill-94" fill="#020302" points="83.0715531 133.159211 82.5682725 133.662897 89.0994278 140.199313 89.6027084 139.695022"></polygon>
                <polygon id="Fill-95" fill="#020302" points="103.979779 154.083673 103.476499 154.58857 105.97294 157.087628 106.476826 156.583336"></polygon>
                <polygon id="Fill-96" fill="#020302" points="111.950426 163.069989 112.805156 163.924802 113.310252 163.420511 112.956987 163.069989"></polygon>
                <polygon id="Fill-97" fill="#020302" points="89.602648 139.694961 89.0993673 140.199253 92.4584027 143.560994 92.9616834 143.057308"></polygon>
                <polygon id="Fill-98" fill="#020302" points="102.972553 154.083673 103.476438 154.58857 103.979719 154.083673 103.476438 153.579987"></polygon>
                <polygon id="Fill-99" fill="#020302" points="105.97288 157.087567 106.476765 157.591253 106.980046 157.087567 106.476765 156.583276"></polygon>
                <polygon id="Fill-100" fill="#020302" points="79.0339357 129.117736 78.5300501 129.621422 80.5468022 131.639799 81.0494779 131.136113"></polygon>
                <polygon id="Fill-101" fill="#020302" points="147.726664 198.874983 161.788277 212.947317 162.795443 212.947317 148.73383 198.874983"></polygon>
                <polygon id="Fill-102" fill="#020302" points="93.430545 143.659007 88.2555858 149.297021 94.0003651 155.556168 99.1759292 149.916943"></polygon>
                <polygon id="Fill-103" fill="#020302" points="99.4512213 149.617152 102.017227 146.822664 96.2718425 140.564122 93.706442 143.359217"></polygon>
                <polygon id="Fill-104" fill="#020302" points="87.9804752 149.597053 77.3190311 161.212102 88.8152436 161.206048 93.7252545 155.8562"></polygon>
                <polygon id="Fill-105" fill="#020302" points="116.458841 131.089437 112.218459 123.191495 96.9143722 139.863987 102.659756 146.123133"></polygon>
            </g>
        </g>
    </g>
</svg>