
<svg width="521px" height="331px" viewBox="0 0 521 331" version="1.1" xmlns="http://www.w3.org/2000/svg" xmlns:xlink="http://www.w3.org/1999/xlink">
    <!-- Generator: Sketch 43.1 (39012) - http://www.bohemiancoding.com/sketch -->
    <desc>Created with Sketch.</desc>
    <defs>
        <polygon id="path-1" points="3.10927848 113.679998 0.959531646 113.679998 0.959531646 0.697402075 3.10927848 0.697402075 3.10927848 113.679998"></polygon>
    </defs>
    <g id="Page-1" stroke="none" stroke-width="1" fill="none" fill-rule="evenodd">
        <g id="Artboard" transform="translate(-94.000000, -51.000000)">
            <rect id="Rectangle" fill="#AD2C5B" x="94" y="51" width="521" height="331"></rect>
            <g id="logowhite" transform="translate(296.000000, 159.000000)">
                <g id="Group-16">
                    <path d="M95.5783038,94.3776295 L80.1362785,94.3776295 L80.1362785,65.9586055 C80.1362785,60.0792425 80.2331139,53.4144925 80.3310253,48.3194651 L80.1362785,48.2206346 C76.8341899,53.2189343 73.3384304,58.4127922 69.8415949,63.4100405 L59.6437468,78.0117203 L49.4458987,63.4100405 C45.9501392,58.4127922 42.4533038,53.2189343 39.1512152,48.2206346 L38.9575443,48.3194651 C39.0543797,53.4144925 39.1512152,60.0792425 39.1512152,65.9586055 L39.1512152,94.3776295 L24.2923544,94.3776295 L24.2923544,23.4289 L39.1512152,23.4289 L60.0321646,53.4144925 L80.9131139,23.4289 L95.5783038,23.4289 L95.5783038,94.3776295 Z M16.6972278,100.061434 L103.174506,100.061434 L103.174506,17.7450952 L16.6972278,17.7450952 L16.6972278,100.061434 Z" id="Fill-1" fill="#FFFFFF"></path>
                    <path d="M0,18.806781 C0,18.806781 1.84369701,18.7331838 5.07026098,18.6028117 C8.29682496,18.5102895 12.9062559,18.3767632 18.4373469,18.2169522 C23.9688148,18.1307384 30.4219427,17.9362315 37.3359007,17.8962788 C44.2498587,17.8521205 51.6250236,17.8037566 59.0001884,17.7564442 C66.3749764,17.8037566 73.7501413,17.8510691 80.6640993,17.8952274 C87.5780573,17.9299232 94.0311852,18.1286356 99.5626531,18.2148494 C105.093744,18.308423 109.703175,18.5176492 112.929739,18.6017603 C116.156303,18.7321324 118,18.806781 118,18.806781 C118,18.806781 116.156303,18.8814296 112.929739,19.0118017 C109.703175,19.0959128 105.093744,19.305139 99.5626531,19.3987126 C94.0311852,19.4849264 87.5780573,19.6836388 80.6640993,19.7183346 C73.7501413,19.7624929 66.3749764,19.8098054 59.0001884,19.8571179 C51.6250236,19.8098054 44.2498587,19.7614415 37.3359007,19.7172832 C30.4219427,19.6773305 23.9688148,19.4828236 18.4373469,19.3966098 C12.9062559,19.2367988 8.29682496,19.1032725 5.07026098,19.0107503 C1.84369701,18.8803782 0,18.806781 0,18.806781" id="Fill-3" fill="#FFFFFF" transform="translate(59.000000, 18.806781) scale(1, -1) translate(-59.000000, -18.806781) "></path>
                    <path d="M0,100.307564 C0,100.307564 1.84373832,100.233967 5.07018689,100.103595 C8.29700937,100.011073 12.9061682,99.8775465 18.4373832,99.7177355 C23.9685981,99.6315217 30.4218692,99.4370149 37.3357944,99.3970621 C44.2500935,99.3529038 51.6250467,99.3045399 59,99.2572275 C66.3749533,99.3045399 73.7499065,99.3518524 80.6638317,99.3960107 C87.5781308,99.4307065 94.031028,99.6294189 99.5622429,99.7156327 C105.093458,99.8092063 109.702991,100.018433 112.929439,100.102544 C116.155888,100.232916 118,100.307564 118,100.307564 C118,100.307564 116.155888,100.382213 112.929439,100.512585 C109.702991,100.596696 105.093458,100.805922 99.5622429,100.899496 C94.031028,100.98571 87.5781308,101.184422 80.6638317,101.219118 C73.7499065,101.263276 66.3749533,101.310589 59,101.357901 C51.6250467,101.310589 44.2500935,101.262225 37.3357944,101.218067 C30.4218692,101.178114 23.9685981,100.983607 18.4373832,100.897393 C12.9061682,100.737582 8.29700937,100.604056 5.07018689,100.511534 C1.84373832,100.381161 0,100.307564 0,100.307564" id="Fill-5" fill="#FFFFFF"></path>
                    <g id="Group-9" transform="translate(14.063291, 0.000000)" fill="#FFFFFF">
                        <path d="M1.87602532,0.176841152 C1.87602532,0.176841152 1.97644726,1.95261826 2.15433755,5.0602282 C2.26910549,8.16850774 2.55028692,12.6079505 2.68083544,17.9352818 C2.79847257,23.2632828 3.06387342,29.4785026 3.11838819,36.1376668 C3.17864135,42.7975006 3.24463291,49.900609 3.30918987,57.004387 C3.24463291,64.1074955 3.18007595,71.2112735 3.11982278,77.8704376 C3.07248101,84.5302714 2.80134177,90.7454913 2.68370464,96.0734922 C2.55602532,101.400824 2.27054008,105.840266 2.15577215,108.948546 C1.97788186,112.056156 1.87602532,113.831933 1.87602532,113.831933 C1.87602532,113.831933 1.77416878,112.056156 1.59627848,108.948546 C1.48151055,105.840266 1.19602532,101.400824 1.06834599,96.0734922 C0.950708861,90.7454913 0.67956962,84.5302714 0.632227848,77.8704376 C0.571974684,71.2112735 0.507417722,64.1074955 0.442860759,57.004387 C0.507417722,49.900609 0.573409283,42.7975006 0.633662447,36.1376668 C0.688177215,29.4785026 0.953578059,23.2632828 1.07121519,17.9352818 C1.20176371,12.6079505 1.48294515,8.16850774 1.59771308,5.0602282 C1.77560338,1.95261826 1.87602532,0.176841152 1.87602532,0.176841152" id="Fill-7"></path>
                    </g>
                    <g id="Group-12" transform="translate(101.139241, 0.008282)">
                        <mask id="mask-2" fill="white">
                            <use xlink:href="#path-1"></use>
                        </mask>
                        <g id="Clip-11"></g>
                        <path d="M2.03440506,0.697402075 C2.03440506,0.697402075 2.12908861,2.463149 2.24313924,5.55227938 C2.33459494,8.64140977 2.52826582,13.0551593 2.6498481,18.3511644 C2.78756962,23.6471695 2.9026962,29.8254303 2.97908861,36.4460545 C3.00921519,39.7563666 3.04041772,43.1766518 3.0726962,46.6513056 C3.08453165,50.1271951 3.09744304,53.6574533 3.10927848,57.1889472 C3.09744304,60.7192054 3.08560759,64.2506993 3.07377215,67.7253531 C3.0726962,71.2012426 3.00921519,74.6215278 2.98231646,77.9318399 C2.907,84.5512285 2.79079747,90.7307249 2.652,96.02673 C2.53256962,101.322735 2.33567089,105.736485 2.24421519,108.825615 C2.13016456,111.914745 2.03440506,113.680492 2.03440506,113.680492 C2.03440506,113.680492 1.93864557,111.914745 1.82459494,108.825615 C1.73313924,105.736485 1.53731646,101.322735 1.41681013,96.02673 C1.27801266,90.7307249 1.16181013,84.5512285 1.08649367,77.9318399 C1.05959494,74.6215278 0.996113924,71.2012426 0.995037975,67.7253531 C0.983202532,64.2506993 0.971367089,60.7192054 0.959531646,57.1889472 C0.971367089,53.6574533 0.984278481,50.1271951 0.996113924,46.6513056 C1.02839241,43.1766518 1.05959494,39.7563666 1.08972152,36.4460545 C1.16611392,29.8254303 1.28124051,23.6471695 1.41896203,18.3511644 C1.5405443,13.0551593 1.73421519,8.64140977 1.82567089,5.55227938 C1.93972152,2.463149 2.03440506,0.697402075 2.03440506,0.697402075" id="Fill-10" fill="#FFFFFF" mask="url(#mask-2)"></path>
                    </g>
                </g>
            </g>
        </g>
    </g>
</svg>