
<svg width="16px" height="16px" viewBox="0 0 16 16" version="1.1" xmlns="http://www.w3.org/2000/svg" xmlns:xlink="http://www.w3.org/1999/xlink">
    <!-- Generator: Sketch 43.1 (39012) - http://www.bohemiancoding.com/sketch -->
    <desc>Created with Sketch.</desc>
    <defs></defs>
    <g id="Page-1" stroke="none" stroke-width="1" fill="none" fill-rule="evenodd">
        <g id="Mobile-ABOUT-Copy-3" transform="translate(-49.000000, -128.000000)" fill="#FFFFFF">
            <g id="Group" transform="translate(49.000000, 128.000000)">
                <path d="M13.153942,0.393621428 C13.6859886,-0.130373355 14.5460487,-0.132892545 15.0832473,0.396176273 L15.0832473,0.396176273 C15.6167266,0.921582059 15.6177311,1.77244382 15.0858414,2.29628409 L2.33011691,14.8589673 C1.7980703,15.3829621 0.938010195,15.3854813 0.400811576,14.8564125 L0.400811576,14.8564125 C-0.132667723,14.3310067 -0.133672255,13.4801449 0.398217473,12.9563047" id="Rectangle-8"></path>
                <path d="M13.153942,0.393621428 C13.6859886,-0.130373355 14.5460487,-0.132892545 15.0832473,0.396176273 L15.0832473,0.396176273 C15.6167266,0.921582059 15.6177311,1.77244382 15.0858414,2.29628409 L2.33011691,14.8589673 C1.7980703,15.3829621 0.938010195,15.3854813 0.400811576,14.8564125 L0.400811576,14.8564125 C-0.132667723,14.3310067 -0.133672255,13.4801449 0.398217473,12.9563047" id="Rectangle-8-Copy-2" transform="translate(7.742029, 7.626294) scale(-1, 1) translate(-7.742029, -7.626294) "></path>
            </g>
        </g>
    </g>
</svg>