
<svg width="521px" height="331px" viewBox="0 0 521 331" version="1.1" xmlns="http://www.w3.org/2000/svg" xmlns:xlink="http://www.w3.org/1999/xlink">
    <!-- Generator: Sketch 43.1 (39012) - http://www.bohemiancoding.com/sketch -->
    <desc>Created with Sketch.</desc>
    <defs>
        <polygon id="path-1" points="155.66567 0.053522539 155.66567 83.7486646 0.0725394001 83.7486646 0.0725394001 0.053522539 155.66567 0.053522539"></polygon>
        <polygon id="path-3" points="49.9375625 83.6036036 0.868233562 83.6036036 0.868233562 0.384099298 49.9375625 0.384099298 49.9375625 83.6036036"></polygon>
    </defs>
    <g id="Page-1" stroke="none" stroke-width="1" fill="none" fill-rule="evenodd">
        <g id="Artboard-Copy-4" transform="translate(-94.000000, -51.000000)">
            <rect id="Rectangle" fill="#6EC392" x="94" y="51" width="521" height="331"></rect>
            <g id="Page-1" transform="translate(269.000000, 145.000000)">
                <g id="Group-3" transform="translate(14.706745, 0.330417)">
                    <mask id="mask-2" fill="white">
                        <use xlink:href="#path-1"></use>
                    </mask>
                    <g id="Clip-2"></g>
                    <path d="M155.648996,61.1230559 C156.477126,61.4686174 127.731575,1.65302583 79.5110792,0.0868516517 C31.2905836,-1.39571892 -0.745255132,47.0776505 0.0884325513,46.8045453 C0.849867302,46.7766775 39.8720088,81.9793682 78.2327581,83.6458667 C121.456685,85.524161 154.915351,61.0394523 155.648996,61.1230559" id="Fill-1" fill="#FEFEFE" mask="url(#mask-2)"></path>
                </g>
                <path d="M46.6514954,35.384197 C49.0136105,30.9253381 63.4141757,12.2928817 81.6830518,8.58645526 C81.6830518,8.58645526 61.2577036,14.8957405 56.966991,34.024245 L46.6514954,35.384197 Z" id="Fill-4" fill="#000000"></path>
                <path d="M86.6318219,36.8650955 C90.3389532,33.4429213 105.834428,16.5382727 128.57187,23.2488553 C128.57187,23.2488553 106.5514,18.5168913 96.8083696,39.0109213 L86.6318219,36.8650955 Z" id="Fill-6" fill="#000000"></path>
                <path d="M87.5410973,36.8567351 C89.6086427,40.3736601 97.645392,57.0776601 116.803535,57.2058523 C116.803535,57.2058523 98.6680489,55.7232817 95.9168795,37.5812997 L87.5410973,36.8567351 Z" id="Fill-8" fill="#000000"></path>
                <path d="M43.9375641,38.7807327 C47.1333669,44.0923483 66.4582474,65.8905946 90.446221,68.87803 C90.446221,68.87803 63.573688,62.8697177 57.4544204,39.5498859 L43.9375641,38.7807327 Z" id="Fill-10" fill="#000000"></path>
                <path d="M1.70794817,52.2849441 C24.5176432,35.0904697 66.357649,31.9135327 84.8432839,34.2600072 C114.550355,38.0277429 142.039817,51.7666018 142.100954,51.4210402 C142.062049,51.7498811 108.475551,39.320812 84.3486293,38.6687039 C66.6466608,38.1949502 20.0879826,47.0346378 0.00166737537,63.5491363 L1.70794817,52.2849441 Z" id="Fill-12" fill="#221F20"></path>
                <path d="M140.867652,26.9915099 C149.41573,36.5613357 164.633309,59.0897201 164.633309,59.0897201 C164.633309,59.0897201 110.404704,92.5144408 67.5031359,73.129552 C67.5031359,73.129552 111.116118,85.7035339 156.535423,55.3554258 L140.867652,26.9915099 Z" id="Fill-14" fill="#000000"></path>
                <g id="Group-18" transform="translate(15.002199, 59.045132)">
                    <mask id="mask-4" fill="white">
                        <use xlink:href="#path-3"></use>
                    </mask>
                    <g id="Clip-17"></g>
                    <path d="M33.7062814,83.59803 C33.7173972,84.0996517 57.7109287,55.4737778 47.334296,30.3592553 C36.9132,5.25030631 4.64948666,0.039015015 4.98851965,0.401297297 C5.17193094,0.791447447 -3.82633812,28.9881562 4.21596906,49.0697417 C13.2753752,71.6984505 33.5784493,83.2023063 33.7062814,83.59803" id="Fill-16" fill="#000000" mask="url(#mask-4)"></path>
                </g>
                <path d="M33.3947496,73.0877502 C36.2237298,73.2549574 49.1069835,76.3371435 55.2429249,84.8591375 C55.2429249,84.8591375 47.2784285,75.8299483 36.4793941,78.0705249 L33.3947496,73.0877502 Z" id="Fill-19" fill="#000000"></path>
                <path d="M41.8994756,93.9529802 C44.511697,95.0621213 56.7669059,99.1029622 58.6010188,112.323479 C58.6010188,112.323479 55.9221024,99.9334246 43.155565,99.6770402 L41.8994756,93.9529802 Z" id="Fill-21" fill="#000000"></path>
                <path d="M42.1167902,94.4239471 C40.7940057,96.2966679 34.0967147,104.289172 38.4652381,114.165545 C38.4652381,114.165545 35.024887,104.500968 43.684123,98.8883796 L42.1167902,94.4239471 Z" id="Fill-23" fill="#000000"></path>
                <path d="M31.0198513,72.4780012 C29.0412326,75.3539652 22.3494994,90.3301574 26.3789899,103.333305 C26.3789899,103.333305 23.2276504,88.1453165 33.7599048,79.5954547 L31.0198513,72.4780012 Z" id="Fill-25" fill="#000000"></path>
                <path d="M11.4615383,52.1188517 C28.0130177,60.518227 39.7346666,82.4000769 42.819311,92.4269357 C47.7769738,108.556858 47.1044657,125.851656 47.2989928,125.812641 C47.1155815,125.862804 45.7038704,105.736629 40.4460801,93.2016625 C36.5833271,84.0052661 22.916407,63.316161 9.7941629,56.8285213 L11.4615383,52.1188517 Z" id="Fill-27" fill="#221F20"></path>
                <path d="M59.5314143,119.510602 C56.6135074,126.115286 48.5934319,139.151875 48.5934319,139.151875 C48.5934319,139.151875 18.8919187,119.059142 18.8752449,92.5400793 C18.8752449,92.5400793 22.5490287,117.844103 48.6267794,134.135659 L59.5314143,119.510602 Z" id="Fill-29" fill="#000000"></path>
            </g>
        </g>
    </g>
</svg>