
<svg width="521px" height="331px" viewBox="0 0 521 331" version="1.1" xmlns="http://www.w3.org/2000/svg" xmlns:xlink="http://www.w3.org/1999/xlink">
    <!-- Generator: Sketch 43.1 (39012) - http://www.bohemiancoding.com/sketch -->
    <desc>Created with Sketch.</desc>
    <defs>
        <polygon id="path-1" points="138.369484 0.0475755902 138.369484 74.4432574 0.0644794668 74.4432574 0.0644794668 0.0475755902"></polygon>
        <polygon id="path-3" points="44.3889444 74.3143143 0.771763166 74.3143143 0.771763166 0.341421598 44.3889444 0.341421598"></polygon>
    </defs>
    <g id="Page-1" stroke="none" stroke-width="1" fill="none" fill-rule="evenodd">
        <g id="PORTFOLIO-Copy-3" transform="translate(-32.000000, -74.000000)">
            <g id="bg_christcouprie" transform="translate(32.000000, 74.000000)">
                <rect id="Rectangle" fill="#6EC392" fill-rule="nonzero" x="0" y="0" width="521" height="331"></rect>
                <g id="Page-1" transform="translate(185.000000, 56.000000)">
                    <g id="Group-3" transform="translate(13.072662, 0.293704)">
                        <g id="Fill-1-Clipped">
                            <mask id="mask-2" fill="white">
                                <use xlink:href="#path-1"></use>
                            </mask>
                            <g id="path-2"></g>
                            <path d="M138.354663,54.3316052 C139.090779,54.638771 113.539178,1.46935629 70.6765148,0.0772014682 C27.8138521,-1.24063904 -0.662449006,41.8468004 0.0786067123,41.6040403 C0.755437602,41.5792689 35.4417856,72.8705495 69.5402294,74.3518815 C107.961498,76.0214764 137.702534,54.2572909 138.354663,54.3316052" id="Fill-1" fill="#FEFEFE" fill-rule="nonzero" mask="url(#mask-2)"></path>
                        </g>
                    </g>
                    <path d="M41.4679959,31.4526196 C43.5676538,27.4891894 56.3681562,10.927006 72.6071572,7.63240468 C72.6071572,7.63240468 54.4512921,13.2406582 50.6373253,30.2437733 L41.4679959,31.4526196 Z" id="Fill-4" fill="#000000" fill-rule="nonzero"></path>
                    <path d="M77.0060639,32.7689738 C80.3012917,29.7270412 94.0750471,14.7006868 114.286107,20.6656492 C114.286107,20.6656492 94.7123556,16.4594589 86.0518841,34.6763745 L77.0060639,32.7689738 Z" id="Fill-6" fill="#000000" fill-rule="nonzero"></path>
                    <path d="M77.8143087,32.7615423 C79.6521268,35.8876979 86.795904,50.7356979 103.825364,50.8496465 C103.825364,50.8496465 87.7049324,49.531806 85.2594484,33.4055997 L77.8143087,32.7615423 Z" id="Fill-8" fill="#000000" fill-rule="nonzero"></path>
                    <path d="M39.0556125,34.4717624 C41.8963261,39.1931985 59.0739977,58.5694174 80.3966409,61.2249156 C80.3966409,61.2249156 56.5099449,55.8841935 51.0705959,35.1554541 L39.0556125,34.4717624 Z" id="Fill-10" fill="#000000" fill-rule="nonzero"></path>
                    <path d="M1.51817615,46.4755059 C21.7934606,31.1915286 58.9845769,28.3675846 75.4162524,30.4533397 C101.822538,33.8024381 126.257615,46.0147572 126.311959,45.7075913 C126.277377,45.9998943 96.422712,34.9518329 74.9765594,34.3721812 C59.2414763,33.9510668 17.8559845,41.8085669 0.00148211144,56.4881212 L1.51817615,46.4755059 Z" id="Fill-12" fill="#221F20" fill-rule="nonzero"></path>
                    <path d="M125.215691,23.9924532 C132.813982,32.4989651 146.340719,52.5241956 146.340719,52.5241956 C146.340719,52.5241956 98.1375147,82.2350585 60.0027875,65.0040462 C60.0027875,65.0040462 98.7698827,76.180919 139.142598,49.2048229 L125.215691,23.9924532 Z" id="Fill-14" fill="#000000" fill-rule="nonzero"></path>
                    <g id="Group-18" transform="translate(13.335288, 52.484562)">
                        <g id="Fill-16-Clipped">
                            <mask id="mask-4" fill="white">
                                <use xlink:href="#path-3"></use>
                            </mask>
                            <g id="path-4"></g>
                            <path d="M29.961139,74.30936 C29.9710197,74.755246 51.2986033,49.3100247 42.0749298,26.9860047 C32.8117333,4.66693894 4.13287703,0.0346800133 4.43423969,0.356708708 C4.59727195,0.703508842 -3.40118944,25.76725 3.74752805,43.6175482 C11.8003335,63.731956 29.8475105,73.9576056 29.961139,74.30936" id="Fill-16" fill="#000000" fill-rule="nonzero" mask="url(#mask-4)"></path>
                        </g>
                    </g>
                    <path d="M29.6842219,64.9668891 C32.1988709,65.1155177 43.650652,67.8552387 49.1048221,75.4303444 C49.1048221,75.4303444 42.0252698,67.4043985 32.4261281,69.3960221 L29.6842219,64.9668891 Z" id="Fill-19" fill="#000000" fill-rule="nonzero"></path>
                    <path d="M37.2439783,83.5137602 C39.5659529,84.4996634 50.4594719,88.091522 52.0897945,99.8430924 C52.0897945,99.8430924 49.7085355,88.8297108 38.3605022,88.6018135 L37.2439783,83.5137602 Z" id="Fill-21" fill="#000000" fill-rule="nonzero"></path>
                    <path d="M37.4371468,83.9323974 C36.2613384,85.5970381 30.3081908,92.7014862 34.1913228,101.480484 C34.1913228,101.480484 31.1332329,92.8897493 38.8303316,87.9007819 L37.4371468,83.9323974 Z" id="Fill-23" fill="#000000" fill-rule="nonzero"></path>
                    <path d="M27.5732012,64.42489 C25.814429,66.9813024 19.8662217,80.2934732 23.447991,91.8518267 C23.447991,91.8518267 20.6468004,78.3513924 30.0088043,70.7515153 L27.5732012,64.42489 Z" id="Fill-25" fill="#000000" fill-rule="nonzero"></path>
                    <path d="M10.188034,46.3278682 C24.9004602,53.7939796 35.3197036,73.2445128 38.0616098,82.1572762 C42.4684212,96.4949849 41.8706362,111.868139 42.0435492,111.833459 C41.8805169,111.878048 40.6256626,93.9881147 35.9520712,82.8459222 C32.518513,74.6713476 20.3701396,56.281032 8.70592258,50.5142412 L10.188034,46.3278682 Z" id="Fill-27" fill="#221F20" fill-rule="nonzero"></path>
                    <path d="M52.9168127,106.231646 C50.3231177,112.102476 43.1941617,123.690556 43.1941617,123.690556 C43.1941617,123.690556 16.7928166,105.830348 16.7779955,82.2578483 C16.7779955,82.2578483 20.0435811,104.750314 43.2238039,119.231697 L52.9168127,106.231646 Z" id="Fill-29" fill="#000000" fill-rule="nonzero"></path>
                </g>
            </g>
        </g>
    </g>
</svg>