
<svg width="521px" height="331px" viewBox="0 0 521 331" version="1.1" xmlns="http://www.w3.org/2000/svg" xmlns:xlink="http://www.w3.org/1999/xlink">
    <!-- Generator: Sketch 43.1 (39012) - http://www.bohemiancoding.com/sketch -->
    <desc>Created with Sketch.</desc>
    <defs></defs>
    <g id="Page-1" stroke="none" stroke-width="1" fill="none" fill-rule="evenodd">
        <g id="PORTFOLIO-Copy-3" transform="translate(-68.000000, -115.000000)">
            <g id="bg_metalcraft" transform="translate(68.000000, 115.000000)">
                <rect id="Rectangle" fill="#FFFFFF" fill-rule="nonzero" x="0" y="0" width="521" height="331"></rect>
                <g id="Page-1" transform="translate(182.000000, 45.000000)">
                    <polygon id="Stroke-1" stroke="#010202" stroke-width="2" points="82.2800742 160.867749 24.8498804 46.0208806 139.710268 46.0208806"></polygon>
                    <polygon id="Fill-3" fill="#020302" fill-rule="nonzero" points="51.6759965 91.2013695 36.6819066 106.194561 28.7955932 120.19791 43.7909829 105.204285"></polygon>
                    <polygon id="Fill-4" fill="#020302" fill-rule="nonzero" points="37.3138341 116.706343 40.0692564 111.812145 29.4626133 122.417974 32.3605725 122.416673 38.0720085 116.705477"></polygon>
                    <polygon id="Fill-5" fill="#020302" fill-rule="nonzero" points="75.6942677 122.395794 85.8867313 122.391029 80.793099 117.29713"></polygon>
                    <polygon id="Fill-6" fill="#020302" fill-rule="nonzero" points="53.2232354 88.4524226 57.9104861 80.1303805 53.7188649 75.9388192 48.8318893 84.6182448 52.9446605 88.7318313"></polygon>
                    <polygon id="Fill-7" fill="#020302" fill-rule="nonzero" points="48.5722038 85.0795505 38.2302719 103.444272 52.5844627 89.09177"></polygon>
                    <polygon id="Fill-8" fill="#C72026" fill-rule="nonzero" points="124.727702 116.664453 103.592399 116.674417 109.298636 122.379549 134.676683 122.36742 112.920977 85.1744626 108.747118 89.3460971"></polygon>
                    <polygon id="Fill-9" fill="#020302" fill-rule="nonzero" points="92.7633725 62.0214157 96.936798 57.8497814 95.8671219 56.02128 91.6945637 60.1937807"></polygon>
                    <polygon id="Fill-10" fill="#020302" fill-rule="nonzero" points="60.5929937 75.3648842 56.4031054 71.1741893 53.9782471 75.477947 58.1703016 79.6690747"></polygon>
                    <polygon id="Fill-11" fill="#020302" fill-rule="nonzero" points="88.3708571 54.5112177 90.6284838 58.3713873 94.801042 54.1984534 92.542982 50.338717 92.2713391 50.6111944"></polygon>
                    <polygon id="Fill-12" fill="#020302" fill-rule="nonzero" points="81.4055742 116.68477 81.1547266 116.936455 86.6083829 122.390769 100.170607 122.384271 94.4656694 116.679139"></polygon>
                    <polygon id="Fill-13" fill="#C72026" fill-rule="nonzero" points="80.2018532 40.5458596 87.927 53.7530026 91.0710409 50.6110645 92.1004248 49.580935 80.1074058 29.078847 57.009515 70.0968853 61.2002697 74.2875803"></polygon>
                    <polygon id="Fill-14" fill="#020302" fill-rule="nonzero" points="95.1859781 116.678446 100.891782 122.383578 107.614839 122.380979 101.908169 116.675413"></polygon>
                    <polygon id="Fill-15" fill="#020302" fill-rule="nonzero" points="134.122349 50.6112378 107.987861 76.74265 109.307951 78.9987108 137.698766 50.6112378 153.869542 34.4423644 152.080684 32.6541498 145.777439 38.9575195"></polygon>
                    <polygon id="Fill-16" fill="#020302" fill-rule="nonzero" points="80.0762124 87.9659485 76.3693896 92.0002615 80.4843267 96.4790282 84.1907163 92.4438494"></polygon>
                    <polygon id="Fill-17" fill="#020302" fill-rule="nonzero" points="59.1367357 95.6432722 38.0720518 116.705477 47.4309564 116.701578 63.814455 100.320441"></polygon>
                    <polygon id="Fill-18" fill="#020302" fill-rule="nonzero" points="75.5254763 88.6106677 96.215839 67.9231736 92.7633295 62.0213723 70.8486237 83.9339318"></polygon>
                    <polygon id="Fill-19" fill="#020302" fill-rule="nonzero" points="95.3924181 72.0990529 98.4290152 77.7500363 112.460007 62.4778696 118.828671 55.5463721 110.600963 55.5463721 104.231865 62.4778696"></polygon>
                    <polygon id="Fill-20" fill="#020302" fill-rule="nonzero" points="66.280558 88.4998138 59.4972801 95.2827266 64.1749994 99.9594625 70.9582774 93.1765497"></polygon>
                    <polygon id="Fill-21" fill="#020302" fill-rule="nonzero" points="72.334559 116.689405 80.1805809 116.685506 76.2606028 112.765123"></polygon>
                    <polygon id="Fill-22" fill="#020302" fill-rule="nonzero" points="84.3879286 92.229333 86.225743 90.2297209 82.1112391 85.7509542 80.2734247 87.7514321"></polygon>
                    <polygon id="Fill-23" fill="#020302" fill-rule="nonzero" points="92.5044238 105.587617 108.747118 89.3464005 105.40162 83.6269728 87.9709742 101.055133"></polygon>
                    <polygon id="Fill-24" fill="#020302" fill-rule="nonzero" points="71.3186918 92.8160907 74.6832533 89.4523585 70.0055338 84.7756233 66.641839 88.1393555"></polygon>
                    <polygon id="Fill-25" fill="#020302" fill-rule="nonzero" points="83.4042085 105.61976 76.6209304 112.404838 80.9017991 116.685637 81.4056608 116.68477 87.9385239 110.153542"></polygon>
                    <polygon id="Fill-26" fill="#020302" fill-rule="nonzero" points="85.8230447 98.9069804 87.6110362 100.694762 105.135263 83.1712984 103.815172 80.9152369"></polygon>
                    <polygon id="Fill-27" fill="#020302" fill-rule="nonzero" points="65.9002145 122.400429 62.3224978 122.402162 53.9860455 130.7372 42.4171709 142.306012 45.992288 142.306012 57.5624624 130.7372"></polygon>
                    <polygon id="Fill-28" fill="#020302" fill-rule="nonzero" points="76.1723943 92.214951 68.5364951 100.526163 76.7702687 100.521832 80.2873315 96.6937185"></polygon>
                    <polygon id="Fill-29" fill="#020302" fill-rule="nonzero" points="83.4042085 104.898495 86.7692028 101.536496 84.9803447 99.7487149 81.6157829 103.110281"></polygon>
                    <polygon id="Fill-30" fill="#020302" fill-rule="nonzero" points="74.4720039 110.255428 76.2604294 112.044076 83.0441401 105.259431 81.2557152 103.471216"></polygon>
                    <polygon id="Fill-31" fill="#020302" fill-rule="nonzero" points="32.3607458 122.4165 24.039457 130.737243 12.4688493 142.306056 21.824288 142.306056 41.7205169 122.412168"></polygon>
                    <polygon id="Fill-32" fill="#020302" fill-rule="nonzero" points="54.4252234 117.536771 49.8740109 122.490316 58.1025858 122.490316 62.6576975 117.532439"></polygon>
                    <polygon id="Fill-33" fill="#020302" fill-rule="nonzero" points="68.0338471 116.691961 71.6128635 116.690228 75.8993648 112.405098 74.1113733 110.616883"></polygon>
                    <polygon id="Fill-34" fill="#020302" fill-rule="nonzero" points="150.074468 38.9572597 138.420245 50.611411 109.573659 79.454602 112.92089 85.1744626 147.488443 50.611411 158.764012 39.3371686 158.384926 38.9572597"></polygon>
                    <polygon id="Fill-35" fill="#020302" fill-rule="nonzero" points="83.7647095 105.259344 88.2998915 109.793126 91.6622867 106.429827 87.1292705 101.897344"></polygon>
                    <polygon id="Fill-36" fill="#020302" fill-rule="nonzero" points="113.530246 50.6112378 125.185769 38.9575195 141.785889 22.3593534 137.10817 17.6826178 115.83163 38.9575195 104.176107 50.6112378 96.9366247 57.849868 100.388701 63.751236"></polygon>
                    <polygon id="Fill-37" fill="#020302" fill-rule="nonzero" points="58.2842011 130.737287 46.7135934 142.306099 55.7813591 142.306099 75.6944847 122.395751 66.6232529 122.400083"></polygon>
                    <polygon id="Fill-38" fill="#020302" fill-rule="nonzero" points="96.5690618 78.9717229 93.5324648 73.3203066 82.5714295 85.2504009 86.6859334 89.7287347"></polygon>
                    <polygon id="Fill-39" fill="#020302" fill-rule="nonzero" points="68.0338471 116.691961 62.3224111 122.402291 65.9001278 122.400559 71.6128635 116.690228"></polygon>
                    <polygon id="Fill-40" fill="#020302" fill-rule="nonzero" points="103.549162 80.4599962 107.721287 76.2874951 102.164518 66.7871722 97.9915267 70.9588065"></polygon>
                    <polygon id="Fill-41" fill="#020302" fill-rule="nonzero" points="105.135306 83.1712118 109.307865 78.9987108 107.987774 76.74265 103.815216 80.9151503"></polygon>
                    <polygon id="Fill-42" fill="#020302" fill-rule="nonzero" points="96.2157524 67.9232169 100.388744 63.7511494 96.9366677 57.8497814 92.7632428 62.0214157"></polygon>
                    <polygon id="Fill-43" fill="#020302" fill-rule="nonzero" points="105.401447 83.6268425 108.747378 89.3462702 112.920804 85.1742028 109.573572 79.4543422"></polygon>
                    <polygon id="Fill-44" fill="#020302" fill-rule="nonzero" points="80.1807105 116.685637 72.3346886 116.689536 66.6232529 122.399866 75.6944847 122.395967 80.792882 117.297303"></polygon>
                    <polygon id="Fill-45" fill="#020302" fill-rule="nonzero" points="80.9017991 116.685723 81.1548133 116.936541 81.4056608 116.684857"></polygon>
                    <polygon id="Fill-46" fill="#020302" fill-rule="nonzero" points="47.4311297 116.701708 38.0717918 116.705607 32.3607891 122.416371 41.720127 122.412472"></polygon>
                    <polygon id="Fill-47" fill="#020302" fill-rule="nonzero" points="64.8953951 77.9826605 88.3710734 54.5110444 87.927 53.7529592 64.2957874 77.3818236"></polygon>
                    <polygon id="Fill-48" fill="#020302" fill-rule="nonzero" points="9.33624608 132.33507 9.9380199 132.935473 36.6816466 106.194561 38.2300553 103.444228"></polygon>
                    <polygon id="Fill-49" fill="#020302" fill-rule="nonzero" points="53.5451779 89.3319312 60.3310553 82.5490191 59.7292814 81.9481821 53.2232788 88.4525528 53.0226874 88.8095027"></polygon>
                    <polygon id="Fill-50" fill="#020302" fill-rule="nonzero" points="52.7633052 89.2705916 51.6758665 91.2013265 53.1844169 89.6925204"></polygon>
                    <polygon id="Fill-51" fill="#020302" fill-rule="nonzero" points="64.0538649 78.8245245 63.4533908 78.2241212 60.0896959 81.5878534 60.6910365 82.1882567"></polygon>
                    <polygon id="Fill-52" fill="#020302" fill-rule="nonzero" points="87.927043 53.7531325 88.3706838 54.5112177 92.2711658 50.6111944 92.5428087 50.338717 92.1004685 49.5810651 91.0710839 50.6111944"></polygon>
                    <polygon id="Fill-53" fill="#020302" fill-rule="nonzero" points="52.7633052 89.2705916 52.584376 89.0916834 38.2301853 103.444185 36.6817766 106.194518 51.6758665 91.2013265"></polygon>
                    <polygon id="Fill-54" fill="#020302" fill-rule="nonzero" points="52.9446605 88.7314849 53.0226441 88.809459 53.2232354 88.4525091"></polygon>
                    <polygon id="Fill-55" fill="#020302" fill-rule="nonzero" points="68.5572041 83.3281568 67.1132068 81.883463 63.7503785 85.2476288 65.193076 86.691889"></polygon>
                    <polygon id="Fill-56" fill="#020302" fill-rule="nonzero" points="64.8327482 87.0517412 63.3900507 85.6079139 56.605473 92.3908267 58.0490371 93.8350876"></polygon>
                    <polygon id="Fill-57" fill="#020302" fill-rule="nonzero" points="56.2444953 92.7513723 43.7909395 105.204329 40.0693864 111.812232 57.6889259 94.1956324"></polygon>
                    <polygon id="Fill-58" fill="#020302" fill-rule="nonzero" points="149.006482 4.33191517e-05 110.04455 38.9573896 98.38946 50.6111078 94.8009124 54.1983667 95.8671219 56.0216698 101.278321 50.6111078 150.451346 1.44430384"></polygon>
                    <polygon id="Fill-59" fill="#020302" fill-rule="nonzero" points="69.3995575 82.4859028 91.6946504 60.1938673 90.6284401 58.3714306 67.955127 81.041209"></polygon>
                    <polygon id="Fill-60" fill="#020302" fill-rule="nonzero" points="43.7908962 105.204329 28.7959398 120.19752 27.5456019 122.418493 29.4627 122.417627 40.069343 111.812232"></polygon>
                    <polygon id="Fill-61" fill="#020302" fill-rule="nonzero" points="91.6946504 60.1938673 95.8672086 56.0213667 94.800999 54.1984968 90.6284401 58.3714306"></polygon>
                    <polygon id="Fill-62" fill="#020302" fill-rule="nonzero" points="64.2958741 77.3819538 61.1999231 74.2872333 60.5929504 75.3650138 63.4536507 78.2240782"></polygon>
                    <polygon id="Fill-63" fill="#020302" fill-rule="nonzero" points="37.5215738 50.6112378 25.8660507 38.9575195 19.4380316 32.5298239 18.5953749 33.3719482 35.8362605 50.6112378 56.4031488 71.1744059 57.009255 70.0966254"></polygon>
                    <polygon id="Fill-64" fill="#020302" fill-rule="nonzero" points="61.2001398 74.2874064 57.009385 70.096712 56.4032788 71.1740593 60.593167 75.364754"></polygon>
                    <polygon id="Fill-65" fill="#020302" fill-rule="nonzero" points="64.8953951 77.9826605 64.2957874 77.3818236 63.453564 78.2243809 64.0540382 78.8243514"></polygon>
                    <polygon id="Fill-66" fill="#020302" fill-rule="nonzero" points="91.6620704 106.429871 101.907822 116.675283 103.592269 116.674417 92.5042934 105.587746"></polygon>
                    <polygon id="Fill-67" fill="#020302" fill-rule="nonzero" points="127.542089 142.306099 129.226969 142.306099 117.656794 130.737287 109.29868 122.379723 107.615099 122.381022"></polygon>
                    <polygon id="Fill-68" fill="#020302" fill-rule="nonzero" points="101.907995 116.675456 107.615099 122.381022 109.29868 122.379723 103.592443 116.674591"></polygon>
                    <polygon id="Fill-69" fill="#020302" fill-rule="nonzero" points="84.9802143 99.7488444 86.7690725 101.536626 87.6108629 100.694935 85.8228714 98.9071536"></polygon>
                    <polygon id="Fill-70" fill="#020302" fill-rule="nonzero" points="84.6193237 99.3879962 85.4611134 98.5463047 77.9309257 91.0165701 77.088702 91.8582609"></polygon>
                    <polygon id="Fill-71" fill="#020302" fill-rule="nonzero" points="69.3995575 82.4859028 67.955127 81.041209 67.1133368 81.8833335 68.5573341 83.3280273"></polygon>
                    <polygon id="Fill-72" fill="#020302" fill-rule="nonzero" points="137.613287 152.375679 143.307827 158.069982 144.150483 157.227857 139.2986 152.375679"></polygon>
                    <polygon id="Fill-73" fill="#020302" fill-rule="nonzero" points="87.9384809 110.153498 94.4652791 116.679096 95.1861951 116.678662 88.2998049 109.793083"></polygon>
                    <polygon id="Fill-74" fill="#020302" fill-rule="nonzero" points="66.6418823 88.1393985 65.1931193 86.6916729 64.8326616 87.0516546 66.280558 88.4998138"></polygon>
                    <polygon id="Fill-75" fill="#020302" fill-rule="nonzero" points="17.453651 38.9573463 6.82447929 28.3294256 6.46445477 28.6902741 28.3878253 50.6110645 53.7186482 75.9389058 53.9785937 75.4779907"></polygon>
                    <polygon id="Fill-76" fill="#020302" fill-rule="nonzero" points="60.6911665 82.1880836 60.331142 82.5489318 63.3898341 85.6081307 63.7507251 85.2472818"></polygon>
                    <polygon id="Fill-77" fill="#020302" fill-rule="nonzero" points="108.525515 130.737287 120.09439 142.306099 130.165978 152.375636 131.1763 153.386271 131.537624 153.025423 130.887327 152.375636 120.816171 142.306099 109.246864 130.737287 100.891782 122.383621 100.170867 122.384488"></polygon>
                    <polygon id="Fill-78" fill="#020302" fill-rule="nonzero" points="60.0895226 81.5878105 58.1702583 79.668772 57.9107461 80.1305537 59.7294981 81.9482258"></polygon>
                    <polygon id="Fill-79" fill="#020302" fill-rule="nonzero" points="94.4654524 116.679269 100.170823 122.384401 100.891739 122.383535 95.1859351 116.678402"></polygon>
                    <polygon id="Fill-80" fill="#020302" fill-rule="nonzero" points="58.1703883 79.6689015 53.9783338 75.4777739 53.7188215 75.9391226 57.9104428 80.130251"></polygon>
                    <polygon id="Fill-81" fill="#020302" fill-rule="nonzero" points="83.4042085 105.61976 87.9385239 110.153542 88.2998486 109.793126 83.7646658 105.259344"></polygon>
                    <polygon id="Fill-82" fill="#020302" fill-rule="nonzero" points="81.2558019 103.471173 83.0442267 105.259387 83.4042514 104.898539 81.6158266 103.110324"></polygon>
                    <polygon id="Fill-83" fill="#020302" fill-rule="nonzero" points="73.3643332 95.5819319 80.8949543 103.110368 81.2558449 102.749952 73.7252239 95.2215166"></polygon>
                    <polygon id="Fill-84" fill="#020302" fill-rule="nonzero" points="66.6418823 88.1393985 66.280558 88.4998138 70.9582774 93.1765497 71.3187351 92.8161344"></polygon>
                    <polygon id="Fill-85" fill="#020302" fill-rule="nonzero" points="71.3186918 92.8160907 70.9582341 93.176506 73.3644629 95.5820185 73.7253542 95.2216032"></polygon>
                    <polygon id="Fill-86" fill="#020302" fill-rule="nonzero" points="60.0895226 81.5878105 59.7294981 81.9482258 60.3312719 82.549062 60.6912965 82.1882138"></polygon>
                    <polygon id="Fill-87" fill="#020302" fill-rule="nonzero" points="65.1932493 86.6917595 63.7505518 85.2474986 63.390094 85.6079139 64.8327915 87.0517412"></polygon>
                    <polygon id="Fill-88" fill="#020302" fill-rule="nonzero" points="0 36.5143194 14.0990109 50.6112378 48.5721171 85.0794203 48.8316294 84.6185045 14.8203597 50.6112378 0.361324251 36.1534709"></polygon>
                    <polygon id="Fill-89" fill="#020302" fill-rule="nonzero" points="52.9448338 88.7316581 48.8320627 84.6185045 48.5721171 85.0794203 52.584376 89.0916405"></polygon>
                    <polygon id="Fill-90" fill="#020302" fill-rule="nonzero" points="53.5451779 89.3319312 53.0226874 88.8095027 52.7631752 89.2704185 53.1842869 89.6923472"></polygon>
                    <polygon id="Fill-91" fill="#020302" fill-rule="nonzero" points="52.9448338 88.7316581 52.584376 89.0916405 52.7633052 89.270548 53.0228174 88.8096329"></polygon>
                    <polygon id="Fill-92" fill="#020302" fill-rule="nonzero" points="94.2344476 130.737287 94.9553629 130.737287 86.60808 122.390552 85.8867313 122.390986"></polygon>
                    <polygon id="Fill-93" fill="#020302" fill-rule="nonzero" points="80.7929257 117.297346 85.8869913 122.391245 86.6083399 122.390813 81.1546829 116.936497"></polygon>
                    <polygon id="Fill-94" fill="#020302" fill-rule="nonzero" points="59.4971934 95.2828132 59.1367357 95.6432285 63.814455 100.320397 64.1749128 99.9595491"></polygon>
                    <polygon id="Fill-95" fill="#020302" fill-rule="nonzero" points="74.4720039 110.255428 74.1115466 110.61671 75.8995381 112.404925 76.2604294 112.044076"></polygon>
                    <polygon id="Fill-96" fill="#020302" fill-rule="nonzero" points="80.1807105 116.685637 80.792882 117.297303 81.1546399 116.936455 80.9016258 116.685637"></polygon>
                    <polygon id="Fill-97" fill="#020302" fill-rule="nonzero" points="64.1748695 99.9595054 63.8144117 100.320354 66.2202073 102.725867 66.5806651 102.365452"></polygon>
                    <polygon id="Fill-98" fill="#020302" fill-rule="nonzero" points="73.7506123 110.255428 74.1115029 110.61671 74.4719609 110.255428 74.1115029 109.895013"></polygon>
                    <polygon id="Fill-99" fill="#020302" fill-rule="nonzero" points="75.8994951 112.404881 76.2603857 112.765297 76.6208438 112.404881 76.2603857 112.044033"></polygon>
                    <polygon id="Fill-100" fill="#020302" fill-rule="nonzero" points="56.6053864 92.3909133 56.2444953 92.7513286 57.6889259 94.1955895 58.0489504 93.8351742"></polygon>
                    <polygon id="Fill-101" fill="#020302" fill-rule="nonzero" points="105.804232 142.306099 115.875388 152.375636 116.596736 152.375636 106.525581 142.306099"></polygon>
                    <polygon id="Fill-102" fill="#020302" fill-rule="nonzero" points="66.9164714 102.796001 63.2100817 106.830313 67.3245858 111.30908 71.0314088 107.273901"></polygon>
                    <polygon id="Fill-103" fill="#020302" fill-rule="nonzero" points="71.2285774 107.059384 73.0663923 105.059773 68.9514548 100.581438 67.1140733 102.581484"></polygon>
                    <polygon id="Fill-104" fill="#020302" fill-rule="nonzero" points="63.013043 107.045002 55.3771439 115.356215 63.6109177 115.351883 67.1275471 111.52377"></polygon>
                    <polygon id="Fill-105" fill="#020302" fill-rule="nonzero" points="83.4097104 93.8017749 80.3726801 88.1503586 69.411645 100.080453 73.526582 104.55922"></polygon>
                </g>
            </g>
        </g>
    </g>
</svg>