
<svg width="521px" height="331px" viewBox="0 0 521 331" version="1.1" xmlns="http://www.w3.org/2000/svg" xmlns:xlink="http://www.w3.org/1999/xlink">
    <!-- Generator: Sketch 43.1 (39012) - http://www.bohemiancoding.com/sketch -->
    <desc>Created with Sketch.</desc>
    <defs>
        <polygon id="path-1" points="2.59594816 131.473389 0.109719208 131.473389 0.109719208 0.806560661 2.59594816 0.806560661"></polygon>
    </defs>
    <g id="Page-1" stroke="none" stroke-width="1" fill="none" fill-rule="evenodd">
        <g id="PORTFOLIO-Copy-3" transform="translate(-99.000000, -245.000000)">
            <g id="bg_melissoedition" transform="translate(99.000000, 245.000000)">
                <rect id="Rectangle" fill="#AD2C5B" fill-rule="nonzero" x="0" y="0" width="521" height="331"></rect>
                <g id="logowhite" transform="translate(192.765217, 51.000000)">
                    <g id="Group-16">
                        <path d="M110.538386,109.14978 L92.6793482,109.14978 L92.6793482,76.2825611 C92.6793482,69.48295 92.7913404,61.7750218 92.9045771,55.8825118 L92.6793482,55.7682122 C88.8604109,61.5488545 84.8174891,67.555664 80.7733228,73.3350903 L68.9792898,90.2222504 L57.1852568,73.3350903 C53.1423349,67.555664 49.0981687,61.5488545 45.2792315,55.7682122 L45.0552469,55.8825118 C45.1672391,61.7750218 45.2792315,69.48295 45.2792315,76.2825611 L45.2792315,109.14978 L28.094636,109.14978 L28.094636,27.0960322 L45.2792315,27.0960322 L69.4285034,61.7750218 L93.5777752,27.0960322 L110.538386,27.0960322 L110.538386,109.14978 Z M19.3107069,115.723224 L119.323559,115.723224 L119.323559,20.5225884 L19.3107069,20.5225884 L19.3107069,115.723224 Z" id="Fill-1" fill="#FFFFFF" fill-rule="nonzero"></path>
                        <path d="M0,21.750451 C0,21.750451 2.13227567,21.6653342 5.86386705,21.514556 C9.59545843,21.4075521 14.9263655,21.253126 21.3231925,21.0683011 C27.7204554,20.968593 35.1836381,20.7436415 43.1797808,20.6974354 C51.1759235,20.6463653 59.7054621,20.5904314 68.2350005,20.5357136 C76.7641031,20.5904314 85.2936417,20.6451494 93.2897844,20.6962194 C101.285927,20.7363458 108.74911,20.9661611 115.146373,21.0658692 C121.5432,21.1740891 126.874107,21.4160637 130.605698,21.5133401 C134.33729,21.6641182 136.469565,21.750451 136.469565,21.750451 C136.469565,21.750451 134.33729,21.8367837 130.605698,21.9875619 C126.874107,22.0848382 121.5432,22.3268128 115.146373,22.4350327 C108.74911,22.5347409 101.285927,22.7645561 93.2897844,22.8046825 C85.2936417,22.8557525 76.7641031,22.9104705 68.2350005,22.9651884 C59.7054621,22.9104705 51.1759235,22.8545366 43.1797808,22.8034665 C35.1836381,22.7572604 27.7204554,22.5323089 21.3231925,22.4326008 C14.9263655,22.2477759 9.59545843,22.0933498 5.86386705,21.9863459 C2.13227567,21.8355677 0,21.750451 0,21.750451" id="Fill-3" fill="#FFFFFF" fill-rule="nonzero" transform="translate(68.234783, 21.750451) scale(-1, 1) rotate(-180.000000) translate(-68.234783, -21.750451) "></path>
                        <path d="M0,116.007878 C0,116.007878 2.13232345,115.922762 5.86378136,115.771984 C9.59567171,115.66498 14.9262641,115.510554 21.3232345,115.325729 C27.7202048,115.226021 35.1835531,115.001069 43.1796579,114.954863 C51.1761951,114.903793 59.7054888,114.847859 68.2347826,114.793141 C76.7640764,114.847859 85.2933701,114.902577 93.2894749,114.953647 C101.286012,114.993774 108.748928,115.223589 115.145898,115.323297 C121.542869,115.431517 126.873894,115.673492 130.605351,115.770768 C134.33681,115.921546 136.469565,116.007878 136.469565,116.007878 C136.469565,116.007878 134.33681,116.094212 130.605351,116.24499 C126.873894,116.342266 121.542869,116.58424 115.145898,116.692461 C108.748928,116.792169 101.286012,117.021984 93.2894749,117.06211 C85.2933701,117.11318 76.7640764,117.167899 68.2347826,117.222616 C59.7054888,117.167899 51.1761951,117.111965 43.1796579,117.060895 C35.1835531,117.014688 27.7202048,116.789737 21.3232345,116.690028 C14.9262641,116.505204 9.59567171,116.350778 5.86378136,116.243774 C2.13232345,116.092995 0,116.007878 0,116.007878" id="Fill-5" fill="#FFFFFF" fill-rule="nonzero"></path>
                        <g id="Group-9" transform="translate(16.264502, 0.000000)" fill-rule="nonzero" fill="#FFFFFF">
                            <path d="M2.16966407,0.204520637 C2.16966407,0.204520637 2.28580422,2.25824547 2.49153821,5.85226392 C2.62426983,9.44705678 2.94946226,14.5813688 3.10044447,20.7425433 C3.23649436,26.9044923 3.54343622,34.0925291 3.60648373,41.7939973 C3.67616782,49.4962398 3.7524885,57.7111391 3.82715002,65.9268128 C3.7524885,74.1417122 3.67782697,82.3573859 3.60814287,90.0588539 C3.55339108,97.7610965 3.23981266,104.949133 3.10376276,111.111082 C2.95609885,117.272257 2.62592896,122.406569 2.49319736,126.001362 C2.28746337,129.59538 2.16966407,131.649105 2.16966407,131.649105 C2.16966407,131.649105 2.05186476,129.59538 1.84613076,126.001362 C1.71339916,122.406569 1.38322928,117.272257 1.23556536,111.111082 C1.09951547,104.949133 0.785937039,97.7610965 0.73118525,90.0588539 C0.661501156,82.3573859 0.586839626,74.1417122 0.512178095,65.9268128 C0.586839626,57.7111391 0.663160301,49.4962398 0.732844395,41.7939973 C0.79589191,34.0925291 1.10283376,26.9044923 1.23888365,20.7425433 C1.38986586,14.5813688 1.7150583,9.44705678 1.84778991,5.85226392 C2.05352391,2.25824547 2.16966407,0.204520637 2.16966407,0.204520637" id="Fill-7"></path>
                        </g>
                        <g id="Group-12" transform="translate(117.969731, 0.009578)">
                            <g id="Fill-10-Clipped">
                                <mask id="mask-2" fill="white">
                                    <use xlink:href="#path-1"></use>
                                </mask>
                                <g id="path-1"></g>
                                <path d="M1.35283368,0.806560661 C1.35283368,0.806560661 1.46233726,2.84868537 1.59423929,6.4213318 C1.7000098,9.99397826 1.92399438,15.0985755 2.06460693,21.2235206 C2.22388486,27.3484656 2.35703126,34.4937585 2.44538074,42.1506543 C2.48022278,45.9791022 2.51630919,49.9347364 2.55363995,53.9532491 C2.56732791,57.9731909 2.58226021,62.0560112 2.59594816,66.1402607 C2.58226021,70.223081 2.56857226,74.3073305 2.55488431,78.3258432 C2.55363995,82.3457849 2.48022278,86.3014191 2.44911382,90.129867 C2.3620087,97.7853338 2.22761794,104.932056 2.06709565,111.057001 C1.92897182,117.181946 1.70125416,122.286544 1.59548365,125.85919 C1.46358162,129.431836 1.35283368,131.47396 1.35283368,131.47396 C1.35283368,131.47396 1.24208575,129.431836 1.11018371,125.85919 C1.00441321,122.286544 0.777939906,117.181946 0.638571716,111.057001 C0.478049424,104.932056 0.343658672,97.7853338 0.256553549,90.129867 C0.225444583,86.3014191 0.152027408,82.3457849 0.150783049,78.3258432 C0.137095102,74.3073305 0.123407155,70.223081 0.109719208,66.1402607 C0.123407155,62.0560112 0.138339461,57.9731909 0.152027408,53.9532491 C0.189358179,49.9347364 0.225444583,45.9791022 0.260286627,42.1506543 C0.348636099,34.4937585 0.481782503,27.3484656 0.641060435,21.2235206 C0.781672973,15.0985755 1.00565757,9.99397826 1.11142807,6.4213318 C1.24333011,2.84868537 1.35283368,0.806560661 1.35283368,0.806560661" id="Fill-10" fill="#FFFFFF" fill-rule="nonzero" mask="url(#mask-2)"></path>
                            </g>
                        </g>
                    </g>
                </g>
            </g>
        </g>
    </g>
</svg>