
<svg width="521px" height="331px" viewBox="0 0 521 331" version="1.1" xmlns="http://www.w3.org/2000/svg" xmlns:xlink="http://www.w3.org/1999/xlink">
    <!-- Generator: Sketch 43.1 (39012) - http://www.bohemiancoding.com/sketch -->
    <desc>Created with Sketch.</desc>
    <defs>
        <filter x="-13.7%" y="-23.2%" width="129.8%" height="157.3%" filterUnits="objectBoundingBox" id="filter-1">
            <feOffset dx="2" dy="6" in="SourceAlpha" result="shadowOffsetOuter1"></feOffset>
            <feGaussianBlur stdDeviation="9.5" in="shadowOffsetOuter1" result="shadowBlurOuter1"></feGaussianBlur>
            <feColorMatrix values="0 0 0 0 0   0 0 0 0 0   0 0 0 0 0  0 0 0 0.5 0" type="matrix" in="shadowBlurOuter1" result="shadowMatrixOuter1"></feColorMatrix>
            <feMerge>
                <feMergeNode in="shadowMatrixOuter1"></feMergeNode>
                <feMergeNode in="SourceGraphic"></feMergeNode>
            </feMerge>
        </filter>
        <polygon id="path-2" points="0.000111340206 0.618888889 215.000165 0.618888889 215.000165 108.888889 0.000111340206 108.888889 0.000111340206 0.618888889"></polygon>
    </defs>
    <g id="Page-1" stroke="none" stroke-width="1" fill="none" fill-rule="evenodd">
        <g id="Artboard-Copy-7" transform="translate(-88.000000, -69.000000)">
            <rect id="Rectangle" fill="#F04604" x="88" y="69" width="521" height="331"></rect>
            <g id="Page-1" filter="url(#filter-1)" transform="translate(241.000000, 180.000000)">
                <path d="M212.983794,99.7558889 C212.457155,99.4758889 211.930515,99.1958889 211.403876,98.9147778 C212.21332,98.0525556 213.315588,97.7214444 214.089402,98.5636667 C214.548124,99.0614444 213.610639,99.5558889 212.983794,99.7558889" id="Fill-1" fill="#E6E6E6"></path>
                <g id="Group-5" transform="translate(0.000000, 0.492333)">
                    <mask id="mask-3" fill="white">
                        <use xlink:href="#path-2"></use>
                    </mask>
                    <g id="Clip-4"></g>
                    <path d="M120.454627,49.5864444 C114.560276,51.6242222 108.319658,52.4508889 102.153637,53.032 C99.1507918,53.3142222 99.6362351,50.0442222 99.4614309,47.302 C99.0272041,44.9675556 100.187369,43.532 103.233637,43.2131111 C108.727163,42.6375556 114.193967,41.8053333 119.671905,41.0831111 C121.743946,40.8108889 122.675864,41.8808889 123.142379,43.7853333 C123.809307,46.5064444 122.805019,48.7742222 120.454627,49.5864444 M90.2168536,55.162 C90.0787918,55.1597778 89.9273691,55.2108889 89.802668,55.1697778 C87.6270804,54.4664444 84.7233278,57.9553333 83.2224619,54.4042222 C82.1736371,51.9231111 86.8220907,45.9097778 89.7993278,45.262 C93.7062557,44.4108889 95.2672454,45.6531111 95.3184619,49.6575556 C95.493266,53.2242222 93.9456371,55.2008889 90.2168536,55.162 M76.2514515,55.7697778 C74.9042351,57.4742222 73.1639876,58.1486667 71.1286887,57.1675556 C66.3989567,54.8875556 61.7215546,52.5008889 57.0029567,50.1942222 C55.3929773,49.4075556 55.3261732,48.5531111 56.7045649,47.4908889 C60.3208948,44.6997778 64.0029155,41.9275556 68.3418433,40.4231111 C73.1105443,38.7697778 79.509266,42.932 79.4591629,47.742 C78.747699,50.3031111 78.1965649,53.3097778 76.2514515,55.7697778 M211.403988,98.422 C207.576111,97.9653333 203.857348,100.418667 199.930379,98.5931111 C177.016565,87.9464444 154.063781,77.3864444 131.148854,66.7431111 C130.164606,66.2864444 128.635905,66.242 128.468895,64.4797778 C129.349596,64.0475556 130.192441,63.5664444 131.083163,63.2053333 C148.060318,56.3308889 165.068647,49.532 181.997926,42.542 C184.509761,41.5053333 186.511658,41.4886667 189.023493,42.5042222 C197.394049,45.8842222 205.76906,50.4308889 215.000276,44.1831111 C210.727039,40.4175556 205.893761,37.0242222 200.956936,33.772 C200.534957,33.4942222 199.874709,33.4575556 199.338049,33.4953333 C194.470256,33.8375556 193.347946,30.8908889 193.070709,26.8108889 C192.609761,20.0553333 191.953967,13.3108889 191.255864,6.57422222 C191.075493,4.82644444 190.912936,2.73311111 189.894173,1.49088889 C188.033678,-0.778 179.116441,1.772 178.086544,4.65533333 C175.941019,10.6586667 173.794379,16.662 171.754627,22.7008889 C171.165637,24.4453333 170.645678,25.242 168.582544,24.2997778 C165.179988,22.7475556 161.602627,21.5831111 158.117678,20.2086667 C152.742173,18.0897778 147.730751,19.9664444 141.795204,21.1753333 C147.028194,24.9675556 152.739946,26.2475556 157.525348,30.6286667 C150.350586,31.372 144.044276,31.942 137.762462,32.6986667 C130.022091,33.6308889 122.318462,31.7708889 114.713926,32.1097778 C99.5260082,32.7875556 84.4249361,34.9564444 69.6634515,38.8697778 C68.3028742,39.2308889 67.5992041,38.5508889 66.6594928,38.0242222 C52.3689773,30.0231111 38.0773485,22.0242222 23.7690186,14.0542222 C21.9085237,13.0175556 20.0101732,12.142 20.2373072,9.492 C20.3397402,8.29866667 19.8431629,7.61422222 18.478132,8.14644444 C12.474668,10.4864444 6.46563711,12.8131111 0.000111340206,15.322 C15.3361113,27.4642222 30.1688536,39.2086667 45.3768124,51.2508889 C38.8511629,53.8575556 32.950132,56.1864444 27.0724825,58.572 C22.4206887,60.4608889 18.0617196,62.9097778 13.9543794,65.782 C11.2176371,67.6964444 10.4427093,69.6564444 13.4199464,72.3386667 C16.7089361,75.3008889 20.3397402,77.4764444 24.5895959,78.4897778 C37.9771423,81.6808889 51.4593278,80.3475556 64.6342144,77.8208889 C77.7422969,75.3075556 90.298132,76.2697778 102.62572,80.5764444 C128.434379,89.5908889 154.132812,98.9253333 179.84906,108.204222 C182.338627,109.103111 184.550957,109.123111 187.043864,108.229778 C195.656029,105.143111 204.331658,102.237556 212.983905,99.2631111 C213.098586,97.7842222 212.30139,98.0097778 211.403988,98.422" id="Fill-3" fill="#FFFFFF" mask="url(#mask-3)"></path>
                </g>
                <path d="M106.21466,58.9925556 C96.1506186,62.4203333 85.6645979,64.3092222 75.4992371,67.3514444 C71.5589072,68.5314444 67.354701,68.7514444 63.6236907,70.6525556 C61.716433,72.4858889 59.2123918,71.9336667 56.9421649,72.3214444 L54.5249691,72.3214444 C61.6396082,68.9803333 69.2897938,67.7436667 76.7061649,65.7125556 C86.2402268,63.1014444 95.8243918,60.6725556 105.387402,58.1647778 C105.631237,58.4725556 106.164557,58.4914444 106.21466,58.9925556" id="Fill-6" fill="#D0D0D0"></path>
                <path d="M125.85741,53.2786667 C128.790111,51.2986667 132.212709,50.8586667 135.552915,50.1531111 C132.551184,51.9175556 129.357946,53.0797778 125.85741,53.2786667" id="Fill-8" fill="#E7E7E7"></path>
                <path d="M106.21466,58.9925556 C105.938536,58.7158889 105.662412,58.4403333 105.387402,58.1647778 C108.666371,58.0658889 111.535608,55.867 115.816639,56.2703333 C112.239278,57.9158889 109.268722,58.5881111 106.21466,58.9925556" id="Fill-10" fill="#D7D7D7"></path>
                <path d="M71.1485072,70.6902222 C69.2657443,71.8268889 67.262734,71.9724444 65.0593113,70.9924444 C67.0890433,70.6146667 69.1198887,70.2368889 71.1496206,69.858 C71.4368784,70.0435556 71.5326309,70.228 71.4368784,70.4135556 C71.3411258,70.598 71.2453732,70.6902222 71.1485072,70.6902222" id="Fill-12" fill="#E4E4E4"></path>
                <path d="M55.2912124,73.1744444 C56.2042021,73.1255556 57.1951299,73.3044444 57.7952536,72.3288889 C59.7348,72.3511111 61.6810268,70.1811111 63.6161196,72.3444444 C61.2211918,73.3688889 58.7383052,74 56.1162433,74 C55.2355423,74.3288889 55.0985938,73.9155556 55.2912124,73.1744444" id="Fill-14" fill="#DFDFDF"></path>
                <path d="M137.209992,49.4792222 C139.966775,47.6714444 141.930816,47.1903333 144.017332,47.0536667 C142.297126,48.2158889 140.554652,49.3147778 137.209992,49.4792222" id="Fill-16" fill="#DADADA"></path>
                <path d="M117.278091,55.5295556 C119.556111,54.114 121.409926,54.0228889 123.278214,53.9551111 C121.747287,55.3128889 119.982544,55.824 117.278091,55.5295556" id="Fill-18" fill="#E4E4E4"></path>
                <path d="M97.8592454,63.9671111 C99.9234928,62.7593333 102.287245,62.7582222 104.541885,62.3226667 C104.753431,62.5082222 104.823575,62.6926667 104.752318,62.876 C104.679946,63.0593333 104.608689,63.1504444 104.538544,63.1504444 C102.309513,63.7026667 100.081596,64.256 97.8525649,64.8082222 C97.5653072,64.6182222 97.470668,64.4315556 97.567534,64.2448889 C97.6644,64.0593333 97.7623794,63.9671111 97.8592454,63.9671111" id="Fill-20" fill="#DBDBDB"></path>
                <path d="M55.2912124,73.1744444 C55.5662227,73.45 55.841233,73.7244444 56.1162433,74 C54.3025113,75.5266667 52.0467588,74.4588889 49.9368619,74.6066667 C51.7216454,74.1288889 53.5064289,73.6522222 55.2912124,73.1744444" id="Fill-22" fill="#D7D7D7"></path>
                <path d="M63.6162309,72.3443333 C61.6777979,71.4632222 59.7337979,72.7476667 57.7942515,72.3287778 C57.5114474,72.3265556 57.2264165,72.3243333 56.942499,72.321 C59.0100866,71.1276667 61.2469113,70.611 63.6240247,70.6532222 C63.6206845,71.2165556 63.6184577,71.781 63.6162309,72.3443333" id="Fill-24" fill="#C7C7C7"></path>
                <path d="M80.3231629,68.1473333 C81.6202763,66.9128889 83.2926062,67.2851111 84.8502557,67.0573333 C83.6366474,68.4595556 81.9153278,68.5362222 80.3198227,68.9217778 C80.0303381,68.7484444 79.9345856,68.5762222 80.0314515,68.404 C80.1283175,68.2328889 80.2251835,68.1473333 80.3231629,68.1473333" id="Fill-26" fill="#ECECEC"></path>
                <path d="M90.3448948,66.4595556 C89.1613485,66.354 88.2093897,67.6417778 86.7764412,66.9728889 C87.5057196,65.1384444 89.1034515,65.8517778 90.3460082,65.674 C90.6288124,65.8484444 90.7234515,66.0228889 90.6288124,66.1984444 C90.5341732,66.3717778 90.4406474,66.4595556 90.3448948,66.4595556" id="Fill-28" fill="#E8E8E8"></path>
                <path d="M104.538099,63.1505556 C104.541439,62.8738889 104.543666,62.5983333 104.542553,62.3227778 C105.441068,61.0816667 106.671377,61.6138889 107.969604,62.0861111 L104.538099,63.1505556 Z" id="Fill-30" fill="#D2D2D2"></path>
                <path d="M71.1485072,70.6902222 C71.1418268,70.4124444 71.1429402,70.1346667 71.1496206,69.858 C72.3309402,69.9513333 73.2918062,68.7024444 74.7102804,69.3446667 C74.0010433,71.1902222 72.3765897,70.4557778 71.1485072,70.6902222" id="Fill-32" fill="#EBEBEB"></path>
                <path d="M80.3231629,68.1473333 C80.3242763,68.4062222 80.3231629,68.664 80.3198227,68.9217778 C79.1540907,69.104 77.9883588,69.2873333 76.6144206,69.5028889 C77.5585856,67.6228889 79.082833,68.324 80.3231629,68.1473333" id="Fill-34" fill="#EDEDED"></path>
                <path d="M90.3448948,66.4595556 C90.3448948,66.1973333 90.3460082,65.9351111 90.3460082,65.6728889 C91.6308742,64.8728889 93.0526887,64.7306667 94.5201526,64.8173333 C94.7227918,64.9928889 94.7907093,65.1673333 94.7227918,65.3428889 C94.6559876,65.5184444 94.5891835,65.6051111 94.521266,65.6051111 C93.1284,65.8906667 91.7366474,66.1751111 90.3448948,66.4595556" id="Fill-36" fill="#E7E7E7"></path>
                <path d="M94.521266,65.6055556 L94.521266,64.8177778 C95.4030804,63.6333333 96.7079876,64.1011111 97.8592454,63.9677778 C97.8570186,64.2477778 97.8547918,64.5277778 97.8525649,64.8088889 C96.7425031,65.0733333 95.6313278,65.34 94.521266,65.6055556" id="Fill-38" fill="#E6E6E6"></path>
            </g>
        </g>
    </g>
</svg>