
<svg width="613px" height="378px" viewBox="0 0 613 378" version="1.1" xmlns="http://www.w3.org/2000/svg" xmlns:xlink="http://www.w3.org/1999/xlink">
    <!-- Generator: Sketch 43.1 (39012) - http://www.bohemiancoding.com/sketch -->
    <desc>Created with Sketch.</desc>
    <defs></defs>
    <g id="Page-1" stroke="none" stroke-width="1" fill="none" fill-rule="evenodd">
        <g id="PORTFOLIO-Copy-3" transform="translate(-44.000000, -88.000000)">
            <g id="bg_sed" transform="translate(44.000000, 88.000000)">
                <polygon id="Fill-1" fill="#FFDD00" fill-rule="nonzero" points="0 378 613 378 613 0 0 0"></polygon>
                <g id="Fill-2" transform="translate(224.582031, 171.097428)">
                    <g id="path-1-link" fill-rule="nonzero" fill="#000000">
                        <polygon id="path-1" points="82.3882983 87.3042959 63.9633142 37.784889 14.2958807 60.3484213 37.9040422 12.8807494 0 0 164.776597 0 126.872553 12.8807494 150.482653 60.3484213 100.81522 37.784889"></polygon>
                    </g>
                    <g id="path-1-link" fill="#3C3B3B">
                        <polygon id="path-1" points="82.3882983 87.3042959 63.9633142 37.784889 14.2958807 60.3484213 37.9040422 12.8807494 0 0 164.776597 0 126.872553 12.8807494 150.482653 60.3484213 100.81522 37.784889"></polygon>
                    </g>
                </g>
                <g id="Fill-3" transform="translate(224.582031, 74.133498)">
                    <g id="path-3-link" fill-rule="nonzero" fill="#000000">
                        <polygon id="path-3" points="0 87.3024444 37.9021045 74.421695 14.2920061 26.9540231 63.9594388 49.5157031 82.3863606 0 100.813282 49.5157031 150.480715 26.9540231 126.872553 74.421695 164.772721 87.3024444"></polygon>
                    </g>
                    <g id="path-3-link" fill="#3C3B3B">
                        <polygon id="path-3" points="0 87.3024444 37.9021045 74.421695 14.2920061 26.9540231 63.9594388 49.5157031 82.3863606 0 100.813282 49.5157031 150.480715 26.9540231 126.872553 74.421695 164.772721 87.3024444"></polygon>
                    </g>
                </g>
            </g>
        </g>
    </g>
</svg>