
<svg width="86px" height="88px" viewBox="0 0 86 88" version="1.1" xmlns="http://www.w3.org/2000/svg" xmlns:xlink="http://www.w3.org/1999/xlink">
    <!-- Generator: Sketch 43.1 (39012) - http://www.bohemiancoding.com/sketch -->
    <desc>Created with Sketch.</desc>
    <defs></defs>
    <g id="Page-1" stroke="none" stroke-width="1" fill="none" fill-rule="evenodd">
        <g id="ABOUT" transform="translate(-677.000000, -659.000000)" fill-rule="nonzero" fill="#000000">
            <g id="noun_Brain_854424" transform="translate(677.000000, 659.000000)">
                <path d="M42.217,56.688 C42.145,55.923 41.936,55.221 41.734,54.543 C41.627,54.182 41.518,53.82 41.436,53.455 C41.216,52.475 41.401,51.449 41.596,50.363 C41.767,49.41 41.944,48.425 41.871,47.38 C41.812,46.539 41.666,45.745 41.524,44.977 C41.281,43.654 41.051,42.405 41.309,41.102 C41.752,38.855 41.748,36.567 41.745,34.354 C41.742,32.88 41.74,31.356 41.874,29.89 C41.923,29.359 42.039,28.815 42.163,28.24 C42.441,26.948 42.757,25.484 42.247,23.965 C41.756,22.494 41.183,21.623 40.445,21.224 C39.638,20.785 38.817,21.065 38.276,21.25 C38.094,21.313 37.889,21.383 37.777,21.393 C37.384,21.425 37.068,21.413 36.787,21.403 C35.992,21.369 35.169,21.344 33.976,22.21 C33.538,22.526 33.092,22.832 32.646,23.137 C31.85,23.682 31.027,24.245 30.248,24.877 C28.854,26.007 27.74,27.419 26.663,28.784 L26.544,28.935 C25.581,30.155 25.065,31.307 24.52,32.528 C24.379,32.841 24.235,33.165 24.078,33.5 C23.79,34.113 23.438,34.651 23.098,35.173 C22.352,36.315 21.579,37.496 21.5,39.364 C21.439,40.807 21.374,41.839 21.027,42.977 L20.964,43.181 C20.556,44.514 20.093,46.026 20.485,47.603 C20.603,48.078 20.77,48.507 20.931,48.922 C21.174,49.548 21.384,50.089 21.379,50.642 C21.366,51.902 21.468,53.244 22.284,54.517 C22.669,55.119 23.139,55.604 23.595,56.075 C23.762,56.248 23.93,56.421 24.091,56.598 C24.385,56.923 24.596,57.371 24.82,57.847 C25.208,58.672 25.648,59.608 26.657,60.199 C28.021,60.999 29.301,61.845 30.46,62.712 L30.949,63.083 C31.695,63.651 32.466,64.238 33.331,64.714 C34.958,65.609 36.427,65.618 37.983,65.628 L38.013,65.628 C38.717,65.628 39.292,65.503 39.77,65.247 C42.336,63.876 42.518,59.836 42.217,56.688 Z M39.558,45.338 C39.696,46.085 39.826,46.79 39.875,47.519 C39.931,48.317 39.783,49.139 39.627,50.01 C39.405,51.242 39.177,52.518 39.484,53.893 C39.576,54.303 39.696,54.708 39.816,55.114 C39.999,55.727 40.171,56.307 40.226,56.878 C40.558,60.369 40.037,62.838 38.829,63.482 C38.828,63.482 38.828,63.482 38.827,63.483 C38.643,63.582 38.392,63.603 37.995,63.627 C36.588,63.618 35.477,63.611 34.295,62.961 C33.56,62.556 32.88,62.039 32.161,61.491 L31.659,61.11 C30.44,60.198 29.097,59.31 27.668,58.472 C27.217,58.208 26.98,57.739 26.63,56.994 C26.367,56.434 26.068,55.801 25.574,55.255 C25.398,55.061 25.216,54.871 25.032,54.682 C24.628,54.265 24.246,53.87 23.969,53.437 C23.464,52.649 23.369,51.791 23.38,50.66 C23.389,49.722 23.074,48.913 22.796,48.198 C22.651,47.824 22.514,47.471 22.427,47.119 C22.168,46.081 22.529,44.904 22.877,43.766 L22.94,43.558 C23.386,42.09 23.443,40.746 23.497,39.447 C23.553,38.129 24.091,37.306 24.771,36.265 C25.131,35.713 25.54,35.088 25.887,34.348 C26.049,34.001 26.199,33.668 26.344,33.343 C26.86,32.192 27.305,31.197 28.114,30.172 L28.233,30.021 C29.243,28.742 30.287,27.418 31.506,26.429 C32.223,25.849 32.978,25.332 33.776,24.785 C34.236,24.47 34.697,24.154 35.149,23.827 C35.658,23.459 35.921,23.39 36.353,23.39 C36.461,23.39 36.58,23.394 36.714,23.399 C37.04,23.411 37.443,23.426 37.943,23.383 C38.301,23.354 38.631,23.24 38.922,23.141 C39.106,23.078 39.432,22.973 39.49,22.98 C39.506,22.989 39.883,23.207 40.348,24.598 C40.683,25.598 40.452,26.676 40.205,27.818 C40.074,28.426 39.938,29.055 39.879,29.708 C39.737,31.267 39.739,32.837 39.742,34.356 C39.746,36.57 39.749,38.661 39.344,40.714 C39.016,42.392 39.291,43.89 39.558,45.338 Z" id="Shape"></path>
                <path d="M32.24,47.297 C32.773,47.573 33.584,47.947 34.465,48.001 C34.486,48.002 34.507,48.003 34.528,48.003 C35.052,48.003 35.493,47.595 35.525,47.065 C35.559,46.513 35.139,46.04 34.588,46.005 C34.085,45.974 33.532,45.714 33.16,45.522 C31.915,44.877 30.882,43.995 30.25,43.037 C29.365,41.696 28.946,40.002 29.099,38.387 C29.284,36.435 29.948,34.637 30.922,33.454 C31.86,32.316 33.244,31.677 34.629,31.754 C35.176,31.785 35.651,31.358 35.681,30.808 C35.709,30.256 35.286,29.786 34.735,29.756 C32.727,29.662 30.719,30.557 29.38,32.183 C28.157,33.665 27.329,35.859 27.109,38.199 C26.911,40.29 27.433,42.4 28.581,44.139 C29.397,45.376 30.697,46.498 32.24,47.297 Z" id="Shape"></path>
                <path d="M36.846,42.623 C36.367,42.178 35.824,41.892 35.345,41.639 C34.959,41.437 34.596,41.244 34.319,41 C33.878,40.612 33.538,40.102 33.363,39.563 C32.784,37.783 34.141,35.791 34.572,35.222 C34.905,34.782 34.818,34.155 34.378,33.821 C33.936,33.489 33.31,33.575 32.977,34.015 C32.237,34.994 30.607,37.554 31.461,40.182 C31.75,41.069 32.281,41.87 32.998,42.501 C33.454,42.902 33.964,43.171 34.413,43.407 C34.818,43.621 35.2,43.822 35.484,44.086 C36.093,44.653 36.502,45.488 36.7,46.567 C36.858,47.436 37.076,48.626 36.664,49.312 C36.135,50.191 34.961,50.264 34.586,50.264 L34.569,50.264 C33.54,50.258 32.465,49.546 31.549,48.851 C30.713,48.216 29.889,47.566 29.066,46.916 C28.602,46.55 28.139,46.185 27.673,45.821 C26.802,45.142 26.207,44.282 26,43.399 C25.873,42.86 25.325,42.531 24.798,42.654 C24.26,42.781 23.927,43.319 24.053,43.856 C24.365,45.182 25.214,46.44 26.444,47.399 C26.907,47.758 27.367,48.122 27.827,48.485 C28.66,49.143 29.494,49.801 30.341,50.443 C31.519,51.339 32.941,52.254 34.558,52.263 L34.592,52.263 C36.239,52.263 37.653,51.546 38.378,50.342 C39.18,49.008 38.871,47.321 38.667,46.206 C38.39,44.697 37.777,43.491 36.846,42.623 Z" id="Shape"></path>
                <path d="M33.307,53.507 L33.065,53.459 C30.67,52.983 28.437,51.913 26.429,50.276 C26,49.926 25.371,49.994 25.022,50.42 C24.673,50.849 24.738,51.479 25.166,51.827 C27.431,53.672 29.957,54.881 32.677,55.42 L32.922,55.469 C34.193,55.719 35.508,55.978 36.43,56.715 C36.851,57.053 36.915,57.606 36.894,58.01 C36.848,58.916 36.319,59.944 35.689,60.349 C35.225,60.649 35.091,61.268 35.39,61.732 C35.581,62.029 35.904,62.19 36.232,62.19 C36.418,62.19 36.605,62.138 36.773,62.031 C37.941,61.277 38.812,59.666 38.892,58.113 C38.955,56.881 38.525,55.831 37.68,55.155 C36.374,54.109 34.744,53.789 33.307,53.507 Z" id="Shape"></path>
                <path d="M34.477,57.748 C33.791,57.585 31.789,57.03 30.767,56.424 C30.293,56.14 29.678,56.298 29.397,56.773 C29.115,57.248 29.271,57.861 29.746,58.143 C31.24,59.032 33.904,59.667 34.017,59.695 C34.095,59.713 34.172,59.721 34.248,59.721 C34.701,59.721 35.111,59.411 35.22,58.951 C35.347,58.414 35.014,57.875 34.477,57.748 Z" id="Shape"></path>
                <path d="M38.231,25.667 C36.867,24.69 34.258,25.404 32.925,26.672 C32.525,27.052 32.508,27.686 32.889,28.085 C33.269,28.485 33.903,28.502 34.302,28.121 C35.232,27.238 36.828,27.056 37.071,27.294 C37.072,27.297 37.17,27.546 36.839,28.268 C36.117,29.836 36.225,31.394 36.328,32.9 C36.352,33.259 36.378,33.62 36.391,33.98 C36.447,35.601 36.319,36.656 35.515,36.901 C34.987,37.061 34.69,37.621 34.851,38.149 C34.982,38.58 35.378,38.857 35.807,38.857 C35.904,38.857 36.001,38.843 36.099,38.813 C38.532,38.072 38.436,35.262 38.389,33.912 C38.376,33.529 38.35,33.145 38.324,32.763 C38.234,31.45 38.148,30.209 38.657,29.104 C39.634,26.975 38.685,25.991 38.231,25.667 Z" id="Shape"></path>
                <path d="M61.159,57.846 C61.383,57.37 61.594,56.922 61.888,56.597 C62.049,56.419 62.217,56.246 62.384,56.074 C62.839,55.603 63.31,55.118 63.695,54.517 C64.511,53.243 64.613,51.901 64.6,50.642 C64.595,50.087 64.805,49.546 65.048,48.92 C65.21,48.505 65.376,48.076 65.495,47.603 C65.887,46.029 65.426,44.52 65.018,43.189 L64.954,42.976 C64.607,41.836 64.539,40.759 64.48,39.363 C64.401,37.496 63.629,36.314 62.883,35.173 C62.542,34.652 62.191,34.112 61.903,33.499 C61.744,33.161 61.598,32.836 61.457,32.52 C60.912,31.302 60.397,30.152 59.436,28.934 L59.311,28.776 C58.235,27.413 57.123,26.004 55.732,24.876 C54.955,24.246 54.132,23.684 53.337,23.14 C52.891,22.833 52.443,22.528 52.004,22.209 C50.81,21.345 49.984,21.369 49.192,21.403 C48.909,21.412 48.593,21.425 48.201,21.393 C48.09,21.383 47.885,21.313 47.703,21.25 C47.159,21.064 46.34,20.784 45.534,21.224 C44.799,21.622 44.226,22.493 43.732,23.965 C43.223,25.485 43.538,26.948 43.816,28.24 C43.94,28.815 44.056,29.359 44.105,29.89 C44.239,31.356 44.237,32.878 44.234,34.352 C44.231,36.566 44.227,38.855 44.671,41.102 C44.928,42.404 44.698,43.652 44.455,44.974 C44.314,45.744 44.168,46.539 44.109,47.38 C44.037,48.426 44.213,49.411 44.384,50.364 C44.578,51.449 44.763,52.474 44.543,53.455 C44.461,53.82 44.353,54.181 44.246,54.542 C44.044,55.221 43.835,55.923 43.763,56.688 C43.462,59.836 43.643,63.877 46.208,65.246 C46.686,65.502 47.261,65.627 47.966,65.627 L47.997,65.627 C49.552,65.617 51.02,65.607 52.646,64.713 C53.512,64.237 54.283,63.65 55.029,63.082 L55.518,62.712 C56.677,61.844 57.956,60.998 59.32,60.199 C60.331,59.606 60.771,58.671 61.159,57.846 Z M58.311,58.473 C56.882,59.31 55.54,60.198 54.321,61.111 L53.819,61.491 C53.1,62.039 52.421,62.555 51.684,62.961 C50.502,63.611 49.392,63.618 47.987,63.627 C47.6,63.64 47.338,63.582 47.153,63.483 C47.152,63.482 47.152,63.482 47.151,63.482 C45.944,62.837 45.422,60.369 45.755,56.878 C45.81,56.307 45.983,55.727 46.165,55.112 C46.285,54.708 46.404,54.302 46.496,53.893 C46.804,52.519 46.575,51.244 46.354,50.011 C46.198,49.14 46.049,48.318 46.106,47.519 C46.156,46.79 46.286,46.083 46.423,45.335 C46.689,43.887 46.964,42.391 46.634,40.715 C46.228,38.66 46.232,36.569 46.235,34.355 C46.238,32.836 46.24,31.266 46.098,29.709 C46.038,29.057 45.903,28.428 45.772,27.819 C45.527,26.677 45.294,25.599 45.629,24.6 C46.097,23.205 46.472,22.99 46.465,22.99 C46.472,22.989 46.479,22.988 46.487,22.988 C46.604,22.988 46.883,23.084 47.055,23.142 C47.346,23.242 47.676,23.355 48.034,23.384 C48.535,23.427 48.939,23.411 49.264,23.4 C49.942,23.376 50.195,23.369 50.83,23.828 C51.283,24.156 51.744,24.473 52.206,24.789 C53.003,25.335 53.757,25.851 54.471,26.429 C55.69,27.417 56.732,28.738 57.741,30.015 L57.866,30.173 C58.674,31.195 59.117,32.188 59.632,33.337 C59.778,33.664 59.929,34 60.093,34.349 C60.441,35.089 60.849,35.715 61.209,36.267 C61.89,37.308 62.427,38.13 62.482,39.448 C62.534,40.685 62.592,42.088 63.04,43.559 L63.106,43.775 C63.453,44.91 63.812,46.085 63.554,47.12 C63.466,47.471 63.328,47.824 63.184,48.197 C62.906,48.912 62.59,49.722 62.599,50.662 C62.61,51.792 62.515,52.65 62.01,53.439 C61.733,53.872 61.351,54.266 60.947,54.683 C60.763,54.872 60.581,55.062 60.405,55.256 C59.911,55.802 59.612,56.436 59.349,56.995 C59,57.738 58.763,58.208 58.311,58.473 Z" id="Shape"></path>
                <path d="M50.299,30.807 C50.328,31.358 50.794,31.784 51.351,31.753 C52.74,31.681 54.121,32.315 55.059,33.453 C56.033,34.634 56.697,36.432 56.882,38.386 C57.033,40.001 56.614,41.697 55.73,43.037 C55.099,43.994 54.066,44.876 52.82,45.521 C52.448,45.713 51.895,45.973 51.392,46.004 C50.841,46.038 50.421,46.512 50.455,47.064 C50.487,47.594 50.928,48.002 51.452,48.002 C51.473,48.002 51.493,48.001 51.515,48 C52.396,47.946 53.206,47.572 53.74,47.296 C55.285,46.496 56.585,45.374 57.4,44.137 C58.547,42.398 59.07,40.288 58.873,38.197 C58.651,35.855 57.824,33.662 56.602,32.181 C55.262,30.555 53.249,29.66 51.246,29.754 C50.693,29.784 50.271,30.255 50.299,30.807 Z" id="Shape"></path>
                <path d="M51.389,52.266 L51.423,52.266 C53.042,52.256 54.463,51.34 55.64,50.447 C56.496,49.797 57.34,49.131 58.184,48.465 L59.536,47.402 C60.765,46.443 61.615,45.186 61.929,43.86 C62.056,43.323 61.723,42.784 61.185,42.657 C60.648,42.534 60.11,42.862 59.982,43.401 C59.774,44.285 59.179,45.145 58.307,45.825 L56.946,46.895 C56.113,47.552 55.279,48.21 54.431,48.854 C53.517,49.548 52.444,50.26 51.412,50.266 C51.051,50.248 49.854,50.205 49.318,49.315 C48.905,48.627 49.123,47.438 49.281,46.569 C49.479,45.49 49.887,44.655 50.496,44.089 C50.78,43.824 51.163,43.623 51.567,43.41 C52.017,43.173 52.528,42.904 52.984,42.503 C53.7,41.872 54.231,41.07 54.52,40.184 C55.375,37.558 53.746,34.996 53.005,34.017 C52.671,33.577 52.044,33.488 51.604,33.823 C51.164,34.156 51.077,34.783 51.41,35.224 C51.841,35.792 53.198,37.786 52.618,39.565 C52.443,40.103 52.103,40.614 51.662,41.003 C51.385,41.247 51.021,41.439 50.636,41.642 C50.157,41.894 49.614,42.18 49.134,42.626 C48.203,43.493 47.591,44.699 47.315,46.211 C47.111,47.326 46.803,49.011 47.605,50.347 C48.328,51.549 49.741,52.266 51.389,52.266 Z" id="Shape"></path>
                <path d="M60.958,50.42 C60.609,49.994 59.981,49.927 59.551,50.276 C57.544,51.913 55.312,52.983 52.915,53.459 L52.673,53.506 C51.236,53.789 49.608,54.11 48.301,55.154 C47.456,55.83 47.027,56.881 47.089,58.112 C47.169,59.666 48.041,61.276 49.209,62.03 C49.377,62.137 49.564,62.189 49.75,62.189 C50.078,62.189 50.4,62.028 50.592,61.731 C50.891,61.266 50.757,60.648 50.293,60.348 C49.663,59.942 49.133,58.915 49.087,58.01 C49.066,57.605 49.13,57.052 49.551,56.715 C50.474,55.976 51.788,55.718 53.06,55.468 L53.304,55.419 C56.025,54.88 58.552,53.671 60.815,51.826 C61.242,51.478 61.307,50.848 60.958,50.42 Z" id="Shape"></path>
                <path d="M55.213,56.424 C54.192,57.03 52.189,57.585 51.503,57.748 C50.966,57.875 50.633,58.414 50.761,58.951 C50.869,59.411 51.28,59.721 51.733,59.721 C51.809,59.721 51.886,59.712 51.964,59.695 C52.076,59.668 54.74,59.032 56.235,58.143 C56.71,57.861 56.866,57.247 56.584,56.773 C56.302,56.299 55.688,56.14 55.213,56.424 Z" id="Shape"></path>
                <path d="M47.656,32.762 C47.63,33.145 47.603,33.529 47.591,33.912 C47.545,35.262 47.45,38.071 49.882,38.812 C49.98,38.842 50.077,38.856 50.174,38.856 C50.603,38.856 50.999,38.579 51.13,38.148 C51.291,37.62 50.994,37.06 50.466,36.9 C49.662,36.655 49.535,35.6 49.589,33.979 C49.602,33.619 49.627,33.258 49.652,32.899 C49.756,31.393 49.863,29.836 49.142,28.268 C48.812,27.549 48.907,27.298 48.905,27.298 C49.152,27.052 50.748,27.237 51.678,28.12 C52.078,28.502 52.711,28.483 53.091,28.084 C53.472,27.684 53.455,27.051 53.055,26.671 C51.722,25.403 49.112,24.69 47.748,25.666 C47.295,25.99 46.346,26.974 47.324,29.103 C47.832,30.208 47.746,31.448 47.656,32.762 Z" id="Shape"></path>
                <path d="M42.99,13.519 C43.543,13.519 43.99,13.072 43.99,12.519 L43.99,1.125 C43.99,0.572 43.543,0.125 42.99,0.125 C42.437,0.125 41.99,0.572 41.99,1.125 L41.99,12.519 C41.99,13.071 42.438,13.519 42.99,13.519 Z" id="Shape"></path>
                <path d="M27.312,17.547 C27.499,17.547 27.687,17.495 27.855,17.386 C28.318,17.086 28.451,16.467 28.15,16.003 L18.7,1.419 C18.4,0.956 17.781,0.822 17.317,1.124 C16.854,1.424 16.721,2.043 17.022,2.507 L26.472,17.091 C26.663,17.386 26.983,17.547 27.312,17.547 Z" id="Shape"></path>
                <path d="M16.245,27.009 L6.378,21.313 C5.9,21.037 5.288,21.201 5.012,21.679 C4.736,22.157 4.9,22.769 5.378,23.045 L15.245,28.741 C15.402,28.832 15.574,28.875 15.744,28.875 C16.09,28.875 16.426,28.695 16.611,28.375 C16.888,27.896 16.724,27.285 16.245,27.009 Z" id="Shape"></path>
                <path d="M4.267,44.501 L4.272,44.501 L11.399,44.469 C11.951,44.466 12.397,44.017 12.394,43.464 C12.391,42.913 11.945,42.469 11.394,42.469 L11.389,42.469 L4.262,42.501 C3.71,42.504 3.264,42.953 3.267,43.506 C3.27,44.057 3.716,44.501 4.267,44.501 Z" id="Shape"></path>
                <path d="M14.924,58.281 L0.604,66.504 C0.125,66.779 -0.041,67.39 0.235,67.869 C0.42,68.191 0.756,68.371 1.103,68.371 C1.272,68.371 1.443,68.328 1.6,68.238 L15.92,60.015 C16.399,59.74 16.565,59.129 16.289,58.65 C16.015,58.171 15.404,58.008 14.924,58.281 Z" id="Shape"></path>
                <path d="M27.249,69.846 C26.77,69.573 26.159,69.737 25.883,70.214 L21.051,78.61 C20.776,79.089 20.941,79.7 21.419,79.976 C21.576,80.066 21.748,80.109 21.917,80.109 C22.263,80.109 22.6,79.929 22.785,79.608 L27.617,71.212 C27.893,70.733 27.728,70.122 27.249,69.846 Z" id="Shape"></path>
                <path d="M42.344,74.064 C41.791,74.064 41.344,74.511 41.344,75.064 L41.344,86.458 C41.344,87.011 41.791,87.458 42.344,87.458 C42.897,87.458 43.344,87.011 43.344,86.458 L43.344,75.064 C43.344,74.512 42.896,74.064 42.344,74.064 Z" id="Shape"></path>
                <path d="M58.89,70.536 C58.613,70.057 57.999,69.894 57.524,70.17 C57.045,70.446 56.881,71.059 57.158,71.536 L64.19,83.703 C64.376,84.024 64.711,84.203 65.057,84.203 C65.227,84.203 65.399,84.16 65.556,84.069 C66.035,83.793 66.199,83.18 65.922,82.703 L58.89,70.536 Z" id="Shape"></path>
                <path d="M79.955,64.539 L70.088,58.842 C69.609,58.566 68.998,58.729 68.722,59.208 C68.446,59.687 68.61,60.298 69.088,60.574 L78.955,66.271 C79.112,66.362 79.284,66.405 79.454,66.405 C79.8,66.405 80.136,66.226 80.321,65.905 C80.598,65.427 80.434,64.815 79.955,64.539 Z" id="Shape"></path>
                <path d="M81.066,43.083 L81.061,43.083 L73.934,43.115 C73.382,43.118 72.936,43.567 72.939,44.12 C72.942,44.671 73.388,45.115 73.939,45.115 L73.944,45.115 L81.071,45.083 C81.623,45.08 82.069,44.631 82.066,44.078 C82.063,43.527 81.617,43.083 81.066,43.083 Z" id="Shape"></path>
                <path d="M83.734,19.345 L69.413,27.569 C68.934,27.844 68.768,28.455 69.044,28.934 C69.229,29.256 69.565,29.436 69.912,29.436 C70.081,29.436 70.252,29.393 70.409,29.303 L84.73,21.079 C85.209,20.804 85.375,20.193 85.099,19.714 C84.825,19.234 84.215,19.07 83.734,19.345 Z" id="Shape"></path>
                <path d="M58.084,17.736 C58.241,17.827 58.413,17.87 58.582,17.87 C58.928,17.87 59.265,17.69 59.449,17.369 L64.282,8.973 C64.557,8.494 64.392,7.883 63.914,7.607 C63.435,7.334 62.823,7.497 62.549,7.975 L57.716,16.371 C57.44,16.85 57.605,17.461 58.084,17.736 Z" id="Shape"></path>
            </g>
        </g>
    </g>
</svg>