
<svg width="37px" height="21px" viewBox="0 0 37 21" version="1.1" xmlns="http://www.w3.org/2000/svg" xmlns:xlink="http://www.w3.org/1999/xlink">
    <!-- Generator: Sketch 43.1 (39012) - http://www.bohemiancoding.com/sketch -->
    <desc>Created with Sketch.</desc>
    <defs></defs>
    <g id="Symbols" stroke="none" stroke-width="1" fill="none" fill-rule="evenodd">
        <g id="down_arrow" fill="#1A1A1A">
            <path d="M0.744679633,1.40336515 C1.39202814,0.747075691 2.43797214,0.743410459 3.08995764,1.40440095 L19.4977085,18.0387698 C20.1456212,18.6956314 20.1505919,19.755575 19.4987302,20.41644 L19.4987302,20.41644 C18.8513816,21.0727295 17.8054376,21.0763947 17.1534521,20.4154042 L0.745701328,3.78103531 C0.0977885549,3.12417379 0.0928179315,2.06423013 0.744679633,1.40336515" id="Rectangle-4"></path>
            <path d="M36.0751255,1.40336515 C35.427777,0.747075691 34.381833,0.743410459 33.7298475,1.40440095 L17.3220967,18.0387698 C16.6741839,18.6956314 16.6692133,19.755575 17.321075,20.41644 L17.321075,20.41644 C17.9684235,21.0727295 19.0143675,21.0763947 19.666353,20.4154042 L36.0741038,3.78103531 C36.7220166,3.12417379 36.7269872,2.06423013 36.0751255,1.40336515" id="Rectangle-4-Copy"></path>
        </g>
    </g>
</svg>