
<svg width="28px" height="39px" viewBox="0 0 28 39" version="1.1" xmlns="http://www.w3.org/2000/svg" xmlns:xlink="http://www.w3.org/1999/xlink">
    <!-- Generator: Sketch 43.1 (39012) - http://www.bohemiancoding.com/sketch -->
    <desc>Created with Sketch.</desc>
    <defs>
        <filter x="-7.1%" y="-6.2%" width="115.8%" height="115.8%" filterUnits="objectBoundingBox" id="filter-1">
            <feOffset dx="0" dy="2" in="SourceAlpha" result="shadowOffsetOuter1"></feOffset>
            <feGaussianBlur stdDeviation="2" in="shadowOffsetOuter1" result="shadowBlurOuter1"></feGaussianBlur>
            <feColorMatrix values="0 0 0 0 0   0 0 0 0 0   0 0 0 0 0  0 0 0 0.5 0" type="matrix" in="shadowBlurOuter1" result="shadowMatrixOuter1"></feColorMatrix>
            <feMerge>
                <feMergeNode in="shadowMatrixOuter1"></feMergeNode>
                <feMergeNode in="SourceGraphic"></feMergeNode>
            </feMerge>
        </filter>
    </defs>
    <g id="Page-1" stroke="none" stroke-width="1" fill="none" fill-rule="evenodd">
        <g id="TARIFS-03" transform="translate(-651.000000, -206.000000)" fill="#0012FF">
            <g id="Group-2" filter="url(#filter-1)" transform="translate(619.000000, 189.000000)">
                <g id="BLUE_FLASK" transform="translate(36.000000, 19.000000)">
                    <g id="noun_Flask_458218">
                        <g id="Group" transform="translate(0.000000, 8.866000)" fill-rule="nonzero">
                            <path d="M18.74,18.192226 C18.638,18.018936 18.5456,17.882722 18.4856,17.798898 C17.874,16.900611 17.2468,15.928575 16.6924,15.068573 C15.4068,13.074126 14.8944,12.310038 14.5896,12.087582 L12.3288,8.770489 L12.3288,0.70525 L7.6636,0.70525 L7.6636,8.770086 L1.5716,17.711044 C1.5304,17.765449 1.3796,17.971382 1.2188,18.252676 C1.1656,18.342545 1.0892,18.48158 1.0128,18.652855 C1.0064,18.667363 1,18.681468 0.994,18.696379 C0.9816,18.724186 0.9696,18.752799 0.958,18.782218 C0.768,19.24325 0.6576,19.768762 0.8636,20.187882 C1.0548,20.577583 1.4768,20.797621 2.1196,20.845175 C2.208,20.852026 2.3008,20.85525 2.3976,20.85525 L17.3136,20.85525 L17.5968,20.85525 C18.3968,20.85525 18.9132,20.630779 19.1304,20.187882 C19.194,20.058922 19.2248,19.919484 19.2352,19.77521 C19.2888,19.352463 19.1272,18.830578 18.74,18.192226 Z M8.0636,8.895016 L8.0636,1.10825 L11.9288,1.10825 L11.9288,8.895016 L14.044,11.998519 C12.718,11.941696 11.9452,11.578996 11.2028,11.22355 C10.5108,10.891881 9.8572,10.578347 8.8504,10.578347 C7.8316,10.578347 7.0476,10.876164 6.4872,11.208236 L8.0636,8.895016 Z M2.3968,20.45225 C1.782,20.45225 1.3932,20.30717 1.2408,20.020637 C1.1756,19.898125 1.1544,19.751836 1.1624,19.597084 L1.1624,19.595472 C1.166,19.528171 1.1768,19.458452 1.19,19.388733 C1.1972,19.355687 1.2044,19.321835 1.2132,19.287983 C1.2232,19.247683 1.2336,19.207786 1.2456,19.167486 C1.3356,18.887804 1.4772,18.604898 1.6164,18.369143 L5.7568,12.333412 C5.7668,12.320113 6.8072,10.98175 8.85,10.98175 C9.7664,10.98175 10.352,11.262238 11.0304,11.587459 C11.826,11.968697 12.728,12.399101 14.3252,12.411997 L18.1028,17.954859 C18.128,17.987905 18.1588,18.033041 18.1892,18.076968 C18.1916,18.080998 18.1944,18.085028 18.1968,18.088252 C18.2488,18.164419 18.2948,18.237765 18.3404,18.310708 C18.5872,18.716126 18.8632,19.293625 18.8344,19.737731 C18.832,19.756672 18.8324,19.778031 18.8284,19.796166 C18.8284,19.796972 18.828,19.797375 18.828,19.798181 C18.8156,19.852989 18.7976,19.90417 18.7732,19.950918 C18.5992,20.283796 18.1076,20.452653 17.3124,20.452653 L2.3968,20.452653 L2.3968,20.45225 Z" id="Shape"></path>
                            <path d="M17.596,21.25825 L2.3968,21.25825 C2.2896,21.25825 2.1872,21.25422 2.0888,21.246966 C1.2956,21.188128 0.762,20.891923 0.5044,20.366411 C0.276,19.902155 0.3044,19.316999 0.588,18.627466 L0.6472,18.488431 C0.7344,18.293379 0.8192,18.140239 0.8748,18.045534 C1.054,17.732806 1.2216,17.507529 1.2536,17.46602 L7.2636,8.644753 L7.2636,0.30225 L12.7288,0.30225 L12.7288,8.644753 L14.884,11.8079 C15.228,12.09403 15.6896,12.773488 17.0276,14.848938 C17.5492,15.658565 18.1984,16.665662 18.8152,17.571203 C18.8744,17.653818 18.974,17.800107 19.0836,17.986696 C19.518,18.702424 19.698,19.305715 19.6308,19.826794 C19.618,20.014592 19.5704,20.198763 19.488,20.366814 C19.1976,20.958418 18.5608,21.25825 17.596,21.25825 Z M1.5612,19.628518 C1.5592,19.723223 1.5704,19.7873 1.5932,19.830018 C1.6208,19.881602 1.7596,20.04925 2.3968,20.04925 L17.3128,20.04925 C18.0188,20.04925 18.3472,19.901349 18.4196,19.762717 C18.4228,19.756672 18.426,19.750224 18.4284,19.742567 L18.4384,19.683729 C18.4532,19.442735 18.29,18.997823 17.9996,18.521477 C17.9512,18.444907 17.912,18.381636 17.8672,18.31635 C17.8272,18.258318 17.804,18.224063 17.7844,18.199077 L14.112,12.810564 C12.5488,12.761398 11.6152,12.314068 10.8588,11.951368 C10.1984,11.63461 9.6764,11.38475 8.8504,11.38475 C7.0324,11.38475 6.1108,12.532897 6.0728,12.58166 L1.946,18.59845 C1.8568,18.751187 1.7148,19.017973 1.6264,19.292416 C1.6184,19.318611 1.61,19.352463 1.6016,19.385912 C1.5928,19.419764 1.5868,19.446765 1.5816,19.473766 C1.5732,19.516081 1.5648,19.567262 1.562,19.616831 L1.5612,19.628518 Z M8.85,10.17575 C9.9468,10.17575 10.6724,10.523539 11.374,10.859641 C11.9036,11.113128 12.4464,11.373063 13.224,11.508068 L11.5284,9.019946 L11.5284,1.51125 L8.4632,1.51125 L8.4632,9.020349 L7.57,10.330905 C7.9792,10.227737 8.4068,10.17575 8.85,10.17575 Z" id="Shape"></path>
                        </g>
                        <g id="Group" transform="translate(7.600000, 5.239000)" fill-rule="nonzero">
                            <path d="M1.5752,2.824627 C0.8764,2.824627 0.308,2.254785 0.308,1.554371 C0.308,0.853957 0.8764,0.284115 1.5752,0.284115 C2.274,0.284115 2.8424,0.853957 2.8424,1.554371 C2.8424,2.254785 2.274,2.824627 1.5752,2.824627 Z M1.5752,0.686712 C1.0972,0.686712 0.708,1.07601 0.708,1.553968 C0.708,2.031926 1.0972,2.421224 1.5752,2.421224 C2.0532,2.421224 2.4424,2.031926 2.4424,1.553968 C2.4424,1.07601 2.0536,0.686712 1.5752,0.686712 Z" id="Shape"></path>
                            <path d="M1.5752,3.026127 C0.7664,3.026127 0.108,2.36561 0.108,1.554371 C0.108,0.743132 0.7664,0.082615 1.5752,0.082615 C2.384,0.082615 3.0424,0.743132 3.0424,1.554371 C3.0424,2.36561 2.3844,3.026127 1.5752,3.026127 Z M1.5752,0.888212 C1.2072,0.888212 0.908,1.186835 0.908,1.553968 C0.908,1.921101 1.2072,2.219724 1.5752,2.219724 C1.9432,2.219724 2.2424,1.921101 2.2424,1.553968 C2.2424,1.186835 1.9432,0.888212 1.5752,0.888212 Z M1.5752,0.485212 C2.1636,0.485212 2.6424,0.964379 2.6424,1.553968 C2.6424,0.964782 2.164,0.485212 1.5752,0.485212 C0.9864,0.485212 0.508,0.964379 0.508,1.553968 C0.5084,0.964782 0.9868,0.485212 1.5752,0.485212 Z" id="Shape"></path>
                        </g>
                        <g id="Group" transform="translate(9.600000, 2.821000)" fill-rule="nonzero">
                            <path d="M1.7672,3.026933 C0.9948,3.026933 0.3668,2.394223 0.3668,1.616433 C0.3668,0.838643 0.9948,0.205933 1.7672,0.205933 C2.5392,0.205933 3.1672,0.838643 3.1672,1.616433 C3.1672,2.394223 2.5392,3.026933 1.7672,3.026933 Z M1.7672,0.608933 C1.2156,0.608933 0.7668,1.060696 0.7668,1.616433 C0.7668,2.17217 1.2156,2.623933 1.7672,2.623933 C2.3184,2.623933 2.7672,2.17217 2.7672,1.616433 C2.7672,1.060696 2.3184,0.608933 1.7672,0.608933 Z" id="Shape"></path>
                            <path d="M1.7672,3.228433 C0.8848,3.228433 0.1668,2.505451 0.1668,1.616433 C0.1668,0.727415 0.8848,0.004433 1.7672,0.004433 C2.6496,0.004433 3.3672,0.727415 3.3672,1.616433 C3.3672,2.505451 2.6496,3.228433 1.7672,3.228433 Z M1.7672,0.810433 C1.3256,0.810433 0.9668,1.171924 0.9668,1.616433 C0.9668,2.060942 1.3256,2.422433 1.7672,2.422433 C2.2084,2.422433 2.5672,2.060942 2.5672,1.616433 C2.5672,1.171924 2.2084,0.810433 1.7672,0.810433 Z M1.7672,0.407433 C2.4288,0.407433 2.9672,0.949871 2.9672,1.616433 C2.9672,0.949468 2.4288,0.407433 1.7672,0.407433 C1.1052,0.407433 0.5668,0.949871 0.5668,1.616433 C0.5668,0.949468 1.1052,0.407433 1.7672,0.407433 Z" id="Shape"></path>
                        </g>
                        <g id="Group" transform="translate(6.800000, 0.000000)" fill-rule="nonzero">
                            <path d="M1.984,3.630627 C1.1288,3.630627 0.4328,2.92981 0.4328,2.068196 C0.4328,1.206179 1.1288,0.504959 1.984,0.504959 C2.8396,0.504959 3.5356,1.206179 3.5356,2.068196 C3.5356,2.92981 2.8396,3.630627 1.984,3.630627 Z M1.984,0.907959 C1.3492,0.907959 0.8328,1.428232 0.8328,2.068196 C0.8328,2.707354 1.3492,3.227627 1.984,3.227627 C2.6188,3.227627 3.1356,2.707354 3.1356,2.068196 C3.1356,1.428232 2.6188,0.907959 1.984,0.907959 Z" id="Shape"></path>
                            <path d="M1.984,3.832127 C1.0184,3.832127 0.2328,3.040635 0.2328,2.068196 C0.2328,1.095354 1.0184,0.303459 1.984,0.303459 C2.95,0.303459 3.7356,1.095354 3.7356,2.068196 C3.7356,3.040635 2.95,3.832127 1.984,3.832127 Z M1.984,1.109459 C1.4596,1.109459 1.0328,1.53946 1.0328,2.068196 C1.0328,2.596529 1.4596,3.026127 1.984,3.026127 C2.5088,3.026127 2.9356,2.596529 2.9356,2.068196 C2.9356,1.53946 2.5084,1.109459 1.984,1.109459 Z M1.984,0.706459 C2.7292,0.706459 3.3356,1.317407 3.3356,2.068196 C3.3356,1.317407 2.7292,0.706459 1.984,0.706459 C1.2388,0.706459 0.6328,1.317407 0.6328,2.068196 C0.6328,1.317407 1.2388,0.706459 1.984,0.706459 Z" id="Shape"></path>
                        </g>
                    </g>
                </g>
            </g>
        </g>
    </g>
</svg>