
<svg width="1440px" height="570px" viewBox="0 0 1440 570" version="1.1" xmlns="http://www.w3.org/2000/svg" xmlns:xlink="http://www.w3.org/1999/xlink">
    <!-- Generator: Sketch 43.1 (39012) - http://www.bohemiancoding.com/sketch -->
    <desc>Created with Sketch.</desc>
    <defs></defs>
    <g id="Page-1" stroke="none" stroke-width="1" fill="none" fill-rule="evenodd">
        <g id="HOME" transform="translate(0.000000, -108.000000)" stroke="#ffffff" stroke-width="0.5">
            <g id="lines_bg" transform="translate(-45.000000, 108.000000)">
                <path d="M0.79,40.51 C24,46 43,60 63,75 C82.67,89.67 103.22,108.11 124.74,124.6 C135.5,132.84 146.51,140.6 157.8,147.14 C264,211 377,118 438.74,34.67 C450.58,23.8 463.38,13.62 478,5 C504,-10 524,20 536,40 C574,105 611,193 695,196 C723.12,171.62 755.19,160.89 789.03,156.68 C800.31,155.28 811.79,154.6 823.38,154.38 C900,154 986,179 1050.49,122.32 C1060.3,116.17 1070.16,109.75 1080.04,103.35 C1129.44,71.44 1179.15,39.97 1226.74,56.53 C1237.62,60.32 1248.38,66.62 1259.02,75.99 C1300,110 1334,155 1389,167 C1428,175 1465,157 1502.66,156.74" id="Shape"></path>
                <path d="M0.75,42.71 C22,48 40,60 58,73 C78.33,89 99,107.89 120.54,124.65 C131.31,133.03 142.3,140.88 153.6,147.56 C190.12,170.22 229.97,175.67 268.19,168.61 C280.93,166.26 293.49,162.52 305.69,157.56 C330,147 353,133 373.09,114.67 C383.11,105.56 392.4,95.58 400.78,84.91 C409.16,74.23 416.62,62.87 423,51 C427,44 433,39 438.83,32.63 C445.88,25.81 453.5,19.5 462,14 C529,-30 549,91 587,132 C616,164 653,213 697,198 C725,188 746,162 778,159 C790.17,157.83 802.36,157.44 814.56,157.5 C826.77,157.57 838.98,158.09 851.19,158.76 C920,166 995,169 1053.41,122.56 C1063.07,116.5 1072.79,110.17 1082.54,103.86 C1131.26,72.43 1180.42,41.65 1226.73,58.45 C1237.32,62.3 1247.75,68.64 1258.03,78.06 C1301,115 1340,166 1398,172 C1433,175 1468,162 1502.77,159.46" id="Shape"></path>
                <path d="M0.74,44.96 C12,48 22,53 32,58 C60.12,73.38 86.98,98.88 114.49,121.88 C123.66,129.55 132.9,136.94 142.29,143.59 C179.31,170.37 222.55,177.12 264.68,169.75 C278.72,167.29 292.64,163.27 306.17,157.89 C334,147 358,131 380.38,111.2 C391.23,101.3 401.14,90.49 409.84,78.98 C418.54,67.47 426.03,55.27 432.03,42.6 C439.61,32.34 447.83,22.93 456.36,16.02 C473.42,2.19 491.58,-1.67 512,20 C571,84 599,199 698,206 C725,177.88 756.92,166.06 791.13,161.76 C802.53,160.32 814.19,159.72 826,159.63 C907,163 994,182 1059.43,119.77 C1070.78,112.76 1082.09,105.69 1093.5,98.88 C1127.75,78.5 1163,60.5 1204,55 C1215,53.5 1224.81,54.75 1233.72,57.98 C1242.63,61.22 1250.63,66.44 1258.02,72.89 C1297,114 1330,173 1393,175 C1430,176 1466,165 1502.9,162.19" id="Shape"></path>
                <path d="M0.77,47.25 C18,52 33,61 48,71 C69.67,86.67 91.44,107.22 113.98,125.92 C125.25,135.27 136.71,144.15 148.48,151.73 C186.17,175.08 229,180.26 270.23,172.12 C283.97,169.41 297.54,165.22 310.67,159.74 C337,148 361,133 382.43,112.62 C392.87,102.65 402.39,91.75 410.73,80.08 C419.07,68.41 426.25,56 432,43 C435,36 442,30 449.06,24.28 C461.02,14.28 474.75,7.63 492,8 C503,8 511,18 518,27 C569,97 608,226 706,202 C728,197 747,169 775,165 C787.67,163.17 800.31,162.39 812.91,162.25 C825.51,162.12 838.08,162.63 850.62,163.39 C921,174 997,174 1053.83,126.08 C1063.27,119.9 1072.8,113.5 1082.37,107.13 C1130.24,75.39 1178.94,44.41 1224.39,60.79 C1234.78,64.54 1245,70.76 1255.03,80.01 C1298,118 1338,172 1398,178 C1433,182 1468,167 1503.03,164.94" id="Shape"></path>
                <path d="M0.82,49.61 C22,55 39,67 56,80 C80,98.75 104.84,122.7 130.91,142.29 C139.61,148.82 148.45,154.87 157.45,160.07 C194.03,180.67 235.17,184.26 274.53,175.48 C287.64,172.56 300.56,168.27 313.04,162.79 C338,152 361,136 380.88,116.69 C390.69,107.06 399.59,96.58 407.36,85.41 C415.13,74.24 421.75,62.37 427,50 C431,40 441,35 448.14,28.36 C457.56,21.62 468.25,16.5 481,14 C503,9 519,25 529,42 C569,113 611,218 706,212 C730.75,183.5 761.12,171.17 794.07,166.53 C805.05,164.98 816.32,164.29 827.75,164.13 C876,162 922,178 971,170 C1013,164 1044,133 1079.11,110.37 C1089.77,103.24 1100.48,96.17 1111.18,89.63 C1153.98,63.45 1196.56,45.59 1235.07,66.21 C1246.07,72.13 1256.79,81.2 1267.63,94.41 C1301,134 1341,173 1393,182 C1430,188 1466,170 1503.17,167.71" id="Shape"></path>
                <path d="M0.9,52.02 C12,55 23,59 33,66 C61.88,86.25 90.75,114.52 120.62,138.02 C130.58,145.86 140.64,153.16 150.86,159.47 C192.16,185.54 235.7,188.62 276.95,177.24 C290.7,173.45 304.2,168.06 317.28,161.38 C344,148 368,130 389.41,108.22 C400.15,97.63 410.13,86.37 419.19,74.78 C428.25,63.18 436.4,51.24 443.45,39.28 C450.5,31.88 458,24.75 466,18 C481,5 503,13 514,28 C566,104 608,222 710,216 C732.5,187.12 761.33,174.42 793,169.51 C803.56,167.87 814.43,167.1 825.5,166.88 C882,162 940,190 994,167 C1021,155 1042,134 1068,120.01 C1075.92,115.84 1084.16,110.92 1092.63,105.7 C1135,79.59 1183.09,45.93 1224.5,60.97 C1234.44,64.58 1244,71 1253.03,81.01 C1298,124 1342,190 1408,186 C1439,185 1471,175 1503.32,170.5" id="Shape"></path>
                <path d="M1,54.5 C56,71 90,120 135,155 C142.5,160.67 150.32,165.64 158.35,169.82 C186.51,183.36 214.94,187.96 242.65,185.76 C256.5,184.66 270.17,181.87 283.53,177.65 C325,163 362,139 392.14,108.33 C402.53,97.96 412.25,86.97 421.15,75.63 C430.05,64.29 438.15,52.6 445.32,40.83 C452.44,33.69 460,26.75 468,20 C482,8 502,16 513,31 C541,69 555,110 585,145 C616,182 668,249 708,214 C735.38,190.38 765.56,179.55 796.88,174.98 C807.32,173.46 817.88,172.63 828.5,172.25 C909,176 998,194 1059.63,128.37 C1071.67,120.05 1083.71,111.64 1095.8,103.66 C1132.07,79.82 1168.72,59.96 1207.83,63.16 C1219,64.07 1230.38,66.87 1242,72 C1279,90 1292,131 1322,159 C1374,209 1443,182 1503.47,173.3" id="Shape"></path>
                <path d="M1.12,57.05 C14,60 25,67 36,74 C63.38,93.12 90.75,120.55 119.14,143.64 C128.6,151.34 138.18,158.55 147.9,164.82 C176.44,184.39 208.34,190.99 240.28,188.55 C250.93,187.73 261.58,185.91 272.11,183.23 C315,173 353,149 385,119 C396,108 404.25,95.25 412.49,82.54 C420.73,69.84 428.95,57.18 439.9,46.37 C446.62,39.84 454,34 462,29 C528,-10 544,110 583,149 C618,184 672,256 715,217 C737,196.5 761.75,185 787.62,178.88 C796.24,176.84 805,175.39 813.81,174.41 C855,170 895,176 936,182 C995,190 1036,145 1079.97,115.15 C1090.05,108.24 1100.21,101.43 1110.39,95.12 C1151.14,69.88 1192.31,52.6 1230.3,69.98 C1241.15,74.96 1251.79,82.78 1262.49,94.26 C1299,131 1331,188 1387,193 C1427,196 1465,182 1503.64,176.13" id="Shape"></path>
                <path d="M1.28,59.68 C48.55,77.45 82.12,114.44 119.2,148.26 C126.62,155.03 134.17,161.66 142,168 C170.12,188.62 201.62,195.89 233.39,194.02 C243.98,193.4 254.6,191.75 265.13,189.25 C308,179 347,156 379.98,128.04 C387.99,121.27 395,113.64 401.47,105.53 C420.88,81.25 435.5,52.75 458,31 C469,18.5 482.75,18.25 495.38,24 C508.01,29.75 519.5,41.5 526,53 C537.5,73 546.75,93.75 557.38,113.5 C562.69,123.38 568.35,133 574.8,142.16 C581.25,151.32 588.5,160 597,168 C629,199 680,258 715,222 C740.88,195.75 770.55,184.12 801.8,179.43 C812.22,177.87 822.82,177.08 833.51,176.8 C866,177 898,180 931,184 C990,193 1034,149 1077.56,118.48 C1089.19,110.19 1100.97,101.92 1112.84,94.41 C1148.43,71.91 1184.76,56.26 1220.05,67.88 C1230.13,71.2 1240.13,76.75 1250.06,85.02 C1297,122 1326,195 1391,197 C1429,198 1466,185 1503.81,178.96" id="Shape"></path>
                <path d="M1.46,62.38 C42,78 73,110 104,141 C111.5,148.17 119.58,155.08 128.1,161.43 C136.63,167.77 145.6,173.54 154.87,178.42 C185.67,195.51 219.26,199.59 252.28,194.58 C263.28,192.92 274.22,190.25 284.97,186.73 C328,173 366,145 397,112 C405.5,102.5 412.25,91.75 418.95,80.98 C425.65,70.21 432.3,59.42 440.6,49.85 C447.47,42.24 455.26,35.25 464.01,29 C492.01,10 515.01,39 528.01,64 C532.89,73.25 538.04,82.95 543.52,92.84 C549,102.73 554.79,112.79 560.94,122.77 C567.09,132.75 573.59,142.63 580.49,152.16 C587.39,161.69 594.68,170.85 602.39,179.38 C633.25,213.5 671,237.5 718,234 C734.33,207.67 756.33,193.22 781.3,185.63 C793.78,181.83 807,179.75 820.63,178.77 C868,174 914,191 961,187 C1006,183 1039,149 1075.02,124.22 C1085.07,117.05 1095.15,109.91 1105.42,103.23 C1115.7,96.56 1126.17,90.34 1137,85 C1167,70 1204.88,57.25 1234.59,70.8 C1244.5,75.33 1253.55,82.79 1261.35,94.22 C1295,138 1329,197 1388,201 C1427,204 1465,188 1503.98,181.82" id="Shape"></path>
                <path d="M1.68,65.16 C22,73 39,84 55,98 C77.12,117.88 101.36,142.67 127.27,162.58 C135.92,169.22 144.76,175.31 153.77,180.5 C183.85,197.94 216.86,202.23 249.47,197.61 C260.34,196.08 271.16,193.56 281.82,190.23 C325,177 363,152 393.99,120.01 C400.49,113.25 406,105.75 411.09,97.96 C426.38,74.62 438,48.75 462,33 C475.5,24 489.5,26.5 501.5,34.12 C513.5,41.74 523.5,54.5 529,66 C534.17,76.67 539.42,87.31 544.88,97.79 C550.34,108.28 556.02,118.61 562.04,128.67 C568.06,138.73 574.42,148.5 581.25,157.88 C588.08,167.25 595.39,176.23 603.3,184.67 C619.11,201.56 637.34,216.34 659,228 C680,239 711,250 726,229 C748.12,198.62 775.73,185.97 805.82,181.54 C815.85,180.08 826.16,179.53 836.64,179.58 C879,179 919,194 961,191 C1007,188 1036,146 1073.61,124.39 C1084.45,116.81 1095.33,109.43 1106.37,102.62 C1139.5,82.25 1174,67 1213,68 C1225.25,68.5 1235.25,72.57 1243.9,78.9 C1250,83 1254,88 1259,93 C1297,142 1332,210 1402,205 C1437,202 1470,191 1504.17,184.69" id="Shape"></path>
                <path d="M1.93,68.02 C17,73 30,82 42,93 C66,113.62 91.83,140.02 119.4,161.46 C128.59,168.61 137.98,175.21 147.56,180.86 C172.37,196.9 198.47,203.27 224.68,202.84 C237.79,202.63 250.92,200.72 263.93,197.49 C323,180 383,148 415.63,93.88 C421.2,84.94 426.54,75.85 432.38,67.06 C438.22,58.27 444.54,49.77 452.05,42.03 C459.5,34.5 470,29.75 480.25,29.25 C490.5,28.75 500.5,32.5 507,42 C514.12,52.25 521.14,63.27 528.18,74.67 C535.22,86.07 542.29,97.86 549.51,109.65 C564,133 578,156 595.88,177.38 C604.29,187.66 613.12,197.18 622.52,205.57 C650.72,230.72 684,245.62 726,240 C741.33,211.67 763.11,196.67 788.26,189.15 C800.83,185.39 814.25,183.51 828.14,182.81 C874,180 919,197 965,193 C1006,191 1033,154 1065.74,131.82 C1075.11,124.74 1084.54,117.8 1094.07,111.22 C1122.69,91.54 1152.22,75.03 1184.62,71.45 C1197.58,70.02 1211,70.66 1225,73.99 C1242,76.99 1254,87.99 1265,101.99 C1289,133.99 1306,165.99 1339,189.99 C1391,228.99 1450,196.99 1504.36,187.57" id="Shape"></path>
                <path d="M2.21,70.98 C54,93 91,137 132,176 C139.67,183.33 147.82,189.03 156.31,193.27 C184.98,203.7 214.11,206.34 242.5,202.85 C256.69,201.11 270.69,197.86 284.37,193.31 C327,180 363,153 394.23,121.99 C404.55,111.31 414.08,99.96 422.67,88.13 C431.25,76.32 438.89,64.03 445.45,51.46 C456.39,40.51 468.07,33 479.79,32.62 C491.5,32.25 503.25,39 515,57 C522,68 528.64,78.97 535.16,89.82 C555,121 572,154 597.07,181.44 C605.03,190.66 613.6,199.47 623.01,207.76 C632.42,216.05 642.67,223.83 654,231 C677,246 713,262 729,239 C745.67,214.33 766.11,200.33 788.56,192.78 C799.78,189 811.51,186.84 823.51,185.79 C861,182 897,191 935,198 C991,208 1028,162 1066.73,133.24 C1076.08,126.09 1085.5,119.1 1095.01,112.5 C1123.56,92.75 1152.94,76.35 1185.05,73.05 C1197.89,71.73 1211.17,72.51 1225,76.01 C1272,92.01 1286,145.01 1319,180.01 C1372,235.01 1444,206.01 1504.57,190.5" id="Shape"></path>
                <path d="M2.54,74.02 C17,78 29,86 39,97 C63.75,121.75 92.58,150.44 123.53,172.09 C133.87,179.31 144.44,185.75 155.21,191.01 C183.55,204.5 217.07,211.81 248.94,207.45 C259.56,206 269.99,203.25 280.01,199.02 C321,180 366,163 395.08,125.86 C402.03,117.55 408.52,108.71 414.89,99.5 C421.25,90.31 427.5,80.75 434,71 C442,60 451,52 460.01,43.01 C471.5,32 484.25,33.25 495.62,39.88 C506.99,46.51 517,58.5 523,69 C529.33,80 535.47,91.11 541.63,102.16 C545.97,110.37 550.48,118.53 555.18,126.58 C559.88,134.63 564.76,142.58 569.87,150.37 C580,166 591,181 603.3,194.78 C611.49,203.78 620.33,212.17 630.04,219.77 C639.75,227.37 650.34,234.17 662,240.01 C686,252.01 722,263.01 737,238.01 C745.5,224.34 755.25,214.18 765.94,206.69 C776.63,199.2 788.26,194.4 800.52,191.45 C853,180 904,202 956,202 C1003,202 1033,159 1068.39,133.46 C1077.19,126.76 1086.05,120.26 1095.01,114.11 C1121.89,95.72 1149.61,80.38 1180.05,75.45 C1192.23,73.48 1204.84,73.17 1218,75.01 C1234,77.01 1248,86.01 1258,99.01 C1285,134.01 1303,171.01 1339,198.01 C1392,237.01 1451,205.01 1504.79,193.43" id="Shape"></path>
                <path d="M2.91,77.16 C14,80 23,86 32,94 C56.38,116.12 83.14,144.16 111.97,167 C121.58,174.62 131.42,181.66 141.48,187.71 C175.8,209.19 213.42,215.03 250.26,209.71 C262.52,207.96 274.71,204.98 286.68,200.99 C336,184 378,152 409,111 C418.5,98.5 426.5,85.25 435.5,73.12 C444.5,60.99 454.5,50 468,42 C477.5,36 487.75,37.25 496.75,42.25 C505.75,47.25 513.5,56 518,65 C523.38,75.38 529.14,86.41 535.33,97.73 C540.25,106.55 545.25,115.35 550.4,124.04 C555.56,132.74 560.87,141.33 566.42,149.73 C579,166 589,183 603.12,197.13 C612.09,206.78 621.57,215.6 631.58,223.22 C661.62,246.05 696.5,258 737,249 C750,222 769.33,206.89 792.04,198.81 C803.39,194.77 815.59,192.51 828.27,191.47 C874,188 918,208 964,204 C1020,198 1052,141 1098.62,114.5 C1107.4,108.56 1116.28,102.97 1125.35,97.97 C1152.54,82.98 1181.37,73.37 1214,76 C1225.25,76.75 1234.38,80.76 1242.26,86.88 C1249,91 1254,98 1258,104 C1296,158 1334,227 1406,220 C1440,217 1472,205 1505.04,196.38" id="Shape"></path>
                <path d="M3.32,80.41 C15,86 26,92 36,100 C60,121.38 85.69,149.08 113.15,171.72 C122.31,179.27 131.66,186.25 141.21,192.25 C173.75,212.41 210.27,217.69 246.36,212.58 C258.37,210.9 270.35,208.07 282.14,204.3 C329,189 372,160 402.98,121.03 C412.5,109 420.75,96.5 429.27,84.26 C437.79,72.02 446.57,60.04 457.15,49.09 C465,41 475.5,38.75 485.38,40.75 C495.26,42.75 504.5,49 510,58 C516.12,68.75 522.53,80.3 529.29,92.23 C534.72,101.42 540.1,110.63 545.57,119.77 C551.04,128.91 556.6,137.99 562.38,146.92 C574,165 586,182 600.74,198.14 C610.06,208.48 619.89,217.92 630.29,226.04 C661.5,250.41 697.88,262.88 741,252 C747.5,237.5 755.72,226.44 765.26,218.07 C774.8,209.7 785.65,204 797.41,200.22 C852,184 908,210 963,207 C1018,203 1049,146 1094.24,118.3 C1105.06,110.45 1115.97,103.03 1126.88,96.63 C1148.69,83.82 1170.47,75.04 1191.43,75.02 C1201.91,75.01 1212.18,77.2 1222.14,82.17 C1228,85 1234,89 1239,93 C1290,139 1323,221 1395,225 C1432,227 1469,210 1505.3,199.36" id="Shape"></path>
                <path d="M3.79,83.75 C48.14,108.12 81.22,145.52 118.22,179.88 C125.61,186.75 133.17,193.5 141,200 C172.5,218.38 207.52,222.55 242.3,217.26 C253.88,215.52 265.44,212.73 276.86,209.12 C323,195 364,169 396.94,134.19 C407.97,122.55 416.25,109 424.2,95.42 C432.15,81.84 439.81,68.19 449.62,56.39 C457.6,47.56 469.5,43.25 480.87,43.87 C492.24,44.49 503,50 509,61 C515.67,72.83 522.2,84.67 528.81,96.41 C533.36,105.06 538.21,113.61 543.31,122.04 C548.42,130.48 553.78,138.8 559.36,147.01 C579,173 597,201 623.47,222.3 C633.72,230.89 644.84,238.84 657,246 C685,263 731,277 748,247 C755.33,234 764.03,224.14 773.74,216.72 C783.45,209.3 794.18,204.33 805.59,201.11 C858,187 909,213 960,212 C1008,211 1036,163 1073.24,136.72 C1082.74,129.11 1092.49,121.61 1102.34,114.53 C1131.91,93.37 1162.42,75.99 1191.27,75.74 C1200.89,75.65 1210.32,77.47 1219.48,81.69 C1223,82 1227,85 1230,87 C1288,134 1318,222 1396,229 C1434,232 1469,213 1505.58,202.37" id="Shape"></path>
                <path d="M4.3,87.21 C21,94 34,105 46,118 C66.62,139.38 90.77,164.41 117.17,184.38 C125.97,191.04 135.02,197.13 144.28,202.35 C177.55,222.1 212.41,226.42 246.41,220.74 C257.73,218.87 268.96,215.91 280.04,212.1 C326,197 364,167 397.94,134.2 C409.47,122.55 418.25,109 426.93,95.41 C435.61,81.82 444.23,68.14 455.45,56.29 C470,41.5 485.25,44 498.25,53.5 C511.25,63 522,79.5 528.01,93.01 C533.01,103.26 538.13,113.44 543.51,123.48 C548.89,133.52 554.52,143.41 560.54,153.07 C578,183 601,209 627.42,231.06 C636.33,238.5 645.83,245.5 656,252 C705,282 751,253 787,216 C793.83,209.17 801.47,204.39 809.72,201.16 C828,194 846,195 865,197 C902,202 937,224 973,213 C1023,199 1052,151 1092.83,122.48 C1102.23,115.54 1111.73,109 1121.4,103.23 C1140.75,91.7 1160.8,83.25 1182.12,80.92 C1194.91,79.52 1208.16,80.33 1222,83.99 C1235,86.99 1246,94.99 1254,105.99 C1292,162.99 1328,232.99 1402,232.99 C1438,232.99 1471,214.99 1505.88,205.39" id="Shape"></path>
                <path d="M4.86,90.78 C12,92 19,97 23,102 C48.88,127.12 78.55,158.44 110.38,182.81 C120.99,190.93 131.84,198.28 142.87,204.38 C174.04,222.99 207.02,227.45 239.61,222.75 C250.46,221.2 261.26,218.64 271.97,215.29 C333,195 391,157 423.5,101.38 C428.5,93.32 433.5,85.22 439.06,77.52 C444.62,69.82 450.75,62.5 458,56 C478,38 504,58 516,76 C526.67,91.67 535.11,108.11 543.24,124.35 C547.3,132.47 551.29,140.54 555.43,148.45 C572,183 600,211 629.67,235.56 C638.78,243.12 648.25,250 658,255.63 C687.25,272.51 719,278.01 751,256.01 C763.5,247.51 772.75,234.01 783.38,222.51 C794.01,211.01 806,201.51 824.01,201.05 C859,201 893,209 928,218 C995,235 1031,173 1075.03,138.04 C1083.79,131.17 1092.68,124.69 1101.75,118.62 C1129,100.5 1158,86 1192,80 C1205.75,77.5 1216.94,79.44 1226.41,84.34 C1231,86 1236,90 1240,94 C1287,148 1315,232 1394,237 C1433,240 1469,220 1506.2,208.45" id="Shape"></path>
                <path d="M5.47,94.46 C38.49,114.82 64.16,142.49 91.54,169.94 C105.22,183.67 119.33,197.33 135,210 C161.25,231.75 194.81,231.56 227.25,225.89 C238.06,224 248.75,221.5 259,219 C330,202 399,161 429,92 C433,83.5 439,76 446.38,69.63 C453.76,63.26 462.53,58.02 472.06,54.04 C481,50.5 489.75,52.75 497.25,57.87 C504.75,62.99 511,71 515,79.01 C518.83,87.51 522.8,95.95 526.95,104.3 C531.1,112.65 535.42,120.91 539.95,129.03 C558,161 579,193 606.58,217.88 C616.52,227.32 627.13,236.01 638.5,243.77 C649.87,251.53 662,258.33 675,264 C700,275 737,283 751,261 C758,250 765.72,240.97 774.03,233.61 C782.34,226.24 791.24,220.54 800.59,216.19 C848,194 898,211 946,223 C970,229 991,218 1009,203 C1033,182 1052,158 1076.96,139.55 C1086.35,132.11 1095.84,125.11 1105.5,118.62 C1134.5,99.25 1165,84.5 1200,82 C1213.25,81.25 1223.81,84.69 1232.75,90.88 C1243,98 1250,107 1257,117 C1282,155 1302,191 1337,219 C1391,263 1453,232 1506.53,211.53" id="Shape"></path>
                <path d="M6.13,98.28 C46.02,125.55 77.67,160.65 113.15,194.16 C120.25,200.86 127.5,207.5 135,214 C165.75,232.38 199.03,235.7 232.31,229.94 C243.39,228.04 254.47,225.12 265.49,221.46 C326,199 391,166 424.25,107.38 C429.37,99.07 434.44,90.72 440.16,82.83 C445.88,74.94 452.25,67.5 460,61 C486,39 510,74 523,96 C529,106.25 534.75,116.44 540.47,126.51 C546.18,136.59 551.87,146.54 557.72,156.34 C575,188 598,217 624.81,240.15 C635.05,248.63 646.33,256.33 659,263 C699.83,284.67 742.75,275.78 775.6,246.17 C782.17,240.25 788.34,233.5 794,226 C810,203 839,201 865,206 C910,215 955,245 998,214 C1028,192 1049,165 1076.75,141.93 C1084.68,135.23 1092.87,128.67 1101.19,122.41 C1126.15,103.71 1152.19,87.52 1176.82,82.93 C1189.13,80.63 1201.1,81.24 1212.4,85.88 C1219,88 1225,92 1230,97 C1282,151 1314,231 1393,246 C1433,254 1469,226 1506.87,214.63" id="Shape"></path>
                <path d="M6.84,102.22 C51.14,132.04 81.44,175.89 122.71,208.2 C130.97,214.66 139.66,220.66 148.99,226 C175.74,233.25 203.18,234.31 230.24,230.36 C243.77,228.38 257.19,225.18 270.43,220.94 C339,200 396,150 435,91 C444,78 456,66 473,63 C494,59 509,75 519,92 C525.75,102.75 532.12,113.5 538.38,124.18 C544.63,134.87 550.75,145.48 556.99,155.95 C574,186 594,215 618.96,239.05 C625.65,245.19 633.22,251.06 641.34,256.38 C681.92,282.98 736.5,295.34 764,257 C772.33,245 781.42,235.97 791.07,229.24 C800.73,222.52 810.95,218.1 821.6,215.41 C863,205 902,221 943,230 C960,234 976,232 991,223 C1033,194 1059,154 1098.55,126.22 C1108.43,118.65 1118.4,111.53 1128.37,105.38 C1148.31,93.07 1168.21,84.6 1187.26,84.27 C1196.78,84.11 1206.09,85.98 1215.08,90.43 C1220,93 1225,96 1230,100 C1281,152 1314,224 1384,249 C1425,264 1467,231 1507.23,217.76" id="Shape"></path>
                <path d="M7.6,106.31 C14,111 20,114 26,119 C66.83,152.33 93.08,199.56 137.74,224.21 C146.68,229.14 156.36,233.17 167.1,236.03 C178.89,237.13 190.61,237.38 202.22,236.83 C213.83,236.28 225.33,234.94 236.67,232.86 C306,220 369,181 414.67,127.58 C422.62,118.46 430.16,109.03 437.25,99.25 C444.3,89.5 450.9,79.4 457,69 C465,55 490,57 500,71 C506,79.17 511.5,87.53 516.7,95.98 C521.9,104.43 526.8,112.97 531.6,121.5 C556,168 584,213 626.58,243.34 C637.05,251.75 648.16,259.67 660,267 C703.33,293.67 748.06,282.83 783.75,251.28 C790.89,244.97 797.67,237.83 804,230.01 C842,188 899,227 944,234 C1011,244 1039,168 1087.86,136.79 C1097.73,128.98 1107.74,121.64 1118.02,115.12 C1138.58,102.08 1160.2,92.25 1184.04,89.1 C1194.26,87.75 1204.88,87.62 1216.01,89 C1251.01,103 1262.01,144 1285.01,173 C1316.01,215 1354.01,257 1408.01,255 C1444.01,254 1475.01,232 1507.62,220.91" id="Shape"></path>
                <path d="M8.39,110.56 C47.47,138.86 78.27,186.06 116.68,215.88 C126.28,223.33 136.37,229.7 147.19,234.41 C169.39,241.31 192.17,243.23 214.88,241.27 C226.23,240.29 237.57,238.34 248.79,235.57 C317,217 384,178 423.47,118.33 C430.5,107.25 437,95.5 444,84 C458,60 490,58 504,79 C509.83,87.5 515.19,96.11 520.28,104.75 C525.37,113.39 530.19,122.05 534.93,130.65 C558,175 585,217 625.2,246.56 C633.62,253.01 642.43,258.95 651.72,264.23 C661.01,269.51 670.75,274.13 681,278.01 C709,288.01 751,295.01 766,270.01 C773.33,258.01 781.53,248.62 790.4,241.32 C842,200 906,231 964,238 C976,240 988,235 998,227 C1032,197 1057,161 1092.15,135.47 C1102.26,127.76 1112.56,120.55 1123.26,114.15 C1144.67,101.34 1167.67,91.67 1194,88 C1204.25,86.5 1213.06,88.25 1220.77,92.22 C1230,98 1238,104 1244,113 C1277,166 1305,220 1361,249 C1412,276 1462,245 1508,224.09" id="Shape"></path>
                <path d="M9.22,114.96 C51.54,150 84.98,197.5 129.67,227.41 C138.61,233.39 148,238.67 158.01,243 C181.81,245.6 205.49,244.64 228.64,240.61 C240.22,238.59 251.64,235.83 262.92,232.43 C334,213 393,165 434.81,106.34 C442.06,96.53 448.8,86.4 455,76 C464,62 489,63 498,77 C504,86 509.69,95.03 515.23,104.02 C520.76,113.02 526.12,121.99 531.47,130.87 C558,177 589,222 632,254 C638.83,259.33 646.47,264.5 654.6,269.2 C695.22,292.7 748,304.5 773,267 C780.33,256 788.39,247.47 797,240.91 C843,206 900,231 952,241 C970,245 987,239 1001,228 C1035,200 1055,163 1090.01,139.04 C1097.34,133.67 1105.42,127.78 1113.97,121.96 C1139.64,104.5 1169.55,87.67 1196.22,88.34 C1205.11,88.56 1213.64,90.73 1221.56,95.49 C1228,100 1234,105 1239,111 C1279,170 1310,236 1378,259 C1425,275 1467,246 1508.41,227.3" id="Shape"></path>
                <path d="M10.09,119.51 C57.51,154.92 90.42,218.46 142.31,241.55 C152.71,246.17 163.88,249.17 176.31,250.13 C189.27,248.74 202.38,246.82 215.48,244.33 C228.57,241.85 241.67,238.8 254.65,235.17 C334,217 406,167 441,92 C445.5,82.5 455,74.5 465.38,71.62 C475.76,68.74 487,71 495,82 C501.67,91.33 508.06,100.67 514.3,109.95 C520.54,119.24 526.62,128.49 532.69,137.65 C563,184 595,231 640.9,262.38 C650.44,269.04 660.32,274.68 670.56,279.05 C701.27,292.15 735.2,293.8 773,277 C784,272.5 790.25,262.25 796.63,252.01 C825,202 891,229 934,244 C955,251 979,250 996,234 C1035,200 1063,157 1107.04,129.81 C1115.35,124.01 1123.85,118.48 1132.63,113.31 C1141.41,108.14 1150.5,103.33 1160,99 C1172.5,93 1187,89.5 1200.62,90.62 C1214.24,91.74 1227.04,97.51 1236.39,110.24 C1275,165 1305,234 1371,262 C1420,282 1466,251 1508.84,230.53" id="Shape"></path>
                <path d="M11.01,124.22 C56.83,160.7 92.25,228.59 146.19,248.47 C157.01,252.45 168.6,254.52 181.36,254.13 C195.57,252.99 209.53,250.99 223.21,248.17 C236.87,245.38 250.25,241.78 263.39,237.47 C332,218 389,172 432.04,116.88 C441.21,105.47 449.88,93.5 458,81 C470,63 498,76 508,95 C512,102.83 516.06,110.58 520.2,118.24 C524.33,125.91 528.55,133.49 532.87,141 C557.01,183 584.01,223 620.67,253.66 C630.96,262.32 642,270.5 654,278 C684,296.5 714.75,297.5 743.88,288.12 C753.59,285 763.12,280.72 772.38,275.55 C796,263 813,243 837,228 C846,223 855,224 865,225 C912,232 963,273 1006,232 C1037,202 1061,166 1093.89,139.14 C1103.61,131 1113.43,123.37 1123.25,116.75 C1142.87,103.5 1162.44,94.19 1181.16,93.38 C1190.52,92.97 1199.67,94.69 1208.52,99.12 C1214,102 1219,105 1223,109 C1283,166 1319,264 1407,273 C1445,276 1476,250 1509.29,233.79" id="Shape"></path>
                <path d="M11.97,129.08 C57,165.68 91.58,232.89 144.69,252.55 C155.34,256.48 166.73,258.51 179.26,258.1 C192.35,256.59 205.42,254.45 218.37,251.69 C231.3,248.95 244.12,245.58 256.77,241.62 C335,220 403,168 443,98 C449.5,86.5 461,79.5 472.88,78.5 C484.76,77.5 497,82.5 505,95 C510,103.5 514.89,111.97 519.75,120.38 C524.6,128.81 529.41,137.18 534.25,145.48 C559,186 584,230 623.54,259.48 C631.79,266.01 640.46,272.03 649.67,277.35 C658.88,282.67 668.62,287.25 679,291 C705.25,300 738.25,302.25 762.81,290.58 C771,286.69 778.25,281.25 784,274 C818,223 887,227 937,250 C971,266 1004,244 1025,216 C1051,181 1078,150 1112.9,127.27 C1120.59,122.04 1128.44,117.24 1136.52,113.04 C1144.6,108.85 1152.92,105.26 1161.54,102.45 C1171.88,99.08 1182.66,96.83 1193.99,96 C1218.99,94 1237.99,113 1247.99,133 C1278.99,193 1317.99,251 1382.99,274 C1429.99,291 1470.99,257 1509.74,237.07" id="Shape"></path>
                <path d="M12.97,134.08 C56.33,171.52 90.64,236.09 141.96,255.99 C152.24,259.97 163.2,262.17 175.14,262.04 C188.25,260.41 201.37,258.2 214.42,255.4 C227.45,252.62 240.4,249.24 253.2,245.3 C332,226 403,174 443,103 C450,91 464,77 476,83 C485.33,87.33 493.5,93 500.83,99.63 C508.16,106.26 514.65,113.87 520.64,122.07 C555,180 588,242 647,279 C656,285.17 665.64,290 675.63,293.52 C700.62,302.32 727.83,302.9 752.87,295.55 C761.21,293.1 769.32,289.77 777.01,285.57 C798,275 809,254 829,240 C861,218 897,241 928,253 C967,269 1004,247 1028,216 C1050,187 1071,161 1099.46,138.55 C1107.43,132.06 1115.57,125.99 1123.93,120.63 C1140.65,109.91 1158.24,101.97 1177.22,99.37 C1188.61,97.81 1200.5,98.17 1213.01,101.01 C1239,109 1243,138 1257,159 C1296,215 1341,280 1411,282 C1448,283 1479,258 1510.25,240.38" id="Shape"></path>
                <path d="M14.01,139.21 C56.5,174.04 87.89,240.26 137.68,260.2 C147.66,264.19 158.38,266.33 170.15,266.03 C184.13,265.02 197.88,263.16 211.41,260.5 C224.92,257.87 238.21,254.44 251.29,250.35 C319,229 393,195 425.54,127.74 C429.76,119.97 434.13,112.42 439.46,105.6 C444.75,98.81 451,92.75 459,88 C468,83 476.5,84.25 484.12,88.5 C491.74,92.75 498.5,100 504,107 C547,161 575,230 632.82,271.49 C641.25,277.86 650.25,283.75 660,289 C687.5,303.5 718.75,305.5 748.38,297.75 C758.26,295.17 767.95,291.5 777.26,286.85 C803,277 818,253 842,238 C849,234 856,234 864,235 C904,239 940,273 981,257 C1024,239 1043,194 1076,162 C1090,150 1102,137 1116.62,127.12 C1125.65,120.4 1134.69,114.5 1143.7,109.94 C1152.71,105.38 1161.69,102.16 1170.6,100.79 C1179.51,99.42 1188.36,99.91 1197.11,102.78 C1216,108 1229,124 1242,138 C1292,193 1325,269 1402,287 C1444,296 1476,262 1510.78,243.72" id="Shape"></path>
                <path d="M15.09,144.48 C55.01,181.58 87.36,241.93 135.81,262.76 C145.5,266.92 155.84,269.51 167.02,270.01 C179.64,267.76 192.42,265.18 205.23,262.21 C218.04,259.24 230.88,255.86 243.63,252.03 C322,233 396,190 435.98,118.03 C442.5,107.5 453,97 464.25,91.88 C475.5,86.76 487.5,87 497,98 C503.83,106.17 510.03,114.73 515.82,123.52 C550,179 577,243 636.25,277.28 C647.64,284.67 659.83,291 673,296 C699.5,306.5 729.5,308 757.25,300.25 C766.5,297.67 775.5,294.06 784.04,289.41 C803,280 817,265 831,247 C839,237 853,239 865,242 C917,256 980,287 1021,233 C1050,194 1076,158 1114.5,131.21 C1122.07,125.94 1129.81,121.16 1137.81,117.05 C1145.81,112.94 1154.06,109.53 1162.63,106.99 C1172.92,103.94 1183.67,102.17 1195,102 C1250,107 1256,177 1288,213 C1323,253 1367,292 1421,291 C1456,290 1482,264 1511.33,247.09" id="Shape"></path>
                <path d="M16.21,149.86 C54.37,188.31 89.2,250.27 139.68,268.7 C149.78,272.39 160.51,274.33 172.04,274.01 C184.28,271.13 196.73,268.1 209.25,264.81 C221.76,261.52 234.34,257.96 246.85,254.04 C323,235 398,194 433.96,121.06 C437.99,113.51 443.75,106 450.87,100.5 C457.99,95 466.49,91.5 475.99,92 C489.99,93 499.99,102 505.99,113 C541.99,177 578.99,246 642.99,286 C652.82,292.83 663.35,298.17 674.27,302.03 C701.56,311.69 731.28,312.19 758.66,304.01 C767.79,301.29 776.65,297.6 785.08,292.97 C805,283 819,267 834,250 C841,242 852,245 861,246 C911,253 966,289 1010,249 C1046,215 1066,170 1103.66,140.21 C1112.6,132.56 1121.67,125.56 1130.77,119.74 C1148.98,108.1 1167.34,101.18 1185.28,103.58 C1196.04,105.03 1206.67,109.85 1217.35,119.1 C1225,124 1230,132 1237,138 C1289,194 1322,272 1398,296 C1440,309 1478,273 1511.92,250.49" id="Shape"></path>
                <path d="M17.35,155.34 C57.06,189.22 85.2,252.51 131.1,271.51 C140.28,275.31 150.17,277.34 161,277 C174.5,275.12 187.91,272.62 201.17,269.51 C214.43,266.4 227.55,262.67 240.48,258.34 C321,236 392,185 441.98,118.03 C448.5,110 458,103 468,100.25 C478,97.5 488.5,99 497,108 C504,115 510,123 517,132 C553,184 571,242 622.94,277.23 C633.44,284.9 645,291.67 658,297 C689,310 723.75,312.75 756.25,305.12 C767.09,302.59 777.67,298.9 787.79,294.07 C809,283 828,270 844,251 C846,249 850,248 853,249 C907,253 972,302 1016,247 C1047,208 1072,167 1111.07,138.13 C1118.9,132.29 1126.91,126.96 1135.2,122.39 C1143.49,117.82 1152.05,114.02 1160.99,111.23 C1171.72,107.89 1183,106 1195,106 C1214,106 1230,118 1237,134 C1271,202 1314,267 1387,296 C1436,315 1476,279 1512.53,253.91" id="Shape"></path>
                <path d="M18.51,160.9 C60,199 83,261 138,279 C146.5,282 155.06,283.22 163.62,283.02 C176.67,279.89 189.8,276.53 202.93,272.85 C216.05,269.17 229.16,265.17 242.16,260.77 C323,238 398,194 441.97,120.05 C449,109.5 459.75,102.5 470.88,100.75 C482.01,99 493.5,102.5 502,113 C548,171 570,251 637.01,290.32 C645.9,295.74 655.5,300.38 666,304 C695,313.5 727.75,315.25 758.38,308 C768.59,305.59 778.56,302.18 788.09,297.74 C810,289 826,272 844,257 C852,250 862,252 871,255 C923,273 989,296 1029,237 C1054,200 1078,165 1112.84,138.7 C1120.19,132.72 1127.57,127.22 1134.91,122.53 C1142.25,117.84 1149.56,113.97 1156.78,111.23 C1167.61,107.12 1178.25,105.56 1188.52,107.67 C1196,110 1203,112 1209,117 C1274,178 1310,267 1394,303 C1438,322 1479,283 1513.17,257.37" id="Shape"></path>
                <path d="M19.69,166.54 C56.62,205.26 92.63,274.9 144.7,285.47 C155.12,287.58 166.19,287.33 178.07,284.02 C191.31,280.14 204.45,276.03 217.43,271.62 C230.39,267.25 243.2,262.58 255.9,257.63 C335,232 405,182 453.99,114.01 C462,103.5 473.75,101 484.75,104 C495.75,107 506,115.5 510.99,127.01 C539,190 574,255 635.88,289.71 C647.16,296.64 659.16,302.5 672,307 C701,317 733.5,317.75 763.88,309.62 C774.01,306.92 783.9,303.24 793.37,298.66 C815,290 830,271 851,259 C854,257 859,256 863,257 C911,264 965,304 1007,263 C1043,225 1065,178 1106,146.21 C1113.95,139.86 1122.07,134.05 1130.51,129.01 C1138.94,123.98 1147.68,119.73 1156.86,116.52 C1167.87,112.67 1179.51,110.34 1192.01,110.01 C1241.01,113.01 1248.01,171.01 1272.01,207.01 C1309.01,261.01 1362.01,309.01 1427.01,310.01 C1462.01,310.01 1486.01,279.01 1513.84,260.86" id="Shape"></path>
                <path d="M20.88,172.23 C55.98,210.37 89.61,275.76 139.77,288.39 C149.8,290.92 160.5,291.33 172.01,289 C182.76,285.62 193.6,282.23 204.47,278.75 C215.34,275.27 226.23,271.69 237.08,267.94 C316,245 402,209 436.43,128.15 C444.49,115.77 454,106.5 469,108 C479.25,109.25 487.75,113.32 495.11,119.24 C499,123 504,126 507,131 C547,195 581,260 645,298 C654.33,304 664.11,308.61 674.17,311.95 C699.31,320.31 726.18,320.73 752.19,315.12 C760.86,313.25 769.43,310.7 777.81,307.55 C803,297 826,284 848,267 C855,262 863,260 871,262 C915,274 965,305 1005,269 C1045,231 1067,179 1111.5,145.55 C1118.84,139.73 1126.38,134.34 1134.23,129.55 C1142.08,124.77 1150.25,120.6 1158.86,117.24 C1169.19,113.21 1180.17,110.35 1192,109.01 C1203,108.01 1214,113.01 1219,122.01 C1267,204.01 1324,304.01 1422,315.01 C1460,319.01 1486,285.01 1514.52,264.38" id="Shape"></path>
                <path d="M22.07,177.96 C61,215 81,278 136,293 C145.67,295.5 155.08,296.17 164.28,295.38 C175.12,292.08 186.06,288.71 197.03,285.21 C208,281.71 219.01,278.06 229.98,274.23 C324,252 398,199 457,117 C472,95 496,112 507,131 C543,190 566,256 625.9,291.9 C635.53,298.15 645.83,303.67 657,308 C690.5,321.5 728.25,322.5 764,313.62 C775.92,310.68 787.62,306.65 798.92,301.84 C821,292 843,271 861,271 C920,274 996,312 1035,241 C1055,204 1081,170 1115.42,144.36 C1122.5,139.06 1129.77,134.17 1137.31,129.87 C1144.85,125.58 1152.67,121.87 1160.85,118.94 C1170.67,115.42 1181,113 1192,112 C1207,110 1221,121 1226,133 C1261,213 1321,284 1401,317 C1445,336 1483,295 1515.22,267.91" id="Shape"></path>
                <path d="M23.28,183.74 C56,226 86,277 137,296 C153,302.33 168.67,300.89 184.07,295.23 C192.3,291.92 200.48,288.38 208.62,284.72 C216.76,281.06 224.89,277.29 233.01,273.53 C315,243 403,214 445,128 C453,110 481,103 494,122 C543,191 572,270 650,306 C660.5,311.5 671.64,315.58 683.15,318.34 C711.93,325.23 743.06,323.81 772.41,315.46 C782.2,312.7 791.79,309.17 801.09,305.16 C823,297 840,284 860,272 C863,271 866,270 869,271 C919,286 981,318 1020,263 C1052,218 1078,174 1122.26,143.48 C1129.8,138.13 1137.57,133.09 1145.66,128.48 C1153.75,123.86 1162.17,119.67 1171,116 C1179.5,112.5 1188.5,111.5 1196.64,113.26 C1209,115 1217,125 1223,135 C1271,220 1331,325 1439,322 C1471,321 1492,290 1515.93,271.49" id="Shape"></path>
                <path d="M24.49,189.55 C55.75,226.59 84.57,282.77 129.19,298.15 C138.11,301.23 147.67,302.67 158,302 C171.38,297.38 184.89,292.8 198.44,288.12 C211.99,283.44 225.56,278.67 239.07,273.66 C325,249 404,205 453,124 C461,111 480,112 491,123 C517,153 533,187 553,221 C572,253 597,278 626.9,298.22 C637.97,306.21 649.91,312.37 662.43,316.78 C693.7,327.82 728.68,327.75 762.3,319.61 C773.51,316.91 784.57,313.32 795.32,309.07 C821,301 844,278 868,279 C918,281 981,321 1021,266 C1052,224 1074,181 1113.83,149.27 C1121.03,143.55 1128.41,138.38 1136.08,133.98 C1143.75,129.59 1151.71,125.97 1160.06,123.38 C1170.08,120.28 1180.66,118.67 1192,119 C1214,119 1228,137 1235,154 C1268,238 1333,310 1425,328 C1466,336 1489,296 1516.65,275.09" id="Shape"></path>
                <path d="M25.69,195.37 C60.12,229.23 88.08,299.45 136.37,307.45 C146.03,309.05 156.5,308.16 168,303.99 C180.38,298.74 192.83,293.61 205.29,288.49 C217.75,283.37 230.21,278.25 242.62,273.01 C323,246 395,205 449,135 C469,109 499,129 513,153 C547,209 571,273 630.92,304.22 C642.82,311.19 655.35,316.57 668.31,320.33 C700.69,329.75 735.74,329.05 769.25,320.67 C780.43,317.9 791.43,314.29 802.2,310.24 C828,303 850,279 875,283 C925,292 982,324 1019,271 C1051,227 1076,183 1118.16,151.64 C1125.8,145.76 1133.68,140.18 1141.94,135.03 C1150.2,129.89 1158.84,125.16 1168,121 C1178.5,116.5 1189.5,116 1199.03,119.17 C1205,122 1212,125 1215,130 C1264,222 1329,331 1441,332 C1473,332 1493,298 1517.38,278.72" id="Shape"></path>
                <path d="M26.87,201.22 C57.81,238.54 83.8,294.06 131.54,306.9 C141.09,309.47 151.5,310.33 163,309 C182,308 200,300 217,290 C225.5,285.33 234.05,280.95 242.66,276.78 C253,272 262,266 273,264 C352,245 404,199 452,134 C462,119 488,118 498,136 C537,205 571,280 646,313 C657.17,318.5 668.86,322.5 680.88,325.14 C710.93,331.75 743,329.88 773.91,321.77 C784.22,319.09 794.41,315.74 804.45,312.14 C829,307 850,287 875,289 C905,291 934,309 966,306 C1027,299 1044,230 1081,188 C1092,176 1102,165 1113.76,155.29 C1120.98,149.37 1128.39,143.95 1136.12,139.19 C1143.85,134.45 1151.88,130.37 1160.36,127.18 C1170.53,123.36 1181.34,120.83 1193.01,120 C1203,120 1210,126 1214,133 C1264,225 1329,333 1441,337 C1475,338 1494,302 1518.11,282.38" id="Shape"></path>
                <path d="M28.02,207.06 C59.67,242.84 86.48,308.53 134.46,314.96 C144.06,316.25 154.5,315.16 166,311 C178.62,305.62 191.31,300.38 204,295.13 C216.69,289.88 229.37,284.64 242,279.29 C324,253 398,212 454,140 C467,124 495,127 506,146 C543,215 577,292 653.21,323.01 C664,327.13 675.11,329.54 686.44,330.63 C709.11,332.82 732.66,329.74 756.22,324.7 C768,322.18 779.78,319.18 791.47,316.18 C815,310 839,310 861,295 C865,293 870,292 874,293 C919,312 976,327 1011,279 C1052,225 1089,175 1144,139 C1152.5,132.5 1163,125.75 1173.88,122.62 C1184.76,119.49 1196.03,120 1206.22,128.14 C1211,133 1217,137 1219,143 C1263,237 1333,336 1442,341 C1475,343 1494,306 1518.84,286.07" id="Shape"></path>
                <path d="M29.12,212.91 C53.19,254.65 90.53,312.3 139.35,317.63 C149.11,318.7 159.34,317.67 170,314 C182.25,308 194.64,302.27 207.09,296.65 C219.52,291.06 232.01,285.58 244.52,280.12 C326,253 400,213 455,140 C469,122 495,135 505,152 C543,218 575,291 648.28,321.18 C658.11,325.36 668.28,328.42 678.69,330.46 C709.91,336.6 743.24,333.67 775.51,325.36 C786.27,322.62 796.93,319.33 807.5,316.05 C832,309 856,295 880,300 C932,310 988,333 1025,279 C1054,236 1075,195 1111.87,162.42 C1119.23,156.07 1126.8,150.34 1134.7,145.33 C1142.6,140.35 1150.82,136.09 1159.5,132.84 C1169.92,128.94 1181,126.5 1193.03,126.01 C1201,125 1208,130 1212,136 C1260,232 1329,341 1443,346 C1477,348 1495,310 1519.55,289.78" id="Shape"></path>
                <path d="M30.15,218.75 C59,265 97,331 156,320 C167,318.25 177.39,314.75 187.45,310.11 C195.22,306.56 202.61,302.03 210.18,297.76 C217.75,293.5 225.5,289.5 234,287 C328,267 398,206 464,136 C474,126 491,141 499,153 C543,222 577,298 655.77,324.98 C665.97,328.65 676.42,331.08 687.03,332.48 C708.25,335.28 730.12,333.93 752,330.12 C762.94,328.21 773.88,325.69 784.74,322.78 C843,300 903,310 963,318 C984,320 1003,309 1017,292 C1052,249 1073,199 1115.06,164.91 C1122.4,158.66 1129.98,152.8 1137.92,147.3 C1145.86,141.81 1154.17,136.68 1163,132.01 C1174,126.01 1185.75,125.26 1195.96,129 C1203,131 1209,135 1212,140 C1257,234 1321,325 1427,352 C1470,363 1492,317 1520.26,293.52" id="Shape"></path>
                <path d="M31.12,224.58 C60.19,257.43 84.48,321.93 128.81,327.47 C137.68,328.58 147.34,327.33 158.01,323 C170.51,316.88 183.12,310.98 195.77,305.2 C208.42,299.42 221.12,293.74 233.79,288.05 C319,259 393,214 460,150 C480,131 507,161 518,182 C545,241 580,300 643.04,323.65 C653.79,327.89 664.8,330.74 676.04,332.42 C698.52,335.78 721.93,334.44 745.62,330.62 C757.46,328.71 769.38,326.19 781.29,323.35 C827,309 875,311 922,324 C955,334 987,322 1008,294 C1045,248 1073,199 1120.15,164.06 C1130.53,155.89 1141.12,147.88 1152,140 C1162.5,132.5 1175.25,128.25 1186.79,129.03 C1198,129 1208,135 1213,145 C1258,243 1332,347 1444,356 C1478,358 1498,320 1520.95,297.27" id="Shape"></path>
                <path d="M32,230.4 C52.83,271.74 87.55,320.99 135.58,328.15 C145.19,329.58 155.33,329.33 165.99,327 C169.99,326 173.99,326 177.99,324 C186.99,319.17 195.93,314.42 204.85,309.74 C213.76,305.06 222.64,300.45 231.51,295.89 C268,275 308,266 346,249 C390,229 411,185 447,154 C471,134 498,153 512,176 C545,229 564,294 625.88,319.36 C637.3,325.72 648.88,330.37 660.62,333.48 C689.95,341.29 720.38,339.3 751.18,333.78 C761.45,331.94 771.76,329.71 782.08,327.33 C807,321 832,319 858,318 C865,318 873,314 880,315 C918,317 958,347 993,320 C1040,285 1058,233 1094,188 C1108,171 1122,156 1142.19,145.52 C1149.76,141.26 1157.63,138.05 1165.9,136.32 C1183,133 1206,133 1213,150 C1259,248 1329,343 1441,361 C1477,366 1497,324 1521.62,301.05" id="Shape"></path>
                <path d="M32.83,236.18 C58,267 72,310 109,326 C119.67,330.5 130.08,332.64 140.24,332.88 C150.4,333.12 160.28,331.48 169.89,328.4 C181.65,321.6 193.51,315.02 205.42,308.58 C217.32,302.16 229.27,295.87 241.29,289.67 C317,256 394,224 455,162 C480,136 509,166 520,190 C545,245 574,304 633.96,326.08 C644.83,331.17 655.72,334.75 666.66,337.07 C694.01,342.88 721.68,340.82 749.59,335.95 C758.89,334.33 768.23,332.39 777.58,330.34 C839,314 900,325 962,336 C987,340 1005,323 1018,304 C1059,248 1088,189 1143,151 C1153.5,143 1167.25,136 1180.03,134.65 C1190,132 1201,136 1205,144 C1257,244 1332,358 1449,364 C1481,366 1499,327 1522.27,304.84" id="Shape"></path>
                <path d="M33.59,241.93 C55,285 90,332 139,336 C149,336.67 158.5,335.53 167.59,333 C176.69,330.47 185.39,326.56 193.82,321.71 C202.35,315.59 211.1,309.85 220.02,304.42 C228.93,299 238.01,293.89 247.27,289.04 C256,284 265,279 275,277 C342,260 397,233 434,173 C444,157 463,143 482,156 C529,189 539,244 574,286 C589,303 605,321 626.89,327.33 C637.59,330.67 648.35,333.32 659.18,335.2 C697.04,341.81 735.94,338.64 774.77,331.62 C787.72,329.32 800.7,326.71 813.9,324.8 C851,318 888,327 924,339 C956,350 989,340 1009,313 C1053,255 1086,194 1144,153 C1154,145 1167.5,138.5 1180.02,137.41 C1190,136 1202,139 1206,148 C1255,250 1334,359 1449,369 C1481,372 1499,331 1522.89,308.65" id="Shape"></path>
                <path d="M34.31,247.63 C54.05,298.78 106.65,349.66 161.83,338.58 C172.87,336.36 184.01,331.67 195.02,324.01 C203.85,317.84 212.88,312.23 222.05,306.99 C231.21,301.78 240.52,296.95 249.99,292.49 C330,272 396,232 448,163 C459,149 483,150 494,165 C539,232 565,314 647.63,337.69 C660.22,341.96 673.1,344.2 686.19,344.96 C712.38,346.48 739.41,342.07 766.49,336.37 C775.52,334.48 784.55,332.44 793.57,330.51 C848,319 902,341 955,345 C1033,352 1047,248 1094,200 C1100,194 1106,187 1111.6,180.96 C1123.96,169.42 1136.98,159.5 1151.38,151.67 C1160.02,146.97 1169.16,143 1179.02,140.01 C1187,137 1197,140 1201,147 C1254,247 1327,358 1445,374 C1479,379 1500,337 1523.48,312.47" id="Shape"></path>
                <path d="M34.98,253.27 C55,297.21 100,351.76 149.75,344.41 C159.69,342.94 169.83,339 180,332 C187,326.5 194.25,321.25 201.75,316.38 C209.25,311.51 217,307 225,303 C236,297 247,291 258,288 C332,265 397,233 446,170 C461,152 489,160 502,179 C539,237 561,305 625.2,333.68 C639.75,340.26 655.5,344.5 672,344 C697,343 722,341.22 746.96,338.52 C759.44,337.17 771.91,335.59 784.38,333.78 C839,320 891,339 946,350 C974,356 997,341 1013,319 C1053,265 1082,210 1132.25,167.3 C1140.16,160.57 1148.69,154 1157.13,149.25 C1171,141 1190,138 1200,153 C1259,251 1325,357 1442,379 C1479,386 1500,342 1524.04,316.31" id="Shape"></path>
                <path d="M35.62,258.84 C60,308 113,372 171,341 C179.75,336.5 188.2,331.5 196.49,326.15 C207,320 217,311 229,306 C316,275 388,225 465,168 C476,159 492,167 498,178 C537,244 566,321 645.09,340.59 C655.8,343.68 667.38,345.25 680,345 C712.5,344 745,342 777.5,338 C788.34,336.69 799.2,335.23 810.24,334.13 C841,330 873,332 900,345 C955,371 1010,354 1036,299 C1061,247 1096,200 1141,164 C1150.5,156.5 1163.75,149 1176.03,146.93 C1187,144 1200,149 1204,159 C1231,218 1267,271 1319,312 C1359,343 1396,390 1448,385 C1483,381 1501,344 1524.56,320.16" id="Shape"></path>
                <path d="M36.22,264.34 C60,308 104,368 158,347 C168.25,343 178,338.06 187.42,332.47 C200,325 211,316 224,310 C255,294 288,282 321,270 C375,251 414,212 454,172 C465,162 483,163 491,176 C534,245 563,332 652.97,345.45 C663.86,347.81 675.5,348.75 688,348 C710.5,347 732.75,344 755,340.75 C766.12,339.13 777.25,337.44 788.41,335.93 C839,327 887,347 936,361 C976,373 1008,345 1027,312 C1055,265 1084,221 1123.87,185.1 C1133.82,176.4 1143.9,168.2 1154,160 C1166,150 1189,141 1196,155 C1244,248 1312,318 1400,379 C1456,417 1496,362 1525.05,324.01" id="Shape"></path>
                <path d="M36.79,269.77 C60,298 73,340 111,350 C131.67,355.33 151.11,353.44 169.39,346.99 C178.53,343.76 187.38,339.4 195.97,334.22 C204.81,327.85 213.81,321.96 222.95,316.4 C232.07,310.87 241.34,305.69 250.76,300.95 C324,276 392,248 444,183 C457,167 489,169 499,188 C532,250 558,325 632.51,342.36 C642.5,346.15 653.05,348.84 664.26,350.06 C675.47,351.28 687.38,351 700,349 C726,345 751.5,342.25 777,339.5 C785.5,338.6 794.01,337.7 802.6,337.02 C831,334 859,338 885,349 C931,370 992,385 1022,329 C1056,267 1093,206 1151,165 C1162,155 1184,145 1191,157 C1254,259 1325,364 1442,393 C1480,402 1501,354 1525.51,327.87" id="Shape"></path>
                <path d="M37.31,275.11 C59,304 73,345 111,353 C133.67,358.33 154.67,355.56 174.15,347.74 C183.89,343.83 193.27,338.67 202.37,332.67 C244,300 293,279 345,263 C390,249 413,204 450,184 C510,153 526,254 556,297 C574,324 602,334 629.64,343.89 C641.12,347.7 653.06,350.47 665.35,351.61 C677.64,352.75 690.26,352.25 703.01,350 C721.68,347 739.9,345 758.01,343.26 C767.07,342.39 776.09,341.58 785.14,340.76 C810,337 834,338 859,343 C908,352 964,402 1005,356 C1059,296 1082,216 1147.25,167 C1156.13,160.5 1168.81,156 1180.41,156.25 C1192.01,156.5 1202.5,161.5 1207,174 C1245,280 1338,362 1439,397 C1478,410 1500,358 1525.92,331.74" id="Shape"></path>
                <path d="M37.79,280.37 C53,314 76,347 115,355 C127.33,357.67 138.92,358.06 149.87,356.64 C160.82,355.22 171.15,352.02 180.98,347.49 C234,311 291,285 353,265 C392,252 412,214 444,188 C459,177 483,174 492,189 C529,252 551,330 629.49,347.25 C639.51,350.66 650.05,353.27 661.27,354.39 C672.49,355.51 684.38,355.13 697,353.01 C717,349.68 736.44,347.45 755.7,345.57 C765.33,344.63 774.91,343.76 784.5,342.9 C840,332 892,357 942,377 C967,386 994,380 1010,358 C1057,290 1085,216 1152,169 C1158.5,164 1168,160 1176.75,159.12 C1185.5,158.24 1193.5,160.5 1197,168 C1243,273 1327,344 1425,400 C1471,426 1499,365 1526.3,335.61" id="Shape"></path>
                <path d="M38.23,285.53 C57.21,327.59 100.65,371.4 147.01,364.59 C156.28,363.23 165.67,359.84 175,354.01 C224,311.01 284,291.01 344,266.01 C390,247.01 422,210.01 465,182.01 C472,178.01 482,181.01 485,187.01 C525,259.01 561,346.01 654.15,354.01 C665.63,355.66 677.88,355.76 691,354.01 C721.5,350.51 751,348.01 780.5,345.13 C790.34,344.19 800.19,343.28 810.25,342.82 C832,342 853,344 874,352 C919,370 980,415 1016,358 C1057,294 1083,226 1142,180.01 C1150,173.5 1161.01,166.51 1171.63,163.96 C1181,161 1192,163 1196,171 C1247,280 1333,369 1444,406 C1480,418 1502,365 1526.64,339.49" id="Shape"></path>
                <path d="M38.62,290.6 C54,322 77,350 110,361 C121.5,365 132.39,366.36 142.76,365.67 C153.13,364.98 163,362.24 172.44,358.04 C182,354 191,349 200,341 C220,323 241,307 267,299 C340,278 394,227 459,197 C511,173 522,260 547,301 C570,339 616,346 655.19,354.89 C669.5,356.94 684.25,357 699,355 C718,352.33 736.67,350.33 755.22,348.59 C764.5,347.72 773.75,346.91 783,346.13 C840,336 892,364 943,386 C963,394 987,393 1001,376 C1048,324 1070,260 1115,205 C1121,199 1126,193 1132.34,186.98 C1139.5,180.69 1146.72,175.67 1153.83,172.46 C1181,159 1201,185 1215,206 C1245,251 1265,295 1310,325 C1358,358 1396,413 1452,412 C1486,410 1504,368 1526.95,343.38" id="Shape"></path>
                <path d="M38.97,295.58 C54.96,339.62 96.5,368.03 139.48,366.88 C148.08,366.65 156.73,365.24 165.24,362.54 C173,360 181,357 188,351 C236,309 294,291 351,264 C389,245 420,217 458,200 C508,178 512,263 537,294 C567,330 609,350 653.21,357.68 C665.42,359.36 678.63,359.25 693,357 C713.67,354 733.89,351.89 753.96,350.07 C764,349.16 774,348.33 784,347.51 C810,344 837,345 863,353 C913,368 974,433 1016,370 C1057,308 1079,242 1132.08,193.33 C1141.01,186.04 1153.5,176.75 1165.49,172.57 C1173,170 1184,168 1189,175 C1223,221 1241,272 1286,309 C1335,350 1382,389 1438,418 C1446,422 1454,421 1462,417 C1491,400 1507,372 1527.22,347.26" id="Shape"></path>
                <path d="M39.29,300.46 C55,334 84,368 125,370 C136.67,370.33 147.61,368.86 157.96,365.97 C163,365 167,364 171,362 C207,344 235,313 274,301 C341,281 401,255 448,199 C455,189 472,186 479,196 C523,266 556,352 648.44,358.59 C660.03,360.39 672.5,360.63 686,359 C707.67,356.33 729.11,354.33 750.48,352.52 C761.17,351.61 771.83,350.75 782.5,349.89 C847,336 901,375 957,400 C979,409 1002,398 1015,379 C1061,309 1084,228 1154.02,183.01 C1167,172 1188,170 1197,187 C1228,244 1258,299 1315,337 C1356,364 1387,397 1430,418 C1475,441 1501,380 1527.45,351.15" id="Shape"></path>
                <path d="M39.56,305.24 C56,342 91,376 134,373 C144.83,372.33 154.94,370.17 164.46,366.85 C172,364 181,361 187,355 C238,310 299,295 359,271 C399,254 422,212 463,202 C505,192 508,259 526,291 C552,334 599,350 644.29,359.72 C654.61,361.5 665.5,362 677,361 C712,358 746.25,355.5 780.5,352.5 C791.92,351.53 803.38,350.61 815.12,350.49 C870,348 912,386 961,406 C985,415 1007,399 1020,379 C1062,310 1085,231 1153.02,186.01 C1165,178 1184,172 1192,186 C1224,238 1249,290 1299,327 C1344,361 1382,396 1430,422 C1475,446 1501,383 1527.65,355.04" id="Shape"></path>
                <path d="M39.8,309.92 C54,339 76,368 110,374 C126.75,376.75 142.31,375.56 156.85,371.58 C189,362 213,340 240,320 C249,314 258,309 268,307 C341,288 396,245 458,208 C494,186 506,269 532,302 C562,338 605,355 649.4,362.45 C661.31,364.05 674.12,364 688,362 C710,359 731.78,356.89 753.48,355.11 C764.33,354.22 775.17,353.42 786,352.64 C819,348 852,354 882,368 C923,389 981,446 1018,388 C1063,318 1083,236 1153.03,190.02 C1165,181 1184,178 1191,190 C1223,237 1242,285 1286,320 C1333,358 1376,390 1426,424 C1473,456 1501,388 1527.82,358.93" id="Shape"></path>
                <path d="M40.01,314.5 C55,344.12 80.69,370.65 112.42,378.27 C123,380.81 134.25,381.25 146,379 C187,373 211,337 246,316 C254,311 263,308 271,306 C341,287 401,257 456,210 C463,204 476,204 481,212 C515,273 538,353 620.42,359.34 C630.91,362.06 641.91,364.46 653.61,365.51 C665.31,366.56 677.75,366.13 691,364.01 C713,360.34 734.56,358.01 755.93,356.23 C766.62,355.34 777.25,354.59 787.88,353.9 C852,343 904,385 958,413 C984,426 1009,409 1022,386 C1062,315 1088,233 1160.1,191.07 C1168,186 1180,182 1186,190 C1222,239 1243,291 1291,328 C1336,363 1377,392 1422,426 C1470,464 1501,394 1527.95,362.82" id="Shape"></path>
                <path d="M40.19,318.99 C59,345 79,380 113,383 C124.17,383.67 134.86,382.69 145.12,380.4 C158,377 172,374 182,365 C235,323 290,298 355,281 C391,272 412,240 444,220 C456,212 471,211 483,220 C516,246 514,288 534,322 C551,350 583,353 610.79,358.66 C626.16,361.89 642.19,364.78 658.38,365.89 C674.57,367 691,366 707,363 C726.67,359.67 746,357.67 765.19,356.26 C774.78,355.56 784.34,355 793.88,354.52 C860,346 910,396 966,420 C999,434 1020,401 1034,376 C1070,310 1094,224 1167,191.75 C1177.5,189.5 1187.5,191.5 1193,202 C1229,275 1283,332 1353,376 C1382,394 1402,421 1432,436 C1477,457 1502,395 1528.06,366.71" id="Shape"></path>
                <path d="M40.34,323.37 C62,354 92,387 133,381 C142.83,379.67 152.25,377.31 161.26,374.15 C193,364 215,340 244,323 C276,306 310,300 343,288 C390,272 422,235 467,216 C478,211 491,224 493,236 C507,304 551,360 620.92,362.98 C631.16,365.34 641.78,367.45 652.92,368.36 C664.06,369.27 675.75,368.88 688,367 C711.33,363.33 734.22,361.11 756.96,359.44 C768.33,358.61 779.66,357.91 791,357.27 C856,349 905,399 962,420 C1038,448 1048,330 1084,279 C1105,250 1123,223 1150.05,203.11 C1162,195 1182,190 1190,204 C1229,273 1275,333 1345,373 C1376,390 1396,418 1426,437 C1475,466 1502,401 1528.14,370.6" id="Shape"></path>
                <path d="M40.47,327.66 C55,354 76,379 107,384 C115.88,385.38 124.44,385.69 132.71,385.09 C140.98,384.49 148.95,383 156.61,380.79 C173,377 186,369 200,359 C221,343 239,328 262,317 C331,284 400,259 469,225 C478,220 486,232 491,240 C515,278 515,332 558,351 C587,363 619,365 649.62,368.11 C664.69,369.44 680,369 695,367 C717,364 738.67,362.11 760.22,360.67 C771,359.95 781.75,359.34 792.5,358.77 C857,350 905,400 960,424 C1035,456 1048,341 1082,291 C1106,256 1124,215 1164.12,200.88 C1174.74,198.5 1185,200.5 1191,211 C1230,277 1274,335 1342,373 C1377,393 1399,430 1437,444 C1481,462 1504,402 1528.19,374.49" id="Shape"></path>
                <path d="M40.58,331.85 C54,358 75,382 105,387 C114.5,388.5 123.67,388.86 132.53,388.24 C146,388 159,385 170,379 C229,346 277,304 348,292 C359,290 368,284 378,278 C411,258 455,199 487,241 C512,274 507,322 545,348 C570,364 598,361 625.47,366.08 C637.48,367.87 649.66,369.18 662,369.62 C699,371 737.5,364.5 774,359 C784.5,357.5 794.88,356.89 805.29,357.03 C861,360 905,394 952,426 C985,450 1017,427 1033,396 C1068,328 1091,245 1162.03,206.48 C1174.75,202.25 1187,204 1195,220 C1230,291 1284,341 1351,383 C1380,400 1397,425 1425,444 C1474,476 1504,409 1528.23,378.38" id="Shape"></path>
                <path d="M40.67,335.95 C53.33,361.97 76.92,381.24 103.46,389.37 C112.31,392.08 121.48,393.55 130.69,393.63 C143,394 155,392 166,387 C206,367 229,325 273,312 C338,294 397,277 451,233 C464,222 487,230 492,248 C503,287 507,337 550,351 C581,362 612,367 643.98,371.65 C652.35,372.86 660.97,373.45 669.81,373.36 C678.65,373.27 687.72,372.5 697,371 C718.33,367.33 739.22,365 759.93,363.37 C770.28,362.56 780.59,361.92 790.88,361.39 C859,352 907,401 962,435 C992,455 1019,429 1032,404 C1067,338 1089,264 1149.13,216.35 C1158,210.03 1172,203 1180,213 C1233,278 1275,344 1351,386 C1380,402 1398,430 1427,448 C1476,480 1504,413 1528.24,382.27" id="Shape"></path>
                <path d="M40.75,339.96 C52.37,362.48 72.44,379.49 95.47,388.12 C106.99,392.44 119.24,394.66 131.56,394.42 C149,395 165,389 180,380 C216,357 241,324 281,311 C342,290 399,272 456,236 C474,225 488,246 495,262 C507,290 505,325 528,345 C560,373 607,364 647.3,372.33 C655.9,373.17 664.58,373.46 673.23,373.23 C681.88,373 690.5,372.25 699,371 C719.67,368 740.11,366 760.44,364.56 C770.61,363.84 780.75,363.25 790.87,362.77 C858,354 907,403 961,439 C996,462 1025,428 1039,398 C1070,333 1094,263 1152.16,218.3 C1166,209 1184,214 1192,227 C1219,271 1242,311 1285,341 C1332,375 1375,402 1414,443 C1462,492 1504,424 1528.24,386.17" id="Shape"></path>
                <path d="M40.82,343.88 C57.46,370.97 86.37,393.5 117.92,396.32 C128.44,397.26 139.24,396.02 149.95,392.09 C165,387 179,381 191,371 C273,303 366,273 466,250 C506,240 497,306 516,336 C544,378 598,367 640.05,373.49 C649.29,374.47 658.7,374.92 668.2,374.94 C696.7,375.02 726.07,371.31 754.27,367.17 C763.67,365.79 772.94,364.36 782,363 C846,352 898,395 946,433 C976,456 1012,451 1030,417 C1057,367 1072,315 1109,270 C1125,250 1144,215 1172,221 C1179.75,228.25 1187.17,235.7 1194.38,243.28 C1244.83,296.31 1284.75,355.38 1353,393 C1379,407 1397,431 1420,451 C1469,493 1504,424 1528.22,390.06" id="Shape"></path>
                <path d="M40.87,347.7 C55.97,373.42 81.12,392.23 109.63,397.92 C119.13,399.82 129.01,400.25 138.99,399.03 C185,395 212,355 249,329 C289,302 334,303 377,288 C406,278 429,258 456,243 C471,235 482,250 488,262 C503,292 495,332 523,354 C551,376 590,368 624.23,373.26 C632.57,374.3 640.89,375.33 649.26,375.92 C666,377.11 683,376.33 700,374 C720.33,371.33 740.44,369.33 760.44,367.85 C770.44,367.11 780.41,366.5 790.37,366.01 C864,356 911,419 971,451 C998,466 1020,442 1032,420 C1066,356 1090,290 1140,236 C1149,226 1163,220 1175.13,227.33 C1185.5,232.75 1195,243 1202,252 C1227,286 1246,318 1280,343 C1330,380 1376,411 1420,453 C1466,498 1504,429 1528.18,393.95" id="Shape"></path>
                <path d="M40.91,351.44 C53.46,374.22 74.73,390.36 98.74,397.68 C106.74,400.12 115.05,401.58 123.44,401.98 C149,404 174,395 194,378 C224,352 251,326 289,314 C351,294 408,270 471,251 C482,247 489,263 493,274 C502,300 497,333 517,353 C546,381 591,368 628.43,374.77 C637.14,375.99 645.92,376.87 654.72,377.31 C672.31,378.19 690,377.25 707,375 C725.67,372.33 744.22,370.33 762.74,368.85 C772,368.11 781.25,367.5 790.5,367.01 C866,357 913,422 974,454 C1000,468 1021,446 1033,425 C1071,357 1091,278 1155.3,230.48 C1169,221 1186,231 1193,243 C1219,284 1241,322 1282,348 C1335,381 1377,417 1423,458 C1469,501 1504,431 1528.12,397.84" id="Shape"></path>
                <path d="M40.94,355.1 C49.47,369.05 60.98,380.77 74.49,389.14 C88,397.51 103.5,402.5 120,403 C172,406 208,367 247,337 C288,306 337,306 383,290 C408,281 430,266 454,254 C465,249 476,256 482,265 C503,300 494,355 537,369 C573,381 614,377 653,379.38 C669.06,379.76 685.25,378.5 701,376 C724,372.33 746.67,370.78 769.19,370.04 C780.45,369.67 791.67,369.51 802.94,369.59 C831,369 857,379 882,392 C923,413 951,470 996,458 C1062,439 1062,350 1102,294 C1115,275 1127,258 1144,243 C1153,236 1168,225 1178,237 C1186.67,247.83 1195.22,258.42 1203.8,268.72 C1246.69,320.25 1290.17,364.83 1351,399 C1379,414 1397,441 1421,462 C1469,504 1504,436 1528.04,401.74" id="Shape"></path>
                <path d="M40.97,358.68 C57.5,384.42 84.69,401.54 114.55,405.12 C124.5,406.31 134.74,406.03 144.89,404.2 C161,401 177,398 188,386 C242,327 310,314 384,295 C409,288 427,270 449,253 C458,247 471,252 476,262 C492,297 488,341 522,365 C560,391 607,374 649.64,380.16 C664.94,380.63 680.25,379.75 695,378 C719.33,375 743.33,373.67 767.22,372.89 C779.16,372.5 791.08,372.26 803.06,372.22 C865,371 912,414 958,453 C978,471 1008,476 1025,450 C1060,398 1073,343 1109,292 C1125,268 1149,226 1181,242 C1189.25,251 1196.69,260.5 1203.88,270.12 C1225.44,299 1244.75,329 1277,350 C1329,385 1375,416 1417,462 C1463,511 1504,443 1527.95,405.63" id="Shape"></path>
                <path d="M40.99,362.19 C56.5,388.1 81.5,403.3 108.75,407.65 C117.83,409.1 127.17,409.35 136.41,408.5 C180,405 207,372 240,345 C258,331 278,322 300,319 C358,311 407,291 457,257 C461,254 467,257 470,262 C493,299 486,358 531,373 C563,384 599,374 634.13,377.92 C644.88,378.78 655.72,379.03 666.63,378.88 C699.35,378.41 732.7,374.22 765.05,373.41 C775.83,373.14 786.51,373.25 797.01,374 C868.01,374 917.01,425 976.01,458 C1004.01,474 1027.01,447 1040.01,425 C1062.01,385 1077.01,347 1102.01,309 C1120.01,282 1141.01,233 1178.01,246 C1186.18,255.66 1194.18,265.25 1202.16,274.67 C1242.06,321.81 1281.5,365 1339,395 C1374,413 1395,447 1427,472 C1475,510 1504,440 1527.84,409.52" id="Shape"></path>
                <path d="M41,365.62 C56.75,386.9 79.25,402.91 104.7,408.32 C113.18,410.12 122,410.75 130.99,410.02 C183,411 212,365 253,338 C292,313 335,318 376,305 C403,296 423,280 446,263 C454,258 465,259 469,267 C489,303 482,357 524,375 C558,390 596,375 633.42,381.86 C641.87,382.73 650.36,383.23 658.85,383.41 C675.82,383.75 692.76,382.75 709.01,381 C722.01,380 734.76,377.75 747.51,375.75 C760.26,373.75 773,372 786,372 C860,364 909,423 964,465 C1005,497 1035,445 1051,413 C1073,368 1091,324 1123,284 C1135,269 1148,243 1170.04,248.14 C1177.67,253.69 1184.59,259.86 1191.02,266.37 C1223.17,298.94 1243.17,339.5 1284.01,362 C1331.01,388 1370.01,418 1406.01,458 C1422.01,474 1443.01,495 1467.01,484 C1496.01,470 1509.01,438 1527.73,413.42" id="Shape"></path>
                <path d="M41.02,368.98 C54.01,388.49 73,401.49 94.13,407.62 C104.69,410.68 115.78,412.03 126.9,411.66 C153,410 177,402 198,386 C229,361 252,330 292,322 C351,309 405,299 457,270 C464,266 470,273 474,278 C489,304 481,335 496,360 C523,406 584,375 627.67,383.68 C636.12,384.33 644.56,384.9 653,385.07 C669.88,385.43 686.75,384.24 703,381.99 C724.33,378.99 745.44,377.43 766.48,376.58 C777,376.15 787.5,375.9 798,375.75 C866,372 915,423 962,466 C991,493 1025,473 1041,442 C1074,378 1093,307 1150,258 C1158,252 1170,248 1178.01,256.03 C1186.75,264.26 1194.5,273.32 1201.89,282.64 C1224.06,310.62 1243,341 1276,359 C1332,390 1376,429 1422,474 C1467,521 1505,452 1527.58,417.32" id="Shape"></path>
                <path d="M41.04,372.28 C52.02,388.14 67.26,400.57 84.76,407.91 C93.51,411.58 102.82,413.98 112.44,414.89 C167,420 207,380 250,348 C314,301 395,286 468,290 C494,291 477,344 496,368 C528,409 586,376 630.11,385.85 C638.94,386.49 647.78,386.91 656.62,386.94 C674.31,387 692,385.5 709,383 C729.33,380.33 749.44,378.89 769.48,378.07 C779.5,377.66 789.5,377.41 799.5,377.26 C830,376 858,387 885,403 C928,427 955,493 1008,479 C1031,473 1040,448 1051,428 C1074,383 1088,336 1121,296 C1134,278 1154,246 1179.01,261.04 C1186.75,269.51 1193.88,278.44 1200.84,287.43 C1221.75,314.38 1241.25,341.76 1272,359.01 C1332,392.01 1377,436.01 1428,482.01 C1472,521.01 1505,453.01 1527.43,421.23" id="Shape"></path>
                <path d="M41.05,375.52 C56.87,394.58 74.35,405.93 92.55,411.29 C101.65,413.97 110.94,415.15 120.29,415.05 C147,416 171,406 194,392 C225,373 245,344 279,333 C340,313 400,304 459,280 C465,277 472,288 475,296 C484,327 476,371 510,384 C551,400 598,382 641.92,387.33 C658.44,388.13 675,387.5 691,386 C714,383.67 736.89,382 759.74,380.81 C771.17,380.22 782.58,379.75 794,379.38 C863,373 911,426 958,470 C969,480 983,492 997,487 C1055,468 1061,394 1093,345 C1111,317 1126,290 1151,267 C1160,260 1173,262 1181.02,270.05 C1188.67,278.66 1196.34,287.19 1204.08,295.54 C1242.81,337.28 1283.5,374.5 1336,402 C1367,418 1387,447 1411,472 C1426,487 1447,506 1469,494 C1496,479 1510,450 1527.28,425.12" id="Shape"></path>
                <path d="M41.07,378.69 C57.1,397.3 74.6,408.29 92.74,413.39 C101.81,415.94 111.04,417.01 120.32,416.82 C174,417 212,379 254,348 C269,337 283,331 300,328 C357,316 408,304 460,283 C461,283 464,285 465,286 C472,341 491,414 565,390 C589,382 617,385 642.91,388.5 C654.94,389.56 667,390 679,390 C708.25,389.25 736.94,380.62 765.91,378.89 C775.57,378.31 785.25,378.5 795,380 C870,383 918,438 979,479 C1001,494 1022,479 1035,460 C1081,393 1094,309 1165,270 C1180,262 1189,289 1202.02,299.58 C1210.21,308.32 1218.59,316.65 1227.18,324.63 C1261.56,356.56 1299.33,383 1342,409 C1371,426 1390,452 1413,477 C1429,494 1456,512 1478,493 C1498,474 1512,451 1527.11,429.01" id="Shape"></path>
                <path d="M41.09,381.81 C57.11,399.14 74.44,409.22 92.35,413.7 C101.3,415.94 110.4,416.79 119.55,416.45 C166,415 204,387 239,358 C248,351 258,345 269,341 C320,326 375,331 420,294 C433,283 461,278 467,297 C479,331 466,391 516,392 C558,394 600,384 641.98,390.9 C650.54,391.63 659.12,391.98 667.65,391.99 C676.18,392 684.65,391.66 693,391 C720,389 746,383 773,380 C781.5,379.17 789.94,378.92 798.36,379.04 C874,380 918,447 978,489 C997,502 1018,492 1030,475 C1078,408 1088,325 1159,276 C1168,271 1180,271 1185.01,281.04 C1191.83,291 1198.97,300.25 1206.4,308.87 C1243.56,352 1288,379.5 1338,407 C1385,433 1407,507 1464,501 C1496,497 1508,458 1526.93,432.9" id="Shape"></path>
                <path d="M41.11,384.87 C57.54,403.44 75.55,414.15 94.21,418.79 C103.54,421.11 113.04,421.92 122.56,421.5 C148,420 171,413 193,399 C227,377 249,344 289,336 C343,325 392,321 440,292 C452,285 462,300 465,311 C475,344 467,395 512,396 C553,398 592,386 632.64,389.43 C644.1,390.13 655.59,390.25 667.12,390 C701.71,389.25 736.66,385.12 770.95,384.8 C782.38,384.69 793.74,385 804.99,386 C876.99,389 920.99,456 982.99,478 C1055.99,504 1067.99,381 1110.99,332 C1126.99,313 1140.99,291 1163.99,281 C1175.99,277 1187.99,283 1193.99,294 C1199.16,303.17 1204.93,311.5 1211.22,319.16 C1242.66,357.45 1286.82,378.84 1330.99,403 C1336.99,407 1341.99,412 1347.99,416 C1388.99,445 1409.99,506 1459.99,505 C1492.99,504 1506.99,462 1526.74,436.78" id="Shape"></path>
                <path d="M41.14,387.88 C55.9,404.78 72.37,415.04 89.62,420.05 C98.25,422.56 107.08,423.76 115.99,423.83 C155,424 192,408 220,380 C239,363 258,346 282,340 C338,326 393,331 444,296 C449,293 456,295 458,299 C470,334 456,394 506,396 C550,398 595,388 638.87,394.06 C647.97,394.91 657.16,395.32 666.37,395.3 C675.58,395.28 684.81,394.84 694,394 C724.75,391 754.94,384.06 785.83,382.47 C796.13,381.94 806.51,382.03 817.13,383.45 C879,395 921,444 963,489 C998,525 1032,486 1050,455 C1085,395 1102,308 1168,286 C1177,283 1188,301 1198.98,309.77 C1207.66,317.78 1216.37,325.56 1225.18,333.11 C1260.44,363.33 1297.33,390 1340,414 C1386,439 1408,512 1463,508 C1494,505 1507,465 1526.56,440.66" id="Shape"></path>
                <path d="M41.16,390.83 C56.54,406.91 73.32,416.55 90.72,421.15 C99.42,423.45 108.27,424.48 117.18,424.42 C172,427 211,388 254,357 C266,348 279,342 294,340 C341,332 384,324 429,310 C440,306 453,310 458,322 C469,352 472,400 511,403 C547,405 581,395 617.09,395.27 C628.34,395.41 639.62,396 651.01,396.19 C696.56,396.91 744.17,390 785,385 C795.5,383.75 805.88,383.64 816.37,384.86 C881,396 923,451 971,494 C992,514 1021,506 1036,482 C1079,418 1093,345 1151,294 C1174,275 1191,304 1203.74,319.69 C1210.9,327.35 1218.3,334.48 1225.93,341.19 C1256.44,368 1290.67,388 1328,408 C1367,428 1391,465 1422,497 C1466,543 1505,481 1526.36,444.53" id="Shape"></path>
                <path d="M41.2,393.74 C58.03,410.46 76.05,420.1 94.5,424.22 C103.72,426.28 113.06,426.96 122.36,426.56 C146,426 168,419 189,407 C225,386 247,349 290,341 C343,331 394,331 443,308 C451,304 457,313 458,320 C465,359 459,417 518,406 C556,398 592,393 629.75,395.58 C641.74,396.48 653.78,396.78 665.88,396.62 C702.16,396.15 738.93,391.53 775.09,388.83 C787.14,387.93 799.13,387.24 811.03,387.07 C887,392 922,466 983,507 C1001,519 1020,506 1032,490 C1082,425 1095,335 1165,295 C1171,291 1184,305 1192.67,311.97 C1201.06,319.6 1208.87,327.81 1216.75,335.88 C1232.5,352 1248.5,367.5 1270,377 C1335,405 1378,456 1429,504 C1471,545 1506,481 1526.15,448.4" id="Shape"></path>
                <path d="M41.23,396.6 C57.64,412.52 75.32,421.82 93.48,425.93 C102.56,427.98 111.77,428.74 120.95,428.47 C173,430 212,392 252,361 C286,334 329,338 370,333 C389,330 407,323 426,319 C435,318 446,319 449,327 C464,360 466,416 512,412 C555,408 597,397 639.88,398.72 C649.13,398.83 658.35,398.59 667.41,398.1 C676.47,397.61 685.38,396.88 694,396 C718.33,393.67 742.56,392.33 766.74,391.63 C778.83,391.28 790.92,391.08 803,391.02 C878,389 921,455 970,502 C1004,534 1033,496 1051,466 C1087,408 1103,341 1159,300 C1175,288 1186,315 1198.66,323.67 C1206.43,331.11 1214.41,338.16 1222.59,344.89 C1255.33,371.78 1291.33,393.33 1330,414 C1372,436 1393,479 1430,510 C1474,546 1506,483 1525.94,452.25" id="Shape"></path>
                <path d="M41.27,399.42 C59.13,416.62 78.18,426.21 97.61,429.91 C107.33,431.76 117.14,432.15 126.83,431.53 C179,430 215,393 255,362 C266,355 277,349 289,348 C341,344 390,336 439,316 C442,315 446,320 446,323 C449,368 466,426 525,411 C558,403 589,396 621.73,399.1 C630.67,399.76 639.5,400.61 648.37,401.04 C666.11,401.89 684,401 702,398 C726,394.33 749.67,392.67 773.19,392.07 C784.95,391.77 796.67,391.75 808.39,391.9 C885,394 923,466 978,510 C1014,538 1037,493 1054,466 C1091,410 1104,337 1163,304 C1172,300 1183,317 1193.42,323.55 C1202.17,330.7 1210.96,337.77 1219.81,344.66 C1255.22,372.22 1291.66,396.66 1333,417.99 C1371,438.99 1393,477.99 1425,507.99 C1436,517.99 1449,526.99 1464,522.99 C1495,513.99 1507,479.99 1525.73,456.09" id="Shape"></path>
                <path d="M41.31,402.2 C58.12,417.57 76.12,426.45 94.54,430.21 C103.75,432.09 113.07,432.7 122.32,432.36 C175,434 213,396 254,365 C265,355 279,350 294,349 C345,346 390,334 440,323 C447,322 450,335 449,343 C445,381 463,424 508,416 C548,410 585,396 625.01,400.82 C635.42,401.5 645.78,402.16 656.18,402.4 C677,402.89 698,401.67 719,399 C734,397.5 748.5,395 763,393.12 C777.5,391.24 792,390 807.02,391.03 C874,397 919,451 960,500 C986,531 1022,523 1043,491 C1083,429 1099,357 1158,311 C1177,296 1189,326 1203.33,338.46 C1210.52,345.5 1218.09,351.83 1225.96,357.66 C1257.44,380.99 1293.66,396.33 1329,416.99 C1372,440.99 1394,484.99 1432,516.99 C1476,551.99 1504,488.99 1525.5,459.93" id="Shape"></path>
                <path d="M41.35,404.95 C50.43,413.46 60.03,419.96 69.98,424.7 C79.93,429.44 90.21,432.41 100.67,433.84 C158,443 207,408 249,371 C303,325 381,329 442,353 C461,360 453,388 461,406 C473,429 503,422 524,418 C555,413 583,405 614.24,403.96 C628.02,403.51 641.54,403.71 654.75,403.39 C667.95,403.06 680.84,402.17 693.01,401.01 C717.68,398.68 742.12,397.34 766.49,396.68 C778.68,396.35 790.84,396.18 803.01,396.15 C884,394 923,473 981,519 C1010,542 1035,509 1050,484 C1084,428 1105,370 1148,322 C1171,295 1193,334 1211.01,349.13 C1217.99,355.13 1225.26,360.48 1232.74,365.4 C1262.67,385.11 1296,398 1328,418 C1371,445 1394,486 1431,519 C1473,555 1506,495 1525.27,463.76" id="Shape"></path>
                <path d="M41.41,407.66 C58.62,422.11 76.8,430.24 95.3,433.45 C104.55,435.05 113.88,435.43 123.12,434.94 C147,434 171,428 192,415 C228,393 255,358 298,353 C346,346 393,347 439,335 C436,377 455,433 508,421 C544,412 578,404 613.5,404.26 C624.27,404.4 634.87,405.16 645.5,405.63 C688,407.51 731.5,402.51 774,396.01 C786,394.01 797.81,393.64 809.54,394.13 C882,405 924,469 976,515 C985,524 999,535 1011,528 C1077,489 1084,407 1129,348 C1140,334 1154,309 1175,321 C1186,327 1195,338 1204.92,345.93 C1214.34,354.16 1223.94,361.94 1233.87,369.13 C1253.75,383.5 1275,395.5 1299,404 C1357,425 1386,481 1430,521 C1472,558 1506,499 1525.04,467.58" id="Shape"></path>
                <path d="M41.46,410.33 C57.82,424.43 75.25,432.55 93.08,435.97 C102,437.68 111.02,438.22 119.98,437.91 C167,438 206,411 241,381 C256,367 274,358 294,357 C340,353 383,347 430,338 C435,337 437,345 437,350 C439,373 435,403 459,417 C475,426 493,426 511,423 C549,416 585,403 622.96,405.9 C633.42,406.39 643.81,407 654.25,407.25 C696,408.25 738.5,403.5 781,397 C794,395 807,395 820.11,397.46 C884,412 923,466 966,513 C976,523 988,537 1000,533 C1073,506 1084,414 1130,352 C1141,337 1154,317 1174,325 C1184,328 1191,337 1198.43,344.73 C1204.5,350.82 1210.62,357 1217,362.75 C1229.75,374.25 1243.5,384 1260,389 C1338,411 1377,479 1437,527 C1477,559 1506,500 1524.79,471.38" id="Shape"></path>
                <path d="M41.53,412.98 C50.84,420.48 60.59,426.23 70.63,430.43 C80.67,434.63 90.99,437.25 101.44,438.51 C167,450 216,406 266,367 C274,360 285,357 296,356 C340,353 385,360 428,345 C431,345 434,347 433,350 C427,394 453,439 502,426 C548,414 593,405 639.62,409.25 C650.21,409.81 660.88,409.92 671.58,409.65 C703.68,408.84 736.12,404.62 768,399 C780,397 791,396 803,398 C880,408 927,471 979,523 C991,534 1008,540 1022,529 C1073,487 1084,423 1123,369 C1134,355 1142,339 1157,331 C1183,318 1197,357 1219.38,368.19 C1229.07,375 1239.26,380.75 1249.76,386 C1270.76,396.5 1293.01,405 1315.01,416 C1333.01,424 1348.01,438 1362.01,452 C1390.01,481 1409.01,518 1446.01,535 C1485.01,554 1504.01,500 1524.56,475.17" id="Shape"></path>
                <path d="M41.6,415.6 C50.9,422.9 60.49,428.44 70.26,432.44 C80.03,436.44 89.98,438.89 100,440.01 C135,444 169,437 200,416 C234,393 261,363 303,360 C346,356 389,360 431,353 C428,376 418,409 443,421 C492,444 545,410 596,409 C603,409 611,409 617.8,409.05 C629.41,409.46 640.96,410.3 652.59,410.71 C699.11,412.33 747,407 790,400 C802,398.5 813.52,398.81 825.32,401.34 C882,417 921,465 959,509 C972,523 985,539 1005,540 C1025,542 1036,524 1046,509 C1084,453 1100,394 1144,345 C1151,336 1163,331 1174,335 C1191,342 1201,357 1215,367.88 C1226,377.26 1237.5,385.5 1251,391 C1283,404 1314,414 1342,436 C1386,470 1407,538 1463,540 C1493,541 1507,502 1524.29,478.95" id="Shape"></path>
                <path d="M41.68,418.19 C57.97,430.82 75.34,438.02 93.08,440.94 C101.95,442.4 110.91,442.8 119.79,442.48 C149,443 176,434 201,418 C230,399 249,369 282,365 C327,359 406,336 420,383 C430,417 460,432 492,427 C536,420 577,412 619.9,411.42 C628.16,412.09 636.45,412.68 644.8,412.98 C653.15,413.28 661.56,413.28 670,413 C705.5,411.5 740.25,407 775.25,404.5 C786.92,403.67 798.61,403.06 810.37,402.85 C890,407 924,489 983,534 C1022,565 1049,512 1067,482 C1097,434 1107,373 1156,343 C1180,328 1199,361 1218,375 C1228,382 1236,390 1247,392 C1327,410 1373,468 1423,526 C1436,541 1457,553 1476,541 C1498,527 1510,504 1524.03,482.72" id="Shape"></path>
                <path d="M41.76,420.75 C50.95,427.23 60.27,432.23 69.66,435.9 C79.05,439.57 88.5,441.91 97.96,443.09 C134,447 171,441 202,418 C249,383 298,346 360,356 C398,363 415,397 445,419 C464,433 486,436 509,432 C545,424 577,413 613.28,411.91 C626.75,412.32 640.04,412.87 653.33,412.98 C697.64,413.35 742.12,408.48 786.44,405.5 C795.3,404.9 804.16,404.38 813.01,404.01 C892,414 929,491 986,540 C1007,558 1031,540 1044,521 C1087,460 1099,380 1164,346 C1175,340 1193,359 1207.96,368.34 C1215.11,373.34 1222.25,378.17 1229.5,382.75 C1251.25,396.5 1274,408 1301,415 C1319,420 1333,432 1347,445 C1383,477 1404,523 1447,544 C1484,563 1505,511 1523.76,486.49" id="Shape"></path>
                <path d="M41.86,423.29 C59.18,436.15 77.19,443.16 95.38,445.63 C104.47,446.86 113.6,447 122.56,446.49 C175,448 211,410 253,382 C268,372 284,369 300,368 C333,368 364,373 398,366 C403,365 411,365 412,370 C417,411 438,450 486,440 C530,431 568,414 611.83,413.65 C623.27,414.08 634.52,414.88 645.76,415.41 C690.71,417.54 735.89,413.78 782,406 C793,404 804,403 815.01,406.05 C884,422 927,480 973,532 C985,546 1004,559 1021,547 C1068,513 1080,457 1111,409 C1126,386 1137,348 1168,349 C1184,350 1194,365 1206.87,374.01 C1217.25,382 1228,389 1240,394 C1285,411 1330,427 1365,463 C1396,495 1417,551 1464,550 C1493,549 1507,513 1523.49,490.27" id="Shape"></path>
                <path d="M41.96,425.8 C52.09,432.95 62.48,438.27 73.02,441.97 C83.56,445.67 94.24,447.76 104.96,448.46 C157,455 205,428 243,392 C261,374 286,368 311,370 C344,374 376,377 409,373 C405,417 441,450 486,443 C532,435 574,413 619.75,415.82 C630.81,416.12 641.66,416.72 652.5,417.03 C695.85,418.25 739,414.67 784,408 C795,406 805,406 816.02,408.07 C890,424 931,490 981,542 C1006,568 1036,546 1051,521 C1086,467 1102,409 1145,362 C1167,339 1190,365 1208.12,378.88 C1218.25,386.25 1229,392.5 1241,397 C1278,412 1316,421 1348,448 C1388,483 1410,551 1464,552 C1493,553 1507,517 1523.21,494.05" id="Shape"></path>
                <path d="M42.08,428.29 C51.24,434.61 60.5,439.44 69.8,442.95 C79.1,446.46 88.45,448.64 97.8,449.67 C134,453 172,449 198,424 C259,369 341,354 404,392 C415,398 419,440 448,444 C496,451 536,428 582,420 C594,418 605,417 616.88,417.25 C628.05,417.4 638.95,418.07 649.83,418.44 C693.35,419.94 736.56,416.66 781,410 C791,408.75 800.88,408.56 810.67,408.99 C891,419 931,496 984,548 C1006,569 1033,553 1047,531 C1086,474 1101,412 1149,365 C1167,346 1187,368 1203,379.98 C1211.5,386.25 1220.5,391.5 1231,394 C1321,416 1374,480 1433,544 C1469,584 1505,528 1522.93,497.83" id="Shape"></path>
                <path d="M42.2,430.77 C51.35,436.84 60.59,441.47 69.88,444.82 C79.17,448.18 88.52,450.26 97.85,451.23 C132,455 170,452 194,429 C265,363 367,346 431,433 C440,446 460,447 477,445 C531,440 580,413 635.47,420.04 C647.65,420.76 659.86,421.06 672.1,420.99 C708.82,420.78 745.82,417.25 783,412 C792.5,410.75 801.94,410.56 811.33,410.99 C854,414 886,444 916,473 C943,501 960,534 993,556 C1018,573 1038,546 1052,527 C1093,473 1101,385 1168,365 C1177,363 1188,375 1199.01,379.25 C1209.22,385.08 1219.69,390.68 1230.37,395.87 C1251.75,406.25 1274,415 1297,423 C1359,444 1387,507 1435,549 C1473,584 1504,531 1522.64,501.6" id="Shape"></path>
                <path d="M42.34,433.22 C51.89,439.34 61.52,443.96 71.17,447.24 C80.82,450.52 90.51,452.47 100.18,453.26 C153,460 203,434 243,398 C280,364 328,390 372,388 C380,388 388,386 397,388 C401,389 404,392 405,395 C409,412 398,434 416,445 C435,456 455,450 475,447 C523,440 568,423 616.47,422.46 C627.88,422.54 639.22,422.98 650.6,423.07 C696.12,423.44 742.34,418.33 783.01,414 C792.76,413 802.39,412.94 811.93,413.41 C894,424 931,504 987,557 C1004,573 1028,565 1041,546 C1080,492 1100,439 1137,384 C1153,361 1175,370 1193.59,380.43 C1203.47,385.69 1213.56,391.18 1223.88,396.37 C1244.5,406.75 1266,415.5 1289,422 C1357,441 1386,509 1437,553 C1473,586 1505,534 1522.34,505.37" id="Shape"></path>
                <path d="M42.49,435.66 C52.18,441.95 62.11,446.68 72.18,450.01 C82.25,453.34 92.45,455.28 102.68,456 C156,463 205,438 243,401 C285,359 352,382 395,409 C408,416 405,444 421,449 C475,466 530,437 586,429 C602,427 618,427 634.33,426.53 C645.86,426.59 657.47,426.22 669.07,425.57 C703.85,423.62 738.44,419.12 770,416 C780.5,415 790.88,414.88 801.17,415.27 C890,418 930,506 989,560 C1015,585 1041,553 1056,530 C1090,477 1102,415 1153,378 C1168,367 1187,381 1202.26,389.55 C1215,397.5 1228,405 1243,409 C1291,420 1333,440 1367,476 C1397,509 1418,564 1465,565 C1493,565 1506,530 1522.04,509.13" id="Shape"></path>
            </g>
        </g>
    </g>
</svg>