<svg xmlns="http://www.w3.org/2000/svg" xmlns:xlink="http://www.w3.org/1999/xlink" viewBox="0 0 780.52 846.01"><defs><style>.cls-1,.cls-2,.cls-3,.cls-4,.cls-8,.cls-9{fill:none;}.cls-1{stroke:#231f20;stroke-width:0.25px;}.cls-2,.cls-3,.cls-4{stroke:#00ff21;}.cls-2{stroke-width:2px;}.cls-3{stroke-width:1.38px;}.cls-4{stroke-width:0.75px;}.cls-5{mask:url(#mask);}.cls-6{fill:#ccc;}.cls-7{fill:#231f20;}.cls-8,.cls-9{stroke:#fdfdfd;stroke-width:0.5px;}.cls-9{stroke-linecap:round;}.cls-10{fill:#fff;}.cls-11{filter:url(#luminosity-noclip);}</style><filter id="luminosity-noclip" x="259.17" y="-8704" width="720.95" height="32766" filterUnits="userSpaceOnUse" color-interpolation-filters="sRGB"><feFlood flood-color="#fff" result="bg"/><feBlend in="SourceGraphic" in2="bg"/></filter><mask id="mask" x="36.89" y="-8811" width="720.95" height="32766" maskUnits="userSpaceOnUse"><g class="cls-11"/></mask></defs><title>orion_map</title><g id="BG_LINES"><path class="cls-1" d="M949.51,107l.48,12.16.27,6.87.26,6.88.27,6.86.28,6.88.26,6.87.27,6.88.27,6.87.27,6.88.27,6.87.27,6.88.27,6.87.28,6.88.26,6.87.27,6.87.27,6.87.27,6.88.27,6.87.27,6.88.27,6.87.27,6.88.27,6.87.27,6.88.27,6.87.27,6.87.27,6.87.26,6.88.28,6.87.27,6.88.27,6.87.26,6.88.28,6.87.27,6.88.26,6.87.28,6.87.27,6.87.27,6.88.27,6.87.27,6.88.26,6.87.28,6.88.27,6.87.26,6.88.28,6.87.27,6.87.26,6.87.27,6.88.28,6.87.27,6.88.26,6.87.27,6.88.28,6.87.26,6.88.27,6.87.28,6.87.26,6.87.27,6.88.27,6.87.27,6.88.27,6.87.27,6.88.28,6.87.26,6.87.27,6.88.27,6.87.27,6.87.27,6.88.27,6.87.27,6.88.27,6.87.27,6.88.27,6.87.27,6.87.27,6.88.27,6.87.27,6.88.27,6.87.27,6.87.27,6.88.26,6.87.27,6.88.28,6.87.27,6.87.26,6.88.28,6.87.27,6.88.26,6.87.28,6.88.27,6.87.26,6.87.27,6.88.28,6.87.26,6.87.28,6.88.26,6.87.28,6.88.26,6.87.27,6.88.28,6.87.26,6.88.28,6.87.26,6.87.27,6.87.28,6.88.26,6.87.27,6.88.27,6.87.27,6.88.27,6.87.27,6.87.27,6.87.27,6.88.27,6.87.27,6.88.27,6.87.27,6.88.27,6.87.27,6.88.27,6.87.27,6.88.62,15.83" transform="translate(-222.28 -107)"/><path class="cls-1" d="M874.69,114.26l.21,7.89" transform="translate(-222.28 -107)"/><path class="cls-1" d="M900.09,940.22l.21,7.89" transform="translate(-222.28 -107)"/><path class="cls-1" d="M799.77,114.26l.15,7.89" transform="translate(-222.28 -107)"/><path class="cls-1" d="M817.91,940.22l.15,7.89" transform="translate(-222.28 -107)"/><path class="cls-1" d="M724.83,107l.21,16.63.09,6.88.09,6.88.1,6.88.08,6.87.09,6.88.09,6.88.1,6.88.09,6.87.08,6.89.09,6.87.1,6.88.08,6.88.09,6.88.09,6.87.09,6.88.09,6.88.1,6.87.08,6.88.09,6.88.09,6.88.1,6.87.08,6.88.09,6.88.09,6.88.09,6.87.09,6.88.09,6.88.09,6.88.09,6.87.09,6.88.09,6.88.09,6.88.09,6.87.09,6.88.09,6.88.09,6.87.09,6.88.09,6.88.09,6.88.09,6.88.09,6.87.1,6.89.08,6.87.09,6.88.09,6.88.09,6.87.09,6.88.09,6.88.09,6.88.09,6.87.1,6.88.08,6.88.09,6.88.09,6.87.09,6.88.09,6.88.09,6.88.09,6.87.09,6.88.09,6.88.09,6.88.09,6.87.09,6.88.09,6.88.09,6.88.09,6.87.09,6.88.09,6.88.09,6.88.09,6.87.09,6.88.09,6.88.09,6.88.09,6.87.09,6.89.09,6.87.09,6.88.09,6.88.09,6.88.09,6.87.09,6.88.09,6.88.09,6.87.09,6.88.09,6.88.09,6.88.09,6.88.09,6.87.09,6.88.09,6.88.08,6.87.1,6.88.09,6.88.09,6.88.09,6.87.09,6.88.09,6.88.09,6.88.09,6.87.08,6.88.1,6.88.09,6.88.09,6.87.08,6.89.1,6.87.09,6.88.09,6.88.09,6.88.09,6.87.09,6.88.09,6.88.09,6.88.08,6.87.1,6.88.09,6.88.09,6.87.08,6.88.1,6.88.09,6.88.14,10.93" transform="translate(-222.28 -107)"/><path class="cls-1" d="M650,114.26l0,7.89" transform="translate(-222.28 -107)"/><path class="cls-1" d="M653.61,940.22l0,7.89" transform="translate(-222.28 -107)"/><path class="cls-1" d="M575.1,114.26l0,7.89" transform="translate(-222.28 -107)"/><path class="cls-1" d="M571.47,940.22l0,7.89" transform="translate(-222.28 -107)"/><path class="cls-1" d="M500.26,107l-.21,16.63-.1,6.88-.09,6.88-.09,6.88-.08,6.87-.1,6.88-.09,6.88-.09,6.88-.09,6.87-.08,6.89-.1,6.87-.09,6.88-.09,6.88-.08,6.88-.1,6.87-.09,6.88-.08,6.88-.09,6.87-.1,6.88-.09,6.88-.08,6.88-.09,6.87-.09,6.88-.1,6.88-.08,6.88-.09,6.87-.09,6.88-.1,6.88-.09,6.88-.08,6.87-.09,6.88-.1,6.88-.09,6.88-.09,6.87-.08,6.88-.09,6.88-.1,6.87-.09,6.88-.08,6.88-.09,6.88-.1,6.88-.08,6.87-.09,6.89-.09,6.87-.1,6.88-.08,6.88-.09,6.87-.09,6.88-.09,6.88-.1,6.88-.08,6.87-.09,6.88-.09,6.88-.1,6.88-.09,6.87-.08,6.88-.09,6.88-.1,6.88-.09,6.87-.08,6.88-.09,6.88-.09,6.88-.1,6.87-.08,6.88-.09,6.88-.09,6.88-.09,6.87-.09,6.88-.09,6.88-.09,6.88-.09,6.87-.09,6.88-.09,6.88-.09,6.88-.09,6.87-.09,6.89-.09,6.87-.09,6.88-.09,6.88-.1,6.88-.08,6.87-.09,6.88-.09,6.88-.1,6.87-.08,6.88-.09,6.88-.09,6.88-.09,6.88-.09,6.87-.09,6.88-.09,6.88-.09,6.87-.09,6.88-.09,6.88-.09,6.88L491.5,777l-.09,6.88-.09,6.88-.09,6.88-.09,6.87-.09,6.88-.09,6.88-.09,6.88-.09,6.87-.09,6.89-.09,6.87-.09,6.88-.09,6.88-.09,6.88-.09,6.87-.09,6.88-.09,6.88-.09,6.88-.09,6.87-.09,6.88-.09,6.88-.09,6.87-.09,6.88-.09,6.88-.09,6.88L489.2,953" transform="translate(-222.28 -107)"/><path class="cls-1" d="M425.32,114.26l-.16,7.89" transform="translate(-222.28 -107)"/><path class="cls-1" d="M407.18,940.22l-.15,7.89" transform="translate(-222.28 -107)"/><path class="cls-1" d="M350.4,114.26l-.21,7.89" transform="translate(-222.28 -107)"/><path class="cls-1" d="M325,940.22l-.21,7.89" transform="translate(-222.28 -107)"/><path class="cls-1" d="M275.58,107l-.48,12.16-.27,6.87-.27,6.88-.27,6.86-.27,6.88-.27,6.87-.26,6.88-.28,6.87-.27,6.88-.26,6.87-.27,6.88-.28,6.87-.27,6.88-.26,6.87-.27,6.87-.28,6.87-.26,6.88-.27,6.87-.27,6.88-.27,6.87-.27,6.88-.27,6.87-.28,6.88-.26,6.87-.27,6.87-.28,6.87-.26,6.88-.27,6.87-.27,6.88-.27,6.87-.27,6.88-.27,6.87-.27,6.88L266.2,346l-.27,6.87-.27,6.87-.27,6.88-.27,6.87-.27,6.88-.27,6.87-.26,6.88L264,401l-.27,6.88-.26,6.87-.28,6.87-.27,6.87-.27,6.88-.26,6.87-.28,6.88-.27,6.87-.26,6.88-.28,6.87-.27,6.88-.26,6.87-.28,6.87-.27,6.87L260,504.1l-.27,6.87-.28,6.88-.27,6.87-.26,6.88-.28,6.87-.27,6.87-.26,6.88-.27,6.87-.27,6.87-.27,6.88-.27,6.87-.27,6.88-.27,6.87-.27,6.88-.27,6.87-.27,6.87-.27,6.88-.27,6.87-.27,6.88-.27,6.87-.27,6.87-.27,6.88-.27,6.87-.27,6.88-.27,6.87-.27,6.87-.27,6.88-.27,6.87-.27,6.88-.27,6.87-.27,6.88-.27,6.87-.27,6.87-.26,6.88-.28,6.87-.27,6.87-.27,6.88-.26,6.87-.28,6.88-.27,6.87-.27,6.88-.26,6.87-.28,6.88-.26,6.87-.27,6.87-.28,6.87-.26,6.88-.27,6.87-.28,6.88-.27,6.87-.26,6.88-.27,6.87-.28,6.87-.26,6.87-.27,6.88-.28,6.87-.26,6.88-.27,6.87-.27,6.88-.27,6.87-.27,6.88-.27,6.87-.28,6.88L242.38,953" transform="translate(-222.28 -107)"/><path class="cls-1" d="M1002.8,132.31l-20.19.78-7.54.28-7.55.27-7.55.27-7.55.26-7.55.25-7.55.26-7.55.24-7.55.24-7.55.23-7.55.22-7.56.23-7.54.21-7.56.21-7.55.21-7.55.19-7.55.19-7.55.19-7.56.19-7.55.17-7.55.17-7.55.17-7.56.15-7.55.16-7.55.14-7.56.14-7.55.14-7.54.12-7.56.12-7.56.12-7.55.12-7.55.1-7.56.1-7.55.1-7.55.09-7.56.08-7.55.08-7.55.07-7.56.07-7.55.05-7.56.06-7.55.05-7.55,0-7.56,0-7.55,0-7.55,0-7.56,0-7.55,0H597.44l-7.56,0-7.55,0-7.55,0-7.56,0-7.55,0-7.55,0-7.56-.05-7.55-.06-7.56-.05-7.55-.07-7.55-.07-7.56-.08-7.55-.08-7.55-.09-7.56-.1-7.55-.1L469,139l-7.56-.12-7.55-.11-7.55-.13-7.55-.12-7.56-.14-7.55-.14-7.55-.14-7.56-.16-7.55-.15-7.55-.17L386,137.4l-7.56-.17-7.55-.19-7.55-.19-7.55-.19-7.55-.19-7.56-.21-7.54-.21-7.56-.21-7.55-.23-7.55-.22-7.55-.23-7.55-.24-7.55-.24-7.55-.26-7.55-.25-7.55-.26-7.55-.27-7.54-.27-7.55-.28-7.56-.29-12.64-.49" transform="translate(-222.28 -107)"/><path class="cls-1" d="M998.85,164l-7.88.31" transform="translate(-222.28 -107)"/><path class="cls-1" d="M234.11,164.34l-7.88-.31" transform="translate(-222.28 -107)"/><path class="cls-1" d="M998.85,195.59l-7.88.3" transform="translate(-222.28 -107)"/><path class="cls-1" d="M234.11,195.89l-7.88-.3" transform="translate(-222.28 -107)"/><path class="cls-1" d="M998.85,227.15l-7.88.3" transform="translate(-222.28 -107)"/><path class="cls-1" d="M234.11,227.45l-7.88-.3" transform="translate(-222.28 -107)"/><path class="cls-1" d="M998.85,258.7,991,259" transform="translate(-222.28 -107)"/><path class="cls-1" d="M234.11,259l-7.88-.31" transform="translate(-222.28 -107)"/><path class="cls-1" d="M1002.8,290.11l-22,.83-7.67.28-7.67.27-7.67.26-7.67.27-7.67.25-7.66.25-7.67.24-7.68.23-7.67.24-7.67.22-7.67.22-7.67.21-7.67.21-7.67.2-7.67.2-7.67.19-7.68.18-7.67.18-7.67.17-7.68.17-7.66.16-7.68.15-7.67.15-7.67.14-7.68.14-7.67.13-7.67.13-7.68.12-7.67.11-7.67.11-7.67.1-7.68.09-7.67.1-7.67.08-7.68.08-7.67.07-7.68.07-7.67.06-7.67.06-7.68.05-7.67,0-7.67,0-7.69,0-7.66,0-7.68,0h-46l-7.67,0-7.68,0-7.68,0-7.67,0-7.68,0-7.67-.05-7.67-.06-7.68-.06-7.67-.07-7.67-.07-7.68-.08-7.66-.08-7.68-.1-7.68-.09-7.67-.1-7.68-.11-7.67-.11-7.67-.12-7.67-.13-7.68-.13-7.67-.14-7.67-.14-7.68-.15-7.66-.15-7.68-.16-7.67-.17-7.67-.17-7.67-.18-7.68-.18-7.67-.19-7.66-.2-7.68-.2-7.67-.21-7.67-.21-7.67-.22-7.67-.22-7.67-.24-7.68-.23-7.66-.24-7.67-.25L275,292l-7.67-.27-7.67-.26-7.66-.27-7.67-.28-7.67-.29-14.32-.54" transform="translate(-222.28 -107)"/><path class="cls-1" d="M998.85,321.82l-7.88.31" transform="translate(-222.28 -107)"/><path class="cls-1" d="M234.11,322.13l-7.88-.31" transform="translate(-222.28 -107)"/><path class="cls-1" d="M998.85,353.38l-7.88.3" transform="translate(-222.28 -107)"/><path class="cls-1" d="M234.11,353.68l-7.88-.3" transform="translate(-222.28 -107)"/><path class="cls-1" d="M998.85,384.94l-7.88.3" transform="translate(-222.28 -107)"/><path class="cls-1" d="M234.11,385.24l-7.88-.3" transform="translate(-222.28 -107)"/><path class="cls-1" d="M998.85,416.5l-7.88.3" transform="translate(-222.28 -107)"/><path class="cls-1" d="M234.11,416.8l-7.88-.3" transform="translate(-222.28 -107)"/><path class="cls-1" d="M1002.8,447.91l-24,.89-7.79.27-7.79.27-7.8.26-7.78.26-7.79.26-7.8.23-7.78.25-7.79.23-7.79.24-7.79.22-7.8.21-7.78.21-7.79.21-7.8.2-7.79.19-7.79.18-7.79.18-7.8.18-7.79.17-7.79.16-7.79.16-7.79.15-7.8.14-7.79.14-7.79.14-7.79.12-7.8.12-7.79.12-7.79.12-7.8.1-7.79.09-7.79.1-7.8.08-7.79.08-7.8.08-7.79.07-7.79.06-7.79.06-7.8,0-7.8.05-7.78,0-7.8,0-7.79,0-7.8,0H589.17l-7.8,0-7.79,0-7.79,0-7.8,0-7.8-.05-7.78,0-7.8-.06-7.79-.06-7.79-.07-7.8-.08-7.79-.08-7.8-.08-7.79-.1-7.79-.09-7.8-.1-7.79-.12-7.79-.12-7.8-.12-7.79-.12-7.79-.14-7.8-.14-7.79-.14-7.79-.15-7.8-.16-7.78-.16-7.8-.17-7.79-.18-7.79-.18-7.79-.18-7.8-.19-7.79-.2-7.78-.21-7.8-.21-7.79-.21-7.79-.22-7.79-.24-7.79-.23-7.79-.24-7.79-.24-7.79-.26-7.79-.26-7.79-.26-7.79-.27-7.79-.27-7.78-.28-16.24-.61" transform="translate(-222.28 -107)"/><path class="cls-1" d="M998.85,479.62l-7.88.29" transform="translate(-222.28 -107)"/><path class="cls-1" d="M234.11,479.91l-7.88-.29" transform="translate(-222.28 -107)"/><path class="cls-1" d="M998.85,511.17l-7.88.29" transform="translate(-222.28 -107)"/><path class="cls-1" d="M234.11,511.46l-7.88-.29" transform="translate(-222.28 -107)"/><path class="cls-1" d="M998.85,542.73,991,543" transform="translate(-222.28 -107)"/><path class="cls-1" d="M234.11,543l-7.88-.3" transform="translate(-222.28 -107)"/><path class="cls-1" d="M998.85,574.29l-7.88.29" transform="translate(-222.28 -107)"/><path class="cls-1" d="M234.11,574.58l-7.88-.29" transform="translate(-222.28 -107)"/><path class="cls-1" d="M1002.8,605.7l-26.29.95-7.91.28-7.9.26-7.91.27-7.91.26L937,608l-7.91.25-7.9.23-7.92.23-7.91.23-7.91.22-7.91.22-7.91.21-7.91.19-7.91.2-7.91.19-7.92.19-7.91.17-7.91.17-7.91.17-7.92.16-7.91.15-7.91.15-7.91.14-7.91.13-7.91.14-7.92.12-7.91.12L755,612l-7.92.11-7.91.1-7.91.1-7.92.08-7.91.08-7.91.08-7.92.07-7.92.06-7.91.06-7.91.05-7.91,0-7.92,0-7.92,0-7.91,0-7.91,0-7.92,0H596.72l-7.92,0-7.9,0-7.92,0-7.91,0-7.92,0-7.91,0-7.91-.05-7.92-.06-7.91-.06-7.92-.07-7.91-.08-7.91-.08-7.92-.08-7.91-.1-7.91-.1L470.1,612l-7.91-.1-7.91-.12-7.91-.12-7.92-.14-7.91-.13-7.91-.14-7.92-.15L406.8,611l-7.91-.16-7.91-.17-7.91-.17-7.92-.17-7.91-.19-7.91-.19-7.91-.2-7.92-.19-7.9-.21-7.91-.22-7.92-.22-7.91-.23-7.9-.23-7.91-.23-7.92-.25-7.91-.24-7.91-.26-7.91-.27-7.9-.26-7.92-.28-7.9-.27-18.39-.68" transform="translate(-222.28 -107)"/><path class="cls-1" d="M998.85,637.4l-7.88.3" transform="translate(-222.28 -107)"/><path class="cls-1" d="M234.11,637.7l-7.88-.3" transform="translate(-222.28 -107)"/><path class="cls-1" d="M998.85,669l-7.88.29" transform="translate(-222.28 -107)"/><path class="cls-1" d="M234.11,669.25l-7.88-.29" transform="translate(-222.28 -107)"/><path class="cls-1" d="M998.85,700.52l-7.88.29" transform="translate(-222.28 -107)"/><path class="cls-1" d="M234.11,700.81l-7.88-.29" transform="translate(-222.28 -107)"/><path class="cls-1" d="M998.85,732.08l-7.88.28" transform="translate(-222.28 -107)"/><path class="cls-1" d="M234.11,732.36l-7.88-.28" transform="translate(-222.28 -107)"/><path class="cls-1" d="M1002.8,763.49l-20.77.75-8,.27-8,.28-8,.26-8,.26-8,.25-8,.26-8,.23-8,.24-8,.23-8,.22-8,.22-8,.21-8,.2-8,.2-8,.2-8,.18-8,.18-8,.17-8,.17-8,.16-8,.16-8,.15-8,.15-8,.13-8,.13-8,.13-8,.12-8,.11-8,.11-8,.1-8,.1-8,.08-8,.09-8,.07-8,.07-8,.07-8,.05-8,.06-8,0-8,0-8,0-8,0-8,0-8,0H596.48l-8,0-8,0-8,0-8,0-8,0-8,0-8-.06-8-.05-8-.07-8-.07-8-.07-8-.09-8-.08-8-.1-8-.1-8-.11-8-.11-8-.12-8-.13-8-.13-8-.13-8-.15-8-.15-8-.16-8-.16-8-.17-8-.17-8-.18-8-.18-8-.2-8-.2-8-.2-8-.21-8-.22-8-.22-8-.23-8-.24-8-.23-8-.26-8-.25-8-.26-8-.26-8-.28-8-.27-8-.29-12.75-.46" transform="translate(-222.28 -107)"/><path class="cls-1" d="M998.85,795.19l-7.88.28" transform="translate(-222.28 -107)"/><path class="cls-1" d="M234.11,795.47l-7.88-.28" transform="translate(-222.28 -107)"/><path class="cls-1" d="M998.85,826.75,991,827" transform="translate(-222.28 -107)"/><path class="cls-1" d="M234.11,827l-7.88-.28" transform="translate(-222.28 -107)"/><path class="cls-1" d="M998.85,858.3l-7.88.28" transform="translate(-222.28 -107)"/><path class="cls-1" d="M234.11,858.58l-7.88-.28" transform="translate(-222.28 -107)"/><path class="cls-1" d="M998.85,889.86l-7.88.28" transform="translate(-222.28 -107)"/><path class="cls-1" d="M234.11,890.14l-7.88-.28" transform="translate(-222.28 -107)"/><path class="cls-1" d="M1002.8,921.28l-23.41.82-8.14.27-8.15.28-8.15.26-8.15.26-8.15.25-8.15.25-8.16.23-8.14.23-8.15.23-8.16.22-8.14.22-8.16.2-8.15.21-8.14.19-8.16.19-8.15.18-8.15.18-8.15.17-8.16.16-8.15.16-8.15.15-8.16.15-8.15.14-8.15.13-8.15.13-8.16.12-8.15.12-8.15.1-8.15.11-8.16.09-8.15.09-8.16.09-8.15.07-8.15.07-8.15.07-8.16.06-8.15,0-8.15.05-8.16,0-8.15,0-8.16,0-8.15,0-8.16,0H596.24l-8.15,0-8.15,0-8.16,0-8.15,0-8.16,0-8.15-.05-8.15,0-8.15-.06-8.16-.07-8.15-.07-8.16-.07-8.15-.09-8.16-.09-8.15-.09-8.15-.11-8.15-.1-8.16-.12-8.15-.12-8.15-.13-8.15-.13-8.16-.14-8.15-.15-8.15-.15-8.15-.16-8.15-.16-8.16-.17-8.15-.18-8.16-.18-8.14-.19-8.15-.19L343.5,925l-8.14-.2-8.16-.22-8.15-.21-8.15-.24-8.15-.23-8.15-.23-8.15-.25-8.15-.25-8.15-.26-8.15-.26-8.14-.28-8.16-.27-8.15-.28-15.26-.54" transform="translate(-222.28 -107)"/></g><g id="line_orion"><path class="cls-2" d="M514.06,495.76h0l55.79,147.81-28.6,121.68,28.6-121.68,18.06-11.63,16.69-14.2,27-104.86-27,104.86,29.87,33,40,91.38" transform="translate(-222.28 -107)"/><path class="cls-3" d="M514.06,495.76l117.56,17.12-39.11-56.52h0l-78.45,39.41" transform="translate(-222.28 -107)"/><path class="cls-4" d="M710.82,369.65l32.06,29.44,6.43,53,17,19.49,3.48,30.51L631.62,512.88l138.15-10.83-5,21.47-11.27,50.06-16.8,11.67" transform="translate(-222.28 -107)"/><path class="cls-4" d="M514.06,495.76l-27.78-35.64L458.69,383.4" transform="translate(-222.28 -107)"/><path class="cls-4" d="M450.17,387.69l32.26-93.05,36.6-1.77-51.82,86.25" transform="translate(-222.28 -107)"/></g><g id="Calque_2" data-name="Calque 2"><g class="cls-5"><path class="cls-6" d="M626.58,170.56a8.63,8.63,0,1,0-8.62-8.64,8.63,8.63,0,0,0,8.62,8.64" transform="translate(-222.28 -107)"/><path class="cls-6" d="M410.15,261.88a5.89,5.89,0,1,0-5.89-5.9,5.9,5.9,0,0,0,5.89,5.9" transform="translate(-222.28 -107)"/><path class="cls-6" d="M583.26,285.32a5.72,5.72,0,1,0-5.7-5.72,5.71,5.71,0,0,0,5.7,5.72" transform="translate(-222.28 -107)"/><path class="cls-6" d="M331.18,218.49a5.7,5.7,0,1,0-5.7-5.69,5.69,5.69,0,0,0,5.7,5.69" transform="translate(-222.28 -107)"/><path class="cls-6" d="M681.74,873.55a5.23,5.23,0,1,0-5.23-5.23,5.23,5.23,0,0,0,5.23,5.23" transform="translate(-222.28 -107)"/><path class="cls-6" d="M959.22,415.09a4.91,4.91,0,1,0-4.9-4.9,4.9,4.9,0,0,0,4.9,4.9" transform="translate(-222.28 -107)"/><path class="cls-6" d="M959.22,412.73a2.55,2.55,0,1,0-2.54-2.54,2.55,2.55,0,0,0,2.54,2.54" transform="translate(-222.28 -107)"/><path class="cls-6" d="M848.36,312.68a4.85,4.85,0,1,0-4.85-4.85,4.85,4.85,0,0,0,4.85,4.85" transform="translate(-222.28 -107)"/><path class="cls-6" d="M543.94,851.35a4.84,4.84,0,1,0-4.83-4.84,4.84,4.84,0,0,0,4.83,4.84" transform="translate(-222.28 -107)"/><path class="cls-6" d="M505.82,840.48a4.6,4.6,0,1,0-4.6-4.59,4.58,4.58,0,0,0,4.6,4.59" transform="translate(-222.28 -107)"/><path class="cls-6" d="M822,840.89a4.4,4.4,0,1,0-4.41-4.39,4.4,4.4,0,0,0,4.41,4.39" transform="translate(-222.28 -107)"/><path class="cls-6" d="M826,668a4.32,4.32,0,1,0-4.33-4.33A4.33,4.33,0,0,0,826,668" transform="translate(-222.28 -107)"/><path class="cls-6" d="M433.38,714.69a4.26,4.26,0,1,0-4.26-4.25,4.25,4.25,0,0,0,4.26,4.25" transform="translate(-222.28 -107)"/><path class="cls-6" d="M789.48,667.05a4.21,4.21,0,1,0-4.21-4.21,4.21,4.21,0,0,0,4.21,4.21" transform="translate(-222.28 -107)"/><path class="cls-6" d="M386.39,295.88a4.1,4.1,0,1,0-4.09-4.1,4.09,4.09,0,0,0,4.09,4.1" transform="translate(-222.28 -107)"/><path class="cls-6" d="M636.78,740.17a4.07,4.07,0,1,0-4.07-4.06,4.06,4.06,0,0,0,4.07,4.06" transform="translate(-222.28 -107)"/><path class="cls-6" d="M794.93,253.39a4,4,0,1,0-4-4,4,4,0,0,0,4,4" transform="translate(-222.28 -107)"/><path class="cls-6" d="M824.27,454.61a4,4,0,1,0-4-4,4,4,0,0,0,4,4" transform="translate(-222.28 -107)"/><path class="cls-6" d="M654.62,824.61a3.91,3.91,0,1,0-3.91-3.9,3.91,3.91,0,0,0,3.91,3.9" transform="translate(-222.28 -107)"/><path class="cls-6" d="M441,150.26a3.85,3.85,0,1,0-3.85-3.85,3.85,3.85,0,0,0,3.85,3.85" transform="translate(-222.28 -107)"/><path class="cls-6" d="M680.2,820.71a3.85,3.85,0,1,0-3.86-3.84,3.85,3.85,0,0,0,3.86,3.84" transform="translate(-222.28 -107)"/><path class="cls-6" d="M814.48,925.13a3.84,3.84,0,1,0-3.84-3.84,3.83,3.83,0,0,0,3.84,3.84" transform="translate(-222.28 -107)"/><path class="cls-6" d="M760.58,701.75a3.8,3.8,0,1,0-3.8-3.8,3.8,3.8,0,0,0,3.8,3.8" transform="translate(-222.28 -107)"/><path class="cls-6" d="M263,880a3.79,3.79,0,1,0-3.79-3.78A3.78,3.78,0,0,0,263,880" transform="translate(-222.28 -107)"/><path class="cls-6" d="M911.54,733.05a3.74,3.74,0,1,0-3.74-3.74,3.73,3.73,0,0,0,3.74,3.74" transform="translate(-222.28 -107)"/><path class="cls-6" d="M336.51,900.79a3.77,3.77,0,1,0-3.76-3.76,3.77,3.77,0,0,0,3.76,3.76" transform="translate(-222.28 -107)"/><path class="cls-6" d="M366.42,498.11a3.66,3.66,0,1,0-3.65-3.66,3.66,3.66,0,0,0,3.65,3.66" transform="translate(-222.28 -107)"/><path class="cls-6" d="M493.06,664.45a3.64,3.64,0,1,0-3.64-3.64,3.64,3.64,0,0,0,3.64,3.64" transform="translate(-222.28 -107)"/><path class="cls-6" d="M576.42,551.6A3.63,3.63,0,1,0,572.8,548a3.63,3.63,0,0,0,3.62,3.63" transform="translate(-222.28 -107)"/><path class="cls-6" d="M604.82,731.7a3.56,3.56,0,1,0-3.55-3.55,3.55,3.55,0,0,0,3.55,3.55" transform="translate(-222.28 -107)"/><path class="cls-6" d="M715.53,275.61a3.55,3.55,0,1,0-3.56-3.55,3.54,3.54,0,0,0,3.56,3.55" transform="translate(-222.28 -107)"/><path class="cls-6" d="M335.93,456.8a3.55,3.55,0,1,0-3.54-3.55,3.55,3.55,0,0,0,3.54,3.55" transform="translate(-222.28 -107)"/><path class="cls-6" d="M466.25,851a3.5,3.5,0,1,0-3.5-3.5,3.5,3.5,0,0,0,3.5,3.5" transform="translate(-222.28 -107)"/><path class="cls-6" d="M757.59,390.71a3.43,3.43,0,1,0-3.43-3.42,3.42,3.42,0,0,0,3.43,3.42" transform="translate(-222.28 -107)"/><path class="cls-6" d="M733.8,813.41a3.4,3.4,0,1,0-3.4-3.39,3.41,3.41,0,0,0,3.4,3.39" transform="translate(-222.28 -107)"/><path class="cls-6" d="M577,730.07a3.38,3.38,0,1,0-3.39-3.38,3.37,3.37,0,0,0,3.39,3.38" transform="translate(-222.28 -107)"/><path class="cls-6" d="M726.78,728.9a3.38,3.38,0,1,0-3.37-3.38,3.38,3.38,0,0,0,3.37,3.38" transform="translate(-222.28 -107)"/><path class="cls-6" d="M506.13,206.56a3.35,3.35,0,1,0-3.34-3.35,3.34,3.34,0,0,0,3.34,3.35" transform="translate(-222.28 -107)"/><path class="cls-6" d="M916.32,773.69a3.32,3.32,0,1,0-3.32-3.32,3.32,3.32,0,0,0,3.32,3.32" transform="translate(-222.28 -107)"/><path class="cls-6" d="M540.1,228.69a3.31,3.31,0,1,0-3.3-3.31,3.31,3.31,0,0,0,3.3,3.31" transform="translate(-222.28 -107)"/><path class="cls-6" d="M621.59,270.41a3.3,3.3,0,1,0-3.3-3.29,3.29,3.29,0,0,0,3.3,3.29" transform="translate(-222.28 -107)"/><path class="cls-6" d="M563.28,592.93a3.28,3.28,0,1,0-3.27-3.28,3.28,3.28,0,0,0,3.27,3.28" transform="translate(-222.28 -107)"/><path class="cls-6" d="M842.53,614.45a3.28,3.28,0,1,0-3.29-3.27,3.28,3.28,0,0,0,3.29,3.27" transform="translate(-222.28 -107)"/><path class="cls-6" d="M729,931.84a3.28,3.28,0,1,0-3.27-3.27,3.27,3.27,0,0,0,3.27,3.27" transform="translate(-222.28 -107)"/><path class="cls-6" d="M699.27,321.91a3.26,3.26,0,1,0-3.26-3.25,3.26,3.26,0,0,0,3.26,3.25" transform="translate(-222.28 -107)"/><path class="cls-6" d="M891.35,287.94a3.26,3.26,0,1,0-3.25-3.26,3.26,3.26,0,0,0,3.25,3.26" transform="translate(-222.28 -107)"/><path class="cls-6" d="M264.62,832a3.25,3.25,0,1,0-3.24-3.24,3.24,3.24,0,0,0,3.24,3.24" transform="translate(-222.28 -107)"/><path class="cls-6" d="M876.68,181.49a3.24,3.24,0,1,0-3.24-3.23,3.23,3.23,0,0,0,3.24,3.23" transform="translate(-222.28 -107)"/><path class="cls-6" d="M653.56,267.75a3.24,3.24,0,1,0-3.24-3.23,3.23,3.23,0,0,0,3.24,3.23" transform="translate(-222.28 -107)"/><path class="cls-6" d="M484.53,782.58a3.23,3.23,0,1,0-3.23-3.23,3.23,3.23,0,0,0,3.23,3.23" transform="translate(-222.28 -107)"/><path class="cls-6" d="M470.65,875.22a3.22,3.22,0,1,0-3.21-3.22,3.22,3.22,0,0,0,3.21,3.22" transform="translate(-222.28 -107)"/><path class="cls-6" d="M634,342.09a3.19,3.19,0,1,0-3.18-3.2,3.2,3.2,0,0,0,3.18,3.2" transform="translate(-222.28 -107)"/><path class="cls-6" d="M427.77,830.91a3.19,3.19,0,1,0-3.18-3.19,3.19,3.19,0,0,0,3.18,3.19" transform="translate(-222.28 -107)"/><path class="cls-6" d="M818.47,805.36a3.18,3.18,0,1,0-3.18-3.18,3.18,3.18,0,0,0,3.18,3.18" transform="translate(-222.28 -107)"/><path class="cls-6" d="M495.85,766.25a3.16,3.16,0,1,0-3.16-3.16,3.16,3.16,0,0,0,3.16,3.16" transform="translate(-222.28 -107)"/><path class="cls-6" d="M381.56,688.71a3.15,3.15,0,1,0-3.14-3.15,3.15,3.15,0,0,0,3.14,3.15" transform="translate(-222.28 -107)"/><path class="cls-6" d="M445.25,718.11a3.14,3.14,0,1,0-3.13-3.13,3.14,3.14,0,0,0,3.13,3.13" transform="translate(-222.28 -107)"/><path class="cls-6" d="M634.41,630.19a3.13,3.13,0,1,0-3.13-3.13,3.13,3.13,0,0,0,3.13,3.13" transform="translate(-222.28 -107)"/><path class="cls-6" d="M761,318a3.12,3.12,0,1,0-3.12-3.11A3.11,3.11,0,0,0,761,318" transform="translate(-222.28 -107)"/><path class="cls-6" d="M301.26,753.42a3.11,3.11,0,1,0-3.11-3.1,3.1,3.1,0,0,0,3.11,3.1" transform="translate(-222.28 -107)"/><path class="cls-6" d="M870.46,463.69a3.1,3.1,0,1,0-3.1-3.09,3.09,3.09,0,0,0,3.1,3.09" transform="translate(-222.28 -107)"/><path class="cls-6" d="M876.42,671.8a3.05,3.05,0,1,0-3-3,3,3,0,0,0,3,3" transform="translate(-222.28 -107)"/><path class="cls-6" d="M575.53,207.65a3,3,0,1,0-3-3,3,3,0,0,0,3,3" transform="translate(-222.28 -107)"/><path class="cls-6" d="M928.67,175.85a3,3,0,1,0-3-3,3,3,0,0,0,3,3" transform="translate(-222.28 -107)"/><path class="cls-6" d="M386.22,608.86a3,3,0,1,0-3-3,3,3,0,0,0,3,3" transform="translate(-222.28 -107)"/><path class="cls-6" d="M836.1,743.47a3,3,0,1,0-3-3,3,3,0,0,0,3,3" transform="translate(-222.28 -107)"/><path class="cls-6" d="M475.74,720.94a3,3,0,1,0-3-3,3,3,0,0,0,3,3" transform="translate(-222.28 -107)"/><path class="cls-6" d="M440.24,312.5a3,3,0,1,0-3-3,3,3,0,0,0,3,3" transform="translate(-222.28 -107)"/><path class="cls-6" d="M498.58,606.68a3,3,0,1,0-3-3,3,3,0,0,0,3,3" transform="translate(-222.28 -107)"/><path class="cls-6" d="M926.45,153.78a3,3,0,1,0-3-3,3,3,0,0,0,3,3" transform="translate(-222.28 -107)"/><path class="cls-6" d="M820.64,653a3,3,0,1,0-3-3,3,3,0,0,0,3,3" transform="translate(-222.28 -107)"/><path class="cls-6" d="M906.32,454a3,3,0,1,0-3-3,3,3,0,0,0,3,3" transform="translate(-222.28 -107)"/><path class="cls-6" d="M413.51,737.47a3,3,0,1,0-3-3,3,3,0,0,0,3,3" transform="translate(-222.28 -107)"/><path class="cls-6" d="M300.54,268a3,3,0,1,0-3-3,3,3,0,0,0,3,3" transform="translate(-222.28 -107)"/><path class="cls-6" d="M365.53,171.07a3,3,0,1,0-3-3,3,3,0,0,0,3,3" transform="translate(-222.28 -107)"/><path class="cls-6" d="M459.07,917.09a3,3,0,1,0-3-3,3,3,0,0,0,3,3" transform="translate(-222.28 -107)"/><path class="cls-6" d="M963.35,634.51a3,3,0,1,0-3-3,3,3,0,0,0,3,3" transform="translate(-222.28 -107)"/><path class="cls-6" d="M333.73,333.9a3,3,0,1,0-2.94-2.95,2.95,2.95,0,0,0,2.94,2.95" transform="translate(-222.28 -107)"/><path class="cls-6" d="M652.92,810.09a3,3,0,1,0-2.95-3,2.95,2.95,0,0,0,2.95,3" transform="translate(-222.28 -107)"/><path class="cls-6" d="M542,514a2.94,2.94,0,1,0-2.94-2.94A2.94,2.94,0,0,0,542,514" transform="translate(-222.28 -107)"/><path class="cls-6" d="M750.2,492.36a2.92,2.92,0,1,0-2.92-2.92,2.93,2.93,0,0,0,2.92,2.92" transform="translate(-222.28 -107)"/><path class="cls-6" d="M950.68,565.83a2.91,2.91,0,1,0-2.9-2.91,2.91,2.91,0,0,0,2.9,2.91" transform="translate(-222.28 -107)"/><path class="cls-6" d="M527,734.12a2.9,2.9,0,1,0-2.89-2.9,2.9,2.9,0,0,0,2.89,2.9" transform="translate(-222.28 -107)"/><path class="cls-6" d="M939.76,869.27a2.9,2.9,0,1,0-2.9-2.9,2.9,2.9,0,0,0,2.9,2.9" transform="translate(-222.28 -107)"/><path class="cls-6" d="M416.54,762.16a2.9,2.9,0,1,0-2.9-2.9,2.9,2.9,0,0,0,2.9,2.9" transform="translate(-222.28 -107)"/><path class="cls-6" d="M811.53,489.87a2.89,2.89,0,1,0-2.89-2.89,2.88,2.88,0,0,0,2.89,2.89" transform="translate(-222.28 -107)"/><path class="cls-6" d="M466.62,681a2.89,2.89,0,1,0-2.89-2.89,2.89,2.89,0,0,0,2.89,2.89" transform="translate(-222.28 -107)"/><path class="cls-6" d="M733.73,777a2.87,2.87,0,1,0-2.87-2.87,2.87,2.87,0,0,0,2.87,2.87" transform="translate(-222.28 -107)"/><path class="cls-6" d="M958.42,614.38a2.87,2.87,0,1,0-2.88-2.87,2.88,2.88,0,0,0,2.88,2.87" transform="translate(-222.28 -107)"/><path class="cls-6" d="M429,457.47a2.87,2.87,0,1,0-2.86-2.86,2.87,2.87,0,0,0,2.86,2.86" transform="translate(-222.28 -107)"/><path class="cls-6" d="M329.76,155a2.85,2.85,0,1,0-2.85-2.85,2.86,2.86,0,0,0,2.85,2.85" transform="translate(-222.28 -107)"/><path class="cls-6" d="M364.87,741.6a2.85,2.85,0,1,0-2.85-2.85,2.85,2.85,0,0,0,2.85,2.85" transform="translate(-222.28 -107)"/><path class="cls-6" d="M948.78,481.09a2.83,2.83,0,1,0-2.82-2.82,2.82,2.82,0,0,0,2.82,2.82" transform="translate(-222.28 -107)"/><path class="cls-6" d="M817.4,840.27a2.82,2.82,0,1,0-2.82-2.82,2.82,2.82,0,0,0,2.82,2.82" transform="translate(-222.28 -107)"/><path class="cls-6" d="M533.25,843.92a2.82,2.82,0,1,0-2.82-2.82,2.82,2.82,0,0,0,2.82,2.82" transform="translate(-222.28 -107)"/><path class="cls-6" d="M672.48,534.34a2.8,2.8,0,1,0-2.8-2.8,2.79,2.79,0,0,0,2.8,2.8" transform="translate(-222.28 -107)"/><path class="cls-6" d="M939,230.39a2.79,2.79,0,1,0-2.8-2.78,2.79,2.79,0,0,0,2.8,2.78" transform="translate(-222.28 -107)"/><path class="cls-6" d="M746.52,696.5a2.79,2.79,0,1,0-2.78-2.8,2.8,2.8,0,0,0,2.78,2.8" transform="translate(-222.28 -107)"/><path class="cls-6" d="M922.85,301.83a2.78,2.78,0,1,0-2.78-2.77,2.78,2.78,0,0,0,2.78,2.77" transform="translate(-222.28 -107)"/><path class="cls-6" d="M416,928.84a2.79,2.79,0,1,0-2.79-2.78,2.78,2.78,0,0,0,2.79,2.78" transform="translate(-222.28 -107)"/><path class="cls-6" d="M696,232.84a2.78,2.78,0,1,0-2.77-2.77,2.77,2.77,0,0,0,2.77,2.77" transform="translate(-222.28 -107)"/><path class="cls-6" d="M621.19,365.49a2.77,2.77,0,1,0-2.77-2.77,2.77,2.77,0,0,0,2.77,2.77" transform="translate(-222.28 -107)"/><path class="cls-6" d="M347,694.6a2.78,2.78,0,1,0-2.78-2.77A2.77,2.77,0,0,0,347,694.6" transform="translate(-222.28 -107)"/><path class="cls-6" d="M666.72,436.82a2.77,2.77,0,1,0-2.77-2.77,2.78,2.78,0,0,0,2.77,2.77" transform="translate(-222.28 -107)"/><path class="cls-6" d="M799.17,908.49a2.77,2.77,0,1,0-2.77-2.77,2.77,2.77,0,0,0,2.77,2.77" transform="translate(-222.28 -107)"/><path class="cls-6" d="M513,801a2.76,2.76,0,1,0-2.76-2.76A2.76,2.76,0,0,0,513,801" transform="translate(-222.28 -107)"/><path class="cls-6" d="M500.45,586.21a2.77,2.77,0,1,0-2.76-2.76,2.76,2.76,0,0,0,2.76,2.76" transform="translate(-222.28 -107)"/><path class="cls-6" d="M386.67,567.46a2.76,2.76,0,1,0-2.76-2.76,2.76,2.76,0,0,0,2.76,2.76" transform="translate(-222.28 -107)"/><path class="cls-6" d="M452.49,844.53a2.75,2.75,0,1,0-2.74-2.74,2.74,2.74,0,0,0,2.74,2.74" transform="translate(-222.28 -107)"/><path class="cls-6" d="M366.29,389.58a2.74,2.74,0,1,0-2.74-2.74,2.74,2.74,0,0,0,2.74,2.74" transform="translate(-222.28 -107)"/><path class="cls-6" d="M273.42,910.49a2.73,2.73,0,1,0-2.73-2.74,2.74,2.74,0,0,0,2.73,2.74" transform="translate(-222.28 -107)"/><path class="cls-6" d="M632.52,778.59a2.72,2.72,0,1,0-2.72-2.72,2.72,2.72,0,0,0,2.72,2.72" transform="translate(-222.28 -107)"/><path class="cls-6" d="M977.39,807.74a2.73,2.73,0,1,0-2.72-2.73,2.73,2.73,0,0,0,2.72,2.73" transform="translate(-222.28 -107)"/><path class="cls-6" d="M597.43,390.16a2.72,2.72,0,1,0-2.72-2.72,2.72,2.72,0,0,0,2.72,2.72" transform="translate(-222.28 -107)"/><path class="cls-6" d="M525.93,391.91a2.72,2.72,0,1,0-2.72-2.71,2.72,2.72,0,0,0,2.72,2.71" transform="translate(-222.28 -107)"/><path class="cls-6" d="M628.85,926.28a2.72,2.72,0,1,0-2.71-2.72,2.72,2.72,0,0,0,2.71,2.72" transform="translate(-222.28 -107)"/><path class="cls-6" d="M432.09,622.23a2.71,2.71,0,1,0-2.7-2.7,2.71,2.71,0,0,0,2.7,2.7" transform="translate(-222.28 -107)"/><path class="cls-6" d="M957.85,811.81a2.7,2.7,0,1,0-2.7-2.7,2.7,2.7,0,0,0,2.7,2.7" transform="translate(-222.28 -107)"/><path class="cls-6" d="M635,883.35a2.68,2.68,0,1,0-2.68-2.68,2.68,2.68,0,0,0,2.68,2.68" transform="translate(-222.28 -107)"/><path class="cls-6" d="M645.76,149.39a2.68,2.68,0,1,0-2.68-2.68,2.67,2.67,0,0,0,2.68,2.68" transform="translate(-222.28 -107)"/><path class="cls-6" d="M304.64,770.58a2.68,2.68,0,1,0-2.67-2.67,2.68,2.68,0,0,0,2.67,2.67" transform="translate(-222.28 -107)"/><path class="cls-6" d="M299.73,238.66a2.67,2.67,0,1,0-2.67-2.66,2.67,2.67,0,0,0,2.67,2.66" transform="translate(-222.28 -107)"/><path class="cls-6" d="M930.09,750a2.66,2.66,0,1,0-2.66-2.65,2.66,2.66,0,0,0,2.66,2.65" transform="translate(-222.28 -107)"/><path class="cls-6" d="M831.7,525.55a2.66,2.66,0,1,0-2.65-2.66,2.67,2.67,0,0,0,2.65,2.66" transform="translate(-222.28 -107)"/><path class="cls-6" d="M656.11,907.61a2.66,2.66,0,1,0-2.66-2.66,2.66,2.66,0,0,0,2.66,2.66" transform="translate(-222.28 -107)"/><path class="cls-6" d="M637.46,618.17a2.66,2.66,0,1,0-2.66-2.66,2.66,2.66,0,0,0,2.66,2.66" transform="translate(-222.28 -107)"/><path class="cls-6" d="M796.77,162.74a2.63,2.63,0,1,0-2.62-2.62,2.62,2.62,0,0,0,2.62,2.62" transform="translate(-222.28 -107)"/><path class="cls-6" d="M558.19,908.11a2.62,2.62,0,1,0-2.62-2.62,2.62,2.62,0,0,0,2.62,2.62" transform="translate(-222.28 -107)"/><path class="cls-6" d="M500.46,413.06a2.62,2.62,0,1,0-2.62-2.61,2.61,2.61,0,0,0,2.62,2.61" transform="translate(-222.28 -107)"/><path class="cls-6" d="M289,478.4a2.62,2.62,0,1,0-2.62-2.61A2.6,2.6,0,0,0,289,478.4" transform="translate(-222.28 -107)"/><path class="cls-6" d="M288,210.25a2.61,2.61,0,1,0-2.61-2.61,2.61,2.61,0,0,0,2.61,2.61" transform="translate(-222.28 -107)"/><path class="cls-6" d="M353.86,155.25a2.62,2.62,0,1,0-2.6-2.61,2.61,2.61,0,0,0,2.6,2.61" transform="translate(-222.28 -107)"/><path class="cls-6" d="M451.26,302.28a2.6,2.6,0,1,0-2.6-2.6,2.61,2.61,0,0,0,2.6,2.6" transform="translate(-222.28 -107)"/><path class="cls-6" d="M374.45,888.37a2.61,2.61,0,1,0-2.61-2.6,2.6,2.6,0,0,0,2.61,2.6" transform="translate(-222.28 -107)"/><path class="cls-6" d="M777.75,703.78a2.6,2.6,0,1,0-2.6-2.6,2.6,2.6,0,0,0,2.6,2.6" transform="translate(-222.28 -107)"/><path class="cls-6" d="M546.75,465.26a2.6,2.6,0,1,0-2.59-2.6,2.61,2.61,0,0,0,2.59,2.6" transform="translate(-222.28 -107)"/><path class="cls-6" d="M372.66,332.36a2.6,2.6,0,1,0-2.6-2.6,2.61,2.61,0,0,0,2.6,2.6" transform="translate(-222.28 -107)"/><path class="cls-6" d="M286.37,880a2.6,2.6,0,1,0-2.59-2.6,2.59,2.59,0,0,0,2.59,2.6" transform="translate(-222.28 -107)"/><path class="cls-6" d="M796.55,748.09a2.59,2.59,0,1,0-2.6-2.59,2.58,2.58,0,0,0,2.6,2.59" transform="translate(-222.28 -107)"/><path class="cls-6" d="M292.49,619.21a2.59,2.59,0,1,0-2.59-2.59,2.58,2.58,0,0,0,2.59,2.59" transform="translate(-222.28 -107)"/><path class="cls-6" d="M829.8,329.19a2.59,2.59,0,1,0-2.59-2.59,2.6,2.6,0,0,0,2.59,2.59" transform="translate(-222.28 -107)"/><path class="cls-6" d="M644.87,482.66a2.59,2.59,0,1,0-2.59-2.59,2.59,2.59,0,0,0,2.59,2.59" transform="translate(-222.28 -107)"/><path class="cls-6" d="M615,669.94a2.58,2.58,0,1,0-2.58-2.58,2.59,2.59,0,0,0,2.58,2.58" transform="translate(-222.28 -107)"/><path class="cls-6" d="M534.41,459.65a2.58,2.58,0,1,0-2.58-2.57,2.57,2.57,0,0,0,2.58,2.57" transform="translate(-222.28 -107)"/><path class="cls-6" d="M454.27,229.27a2.56,2.56,0,1,0-2.56-2.56,2.56,2.56,0,0,0,2.56,2.56" transform="translate(-222.28 -107)"/><path class="cls-6" d="M976,695.52a2.56,2.56,0,1,0-2.55-2.56,2.56,2.56,0,0,0,2.55,2.56" transform="translate(-222.28 -107)"/><path class="cls-6" d="M697,273a2.56,2.56,0,1,0-2.55-2.55A2.56,2.56,0,0,0,697,273" transform="translate(-222.28 -107)"/><path class="cls-6" d="M889.82,731.63a2.55,2.55,0,1,0-2.53-2.54,2.54,2.54,0,0,0,2.53,2.54" transform="translate(-222.28 -107)"/><path class="cls-6" d="M721,681.38a2.54,2.54,0,1,0-2.54-2.53,2.54,2.54,0,0,0,2.54,2.53" transform="translate(-222.28 -107)"/><path class="cls-6" d="M883.8,613.57a2.54,2.54,0,1,0-2.54-2.54,2.54,2.54,0,0,0,2.54,2.54" transform="translate(-222.28 -107)"/><path class="cls-6" d="M574.87,896.94a2.54,2.54,0,1,0-2.54-2.54,2.54,2.54,0,0,0,2.54,2.54" transform="translate(-222.28 -107)"/><path class="cls-6" d="M581.18,496.59a2.54,2.54,0,1,0-2.53-2.53,2.53,2.53,0,0,0,2.53,2.53" transform="translate(-222.28 -107)"/><path class="cls-6" d="M955.66,322.85a2.54,2.54,0,1,0-2.53-2.53,2.53,2.53,0,0,0,2.53,2.53" transform="translate(-222.28 -107)"/><path class="cls-6" d="M855.71,435.87a2.54,2.54,0,1,0-2.53-2.54,2.53,2.53,0,0,0,2.53,2.54" transform="translate(-222.28 -107)"/><path class="cls-6" d="M304.46,355.39a2.53,2.53,0,1,0-2.53-2.53,2.53,2.53,0,0,0,2.53,2.53" transform="translate(-222.28 -107)"/><path class="cls-6" d="M428.45,933.62a2.53,2.53,0,1,0-2.53-2.53,2.53,2.53,0,0,0,2.53,2.53" transform="translate(-222.28 -107)"/><path class="cls-6" d="M822,156.69a2.53,2.53,0,1,0-2.53-2.53,2.53,2.53,0,0,0,2.53,2.53" transform="translate(-222.28 -107)"/><path class="cls-6" d="M470.1,776.09a2.53,2.53,0,1,0-2.53-2.52,2.52,2.52,0,0,0,2.53,2.52" transform="translate(-222.28 -107)"/><path class="cls-6" d="M928.48,337.21a2.53,2.53,0,1,0-2.53-2.53,2.53,2.53,0,0,0,2.53,2.53" transform="translate(-222.28 -107)"/><path class="cls-6" d="M358.12,454.89a2.52,2.52,0,1,0-2.52-2.52,2.52,2.52,0,0,0,2.52,2.52" transform="translate(-222.28 -107)"/><path class="cls-6" d="M508.26,433.34a2.52,2.52,0,1,0-2.52-2.52,2.52,2.52,0,0,0,2.52,2.52" transform="translate(-222.28 -107)"/><path class="cls-6" d="M554.52,230.31A2.51,2.51,0,1,0,552,227.8a2.51,2.51,0,0,0,2.52,2.51" transform="translate(-222.28 -107)"/><path class="cls-6" d="M681.22,710.82a2.52,2.52,0,1,0-2.51-2.52,2.51,2.51,0,0,0,2.51,2.52" transform="translate(-222.28 -107)"/><path class="cls-6" d="M542.15,286.22a2.51,2.51,0,1,0-2.52-2.51,2.51,2.51,0,0,0,2.52,2.51" transform="translate(-222.28 -107)"/><path class="cls-6" d="M723.85,603.54a2.51,2.51,0,1,0-2.51-2.5,2.5,2.5,0,0,0,2.51,2.5" transform="translate(-222.28 -107)"/><path class="cls-6" d="M437.68,395.62a2.51,2.51,0,1,0-2.51-2.5,2.51,2.51,0,0,0,2.51,2.5" transform="translate(-222.28 -107)"/><path class="cls-6" d="M370.77,771.72a2.51,2.51,0,1,0-2.51-2.5,2.51,2.51,0,0,0,2.51,2.5" transform="translate(-222.28 -107)"/><path class="cls-6" d="M810.83,287.42a2.5,2.5,0,1,0-2.5-2.5,2.51,2.51,0,0,0,2.5,2.5" transform="translate(-222.28 -107)"/><path class="cls-6" d="M689.26,173.24a2.5,2.5,0,1,0-2.5-2.5,2.5,2.5,0,0,0,2.5,2.5" transform="translate(-222.28 -107)"/><path class="cls-6" d="M275.76,453a2.5,2.5,0,1,0-2.5-2.49,2.5,2.5,0,0,0,2.5,2.49" transform="translate(-222.28 -107)"/><path class="cls-6" d="M568.67,610.1a2.5,2.5,0,1,0-2.5-2.5,2.49,2.49,0,0,0,2.5,2.5" transform="translate(-222.28 -107)"/><path class="cls-6" d="M862.44,919.42a2.49,2.49,0,1,0-2.49-2.49,2.48,2.48,0,0,0,2.49,2.49" transform="translate(-222.28 -107)"/><path class="cls-6" d="M610.86,373.31a2.49,2.49,0,1,0-2.49-2.49,2.49,2.49,0,0,0,2.49,2.49" transform="translate(-222.28 -107)"/><path class="cls-6" d="M902.91,713.55a2.49,2.49,0,1,0-2.48-2.49,2.49,2.49,0,0,0,2.48,2.49" transform="translate(-222.28 -107)"/><path class="cls-6" d="M965.56,927.32a2.49,2.49,0,1,0-2.48-2.48,2.48,2.48,0,0,0,2.48,2.48" transform="translate(-222.28 -107)"/><path class="cls-6" d="M569.64,150.46a2.49,2.49,0,1,0-2.49-2.48,2.48,2.48,0,0,0,2.49,2.48" transform="translate(-222.28 -107)"/><path class="cls-6" d="M262.56,552.78a2.48,2.48,0,1,0-2.48-2.48,2.48,2.48,0,0,0,2.48,2.48" transform="translate(-222.28 -107)"/><path class="cls-6" d="M926.4,399.41a2.48,2.48,0,1,0-2.48-2.49,2.48,2.48,0,0,0,2.48,2.49" transform="translate(-222.28 -107)"/><path class="cls-6" d="M840.28,783.11a2.48,2.48,0,1,0-2.49-2.48,2.47,2.47,0,0,0,2.49,2.48" transform="translate(-222.28 -107)"/><path class="cls-6" d="M523.78,757.7a2.48,2.48,0,1,0-2.47-2.48,2.48,2.48,0,0,0,2.47,2.48" transform="translate(-222.28 -107)"/><path class="cls-6" d="M703.61,812.07a2.48,2.48,0,1,0-2.48-2.48,2.48,2.48,0,0,0,2.48,2.48" transform="translate(-222.28 -107)"/><path class="cls-6" d="M657.93,901.28a2.48,2.48,0,1,0-2.48-2.48,2.48,2.48,0,0,0,2.48,2.48" transform="translate(-222.28 -107)"/><path class="cls-6" d="M561,722.52a2.47,2.47,0,0,0,0-4.93,2.47,2.47,0,1,0,0,4.93" transform="translate(-222.28 -107)"/><path class="cls-6" d="M862.49,312.15a2.47,2.47,0,1,0-2.47-2.47,2.48,2.48,0,0,0,2.47,2.47" transform="translate(-222.28 -107)"/><path class="cls-6" d="M753.57,174.6a2.47,2.47,0,1,0-2.46-2.46,2.47,2.47,0,0,0,2.46,2.46" transform="translate(-222.28 -107)"/><path class="cls-6" d="M930.68,371.43A2.47,2.47,0,1,0,928.2,369a2.47,2.47,0,0,0,2.48,2.47" transform="translate(-222.28 -107)"/><path class="cls-6" d="M341.83,407.18a2.46,2.46,0,1,0-2.46-2.46,2.46,2.46,0,0,0,2.46,2.46" transform="translate(-222.28 -107)"/><path class="cls-6" d="M585,441.45a2.46,2.46,0,1,0-2.46-2.46,2.46,2.46,0,0,0,2.46,2.46" transform="translate(-222.28 -107)"/><path class="cls-6" d="M509.33,465a2.46,2.46,0,1,0-2.47-2.46,2.46,2.46,0,0,0,2.47,2.46" transform="translate(-222.28 -107)"/><path class="cls-6" d="M780.62,318.68a2.47,2.47,0,1,0-2.46-2.47,2.47,2.47,0,0,0,2.46,2.47" transform="translate(-222.28 -107)"/><path class="cls-6" d="M574.67,671.62a2.46,2.46,0,1,0-2.46-2.46,2.46,2.46,0,0,0,2.46,2.46" transform="translate(-222.28 -107)"/><path class="cls-6" d="M798.64,752.54a2.46,2.46,0,1,0-2.46-2.46,2.47,2.47,0,0,0,2.46,2.46" transform="translate(-222.28 -107)"/><path class="cls-6" d="M639.36,748.15a2.47,2.47,0,1,0-2.46-2.46,2.46,2.46,0,0,0,2.46,2.46" transform="translate(-222.28 -107)"/><path class="cls-6" d="M751.55,607.19a2.46,2.46,0,1,0-2.46-2.46,2.46,2.46,0,0,0,2.46,2.46" transform="translate(-222.28 -107)"/><path class="cls-6" d="M577.35,154.76a2.46,2.46,0,1,0-2.45-2.46,2.46,2.46,0,0,0,2.45,2.46" transform="translate(-222.28 -107)"/></g></g><g id="orion_planet"><path class="cls-7" d="M710.82,373.15a3.5,3.5,0,1,0-3.5-3.5,3.49,3.49,0,0,0,3.5,3.5" transform="translate(-222.28 -107)"/><path class="cls-8" d="M710.82,373.15a3.5,3.5,0,1,0-3.5-3.5A3.49,3.49,0,0,0,710.82,373.15Z" transform="translate(-222.28 -107)"/><path class="cls-7" d="M742.88,403.23a4.14,4.14,0,1,0-4.14-4.14,4.14,4.14,0,0,0,4.14,4.14" transform="translate(-222.28 -107)"/><path class="cls-8" d="M742.88,403.23a4.14,4.14,0,1,0-4.14-4.14A4.14,4.14,0,0,0,742.88,403.23Z" transform="translate(-222.28 -107)"/><path class="cls-7" d="M749.32,455.56a3.51,3.51,0,1,0-3.51-3.51,3.51,3.51,0,0,0,3.51,3.51" transform="translate(-222.28 -107)"/><path class="cls-8" d="M749.32,455.56a3.51,3.51,0,1,0-3.51-3.51A3.51,3.51,0,0,0,749.32,455.56Z" transform="translate(-222.28 -107)"/><path class="cls-7" d="M766.29,475.35a3.82,3.82,0,1,0-3.82-3.81,3.82,3.82,0,0,0,3.82,3.81" transform="translate(-222.28 -107)"/><path class="cls-8" d="M766.3,475.35a3.82,3.82,0,1,0-3.83-3.81A3.82,3.82,0,0,0,766.3,475.35Z" transform="translate(-222.28 -107)"/><path class="cls-7" d="M736.67,589a3.71,3.71,0,1,0-3.71-3.71,3.71,3.71,0,0,0,3.71,3.71" transform="translate(-222.28 -107)"/><path class="cls-8" d="M736.67,589a3.71,3.71,0,1,0-3.71-3.71A3.71,3.71,0,0,0,736.67,589Z" transform="translate(-222.28 -107)"/><path class="cls-7" d="M753.47,578.19a4.62,4.62,0,1,0-4.61-4.61,4.61,4.61,0,0,0,4.61,4.61" transform="translate(-222.28 -107)"/><path class="cls-8" d="M753.47,578.19a4.62,4.62,0,1,0-4.61-4.61A4.61,4.61,0,0,0,753.47,578.19Z" transform="translate(-222.28 -107)"/><path class="cls-7" d="M764.74,528.17a4.66,4.66,0,1,0-4.65-4.65,4.65,4.65,0,0,0,4.65,4.65" transform="translate(-222.28 -107)"/><path class="cls-8" d="M764.74,528.17a4.66,4.66,0,1,0-4.65-4.65A4.65,4.65,0,0,0,764.74,528.17Z" transform="translate(-222.28 -107)"/><path class="cls-7" d="M769.79,507.45a5.39,5.39,0,1,0-5.38-5.4,5.39,5.39,0,0,0,5.38,5.4" transform="translate(-222.28 -107)"/><path class="cls-8" d="M769.79,507.45a5.39,5.39,0,1,0-5.38-5.4A5.39,5.39,0,0,0,769.79,507.45Z" transform="translate(-222.28 -107)"/><path class="cls-7" d="M486.28,464.2a4.08,4.08,0,1,0-4.07-4.08,4.07,4.07,0,0,0,4.07,4.08" transform="translate(-222.28 -107)"/><path class="cls-8" d="M486.28,464.2a4.08,4.08,0,1,0-4.07-4.08A4.07,4.07,0,0,0,486.28,464.2Z" transform="translate(-222.28 -107)"/><path class="cls-7" d="M634.48,656.25a5.46,5.46,0,1,0-5.46-5.46,5.45,5.45,0,0,0,5.46,5.46" transform="translate(-222.28 -107)"/><path class="cls-8" d="M634.48,656.25a5.46,5.46,0,1,0-5.46-5.46A5.45,5.45,0,0,0,634.48,656.25Z" transform="translate(-222.28 -107)"/><path class="cls-7" d="M592.52,461.45a5.09,5.09,0,1,0-5.09-5.09,5.09,5.09,0,0,0,5.09,5.09" transform="translate(-222.28 -107)"/><path class="cls-8" d="M592.52,461.45a5.09,5.09,0,1,0-5.09-5.09A5.09,5.09,0,0,0,592.52,461.45Z" transform="translate(-222.28 -107)"/><path class="cls-7" d="M519,296.65a3.78,3.78,0,1,0-3.77-3.78,3.78,3.78,0,0,0,3.77,3.78" transform="translate(-222.28 -107)"/><path class="cls-8" d="M519,296.65a3.78,3.78,0,1,0-3.77-3.78A3.78,3.78,0,0,0,519,296.65Z" transform="translate(-222.28 -107)"/><path class="cls-7" d="M482.43,298.17a3.53,3.53,0,1,0-3.53-3.53,3.53,3.53,0,0,0,3.53,3.53" transform="translate(-222.28 -107)"/><path class="cls-8" d="M482.43,298.17a3.53,3.53,0,1,0-3.53-3.53A3.53,3.53,0,0,0,482.43,298.17Z" transform="translate(-222.28 -107)"/><path class="cls-7" d="M450.17,391.4a3.72,3.72,0,1,0-3.71-3.72,3.72,3.72,0,0,0,3.71,3.72" transform="translate(-222.28 -107)"/><path class="cls-8" d="M450.17,391.4a3.72,3.72,0,1,0-3.71-3.72A3.72,3.72,0,0,0,450.17,391.4Z" transform="translate(-222.28 -107)"/><path class="cls-7" d="M467.21,382.87a3.76,3.76,0,1,0-3.76-3.75,3.76,3.76,0,0,0,3.76,3.75" transform="translate(-222.28 -107)"/><path class="cls-8" d="M467.21,382.87a3.76,3.76,0,1,0-3.76-3.75A3.76,3.76,0,0,0,467.21,382.87Z" transform="translate(-222.28 -107)"/><path class="cls-7" d="M674.48,755.75a13.59,13.59,0,1,0-13.58-13.59,13.59,13.59,0,0,0,13.58,13.59" transform="translate(-222.28 -107)"/><path class="cls-9" d="M674.48,755.75a13.59,13.59,0,1,0-13.58-13.59A13.59,13.59,0,0,0,674.48,755.75Z" transform="translate(-222.28 -107)"/><path class="cls-7" d="M514.06,508.4a12.64,12.64,0,1,0-12.64-12.64,12.64,12.64,0,0,0,12.64,12.64" transform="translate(-222.28 -107)"/><path class="cls-9" d="M514.06,508.4a12.64,12.64,0,1,0-12.64-12.64A12.64,12.64,0,0,0,514.06,508.4Z" transform="translate(-222.28 -107)"/><path class="cls-10" d="M514.06,506.69a10.93,10.93,0,1,0-10.93-10.94,10.93,10.93,0,0,0,10.93,10.94" transform="translate(-222.28 -107)"/><path class="cls-7" d="M514.06,505.51a9.75,9.75,0,1,0-9.75-9.75,9.76,9.76,0,0,0,9.75,9.75" transform="translate(-222.28 -107)"/><path class="cls-8" d="M514.06,505.51a9.75,9.75,0,1,0-9.75-9.75A9.76,9.76,0,0,0,514.06,505.51Z" transform="translate(-222.28 -107)"/><path class="cls-7" d="M631.62,521.56a8.68,8.68,0,1,0-8.68-8.68,8.68,8.68,0,0,0,8.68,8.68" transform="translate(-222.28 -107)"/><path class="cls-7" d="M587.91,640.46a8.52,8.52,0,1,0-8.52-8.52,8.51,8.51,0,0,0,8.52,8.52" transform="translate(-222.28 -107)"/><path class="cls-8" d="M587.91,640.46a8.52,8.52,0,1,0-8.52-8.52A8.51,8.51,0,0,0,587.91,640.46Z" transform="translate(-222.28 -107)"/><path class="cls-7" d="M569.85,652.08a8.52,8.52,0,1,0-8.53-8.52,8.52,8.52,0,0,0,8.53,8.52" transform="translate(-222.28 -107)"/><path class="cls-8" d="M569.85,652.08a8.52,8.52,0,1,0-8.53-8.52A8.52,8.52,0,0,0,569.85,652.08Z" transform="translate(-222.28 -107)"/><path class="cls-7" d="M541.26,772.9a7.65,7.65,0,1,0-7.66-7.65,7.65,7.65,0,0,0,7.66,7.65" transform="translate(-222.28 -107)"/><path class="cls-8" d="M541.26,772.9a7.65,7.65,0,1,0-7.66-7.65A7.65,7.65,0,0,0,541.26,772.9Z" transform="translate(-222.28 -107)"/><path class="cls-7" d="M604.6,625a7.3,7.3,0,1,0-7.29-7.29A7.3,7.3,0,0,0,604.6,625" transform="translate(-222.28 -107)"/></g></svg>