
<svg width="114px" height="127px" viewBox="0 0 114 127" version="1.1" xmlns="http://www.w3.org/2000/svg" xmlns:xlink="http://www.w3.org/1999/xlink">
    <!-- Generator: Sketch 43.1 (39012) - http://www.bohemiancoding.com/sketch -->
    <desc>Created with Sketch.</desc>
    <defs>
          <style type="text/css">

	path {
		filter: url(#filter);
     		}
</style>
		<filter id="filter">
		    <feFlood flood-color="rgba(240,240,240,0)" result="black" />
		    <feFlood flood-color="rgba(240,240,240,0)" result="flood1" />
		    <feFlood flood-color="rgba(240,240,240,0)" result="flood2" />
			<feOffset in="SourceGraphic" dx="2" dy="0" result="off1a"/>
			<feOffset in="SourceGraphic" dx="1" dy="0" result="off1b"/>
			<feOffset in="SourceGraphic" dx="2" dy="0" result="off2a"/>
			<feOffset in="SourceGraphic" dx="1" dy="0" result="off2b"/>
		    <feComposite in="flood1" in2="off1a" operator="in"  result="comp1" />
		    <feComposite in="flood2" in2="off2a" operator="in" result="comp2" />

 		  	<feMerge x="0" width="100%" result="merge1">
				<feMergeNode in = "black" />
				<feMergeNode in = "comp1" />
				<feMergeNode in = "off1b" />

				<animate 
					attributeName="y" 
		    		id = "y"
		    		dur ="3s"
		    		begin="5s; 12s; 19s; 26s;"
           end="7s; 14s; 21s; 28s;"
                         restart="whenNotActive"
                           
		    		values = '103px; 104px; 30px; 105px; 30px; 2px; 2px; 50px; 40px; 105px; 105px; 20px; 6ßpx; 40px; 104px; 40px; 70px; 10px; 30px; 104px; 102px'

		    		keyTimes = '0; 0.362; 0.368; 0.421; 0.440; 0.477; 0.518; 0.564; 0.593; 0.613; 0.644; 0.693; 0.721; 0.736; 0.772; 0.818; 0.844; 0.894; 0.925; 0.939; 1'

		    		repeatCount = "indefinite" />
 
				<animate attributeName="height" 
		    		id = "h" 
		    		dur ="3s"
		    		begin="5s; 12s; 19s; 26s;"
           end="7s; 14s; 21s; 28s;"
                         restart="whenNotActive"
                         
		    		values = '0px; 0px; 10px; 30px; 50px; 0px; 10px; 0px; 0px; 0px; 10px; 50px; 40px; 0px; 0px; 0px; 40px; 30px; 10px; 0px; 50px'

		    		keyTimes = '0; 0.362; 0.368; 0.421; 0.440; 0.477; 0.518; 0.564; 0.593; 0.613; 0.644; 0.693; 0.721; 0.736; 0.772; 0.818; 0.844; 0.894; 0.925; 0.939; 1'

		    		repeatCount = "indefinite" />
		    </feMerge>
 			

 			<feMerge x="0" width="100%" y="60px" height="65px" result="merge2">
				<feMergeNode in = "black" />
				<feMergeNode in = "comp2" />
				<feMergeNode in = "off2b" />

				<animate attributeName="y" 
		    		id = "y"
		    		dur ="3s"
                    begin="5s; 12s; 19s; 26s;"
           end="7s; 14s; 21s; 28s;"
                         restart="whenNotActive"
                         
		    		values = '103px; 104px; 69px; 53px; 42px; 104px; 78px; 89px; 96px; 100px; 67px; 50px; 96px; 66px; 88px; 42px; 13px; 100px; 100px; 104px;' 

		    		keyTimes = '0; 0.055; 0.100; 0.125; 0.159; 0.182; 0.202; 0.236; 0.268; 0.326; 0.357; 0.400; 0.408; 0.461; 0.493; 0.513; 0.548; 0.577; 0.613; 1'

 		    		repeatCount = "indefinite" />
 
				<animate attributeName="height" 
		    		id = "h"
		    		dur = "3s"
					begin="5s; 12s; 19s; 26s;"
           end="7s; 14s; 21s; 28s;"
                         restart="whenNotActive"
                         
					values = '0px; 0px; 0px; 16px; 16px; 12px; 12px; 0px; 0px; 5px; 10px; 22px; 33px; 11px; 0px; 0px; 10px'

		    		keyTimes = '0; 0.055; 0.100; 0.125; 0.159; 0.182; 0.202; 0.236; 0.268; 0.326; 0.357; 0.400; 0.408; 0.461; 0.493; 0.513;  1'
		    		 
		    		repeatCount = "indefinite" />
		    </feMerge>
			
		 	<feMerge>
 				<feMergeNode in="SourceGraphic" />	

				<feMergeNode in="merge1" /> 
 			<feMergeNode in="merge2" />

		    </feMerge>
	    </filter>
    </defs>
    <g id="Page-1" stroke="none" stroke-width="1" fill="none" fill-rule="evenodd">
        <g id="HOME" transform="translate(-517.000000, -161.000000)" fill-rule="nonzero" fill="#1A1A1A">
            <g id="UFO-02" transform="translate(584.000000, 223.500000) rotate(-23.000000) translate(-584.000000, -223.500000) translate(527.000000, 161.000000)">
                <path d="M56.7695302,30.8013155 C66.8263323,30.8013155 75.0595009,33.7728627 75.8238179,37.54427 C75.8595754,37.3565933 75.8863935,37.1644481 75.8863935,36.972303 C75.8863935,32.9327862 67.3269376,29.66185 56.7695302,29.66185 C46.2121229,29.66185 37.6526669,32.9327862 37.6526669,36.972303 C37.6526669,37.1644481 37.6794851,37.3521248 37.7152426,37.54427 C38.4795595,33.7728627 46.7171979,30.8013155 56.7695302,30.8013155 Z" id="Shape"></path>
                <path d="M41.729024,92.6184341 C41.729024,92.6184341 37.5230459,113.003695 38.2337266,124.648585 C38.2337266,124.648585 42.1089477,106.542255 41.729024,92.6184341 Z" id="Shape"></path>
                <path d="M64.064064,104.013089 C64.064064,104.013089 63.3042167,114.268278 65.2038349,123.509119 C65.2038349,123.513588 66.4687571,113.128812 64.064064,104.013089 Z" id="Shape"></path>
                <path d="M75.8863935,81.8717108 C75.8863935,81.8717108 77.4910122,102.904903 81.5003239,121.574262 C81.5003239,121.569794 80.3739621,100.223808 75.8863935,81.8717108 Z" id="Shape"></path>
                <path d="M56.7695302,9.05763332 C86.6672853,9.05763332 111.165655,17.909716 113.373682,29.1479734 C113.373682,29.09882 113.378152,29.0451981 113.378152,28.9960447 C113.378152,19.2904801 96.6749208,11.0773917 73.6649577,8.32926913 C76.9233616,8.23543079 81.4735058,8.26224175 84.7095612,8.53035127 C80.4812347,3.73119084 69.5707218,0.312794441 56.7695302,0.312794441 C43.9683386,0.312794441 33.0622955,3.73119084 28.8294993,8.52588277 C32.0655547,8.25777325 36.6201686,8.2309623 39.8741028,8.32480063 C16.8641396,11.0773917 0.160908833,19.2904801 0.160908833,28.9960447 C0.160908833,29.0451981 0.165378523,29.09882 0.165378523,29.1479734 C2.37340529,17.909716 26.8717751,9.05763332 56.7695302,9.05763332 Z M67.2151953,3.99036337 C60.2514186,3.641821 53.2876419,3.66416346 46.3283348,3.99036337 C53.2921116,1.18415039 60.2692974,1.17074491 67.2151953,3.99036337 Z" id="Shape"></path>
                <g id="Group" transform="translate(0.000000, 9.830682)">
                    <path d="M53.8016562,107.413611 C53.8016562,107.413611 58.1059675,69.176725 55.1961994,47.4017633 C55.1961994,47.3972949 51.5221144,86.1391207 53.8016562,107.413611 Z" id="Shape"></path>
                    <path d="M113.248531,20.6399646 C111.281867,9.31680586 86.7477398,0.366416346 56.7695302,0.366416346 C26.7913207,0.366416346 2.26166304,9.31680586 0.290529837,20.6399646 C1.76105778,28.9826392 15.590278,36.0249827 34.827823,39.1216476 L26.7555632,101.586698 L37.3934249,46.5125334 C37.8582727,43.8582492 39.4316035,41.695499 41.6887968,40.0376885 C41.6932665,40.03322 41.6977362,40.0287515 41.7022059,40.0287515 C42.5290985,40.1181214 43.3783396,40.1896172 44.2186413,40.2611131 C42.36372,49.6628203 40.2406173,63.5866414 40.6831166,76.5229258 C40.6831166,76.5229258 45.0231854,56.7364432 46.4043196,40.4353843 C49.7655263,40.6766829 53.2205965,40.8196746 56.7650605,40.8196746 C59.4736926,40.8196746 62.1286883,40.7392417 64.7300478,40.59625 C65.6105767,54.7971176 67.5101948,75.9554274 71.5820823,97.0333042 C71.5820823,97.0333042 70.5495839,67.9747006 66.7861051,40.4577268 C68.4488297,40.341546 70.0981452,40.2074912 71.7072336,40.042157 C71.7117033,40.0466255 71.7206426,40.051094 71.7251123,40.0555625 C73.9867754,41.713373 75.5958637,43.8627177 76.1411659,46.5170019 L86.7790276,101.591166 L78.7112375,39.1216476 C97.9487824,36.0249827 111.778003,28.9826392 113.248531,20.6399646 Z M20.9628452,22.5703532 C19.4699688,22.0028547 18.5760308,20.7114605 18.9648938,19.6881758 C19.3537569,18.6648912 20.8823908,18.2940063 22.3707975,18.8615048 C23.8636739,19.4290033 24.7576118,20.7203975 24.3687488,21.7436822 C23.9798858,22.7669668 22.4512519,23.1378517 20.9628452,22.5703532 Z M25.4817016,34.0677832 C24.3866276,34.139279 23.4614018,33.5896545 23.4122352,32.8389479 C23.3630686,32.0882412 24.2123097,31.4224359 25.302914,31.35094 C26.397988,31.2794441 27.3232138,31.8290687 27.3723804,32.5797753 C27.421547,33.330482 26.5767756,33.9962873 25.4817016,34.0677832 Z M41.8765238,39.9036337 C42.0329629,39.7919214 42.1894021,39.6802091 42.3547806,39.5729653 C42.4039472,39.5416859 42.4531138,39.5104064 42.5022804,39.479127 C42.6900073,39.3584777 42.882204,39.2378284 43.0788704,39.1261161 C43.1325066,39.0948367 43.1861429,39.0635572 43.2397792,39.0322778 C43.458794,38.90716 43.6822785,38.7865107 43.9147023,38.6658615 C43.9370508,38.652456 43.9638689,38.6390505 43.9862174,38.625645 C44.1828837,38.5228697 44.4018985,38.4424368 44.6030346,38.34413 C44.5002317,38.8446011 44.3974288,39.3584777 44.2901563,39.8857598 C43.4900818,39.8991652 42.681068,39.9081022 41.8765238,39.9036337 Z M56.7695302,39.6757406 C53.2965813,39.6757406 49.8593898,39.7963899 46.4534862,39.8634173 C46.5160618,39.0680257 46.5741678,38.2815711 46.6233344,37.508522 C46.6367434,37.5040535 46.6501525,37.499585 46.6635616,37.4951165 C46.9183339,37.4057467 47.1775759,37.3208454 47.4412876,37.235944 C47.4725754,37.227007 47.4993936,37.21807 47.5306814,37.2091331 C48.1296198,37.0259249 48.7419673,36.8605907 49.3677239,36.7131304 C49.4302996,36.699725 49.4973449,36.6863195 49.5599206,36.6684455 C49.8102232,36.6103551 50.0605258,36.5567332 50.3152982,36.5075798 C50.3868132,36.4941743 50.4538585,36.4807689 50.5253736,36.4673634 C50.8024943,36.4137415 51.0796151,36.3645881 51.3612056,36.3199031 C51.3969631,36.3154346 51.4327206,36.3064977 51.4729478,36.3020292 C52.1210528,36.1992539 52.7736275,36.118821 53.4351416,36.0562621 C53.5066567,36.0517936 53.573702,36.0428566 53.6452171,36.0383881 C53.9044591,36.0160457 54.1681708,35.9937032 54.4274128,35.9758293 C54.5033975,35.9713608 54.5793822,35.9668923 54.6598366,35.9624238 C54.9458968,35.9445498 55.2319569,35.9311443 55.5180171,35.9222073 C55.5582443,35.9222073 55.6029412,35.9177389 55.6431684,35.9177389 C55.9828648,35.9088019 56.3270309,35.8998649 56.6667274,35.8998649 L56.6667274,35.8998649 C56.9930147,35.8998649 57.3148324,35.9043334 57.6411197,35.9132704 C57.7126348,35.9132704 57.7841498,35.9177389 57.8601345,35.9222073 C58.1193766,35.9311443 58.3830883,35.9445498 58.6423303,35.9579553 C58.7227847,35.9624238 58.7987694,35.9668923 58.8792238,35.9713608 C59.1608143,35.9892347 59.4424047,36.0115772 59.7239952,36.0339197 C59.7686921,36.0383881 59.813389,36.0428566 59.8580859,36.0428566 C60.1933126,36.0741361 60.5330091,36.109884 60.8637661,36.1501004 L60.8727055,36.1501004 C61.1900535,36.1903169 61.5029317,36.2350018 61.8202797,36.2841552 C61.8917948,36.2930922 61.9588401,36.3064977 62.0303551,36.3199031 C62.2851275,36.3601196 62.5354301,36.4048045 62.7857327,36.4539579 C62.8617174,36.4673634 62.9377022,36.4807689 63.0136869,36.4986428 C63.2818683,36.5522647 63.5500497,36.6058866 63.8182311,36.6684455 C63.862928,36.6773825 63.9031552,36.6863195 63.9478521,36.6952565 C64.1445184,36.7399414 64.3367151,36.8025003 64.5333814,36.8516537 C64.5870177,37.7945055 64.640654,38.7865107 64.7032296,39.8097954 C62.0705823,39.7472365 59.4289957,39.6757406 56.7695302,39.6757406 Z M66.7101204,39.8544803 C66.5939084,39.0278093 66.4776965,38.2011383 66.3570149,37.3789357 C66.4598177,37.4102152 66.5626206,37.4459631 66.6609538,37.4772426 C66.7324688,37.499585 66.7995142,37.526396 66.8710292,37.5487384 C67.1168621,37.6381083 67.3626951,37.7274781 67.5995886,37.8213165 C67.6398158,37.8347219 67.6755734,37.8525959 67.7158006,37.8660014 C68.0063304,37.9821822 68.2879209,38.1028315 68.5650416,38.2279492 L68.5650416,38.2279492 C68.8287533,38.3485985 69.0879953,38.4737163 69.3472373,38.6033026 C69.4053433,38.6301135 69.4589796,38.661393 69.5170856,38.6926724 C69.7226913,38.7999162 69.9193576,38.90716 70.116024,39.0188723 C70.1785997,39.0546203 70.2367056,39.0858997 70.2948116,39.1216476 C70.504887,39.2422969 70.7104927,39.3674147 70.9116288,39.497001 C70.9473863,39.5193434 70.9831438,39.5416859 71.0144316,39.5640283 C71.1842799,39.6757406 71.3496584,39.7919214 71.5150369,39.9081022 C69.928297,39.9125707 68.3192087,39.8902283 66.7101204,39.8544803 Z M65.807243,33.7326463 C65.2530015,30.1757266 64.6451237,26.6903028 63.9880793,23.3434023 C63.9880793,23.3434023 64.0417155,27.3292972 64.3680029,33.9784133 C62.0214158,34.3403612 59.4558138,34.5414433 56.7695302,34.5414433 C53.1446118,34.5414433 49.7476475,34.1794955 46.802122,33.5405011 C46.8378795,31.9452495 46.8334098,30.4304307 46.7663644,29.0273242 C46.7663644,29.0273242 46.3417439,30.5912964 45.7159873,33.2857971 C40.1288751,31.9005645 36.4324416,29.4920473 36.4324416,26.7573302 C36.4324416,22.4631094 45.5371997,18.9776856 56.7739999,18.9776856 C68.0063304,18.9776856 77.1155582,22.4586409 77.1155582,26.7573302 C77.1110885,29.8182473 72.507308,32.459126 65.807243,33.7326463 Z M54.6106701,12.5653996 C54.6106701,11.0505808 56.0007436,9.82621395 57.7126348,9.82621395 C59.424526,9.82621395 60.8145995,11.0550493 60.8145995,12.5653996 C60.8145995,14.0802184 59.424526,15.3045852 57.7126348,15.3045852 C56.0007436,15.3045852 54.6106701,14.0757499 54.6106701,12.5653996 Z M89.9480377,34.0677832 C88.8529637,33.9962873 88.0081923,33.330482 88.0573589,32.5797753 C88.1065255,31.8290687 89.0317513,31.2794441 90.1268253,31.35094 C91.2218993,31.4224359 92.0666706,32.0882412 92.017504,32.8389479 C91.9683375,33.5896545 91.038642,34.139279 89.9480377,34.0677832 Z M93.8321981,22.5703532 C92.3393217,23.1378517 90.8151575,22.7669668 90.4262945,21.7436822 C90.0374315,20.7203975 90.9313694,19.4290033 92.4242458,18.8615048 C93.9171222,18.2940063 95.4412864,18.6648912 95.8301495,19.6881758 C96.2190125,20.7114605 95.3250745,22.0028547 93.8321981,22.5703532 Z M108.35422,23.4372406 C106.807708,14.285769 84.3072891,7.02446946 56.7695302,7.02446946 C29.2317713,7.02446946 6.73135285,14.285769 5.18930987,23.4372406 C5.1312039,23.1065722 5.09991607,22.7714353 5.09991607,22.4318299 C5.09991607,12.8111666 28.2350305,5.01364805 56.7695302,5.01364805 C85.30403,5.01364805 108.439144,12.8111666 108.439144,22.4318299 C108.439144,22.7714353 108.407857,23.1065722 108.35422,23.4372406 Z" id="Shape"></path>
                </g>
            </g>
        </g>
    </g>
</svg>