
<svg width="159px" height="168px" viewBox="0 0 159 168" version="1.1" xmlns="http://www.w3.org/2000/svg" xmlns:xlink="http://www.w3.org/1999/xlink">
    <!-- Generator: Sketch 43.1 (39012) - http://www.bohemiancoding.com/sketch -->
    <desc>Created with Sketch.</desc>
    <defs></defs>
    <g id="Page-1" stroke="none" stroke-width="1" fill="none" fill-rule="evenodd">
        <g id="Artboard-Copy-8" transform="translate(-275.000000, -133.000000)" fill="#000000">
            <g id="Page-1" transform="translate(275.000000, 133.000000)">
                <path d="M62.285478,20.9593492 C67.4116589,27.7456788 71.5402543,35.1460352 75.7957707,42.5512663 C78.2653266,40.5805306 80.5657707,38.7448912 82.9779681,36.8197679 C77.1146687,30.1326715 70.6267016,24.4051772 62.285478,20.9593492 M145.173468,102.582802 C141.201258,101.632079 137.476438,101.576717 133.955774,103.353687 C132.054748,104.313115 130.149014,105.429923 128.58255,106.847391 C125.923136,109.253882 123.388202,111.833248 121.057073,114.558504 C117.211261,119.05481 113.568557,123.724514 109.847225,128.326844 C109.765458,128.427818 109.766156,128.595121 109.661202,128.973774 C110.679534,128.464029 111.508879,128.078587 112.310679,127.642483 C115.924965,125.67697 118.911096,122.935523 121.762636,120.020854 C123.750833,117.988663 125.720899,115.932099 127.814922,114.012199 C131.263235,110.850491 135.296813,108.748837 139.911649,107.828406 C140.821715,107.647001 141.754271,107.571619 142.656491,107.36201 C143.000642,107.282102 143.448876,107.031059 143.5751,106.739627 C144.142758,105.42679 144.612435,104.071474 145.173468,102.582802 M127.832356,80.7621264 C127.277251,80.6536663 127.16236,80.6028311 127.053744,80.6139731 C120.47111,81.2831876 113.932583,82.2521907 107.461004,83.6283979 C106.593827,83.8127627 105.61106,84.1872373 105.018646,84.799001 C102.710356,87.1830342 101.045912,89.9328373 101.034406,93.4039088 C101.019761,97.7588518 101.744152,101.938657 104.074932,105.783855 C103.096175,107.729521 102.112886,109.683892 101.049399,111.798081 C103.943304,112.296684 106.658508,112.764473 109.408406,113.23818 C109.462452,115.614031 109.619185,117.804473 111.329307,119.476638 C111.495455,119.406131 111.633708,119.390114 111.700307,119.312642 C112.152899,118.785836 112.599738,118.252937 113.031932,117.709244 C116.496633,113.350819 119.923675,108.958968 124.020715,105.153289 C127.463448,101.955544 131.264455,99.3620767 135.898294,98.1834653 C135.98529,98.1613554 136.042649,98.0231254 136.145162,97.9014342 C135.624577,96.553256 135.094054,95.1796601 134.556383,93.786914 C135.123517,93.5440539 135.479873,93.3915482 135.848083,93.2338197 C135.263514,91.905314 134.634488,90.6589803 134.167251,89.3550218 C133.807758,88.3522446 133.265379,87.9121368 132.168244,87.8628684 C127.775346,87.6659689 123.808192,86.0857244 120.038392,83.9367171 C119.706794,83.7476518 119.419652,83.481115 118.9233,83.1096 C121.918149,82.3204352 124.6806,81.5927254 127.832356,80.7621264 M20.1004418,8.34298446 L19.8502609,8.63737617 C20.0416885,8.92132228 20.2339878,9.20474611 20.4250668,9.48904041 C22.9160668,13.195486 25.583501,16.7974756 27.8591885,20.6313575 C32.0039977,27.6140642 35.9076918,34.7390052 39.9280207,41.7955275 C43.8657115,48.7070301 47.9604845,55.5187772 52.9620109,61.7366922 C55.846501,65.3224912 59.000524,68.6407088 62.7476589,71.351515 C66.778797,74.2675772 71.1997641,76.2052352 76.2236062,76.5231295 C81.579047,76.8617409 86.3935043,75.5619606 90.1345372,71.4979275 C93.695126,67.6300974 93.9224681,62.6922902 90.812728,58.4485927 C88.4517872,55.2268228 85.1874056,53.4698736 81.2702872,52.9761451 C79.0854319,52.7007295 76.8566424,52.7675813 74.674751,52.4773679 C68.9214615,51.7113575 63.9720635,49.1431337 59.5516194,45.470114 C55.6006786,42.1870632 52.2738826,38.3127917 48.996774,34.3885554 C45.909001,30.6906404 42.8707411,26.9479834 39.6802806,23.3399005 C34.6848562,17.6905741 29.0532576,12.7938528 22.2528694,9.37257202 C21.5425997,9.01515855 20.8182082,8.6856 20.1004418,8.34298446 M54.4100964,94.2599254 C80.2706095,84.1245637 106.933794,78.5359959 134.250063,75.1702508 C134.496932,76.0969492 134.699517,76.8126466 134.878044,77.5342632 C135.951642,81.873886 137.17657,86.163544 139.128853,90.2079047 C139.743235,91.4808746 139.765899,91.4699067 141.499208,91.2498528 C141.457715,91.0291026 141.443593,90.8033036 141.372287,90.5973513 C139.372409,84.8205886 138.15184,78.8671212 137.290241,72.8285223 C136.30608,65.9314694 133.426297,59.9900145 128.261587,55.2313492 C123.45358,50.8015461 117.745096,48.0247585 111.472093,46.4081285 C104.300008,44.5597803 97.6755306,41.6022839 91.7050109,37.2092145 C91.4804582,37.0441741 91.2180734,36.930143 91.0280405,36.8232497 C87.0160799,38.7267855 77.4136655,46.2512705 76.2689352,48.4159461 C76.8789582,48.4540725 77.444524,48.484887 78.0093924,48.5254508 C79.3982016,48.6253803 80.8032247,48.6279917 82.1723332,48.8501347 C87.9472411,49.7872788 92.4961753,52.6115938 95.3653234,57.8014881 C96.888899,60.5577326 97.5731918,63.5336829 97.0179122,66.6957389 C96.0710602,72.0861886 92.8251589,75.7806218 88.1496523,78.2945285 C83.2945734,80.9048829 78.092728,81.310172 72.7378102,80.3129658 C67.8992938,79.4118591 63.6219845,77.2804352 59.709399,74.3553202 C59.2670931,74.0247171 58.8064813,73.718313 58.199422,73.2919585 C55.8034385,80.0998756 54.7437872,86.9255503 54.4100964,94.2599254 M76.8139286,91.5522528 C75.449353,92.3703171 74.4123661,92.9510922 73.4168727,93.5957596 C67.2564944,97.5844104 61.6587181,102.286844 56.1791457,107.141782 C55.3339352,107.890558 54.7287937,108.736651 54.255978,109.766064 C50.4213234,118.115055 44.3502082,124.250798 35.9380273,128.031233 C34.4559451,128.697488 32.9403891,129.292887 31.4780076,129.999183 C27.9261359,131.714698 24.3913497,133.465728 20.8630141,135.229467 C20.2767016,135.522466 19.7585569,135.951432 19.2090306,136.317724 C19.2670865,136.454736 19.3249681,136.591747 19.383024,136.728933 C24.4208135,134.971287 29.6179516,134.084978 35.0199418,133.424468 C34.7430865,138.258342 34.4801786,142.848137 34.2050668,147.650848 C34.9386984,147.295349 35.4421984,147.029857 35.9627839,146.802839 C38.3544089,145.759847 40.7000076,144.583847 43.1549187,143.716862 C52.4365437,140.438686 61.670922,140.13263 70.7611194,144.477476 C70.9462707,144.565741 71.1891293,144.533185 71.455001,144.562607 L71.455001,138.234491 C79.969172,140.014943 88.2246194,142.17753 96.2328497,145.673496 L96.2328497,138.975954 C103.200606,141.358421 110.164004,143.197194 117.294945,144.409231 C118.252955,138.82223 119.592948,134.645907 121.227057,132.125907 C128.672162,135.932282 136.230241,139.517559 144.137876,142.39532 C142.415376,137.524017 140.66533,132.872593 139.131294,128.151532 C137.599873,123.438479 136.854386,118.534794 136.229892,113.487656 C134.215718,114.334794 132.606017,115.375697 131.209188,116.675826 C128.959478,118.76982 126.741846,120.907511 124.634399,123.143217 C119.124491,128.98805 112.640534,133.159324 104.764978,135.056767 C100.342965,136.122044 95.8527839,136.60846 91.2668891,136.685758 C94.9990306,135.688725 98.1783332,133.729828 101.047307,131.232112 C103.890129,128.757376 106.379212,125.960742 108.810587,122.960245 C106.864231,121.252041 106.011873,119.111042 105.4083,116.86228 C101.832369,116.094703 98.266376,115.798918 94.6468595,114.959266 C96.0803003,112.165244 97.372001,109.574562 98.7397148,107.024618 C99.1640635,106.23319 99.1996293,105.578425 98.8385668,104.747826 C97.7900734,102.336634 97.2658266,99.7746777 96.9891457,97.1728539 C96.564797,93.184029 96.7626753,89.2862549 98.9874549,85.7488539 C99.0202312,85.6966259 98.9255635,85.5644891 98.890172,85.4713492 C94.7544286,85.8235399 91.1863431,87.3950798 88.2202609,90.3301181 C86.050399,92.4773845 84.3193562,94.9253098 82.9690766,97.6496953 C80.649978,102.3288 79.425922,107.323536 78.7524385,112.467644 C78.1120799,117.357923 77.9110635,122.268572 78.1230635,127.201505 C74.3750569,115.597144 73.9927247,103.841845 76.8139286,91.5522528 M2.12681678,8.70466321e-05 C6.07078388,0.0836518135 9.83395822,0.730756477 13.553024,1.65919585 C22.7321359,3.95078549 30.6831819,8.5125513 37.4213299,15.0650736 C41.1170339,18.659229 44.4886359,22.5918218 47.9219549,26.4467689 C51.8193727,30.822429 55.5358234,35.3610404 59.4970503,39.6768124 C62.1388562,42.5552705 65.3045602,44.842856 68.903853,46.4654052 C70.9501062,47.3877513 70.9499319,47.3884477 72.4480536,45.5371399 C72.4281786,45.4257202 72.4344549,45.2993285 72.3821523,45.2053181 C68.4366161,38.1019648 64.4971819,30.9855544 59.4614845,24.5745699 C57.6052641,22.211428 55.5159484,20.005144 53.3474812,17.9193326 C50.8556095,15.5222425 47.9216062,13.7539772 44.5294319,12.8436435 C44.2023661,12.7559005 43.8997082,12.5774549 43.5299286,12.417115 C61.4041786,12.9089285 75.2800668,21.1038466 86.4827674,34.4627192 C87.448274,33.8929119 88.2349056,33.4103254 89.038797,32.9590756 C89.8395503,32.5095668 90.6579122,32.0915689 91.4865602,31.6502425 C92.2498299,32.2625285 92.9147707,32.8177119 93.601853,33.3436477 C99.1658069,37.6033617 105.383892,40.4976622 112.164929,42.2279751 C117.325978,43.5448166 122.183149,45.5750922 126.605162,48.5653181 C135.174251,54.3600124 140.126264,62.3832746 141.520478,72.6384124 C142.326462,78.5648953 143.543369,84.4128622 145.686906,90.0207544 C146.444422,92.0026321 147.41481,93.9032083 148.310406,95.8904829 L141.613228,95.8904829 C142.010554,97.7309969 142.014738,97.7041865 143.608399,97.9618446 C146.024432,98.3525098 148.381363,98.9125679 150.432149,100.730972 C149.081521,104.246785 147.736297,107.748672 146.367363,111.312012 C144.84309,111.459469 143.362925,111.602748 141.810932,111.752991 C141.651583,114.046669 142.040715,116.149716 142.402126,118.246844 C143.748919,126.06102 146.297452,133.513952 149.335363,140.808634 C150.47155,143.537024 151.760287,146.202392 152.976672,148.897704 C153.209593,149.413542 153.430136,149.934951 153.789629,150.759283 C143.276277,147.95673 133.581462,143.897223 124.046343,138.824841 C122.824554,142.525368 122.3418,146.201173 122.371962,150.20967 C118.897149,150.190172 115.553965,149.586591 112.244777,148.871067 C108.922165,148.152584 105.64279,147.234417 102.156994,146.356464 C102.641317,149.397003 103.11082,152.346317 103.639774,155.668539 C102.844425,155.257853 102.312159,154.999673 101.795409,154.713289 C95.4223332,151.181285 88.7683924,148.330856 81.7017839,146.496609 C80.1428168,146.091842 78.5538628,145.801455 76.7731326,145.413575 L76.7731326,154.514475 C76.370751,154.253683 76.1678168,154.175515 76.039501,154.031192 C71.5254352,148.954284 65.7015372,146.664783 59.0740964,146.302495 C47.6733431,145.679241 38.1223595,150.036099 29.7678859,157.459436 C29.2120832,157.953339 28.6740635,158.467436 27.9808793,158.921994 C29.167626,152.261882 29.8458168,145.580008 30.2778365,138.610533 C24.8779385,139.181559 19.7582082,140.285658 14.6904319,141.685716 C9.66223125,143.07498 4.81464901,144.930815 0.199290461,147.39789 C0.132866118,147.297264 0.0664417763,147.196638 1.74342103e-05,147.096187 C0.647872697,146.481985 1.27811941,145.848634 1.94619836,145.257239 C6.48048783,141.244041 11.3686918,137.687664 16.5164911,134.524738 C22.8451095,130.636017 29.2858299,126.92696 35.7162641,123.206064 C38.2457937,121.742288 40.6314911,120.12235 42.6864615,118.03828 C44.7001128,115.99634 46.2892411,113.715892 47.4325766,111.037119 C48.7432806,107.96594 49.6838562,104.835743 50.1059385,101.542943 C50.2230964,100.628605 50.2114155,99.6914611 50.189797,98.7665036 C49.9973234,90.5306736 50.9689319,82.447001 53.3431227,74.5466487 C53.6932016,73.3814425 54.0764056,72.2228518 54.5155734,71.0888083 C54.7526786,70.4758259 54.7444845,70.026143 54.2573727,69.5282363 C46.8352806,61.9393368 41.4456687,52.9244394 36.2188924,43.8002114 C32.0379944,36.5013513 27.9439187,29.1525264 23.7138562,21.8823917 C21.1142411,17.4148104 18.1823299,13.1591005 14.7737674,9.25122902 C12.8591424,7.05608705 10.8322411,4.95512953 8.36826414,3.39072746 C6.4314977,2.16093264 4.33294178,1.1849658 2.12681678,8.70466321e-05" id="Fill-1"></path>
                <path d="M158.946076,166.834794 C158.770862,167.216928 158.595648,167.599063 158.420435,167.981198 C158.317398,167.899896 158.214013,167.818421 158.110803,167.737293 C158.401431,167.447254 158.69206,167.157389 158.982688,166.867349 L158.946076,166.834794 Z" id="Fill-3"></path>
                <path d="M39.4003395,132.14154 C39.9085467,131.885623 40.4219842,131.639455 40.9240895,131.371874 C44.3499118,129.546854 47.8412868,127.83221 51.1783691,125.857644 C54.6390599,123.809959 57.6536092,121.163567 60.246425,118.073238 C62.9475072,114.853905 64.8956059,111.294046 65.1367211,106.98663 C65.1419513,106.893142 65.2394086,106.804877 65.381323,106.568458 C66.6385039,109.41558 66.7866947,112.213607 65.9768757,115.09015 C65.0125895,118.515783 62.8652178,121.132405 60.239277,123.410415 C56.8165928,126.379401 52.8576322,128.427086 48.5981059,129.865967 C45.857448,130.791795 43.0353724,131.477549 40.2462474,132.257835 C39.9951947,132.327994 39.7171191,132.30188 39.4517704,132.320682 C39.4345105,132.260968 39.417425,132.201254 39.4003395,132.14154" id="Fill-5"></path>
                <path d="M70.4744487,121.383708 C68.639498,126.22942 66.3137743,130.722941 62.5558303,134.314137 C61.0078467,135.793582 59.1395967,136.749702 57.0785243,137.191725 C52.8910013,138.089524 48.6757579,138.859538 44.4699289,139.672206 C43.7458862,139.812002 43.0124289,139.902183 42.218998,139.805909 C42.7873533,139.551559 43.3581493,139.302257 43.9238895,139.042162 C48.0268566,137.156558 52.1775934,135.366357 56.2188434,133.357147 C61.430452,130.766291 65.7469882,127.015973 69.4583829,122.557271 C69.7892842,122.159642 70.1353533,121.774548 70.4744487,121.383708" id="Fill-7"></path>
            </g>
        </g>
    </g>
</svg>