
<svg width="260px" height="44px" viewBox="0 0 260 44" version="1.1" xmlns="http://www.w3.org/2000/svg" xmlns:xlink="http://www.w3.org/1999/xlink">
    <!-- Generator: Sketch 43.1 (39012) - http://www.bohemiancoding.com/sketch -->
    <desc>Created with Sketch.</desc>
    <defs></defs>
    <g id="Page-1" stroke="none" stroke-width="1" fill="none" fill-rule="evenodd">
        <g id="PORTFOLIO-Copy-3" transform="translate(-282.000000, -555.000000)">
            <g id="Logotype_Quitoque_P" transform="translate(282.000000, 555.000000)">
                <path d="M229.082469,11.1627083 L229.082469,27.5265833 C229.082469,32.9784583 226.316014,41.6354583 216.686384,41.6354583 C207.057213,41.6354583 204.332487,33.0165 204.332487,27.484875 L204.332487,11.1631667 L210.696296,11.1631667 L210.696296,27.7896667 C210.696296,29.1990417 210.965926,35.2737917 216.728113,35.2737917 C222.4903,35.2737917 222.717743,29.0995833 222.717743,27.7484167 L222.717743,11.1631667 L229.082469,11.1627083" id="Fill-1" fill="#282F2C"></path>
                <path d="M142.776226,35.2953333 C137.850441,35.2953333 133.857354,31.3037083 133.857354,26.3798333 C133.857354,21.4564167 137.850441,17.46525 142.776226,17.46525 C147.702469,17.46525 151.696014,21.4564167 151.696014,26.3798333 C151.696014,31.3037083 147.702469,35.2953333 142.776226,35.2953333 Z M142.776226,11.1631667 C134.368183,11.1631667 127.55224,17.9758333 127.55224,26.3798333 C127.55224,34.7842917 134.368183,41.5974167 142.776226,41.5974167 C151.184727,41.5974167 158.001129,34.7842917 158.001129,26.3798333 C158.001129,17.9758333 151.184727,11.1631667 142.776226,11.1631667 L142.776226,11.1631667 Z" id="Fill-2" fill="#282F2C"></path>
                <polyline id="Fill-3" fill="#282F2C" points="120.363492 17.524375 113.292134 17.524375 113.292134 41.5974167 106.927866 41.5974167 106.927866 17.524375 99.8565079 17.524375 99.8565079 11.1631667 120.363492 11.1631667 120.363492 17.524375"></polyline>
                <polyline id="Fill-4" fill="#282F2C" points="245.408818 17.5239167 245.408818 23.3401667 258.044727 23.3401667 258.044727 29.24075 245.408818 29.24075 245.408818 35.2362083 259.634533 35.2362083 259.634533 41.5974167 239.04455 41.5974167 239.04455 11.1631667 259.634533 11.1631667 259.634533 17.5239167 245.408818 17.5239167"></polyline>
                <path d="M83.2270547,41.5974167 C75.2894885,33.8502083 75.9915344,11.1631667 75.9915344,11.1631667 L83.2270547,11.1631667 L83.2270547,41.5974167" id="Fill-5" fill="#E37436"></path>
                <path d="M87.4150265,0.329541667 C87.4150265,0.329541667 85.7128748,1.82095833 84.3110758,3.67170833 C83.9919224,2.58270833 83.3371076,1.401125 82.1586243,0.187458333 C82.1586243,0.187458333 81.4327337,1.79575 81.1181658,3.7015 C80.1772134,2.646875 78.8281481,1.58675 76.8893827,0.659083333 C76.8893827,0.659083333 78.0518166,8.52820833 83.2050441,9.38025 C83.2050441,9.38025 89.1323104,5.91525 87.4150265,0.329541667" id="Fill-6" fill="#71B843"></path>
                <path d="M171.318907,26.3798333 C171.318907,21.4889583 175.286314,17.5239167 180.18,17.5239167 C185.073686,17.5239167 189.040176,21.4889583 189.040176,26.3798333 C189.040176,31.2711667 185.073686,35.2366667 180.18,35.2366667 C175.286314,35.2366667 171.318907,31.2711667 171.318907,26.3798333 Z M196.941058,39.601375 L192.564162,35.226125 C194.349771,32.7327917 195.404444,29.6802917 195.404444,26.3798333 C195.404444,17.9758333 188.588042,11.1631667 180.18,11.1631667 C171.771499,11.1631667 164.955556,17.9758333 164.955556,26.3798333 C164.955556,34.7842917 171.771499,41.5974167 180.18,41.5974167 C183.100988,41.5974167 185.828924,40.7737917 188.146455,39.3479167 L192.670547,43.8698333 L196.941058,39.601375 L196.941058,39.601375 Z" id="Fill-7" fill="#282F2C"></path>
                <path d="M83.2270547,41.5974167 C91.1646208,33.8502083 90.462575,11.1631667 90.462575,11.1631667 L83.2270547,11.1631667 L83.2270547,41.5974167" id="Fill-8" fill="#E98D55"></path>
                <path d="M65.4489242,11.1627083 L65.4489242,27.5265833 C65.4489242,32.9784583 62.6820106,41.6354583 53.0528395,41.6354583 C43.4232099,41.6354583 40.6984832,33.0165 40.6984832,27.484875 L40.6984832,11.1631667 L47.0627513,11.1631667 L47.0627513,27.7896667 C47.0627513,29.1990417 47.332381,35.2737917 53.0945679,35.2737917 C58.8567549,35.2737917 59.0841975,29.0995833 59.0841975,27.7484167 L59.0841975,11.1631667 L65.4489242,11.1627083" id="Fill-9" fill="#282F2C"></path>
                <path d="M6.4940388,26.3798333 C6.4940388,21.4889583 10.4609877,17.5239167 15.3546737,17.5239167 C20.2479012,17.5239167 24.2153086,21.4889583 24.2153086,26.3798333 C24.2153086,31.2711667 20.2479012,35.2366667 15.3546737,35.2366667 C10.4609877,35.2366667 6.4940388,31.2711667 6.4940388,26.3798333 Z M32.1161905,39.601375 L27.7383774,35.226125 C29.5244444,32.7327917 30.5791182,29.6802917 30.5791182,26.3798333 C30.5791182,17.9758333 23.762716,11.1631667 15.3546737,11.1631667 C6.94617284,11.1631667 0.130229277,17.9758333 0.130229277,26.3798333 C0.130229277,34.7842917 6.94617284,41.5974167 15.3546737,41.5974167 C18.2756614,41.5974167 21.0035979,40.7737917 23.3211287,39.3479167 L27.8452205,43.8698333 L32.1161905,39.601375 L32.1161905,39.601375 Z" id="Fill-10" fill="#282F2C"></path>
            </g>
        </g>
    </g>
</svg>