
<svg width="51px" height="45px" viewBox="0 0 51 45" version="1.1" xmlns="http://www.w3.org/2000/svg" xmlns:xlink="http://www.w3.org/1999/xlink">
    <!-- Generator: Sketch 43.1 (39012) - http://www.bohemiancoding.com/sketch -->
    <desc>Created with Sketch.</desc>
    <defs>
        <linearGradient x1="14.6446597%" y1="85.3553403%" x2="85.3553403%" y2="14.6446597%" id="linearGradient-1">
            <stop stop-color="#2CD18A" offset="0%"></stop>
            <stop stop-color="#89E5B9" offset="98.793%"></stop>
        </linearGradient>
    </defs>
    <g id="Page-1" stroke="none" stroke-width="1" fill="none" fill-rule="evenodd">
        <g id="PORTFOLIO-Copy-3" transform="translate(-150.000000, -479.000000)" fill-rule="nonzero">
            <g id="logo-datexis" transform="translate(150.000000, 479.000000)">
                <path d="M25.5058622,0 C16.8820613,0 9.89109154,6.97145082 9.89109154,15.5711739 C9.89109154,24.1708971 16.8820613,31.1423474 25.5058622,31.1423474 C34.1296632,31.1423474 41.1206324,24.1708966 41.1206324,15.5711739 C41.1206324,6.97145132 34.1296627,0 25.5058622,0 Z M25.5056357,4.90880033 C26.0662648,4.90883609 26.5207213,5.36206479 26.5207063,5.92112861 C26.5206914,6.48019243 26.0662107,6.93339699 25.5055816,6.933403 C24.9449525,6.93340901 24.4904621,6.48021418 24.4904351,5.92115036 C24.4904127,5.6526488 24.5973643,5.39513817 24.7877567,5.2052804 C24.978149,5.01542263 25.2363824,4.90877369 25.5056357,4.90880033 Z M26.0185245,11.1467022 C25.7352927,11.4292055 25.2760333,11.4292584 24.992736,11.1468203 C24.7094388,10.8643823 24.7093808,10.4064052 24.9926066,10.1238959 C25.2758324,9.84138656 25.7350918,9.84132391 26.0183951,10.1237559 C26.3016408,10.4062238 26.3016987,10.8641631 26.0185245,11.1467022 L26.0185245,11.1467022 Z M17.8305606,14.8377535 L17.8303501,14.8377535 L17.8305606,14.8379634 C17.9665906,14.9736051 18.0430122,15.1575798 18.0430122,15.3494122 C18.0430122,15.5412446 17.9665906,15.7252193 17.8305606,15.860861 C17.4533056,16.2371756 17.1631463,18.477629 18.0355801,19.3475943 C18.4319777,19.7429525 18.4319413,20.3838946 18.0354986,20.7792079 C17.639056,21.1745213 16.9963193,21.1745213 16.5998766,20.7792079 C16.203434,20.3838946 16.2033975,19.7429525 16.5997952,19.3475943 L16.6001184,19.3473196 C17.4721967,18.4771445 17.1821829,16.237143 16.8047824,15.8608605 C16.5215289,15.578394 16.5215289,15.1204294 16.8047824,14.8379629 L16.8051062,14.837753 L16.8047824,14.837753 C17.1821829,14.4614866 17.4723095,12.2209856 16.5999084,11.3510198 C16.2747085,11.0271223 16.2084844,10.5256771 16.4385026,10.1288629 C16.6685207,9.73204866 17.1373144,9.53900359 17.581079,9.65836011 L17.5806586,9.65766678 L17.581079,9.65782794 C18.7727843,9.97590186 20.5731442,8.60528533 20.7112042,8.09136093 L20.7115279,8.0918931 C20.7865707,7.80778204 21.0261374,7.59692083 21.318158,7.55795117 C21.6101785,7.51898151 21.8969138,7.65960858 22.044228,7.91404648 C22.1915422,8.16848438 22.170308,8.48642506 21.9904588,8.71913463 C21.8106097,8.95184419 21.5077057,9.05331078 21.2234466,8.97606791 L21.2240774,8.97722915 C20.7086653,8.83947382 18.6178415,9.70913338 18.2985669,10.8975923 L18.2978233,10.896173 C18.2522774,11.0682442 18.1617875,11.2251935 18.0355801,11.3510183 L18.0352569,11.3513406 C17.1631463,12.2214053 17.4533056,14.4615197 17.8305606,14.8377535 Z M20.6938823,13.7081483 C20.2974387,13.3128066 20.2974413,12.6718355 20.6938883,12.276497 C21.0903353,11.8811586 21.7331011,11.8811586 22.129548,12.276497 C22.525995,12.6718355 22.5259977,13.3128066 22.129554,13.7081483 C21.3319246,14.5034544 21.4779905,16.3409156 22.129554,16.99066 C22.5259356,17.3860151 22.5258921,18.0269407 22.1294568,18.4222424 C21.7330216,18.817544 21.0903015,18.817544 20.6938662,18.4222424 C20.2974309,18.0269407 20.2973875,17.3860151 20.6937691,16.99066 L20.6940923,16.9903376 C21.3454297,16.3403995 21.4912857,14.5033575 20.6938823,13.7081483 Z M21.4116618,23.4328799 C20.8510213,23.4328544 20.3965482,22.9796229 20.3965564,22.4205478 C20.3965645,21.8614726 20.8510508,21.4082543 21.4116913,21.4082451 C21.9723318,21.4082358 22.4268331,21.8614391 22.4268598,22.4205143 C22.4268828,22.689017 22.3199322,22.9465292 22.1295407,23.1363895 C21.9391492,23.3262497 21.6809163,23.4329023 21.4116618,23.4328799 Z M25.5056357,26.2335626 C24.8993278,26.2336713 24.3560681,25.8600378 24.1407383,25.2948378 C23.9254086,24.7296378 24.0828398,24.0905439 24.5362717,23.6891646 C25.2276555,22.9295673 25.6756877,21.2634892 24.9927463,20.5823909 C24.7096822,20.2968894 24.7096822,19.8374138 24.9927463,19.5519123 L24.9930701,19.5516543 C25.6961476,18.8499433 25.1996588,17.1032541 24.473226,16.3788339 C23.9030332,15.810233 23.9030333,14.888349 24.4732261,14.3197481 C25.0434189,13.7511473 25.9678841,13.7511473 26.538077,14.3197481 C27.1082698,14.888349 27.1082698,15.810233 26.5380771,16.3788339 C25.8115154,17.103367 25.3148972,18.8503625 26.0183951,19.5519123 C26.301409,19.8374012 26.3014667,20.2967992 26.0185245,20.5823587 L26.0183951,20.5823909 C25.3354865,21.2634088 25.7835187,22.9294383 26.474902,23.6890838 C26.9284103,24.0904285 27.0859066,24.7295519 26.8705897,25.2947932 C26.6552728,25.8600344 26.1119777,26.2336945 25.5056357,26.2335626 L25.5056357,26.2335626 Z M29.086753,8.78973478 C28.8792994,8.58287338 28.8172345,8.27176167 28.9294998,8.001474 C29.0417651,7.73118633 29.3062512,7.55495281 29.5996257,7.55495281 C29.8930002,7.55495281 30.1574862,7.73118633 30.2697515,8.001474 C30.3820168,8.27176167 30.319952,8.58287338 30.1124984,8.78973478 C29.7351301,9.16600074 29.4450036,11.4065022 30.317389,12.2764681 C30.713807,12.6718014 30.7137949,13.3127435 30.3173621,13.7080621 C29.9209293,14.1033806 29.2781927,14.1033806 28.8817599,13.7080621 C28.4853271,13.3127435 28.485315,12.6718014 28.881733,12.2764681 L28.8819434,12.27621 C29.7541507,11.4060353 29.4639919,9.16595305 29.086753,8.78973528 L29.086753,8.78973478 Z M30.3248774,17.7064338 C30.3248463,18.1058886 30.0001017,18.4296905 29.5995285,18.4296772 C29.1989553,18.4296639 28.8742324,18.1058404 28.874228,17.7063856 C28.8742235,17.3069309 29.1989392,16.9831002 29.5995124,16.983078 C29.7918939,16.9830791 29.9763954,17.0592906 30.112428,17.1949467 C30.2484606,17.3306028 30.324881,17.514591 30.3248774,17.7064353 L30.3248774,17.7064338 Z M34.6743658,20.3255725 C34.529301,20.8656288 33.9726935,21.1861782 33.4311142,21.0415592 L33.4300952,21.0412685 C32.5397087,20.8043705 30.8722167,21.5967892 30.580408,22.6827503 C30.4352834,23.2227843 29.8786276,23.5432508 29.3370811,23.398533 C28.7955346,23.2538153 28.4741691,22.6987148 28.6192902,22.1586798 C28.7644114,21.6186449 29.3210651,21.2981748 29.8626125,21.442889 C30.952051,21.7340119 32.4747545,20.6891622 32.7132376,19.8016166 C32.8585654,19.2618612 33.4150276,18.9416628 33.9563724,19.0862944 C34.4977171,19.2309261 34.8191113,19.7856625 34.6743658,20.3255735 L34.6743658,20.3255725 Z M34.4117022,11.3510027 C33.539269,12.220968 33.8293955,14.4614534 34.2066827,14.837736 C34.4141365,15.0445975 34.4762015,15.3557094 34.3639361,15.6259973 C34.2516708,15.8962852 33.9871845,16.0725189 33.6938098,16.0725189 C33.4004351,16.0725189 33.1359488,15.8962852 33.0236834,15.6259973 C32.9114181,15.3557094 32.973483,15.0445975 33.1809368,14.837736 C33.558289,14.4614534 33.8484317,12.220968 32.9759984,11.3510027 C32.5795888,10.9556605 32.5796101,10.3147193 32.976046,9.91940339 C33.372482,9.52408744 34.0152176,9.52408744 34.4116536,9.91940339 C34.8080895,10.3147193 34.8081108,10.9556605 34.4117012,11.3510027 L34.4117022,11.3510027 Z" id="Shape" fill="url(#linearGradient-1)"></path>
                <g id="Group" transform="translate(0.000000, 37.754117)" fill="#343434">
                    <path d="M0.153340839,6.99083244 C0.125539455,6.99252401 0.098345055,6.98224751 0.0786499006,6.96260744 C0.0589547462,6.94296737 0.0486493332,6.91584894 0.0503455084,6.88812517 L0.0503455084,0.104526691 C0.0486493332,0.0768029206 0.0589547462,0.0496844979 0.0786499006,0.0300444288 C0.098345055,0.0104043597 0.125539455,0.000127852157 0.153340839,0.00181942713 L2.74038053,0.00181942713 C4.35854206,0.135493602 5.57481554,1.70784815 5.40971298,3.49619741 C5.57481554,5.28480522 4.35854206,6.85715927 2.74038053,6.99083394 L0.153340839,6.99083394 L0.153340839,6.99083244 Z M0.256335666,6.78515935 L2.7300295,6.78515935 C4.23484466,6.65174273 5.34786453,5.1818384 5.20372282,3.50651854 L5.20372282,3.48613081 C5.34786453,1.81081095 4.23484466,0.340906121 2.7300295,0.207231946 L0.256335666,0.207231946 L0.256335666,6.78515935 Z" id="Shape"></path>
                    <path d="M8.49050819,6.92915617 L8.4700649,6.99083244 L8.24311339,6.99083244 L8.30496184,6.84683562 L11.2941489,0.0634951952 C11.3129888,0.0301360757 11.3483998,0.00949616654 11.3867927,0.00949616654 C11.4251855,0.00949616654 11.4605965,0.0301360757 11.4794364,0.0634951952 L14.468623,6.84683562 L14.5304719,6.99083244 L14.3035204,6.99083244 L14.2830766,6.92915617 L11.3867947,0.361551899 L8.49050819,6.92915617 Z" id="Shape"></path>
                    <polygon id="Shape" points="19.7449214 0.00181792098 22.311259 0.00181792098 22.311259 0.20723295 19.7449214 0.20723295 19.7449214 6.99083244 19.5386724 6.99083244 19.5386724 0.20723295 16.9518915 0.20723295 16.9518915 0.00181792098"></polygon>
                    <path d="M30.4527897,0.00181792098 L30.5557851,0.00181792098 L30.5557851,0.20723295 L25.8146478,0.20723295 L25.8146478,3.39348964 L29.2880147,3.39348964 L29.2880147,3.59916272 L25.8146478,3.59916272 L25.8146478,6.78516036 L30.5557851,6.78516036 L30.5557851,6.99083344 L25.7116495,6.99083344 C25.6838482,6.99252487 25.6566539,6.98224829 25.6369589,6.96260824 C25.6172639,6.94296819 25.6069585,6.91584986 25.6086547,6.88812618 L25.6086547,0.104526691 C25.6069585,0.0768030133 25.6172639,0.0496846783 25.6369589,0.0300446272 C25.6566539,0.010404576 25.6838482,0.000128002167 25.7116495,0.00181942712 L30.4527897,0.00181792098 Z" id="Shape"></path>
                    <polygon id="Shape" points="36.1207525 3.18033251 38.4089 0.0428499186 38.4396948 0.00181892508 38.6974412 0.00181892508 38.5737423 0.166202459 36.2480718 3.35503868 38.7799912 6.82644991 38.9034298 6.99083344 38.6459423 6.99083344 38.6148886 6.94980195 36.1207525 3.52974385 33.6263566 6.94980094 33.5955613 6.99083244 33.3378149 6.99083244 33.4615138 6.8264489 35.9931745 3.35503768 33.6677628 0.166201455 33.5440639 0.00181792098 33.8018102 0.00181792098 33.8326055 0.0428489145"></polygon>
                    <polygon id="Shape" points="42.2111786 0.104526691 42.2111786 0.00181942713 42.4824473 0.00181942713 42.4824473 6.99083244 42.2111786 6.99083244"></polygon>
                    <path d="M50.7447614,1.80048982 L50.7447614,1.90319708 L50.5387712,1.90319708 L50.5387712,1.80048982 C50.5387712,0.906314688 49.6110389,0.20723295 48.487668,0.20723295 C47.3642971,0.20723295 46.4365648,0.906314688 46.4365648,1.80048982 C46.4365648,3.383166 50.9714541,3.383166 50.9613618,5.19216054 C50.9613618,6.14801244 49.8584342,6.99083244 48.487668,6.99083244 C47.0858477,6.99083244 46.0139747,6.15833408 46.0139747,5.19216054 L46.0139747,5.08945277 L46.2202236,5.08945277 L46.2202236,5.19216054 C46.2202236,6.07601303 47.250692,6.78515935 48.487668,6.78515935 C49.6935904,6.78515935 50.7551129,6.06569039 50.7551129,5.19216054 C50.7551129,3.57851695 46.2406669,3.59916172 46.2305746,1.80048982 C46.2305746,0.823994145 47.2198966,0.00181792098 48.487668,0.00181792098 C49.7554394,0.00181792098 50.7447614,0.823994145 50.7447614,1.80048982 Z" id="Shape"></path>
                </g>
            </g>
        </g>
    </g>
</svg>