
<svg width="116px" height="30px" viewBox="0 0 116 30" version="1.1" xmlns="http://www.w3.org/2000/svg" xmlns:xlink="http://www.w3.org/1999/xlink">
    <!-- Generator: Sketch 43.1 (39012) - http://www.bohemiancoding.com/sketch -->
    <desc>Created with Sketch.</desc>
    <defs></defs>
    <g id="Page-1" stroke="none" stroke-width="1" fill="none" fill-rule="evenodd">
        <g id="PORTFOLIO-Copy-3" transform="translate(-611.000000, -488.000000)" fill-rule="nonzero" fill="#000000">
            <g id="tinyclues-logo-header" transform="translate(611.000000, 488.000000)">
                <path d="M5.211,4.569 L5.774,4.569 L5.774,9.478 L9.436,9.478 L9.436,10.283 L5.834,10.283 C5.834,10.283 5.713,18.431 5.774,19.598 C5.884,21.732 7.866,22.858 10.12,20.564 C10.236,20.446 10.422,20.886 10.422,20.886 C10.422,20.886 9.154,22.94 6.036,22.938 C3.419,22.936 2.374,21.107 2.374,19.095 L2.374,10.222 L0,10.222 L0,9.619 C0.604,9.699 4.346,9.096 5.211,4.569" id="Shape"></path>
                <path d="M116,4.972 C116,6.07 115.111,6.959 114.014,6.959 C112.917,6.959 112.026,6.069 112.026,4.972 C112.026,3.875 112.917,2.985 114.014,2.985 C115.111,2.985 116,3.874 116,4.972" id="Shape"></path>
                <polygon id="Shape" points="10.726 9.444 15.942 9.444 15.942 21.628 18.242 21.628 18.242 22.337 12.598 22.337 12.598 10.14 10.726 10.14"></polygon>
                <path d="M18.603,9.444 L24.233,9.444 L24.233,12.293 L24.38,12.293 C24.38,12.293 25.583,9.232 29.396,9.23 C32.89,9.228 33.127,11.597 33.167,12.667 C33.207,13.737 33.167,21.614 33.167,21.614 L35.547,21.614 L35.547,22.337 L29.837,22.337 L29.837,12.975 C29.837,12.975 30.091,10.3 28.004,10.29 C27.631,10.288 24.403,10.781 24.294,15.518 C24.219,18.753 24.26,21.642 24.26,21.642 L26.266,21.642 L26.266,22.337 L20.863,22.337 L20.863,10.193 L18.603,10.193 L18.603,9.444 L18.603,9.444 Z" id="Shape"></path>
                <polygon id="Shape" points="34.411 9.458 41.847 9.458 41.847 10.166 39.828 10.166 43.545 18.552 47.103 10.18 45.017 10.18 45.017 9.458 49.804 9.458 49.804 10.126 48.173 10.126 39.333 30 38.503 29.719 41.753 22.337 36.136 10.166 34.411 10.166"></polygon>
                <polygon id="Shape" points="61.266 0.511 61.266 1.18 63.619 1.18 63.619 22.337 69.479 22.337 69.479 21.642 67.029 21.642 67.029 0.085"></polygon>
                <path d="M56.271,9.799 C56.732,9.819 57.906,9.9 58.297,10.361 C58.688,10.823 58.635,11.241 58.398,11.444 C58.001,11.786 57.275,12.538 57.726,13.611 C58.177,14.684 60.042,14.489 60.544,13.922 C61.427,12.929 61.357,11.475 60.358,10.609 C58.905,9.348 57.615,9.21 56.111,9.221 C52.489,9.248 49.417,12.027 49.461,15.949 C49.511,20.423 52.601,22.86 55.9,22.86 C57.866,22.86 60.876,21.897 61.426,18.381 L60.754,18.365 C60.635,18.556 60.063,22.142 56.191,22.096 C54.476,22.076 53.252,21.365 53.252,18.857 C53.252,16.349 53.257,13.761 53.252,13.581 C53.247,13.401 53.141,9.668 56.271,9.799" id="Shape"></path>
                <path d="M110.115,11.123 L109.472,11.564 C109.472,11.564 108.72,9.798 106.161,9.869 C103.604,9.939 103.423,11.393 103.423,11.393 C103.423,11.393 102.517,13.363 105.972,13.92 C109.535,14.496 111.027,15.535 111.027,18.264 C111.027,21.106 109.382,22.836 106.373,22.837 C104.625,22.838 103.072,21.463 103.072,21.463 L102.06,22.376 L101.609,22.366 L101.609,17.742 L102.371,17.742 C102.371,17.742 102.912,22.195 106.494,22.175 C109.812,22.156 109.652,19.497 109.652,19.497 C109.652,19.497 110.088,17.837 105.922,17.351 C101.822,16.872 101.756,14.331 101.76,13.148 C101.762,12.039 102.551,9.286 106.319,9.236 C109.338,9.197 110.115,11.123 110.115,11.123" id="Shape"></path>
                <path d="M86.422,22.35 L80.791,22.35 L80.791,19.74 L80.625,19.729 C80.625,19.729 79.441,22.877 75.629,22.838 C71.697,22.798 71.858,20.268 71.818,19.197 C71.777,18.127 71.857,10.179 71.857,10.179 L69.705,10.179 L69.705,9.458 L75.187,9.458 L75.187,19.989 C75.187,19.989 75.109,21.84 76.5,21.901 C77.967,21.965 80.705,20.841 80.73,16.277 C80.75,13.04 80.765,10.153 80.765,10.153 L78.29,10.153 L78.29,9.458 L84.161,9.458 L84.161,21.602 L86.421,21.602 L86.421,22.35 L86.422,22.35 Z" id="Shape"></path>
                <path d="M98.953,18.361 C98.953,18.361 97.887,22.257 94.166,22.156 C92.014,22.098 91.137,21.123 91.137,18.505 L91.137,15.095 L99.252,15.095 C99.252,15.095 99.531,15.186 99.592,14.663 C99.653,14.142 99.274,9.238 93.756,9.235 C89.172,9.234 87.215,13.61 87.287,16.238 C87.338,18.124 88.6,22.788 93.584,22.839 C96.262,22.865 98.939,21.557 99.643,18.355 L98.953,18.361 Z M91.127,12.497 C91.127,11.865 91.117,9.858 93.695,9.778 C96.271,9.698 96.041,12.306 96.041,12.306 L96.041,14.362 L91.127,14.362 L91.127,12.497 Z" id="Shape"></path>
            </g>
        </g>
    </g>
</svg>